%TF.GenerationSoftware,KiCad,Pcbnew,8.0.4*%
%TF.CreationDate,2024-08-12T16:36:46-06:00*%
%TF.ProjectId,eTerrena,65546572-7265-46e6-912e-6b696361645f,rev?*%
%TF.SameCoordinates,Original*%
%TF.FileFunction,Copper,L1,Top*%
%TF.FilePolarity,Positive*%
%FSLAX46Y46*%
G04 Gerber Fmt 4.6, Leading zero omitted, Abs format (unit mm)*
G04 Created by KiCad (PCBNEW 8.0.4) date 2024-08-12 16:36:46*
%MOMM*%
%LPD*%
G01*
G04 APERTURE LIST*
G04 Aperture macros list*
%AMRoundRect*
0 Rectangle with rounded corners*
0 $1 Rounding radius*
0 $2 $3 $4 $5 $6 $7 $8 $9 X,Y pos of 4 corners*
0 Add a 4 corners polygon primitive as box body*
4,1,4,$2,$3,$4,$5,$6,$7,$8,$9,$2,$3,0*
0 Add four circle primitives for the rounded corners*
1,1,$1+$1,$2,$3*
1,1,$1+$1,$4,$5*
1,1,$1+$1,$6,$7*
1,1,$1+$1,$8,$9*
0 Add four rect primitives between the rounded corners*
20,1,$1+$1,$2,$3,$4,$5,0*
20,1,$1+$1,$4,$5,$6,$7,0*
20,1,$1+$1,$6,$7,$8,$9,0*
20,1,$1+$1,$8,$9,$2,$3,0*%
G04 Aperture macros list end*
%TA.AperFunction,ComponentPad*%
%ADD10C,1.600000*%
%TD*%
%TA.AperFunction,ComponentPad*%
%ADD11C,1.530000*%
%TD*%
%TA.AperFunction,ComponentPad*%
%ADD12C,6.000000*%
%TD*%
%TA.AperFunction,ComponentPad*%
%ADD13R,1.308000X1.308000*%
%TD*%
%TA.AperFunction,ComponentPad*%
%ADD14C,1.308000*%
%TD*%
%TA.AperFunction,ComponentPad*%
%ADD15RoundRect,0.250000X0.620000X0.845000X-0.620000X0.845000X-0.620000X-0.845000X0.620000X-0.845000X0*%
%TD*%
%TA.AperFunction,ComponentPad*%
%ADD16O,1.740000X2.190000*%
%TD*%
%TA.AperFunction,ComponentPad*%
%ADD17C,1.727200*%
%TD*%
%TA.AperFunction,ComponentPad*%
%ADD18R,1.727200X1.727200*%
%TD*%
%TA.AperFunction,ComponentPad*%
%ADD19RoundRect,0.250000X-0.615000X0.265000X-0.615000X-0.265000X0.615000X-0.265000X0.615000X0.265000X0*%
%TD*%
%TA.AperFunction,ComponentPad*%
%ADD20O,1.730000X1.030000*%
%TD*%
%TA.AperFunction,ComponentPad*%
%ADD21R,1.700000X1.700000*%
%TD*%
%TA.AperFunction,ComponentPad*%
%ADD22C,1.700000*%
%TD*%
%TA.AperFunction,ComponentPad*%
%ADD23R,1.905000X2.000000*%
%TD*%
%TA.AperFunction,ComponentPad*%
%ADD24O,1.905000X2.000000*%
%TD*%
%TA.AperFunction,ViaPad*%
%ADD25C,0.600000*%
%TD*%
%TA.AperFunction,Conductor*%
%ADD26C,0.200000*%
%TD*%
%TA.AperFunction,Conductor*%
%ADD27C,1.000000*%
%TD*%
G04 APERTURE END LIST*
D10*
%TO.P,cElectrolitico1,1*%
%TO.N,3.3v*%
X180650000Y-108825000D03*
%TO.P,cElectrolitico1,2*%
%TO.N,GND*%
X178650000Y-108825000D03*
%TD*%
%TO.P,cCeramicoDisco2,1*%
%TO.N,Net-(regulador3V1-Vin)*%
X162000000Y-108500000D03*
%TO.P,cCeramicoDisco2,2*%
%TO.N,GND*%
X167000000Y-108500000D03*
%TD*%
D11*
%TO.P,microSDBreakoutboard+1,1,CD*%
%TO.N,unconnected-(microSDBreakoutboard+1-CD-Pad1)*%
X148366000Y-78950000D03*
%TO.P,microSDBreakoutboard+1,2,CS*%
%TO.N,Net-(microSDBreakoutboard+1-CS)*%
X148366000Y-81490000D03*
%TO.P,microSDBreakoutboard+1,3,DI*%
%TO.N,Net-(Radio1-MOSI)*%
X148366000Y-84030000D03*
%TO.P,microSDBreakoutboard+1,4,DO*%
%TO.N,Net-(Radio1-MISO)*%
X148366000Y-86570000D03*
%TO.P,microSDBreakoutboard+1,5,CLK*%
%TO.N,Net-(Radio1-SCK)*%
X148366000Y-89110000D03*
%TO.P,microSDBreakoutboard+1,6,GND*%
%TO.N,GND*%
X148366000Y-91650000D03*
%TO.P,microSDBreakoutboard+1,7,3V*%
%TO.N,unconnected-(microSDBreakoutboard+1-3V-Pad7)*%
X148366000Y-94190000D03*
%TO.P,microSDBreakoutboard+1,8,5V*%
%TO.N,+3.3V*%
X148366000Y-96730000D03*
%TD*%
D12*
%TO.P,tornillo2,2*%
%TO.N,N/C*%
X206450000Y-73500000D03*
%TD*%
D13*
%TO.P,Switch1,1,1*%
%TO.N,+9V*%
X169100000Y-81000000D03*
D14*
%TO.P,Switch1,2,2*%
%TO.N,Net-(regulador3V1-Vin)*%
X171100000Y-81000000D03*
%TO.P,Switch1,3,3*%
%TO.N,unconnected-(Switch1-Pad3)*%
X173100000Y-81000000D03*
%TD*%
D10*
%TO.P,cCeramicoDisco1,1*%
%TO.N,Net-(regulador3V1-Vin)*%
X162000000Y-101000000D03*
%TO.P,cCeramicoDisco1,2*%
%TO.N,GND*%
X167000000Y-101000000D03*
%TD*%
D15*
%TO.P,SocketEntrada1,1,Pin_1*%
%TO.N,+9V*%
X197600000Y-90000000D03*
D16*
%TO.P,SocketEntrada1,2,Pin_2*%
%TO.N,GND*%
X195060000Y-90000000D03*
%TD*%
D12*
%TO.P,tornillo1,1*%
%TO.N,N/C*%
X85875000Y-74250000D03*
%TD*%
D17*
%TO.P,ArduinoMini5,5V1,5V*%
%TO.N,+3.3V*%
X110700000Y-115620000D03*
%TO.P,ArduinoMini5,5V2,SPI_5V*%
%TO.N,unconnected-(ArduinoMini5-SPI_5V-Pad5V2)*%
X105620000Y-108000000D03*
%TO.P,ArduinoMini5,5V3*%
%TO.N,N/C*%
X105620000Y-135940000D03*
%TO.P,ArduinoMini5,A0,A0*%
%TO.N,unconnected-(ArduinoMini5-PadA0)*%
X110700000Y-125780000D03*
%TO.P,ArduinoMini5,A1,A1*%
%TO.N,unconnected-(ArduinoMini5-PadA1)*%
X110700000Y-123240000D03*
%TO.P,ArduinoMini5,A2,A2*%
%TO.N,unconnected-(ArduinoMini5-PadA2)*%
X110700000Y-120700000D03*
%TO.P,ArduinoMini5,A3,A3*%
%TO.N,unconnected-(ArduinoMini5-PadA3)*%
X110700000Y-118160000D03*
%TO.P,ArduinoMini5,A4,A4*%
%TO.N,unconnected-(ArduinoMini5-PadA4)*%
X98000000Y-135940000D03*
%TO.P,ArduinoMini5,A5,A5*%
%TO.N,unconnected-(ArduinoMini5-PadA5)*%
X100540000Y-135940000D03*
%TO.P,ArduinoMini5,A6*%
%TO.N,N/C*%
X98000000Y-133400000D03*
%TO.P,ArduinoMini5,A7*%
X100540000Y-133400000D03*
%TO.P,ArduinoMini5,D0,D0/RX*%
%TO.N,TX FT232RL*%
X95460000Y-110540000D03*
%TO.P,ArduinoMini5,D1,D1/TX*%
%TO.N,RX FT232RL*%
X95460000Y-108000000D03*
%TO.P,ArduinoMini5,D2,D2*%
%TO.N,unconnected-(ArduinoMini5-PadD2)*%
X95460000Y-118160000D03*
%TO.P,ArduinoMini5,D3,D3*%
%TO.N,unconnected-(ArduinoMini5-PadD3)*%
X95460000Y-120700000D03*
%TO.P,ArduinoMini5,D4,D4*%
%TO.N,Net-(microSDBreakoutboard+1-CS)*%
X95460000Y-123240000D03*
%TO.P,ArduinoMini5,D5,D5*%
%TO.N,unconnected-(ArduinoMini5-PadD5)*%
X95460000Y-125780000D03*
%TO.P,ArduinoMini5,D6,D6*%
%TO.N,unconnected-(ArduinoMini5-PadD6)*%
X95460000Y-128320000D03*
%TO.P,ArduinoMini5,D7,D7*%
%TO.N,Net-(Radio1-~{CSN})*%
X95460000Y-130860000D03*
%TO.P,ArduinoMini5,D8,D8*%
%TO.N,Net-(Radio1-CE)*%
X95460000Y-133400000D03*
%TO.P,ArduinoMini5,D9,D9*%
%TO.N,unconnected-(ArduinoMini5-PadD9)*%
X95460000Y-135940000D03*
%TO.P,ArduinoMini5,D10,D10_CS*%
%TO.N,unconnected-(ArduinoMini5-D10_CS-PadD10)*%
X110700000Y-135940000D03*
%TO.P,ArduinoMini5,D11,D11*%
%TO.N,Net-(Radio1-MOSI)*%
X110700000Y-133400000D03*
%TO.P,ArduinoMini5,D12,D12*%
%TO.N,Net-(Radio1-MISO)*%
X110700000Y-130860000D03*
%TO.P,ArduinoMini5,D13,D13*%
%TO.N,Net-(Radio1-SCK)*%
X110700000Y-128320000D03*
D18*
%TO.P,ArduinoMini5,GND2,GND*%
%TO.N,unconnected-(ArduinoMini5-GND-PadGND2)*%
X110700000Y-110540000D03*
%TO.P,ArduinoMini5,GND3,GND*%
%TO.N,unconnected-(ArduinoMini5-GND-PadGND3)*%
X108160000Y-108000000D03*
%TO.P,ArduinoMini5,GND4,SPI_GND*%
%TO.N,unconnected-(ArduinoMini5-SPI_GND-PadGND4)*%
X108160000Y-135940000D03*
D17*
%TO.P,ArduinoMini5,L0*%
%TO.N,N/C*%
X95460000Y-113080000D03*
%TO.P,ArduinoMini5,L1*%
X95460000Y-115620000D03*
%TO.P,ArduinoMini5,L2*%
X98000000Y-108000000D03*
%TO.P,ArduinoMini5,RST2,SPI_RESET*%
%TO.N,unconnected-(ArduinoMini5-SPI_RESET-PadRST2)*%
X110700000Y-113080000D03*
%TO.P,ArduinoMini5,RX*%
%TO.N,N/C*%
X103080000Y-108000000D03*
%TO.P,ArduinoMini5,TX*%
X100540000Y-108000000D03*
%TO.P,ArduinoMini5,VIN,VIN*%
%TO.N,unconnected-(ArduinoMini5-PadVIN)*%
X110700000Y-108000000D03*
%TD*%
D19*
%TO.P,conectorFT232RL1,1,Pin_1*%
%TO.N,GND*%
X88925000Y-105975000D03*
D20*
%TO.P,conectorFT232RL1,2,Pin_2*%
%TO.N,+3.3V*%
X88925000Y-107475000D03*
%TO.P,conectorFT232RL1,3,Pin_3*%
%TO.N,TX FT232RL*%
X88925000Y-108975000D03*
%TO.P,conectorFT232RL1,4,Pin_4*%
%TO.N,RX FT232RL*%
X88925000Y-110475000D03*
%TD*%
D12*
%TO.P,tornillo3,3*%
%TO.N,N/C*%
X85875000Y-140500000D03*
%TD*%
D21*
%TO.P,Radio1,1,GND*%
%TO.N,GND*%
X124880000Y-136040000D03*
D22*
%TO.P,Radio1,2,VCC*%
%TO.N,+3.3V*%
X124880000Y-133500000D03*
%TO.P,Radio1,3,CE*%
%TO.N,Net-(Radio1-CE)*%
X127420000Y-136040000D03*
%TO.P,Radio1,4,~{CSN}*%
%TO.N,Net-(Radio1-~{CSN})*%
X127420000Y-133500000D03*
%TO.P,Radio1,5,SCK*%
%TO.N,Net-(Radio1-SCK)*%
X129960000Y-136040000D03*
%TO.P,Radio1,6,MOSI*%
%TO.N,Net-(Radio1-MOSI)*%
X129960000Y-133500000D03*
%TO.P,Radio1,7,MISO*%
%TO.N,Net-(Radio1-MISO)*%
X132500000Y-136040000D03*
%TO.P,Radio1,8,IRQ*%
%TO.N,unconnected-(Radio1-IRQ-Pad8)*%
X132500000Y-133500000D03*
%TD*%
D23*
%TO.P,regulador3V1,1,GND*%
%TO.N,GND*%
X173540000Y-122000000D03*
D24*
%TO.P,regulador3V1,2,Vout*%
%TO.N,3.3v*%
X171000000Y-122000000D03*
%TO.P,regulador3V1,3,Vin*%
%TO.N,Net-(regulador3V1-Vin)*%
X168460000Y-122000000D03*
%TD*%
D23*
%TO.P,regulador5v1,1,IN*%
%TO.N,Net-(regulador3V1-Vin)*%
X168520000Y-91000000D03*
D24*
%TO.P,regulador5v1,2,GND*%
%TO.N,GND*%
X171060000Y-91000000D03*
%TO.P,regulador5v1,3,OUT*%
%TO.N,5v*%
X173600000Y-91000000D03*
%TD*%
D12*
%TO.P,tornillo4,4*%
%TO.N,N/C*%
X206450000Y-140125000D03*
%TD*%
D10*
%TO.P,CElectrolitico2,1*%
%TO.N,5v*%
X180650000Y-100325000D03*
%TO.P,CElectrolitico2,2*%
%TO.N,GND*%
X178650000Y-100325000D03*
%TD*%
D25*
%TO.N,GND*%
X120000000Y-146500000D03*
X126875000Y-126500000D03*
X81975000Y-107225000D03*
X85900000Y-105750000D03*
X126187115Y-132950000D03*
X120000000Y-138400000D03*
%TD*%
D26*
%TO.N,GND*%
X126187115Y-127187885D02*
X126675000Y-126700000D01*
D27*
X82175000Y-105650000D02*
X81975000Y-105850000D01*
D26*
X126675000Y-126700000D02*
X126875000Y-126500000D01*
X126187115Y-132950000D02*
X126187115Y-127187885D01*
D27*
X85900000Y-105750000D02*
X82275000Y-105750000D01*
X82275000Y-105750000D02*
X82175000Y-105650000D01*
X120000000Y-138950000D02*
X120000000Y-138400000D01*
X120000000Y-146500000D02*
X120000000Y-138950000D01*
X81975000Y-105850000D02*
X81975000Y-107225000D01*
%TD*%
M02*
