%TF.GenerationSoftware,KiCad,Pcbnew,8.0.4*%
%TF.CreationDate,2024-08-12T16:36:51-06:00*%
%TF.ProjectId,eTerrena,65546572-7265-46e6-912e-6b696361645f,rev?*%
%TF.SameCoordinates,Original*%
%TF.FileFunction,Drillmap*%
%TF.FilePolarity,Positive*%
%FSLAX45Y45*%
G04 Gerber Fmt 4.5, Leading zero omitted, Abs format (unit mm)*
G04 Created by KiCad (PCBNEW 8.0.4) date 2024-08-12 16:36:51*
%MOMM*%
%LPD*%
G01*
G04 APERTURE LIST*
%ADD10C,0.050000*%
%ADD11C,0.200000*%
%ADD12C,0.100000*%
%ADD13C,0.101600*%
%ADD14C,0.102000*%
%ADD15C,0.110000*%
%ADD16C,0.119000*%
%ADD17C,0.300000*%
G04 APERTURE END LIST*
D10*
X7900000Y-6700000D02*
X21300000Y-6700000D01*
X21300000Y-14750000D01*
X7900000Y-14750000D01*
X7900000Y-6700000D01*
D11*
D12*
X8182500Y-10707500D02*
X8212500Y-10737500D01*
X8212500Y-10707500D02*
X8182500Y-10737500D01*
X8575000Y-10560000D02*
X8605000Y-10590000D01*
X8605000Y-10560000D02*
X8575000Y-10590000D01*
X11985000Y-13825000D02*
X12015000Y-13855000D01*
X12015000Y-13825000D02*
X11985000Y-13855000D01*
X11985000Y-14635000D02*
X12015000Y-14665000D01*
X12015000Y-14635000D02*
X11985000Y-14665000D01*
X12603711Y-13280000D02*
X12633711Y-13310000D01*
X12633711Y-13280000D02*
X12603711Y-13310000D01*
X12672500Y-12635000D02*
X12702500Y-12665000D01*
X12702500Y-12635000D02*
X12672500Y-12665000D01*
X8929000Y-10597500D02*
G75*
G02*
X8856000Y-10597500I-36500J0D01*
G01*
X8856000Y-10597500D02*
G75*
G02*
X8929000Y-10597500I36500J0D01*
G01*
X8929000Y-10747500D02*
G75*
G02*
X8856000Y-10747500I-36500J0D01*
G01*
X8856000Y-10747500D02*
G75*
G02*
X8929000Y-10747500I36500J0D01*
G01*
X8929000Y-10897500D02*
G75*
G02*
X8856000Y-10897500I-36500J0D01*
G01*
X8856000Y-10897500D02*
G75*
G02*
X8929000Y-10897500I36500J0D01*
G01*
X8929000Y-11047500D02*
G75*
G02*
X8856000Y-11047500I-36500J0D01*
G01*
X8856000Y-11047500D02*
G75*
G02*
X8929000Y-11047500I36500J0D01*
G01*
X16200000Y-10060000D02*
X16200000Y-10140000D01*
X16160000Y-10100000D02*
X16240000Y-10100000D01*
X16200000Y-10810000D02*
X16200000Y-10890000D01*
X16160000Y-10850000D02*
X16240000Y-10850000D01*
X16700000Y-10060000D02*
X16700000Y-10140000D01*
X16660000Y-10100000D02*
X16740000Y-10100000D01*
X16700000Y-10810000D02*
X16700000Y-10890000D01*
X16660000Y-10850000D02*
X16740000Y-10850000D01*
X16910000Y-8060000D02*
X16910000Y-8140000D01*
X16870000Y-8100000D02*
X16950000Y-8100000D01*
X17110000Y-8060000D02*
X17110000Y-8140000D01*
X17070000Y-8100000D02*
X17150000Y-8100000D01*
X17310000Y-8060000D02*
X17310000Y-8140000D01*
X17270000Y-8100000D02*
X17350000Y-8100000D01*
X17865000Y-9992500D02*
X17865000Y-10072500D01*
X17825000Y-10032500D02*
X17905000Y-10032500D01*
X17865000Y-10842500D02*
X17865000Y-10922500D01*
X17825000Y-10882500D02*
X17905000Y-10882500D01*
X18065000Y-9992500D02*
X18065000Y-10072500D01*
X18025000Y-10032500D02*
X18105000Y-10032500D01*
X18065000Y-10842500D02*
X18065000Y-10922500D01*
X18025000Y-10882500D02*
X18105000Y-10882500D01*
X12523356Y-13385356D02*
X12523356Y-13314644D01*
X12452644Y-13314644D01*
X12452644Y-13385356D01*
X12523356Y-13385356D01*
X12523356Y-13639356D02*
X12523356Y-13568644D01*
X12452644Y-13568644D01*
X12452644Y-13639356D01*
X12523356Y-13639356D01*
X12777356Y-13385356D02*
X12777356Y-13314644D01*
X12706644Y-13314644D01*
X12706644Y-13385356D01*
X12777356Y-13385356D01*
X12777356Y-13639356D02*
X12777356Y-13568644D01*
X12706644Y-13568644D01*
X12706644Y-13639356D01*
X12777356Y-13639356D01*
X13031356Y-13385356D02*
X13031356Y-13314644D01*
X12960644Y-13314644D01*
X12960644Y-13385356D01*
X13031356Y-13385356D01*
X13031356Y-13639356D02*
X13031356Y-13568644D01*
X12960644Y-13568644D01*
X12960644Y-13639356D01*
X13031356Y-13639356D01*
X13285356Y-13385356D02*
X13285356Y-13314644D01*
X13214644Y-13314644D01*
X13214644Y-13385356D01*
X13285356Y-13385356D01*
X13285356Y-13639356D02*
X13285356Y-13568644D01*
X13214644Y-13568644D01*
X13214644Y-13639356D01*
X13285356Y-13639356D01*
D13*
X9546000Y-10850800D02*
X9596800Y-10800000D01*
X9546000Y-10749200D01*
X9495200Y-10800000D01*
X9546000Y-10850800D01*
X9546000Y-11104800D02*
X9596800Y-11054000D01*
X9546000Y-11003200D01*
X9495200Y-11054000D01*
X9546000Y-11104800D01*
X9546000Y-11358800D02*
X9596800Y-11308000D01*
X9546000Y-11257200D01*
X9495200Y-11308000D01*
X9546000Y-11358800D01*
X9546000Y-11612800D02*
X9596800Y-11562000D01*
X9546000Y-11511200D01*
X9495200Y-11562000D01*
X9546000Y-11612800D01*
X9546000Y-11866800D02*
X9596800Y-11816000D01*
X9546000Y-11765200D01*
X9495200Y-11816000D01*
X9546000Y-11866800D01*
X9546000Y-12120800D02*
X9596800Y-12070000D01*
X9546000Y-12019200D01*
X9495200Y-12070000D01*
X9546000Y-12120800D01*
X9546000Y-12374800D02*
X9596800Y-12324000D01*
X9546000Y-12273200D01*
X9495200Y-12324000D01*
X9546000Y-12374800D01*
X9546000Y-12628800D02*
X9596800Y-12578000D01*
X9546000Y-12527200D01*
X9495200Y-12578000D01*
X9546000Y-12628800D01*
X9546000Y-12882800D02*
X9596800Y-12832000D01*
X9546000Y-12781200D01*
X9495200Y-12832000D01*
X9546000Y-12882800D01*
X9546000Y-13136800D02*
X9596800Y-13086000D01*
X9546000Y-13035200D01*
X9495200Y-13086000D01*
X9546000Y-13136800D01*
X9546000Y-13390800D02*
X9596800Y-13340000D01*
X9546000Y-13289200D01*
X9495200Y-13340000D01*
X9546000Y-13390800D01*
X9546000Y-13644800D02*
X9596800Y-13594000D01*
X9546000Y-13543200D01*
X9495200Y-13594000D01*
X9546000Y-13644800D01*
X9800000Y-10850800D02*
X9850800Y-10800000D01*
X9800000Y-10749200D01*
X9749200Y-10800000D01*
X9800000Y-10850800D01*
X9800000Y-13390800D02*
X9850800Y-13340000D01*
X9800000Y-13289200D01*
X9749200Y-13340000D01*
X9800000Y-13390800D01*
X9800000Y-13644800D02*
X9850800Y-13594000D01*
X9800000Y-13543200D01*
X9749200Y-13594000D01*
X9800000Y-13644800D01*
X10054000Y-10850800D02*
X10104800Y-10800000D01*
X10054000Y-10749200D01*
X10003200Y-10800000D01*
X10054000Y-10850800D01*
X10054000Y-13390800D02*
X10104800Y-13340000D01*
X10054000Y-13289200D01*
X10003200Y-13340000D01*
X10054000Y-13390800D01*
X10054000Y-13644800D02*
X10104800Y-13594000D01*
X10054000Y-13543200D01*
X10003200Y-13594000D01*
X10054000Y-13644800D01*
X10308000Y-10850800D02*
X10358800Y-10800000D01*
X10308000Y-10749200D01*
X10257200Y-10800000D01*
X10308000Y-10850800D01*
X10562000Y-10850800D02*
X10612800Y-10800000D01*
X10562000Y-10749200D01*
X10511200Y-10800000D01*
X10562000Y-10850800D01*
X10562000Y-13644800D02*
X10612800Y-13594000D01*
X10562000Y-13543200D01*
X10511200Y-13594000D01*
X10562000Y-13644800D01*
X10816000Y-10850800D02*
X10866800Y-10800000D01*
X10816000Y-10749200D01*
X10765200Y-10800000D01*
X10816000Y-10850800D01*
X10816000Y-13644800D02*
X10866800Y-13594000D01*
X10816000Y-13543200D01*
X10765200Y-13594000D01*
X10816000Y-13644800D01*
X11070000Y-10850800D02*
X11120800Y-10800000D01*
X11070000Y-10749200D01*
X11019200Y-10800000D01*
X11070000Y-10850800D01*
X11070000Y-11104800D02*
X11120800Y-11054000D01*
X11070000Y-11003200D01*
X11019200Y-11054000D01*
X11070000Y-11104800D01*
X11070000Y-11358800D02*
X11120800Y-11308000D01*
X11070000Y-11257200D01*
X11019200Y-11308000D01*
X11070000Y-11358800D01*
X11070000Y-11612800D02*
X11120800Y-11562000D01*
X11070000Y-11511200D01*
X11019200Y-11562000D01*
X11070000Y-11612800D01*
X11070000Y-11866800D02*
X11120800Y-11816000D01*
X11070000Y-11765200D01*
X11019200Y-11816000D01*
X11070000Y-11866800D01*
X11070000Y-12120800D02*
X11120800Y-12070000D01*
X11070000Y-12019200D01*
X11019200Y-12070000D01*
X11070000Y-12120800D01*
X11070000Y-12374800D02*
X11120800Y-12324000D01*
X11070000Y-12273200D01*
X11019200Y-12324000D01*
X11070000Y-12374800D01*
X11070000Y-12628800D02*
X11120800Y-12578000D01*
X11070000Y-12527200D01*
X11019200Y-12578000D01*
X11070000Y-12628800D01*
X11070000Y-12882800D02*
X11120800Y-12832000D01*
X11070000Y-12781200D01*
X11019200Y-12832000D01*
X11070000Y-12882800D01*
X11070000Y-13136800D02*
X11120800Y-13086000D01*
X11070000Y-13035200D01*
X11019200Y-13086000D01*
X11070000Y-13136800D01*
X11070000Y-13390800D02*
X11120800Y-13340000D01*
X11070000Y-13289200D01*
X11019200Y-13340000D01*
X11070000Y-13390800D01*
X11070000Y-13644800D02*
X11120800Y-13594000D01*
X11070000Y-13543200D01*
X11019200Y-13594000D01*
X11070000Y-13644800D01*
D14*
X14785600Y-7844000D02*
X14887600Y-7946000D01*
X14887600Y-7844000D02*
X14785600Y-7946000D01*
X14887600Y-7895000D02*
G75*
G02*
X14785600Y-7895000I-51000J0D01*
G01*
X14785600Y-7895000D02*
G75*
G02*
X14887600Y-7895000I51000J0D01*
G01*
X14785600Y-8098000D02*
X14887600Y-8200000D01*
X14887600Y-8098000D02*
X14785600Y-8200000D01*
X14887600Y-8149000D02*
G75*
G02*
X14785600Y-8149000I-51000J0D01*
G01*
X14785600Y-8149000D02*
G75*
G02*
X14887600Y-8149000I51000J0D01*
G01*
X14785600Y-8352000D02*
X14887600Y-8454000D01*
X14887600Y-8352000D02*
X14785600Y-8454000D01*
X14887600Y-8403000D02*
G75*
G02*
X14785600Y-8403000I-51000J0D01*
G01*
X14785600Y-8403000D02*
G75*
G02*
X14887600Y-8403000I51000J0D01*
G01*
X14785600Y-8606000D02*
X14887600Y-8708000D01*
X14887600Y-8606000D02*
X14785600Y-8708000D01*
X14887600Y-8657000D02*
G75*
G02*
X14785600Y-8657000I-51000J0D01*
G01*
X14785600Y-8657000D02*
G75*
G02*
X14887600Y-8657000I51000J0D01*
G01*
X14785600Y-8860000D02*
X14887600Y-8962000D01*
X14887600Y-8860000D02*
X14785600Y-8962000D01*
X14887600Y-8911000D02*
G75*
G02*
X14785600Y-8911000I-51000J0D01*
G01*
X14785600Y-8911000D02*
G75*
G02*
X14887600Y-8911000I51000J0D01*
G01*
X14785600Y-9114000D02*
X14887600Y-9216000D01*
X14887600Y-9114000D02*
X14785600Y-9216000D01*
X14887600Y-9165000D02*
G75*
G02*
X14785600Y-9165000I-51000J0D01*
G01*
X14785600Y-9165000D02*
G75*
G02*
X14887600Y-9165000I51000J0D01*
G01*
X14785600Y-9368000D02*
X14887600Y-9470000D01*
X14887600Y-9368000D02*
X14785600Y-9470000D01*
X14887600Y-9419000D02*
G75*
G02*
X14785600Y-9419000I-51000J0D01*
G01*
X14785600Y-9419000D02*
G75*
G02*
X14887600Y-9419000I51000J0D01*
G01*
X14785600Y-9622000D02*
X14887600Y-9724000D01*
X14887600Y-9622000D02*
X14785600Y-9724000D01*
X14887600Y-9673000D02*
G75*
G02*
X14785600Y-9673000I-51000J0D01*
G01*
X14785600Y-9673000D02*
G75*
G02*
X14887600Y-9673000I51000J0D01*
G01*
D15*
X16791000Y-12145000D02*
X16901000Y-12255000D01*
X16901000Y-12145000D02*
X16791000Y-12255000D01*
X16846000Y-12145000D02*
X16846000Y-12255000D01*
X16791000Y-12200000D02*
X16901000Y-12200000D01*
X16797000Y-9045000D02*
X16907000Y-9155000D01*
X16907000Y-9045000D02*
X16797000Y-9155000D01*
X16852000Y-9045000D02*
X16852000Y-9155000D01*
X16797000Y-9100000D02*
X16907000Y-9100000D01*
X17045000Y-12145000D02*
X17155000Y-12255000D01*
X17155000Y-12145000D02*
X17045000Y-12255000D01*
X17100000Y-12145000D02*
X17100000Y-12255000D01*
X17045000Y-12200000D02*
X17155000Y-12200000D01*
X17051000Y-9045000D02*
X17161000Y-9155000D01*
X17161000Y-9045000D02*
X17051000Y-9155000D01*
X17106000Y-9045000D02*
X17106000Y-9155000D01*
X17051000Y-9100000D02*
X17161000Y-9100000D01*
X17299000Y-12145000D02*
X17409000Y-12255000D01*
X17409000Y-12145000D02*
X17299000Y-12255000D01*
X17354000Y-12145000D02*
X17354000Y-12255000D01*
X17299000Y-12200000D02*
X17409000Y-12200000D01*
X17305000Y-9045000D02*
X17415000Y-9155000D01*
X17415000Y-9045000D02*
X17305000Y-9155000D01*
X17360000Y-9045000D02*
X17360000Y-9155000D01*
X17305000Y-9100000D02*
X17415000Y-9100000D01*
D16*
X19446500Y-8940500D02*
X19565500Y-9059500D01*
X19565500Y-8940500D02*
X19446500Y-9059500D01*
X19548073Y-9042073D02*
X19548073Y-8957927D01*
X19463927Y-8957927D01*
X19463927Y-9042073D01*
X19548073Y-9042073D01*
X19700500Y-8940500D02*
X19819500Y-9059500D01*
X19819500Y-8940500D02*
X19700500Y-9059500D01*
X19802073Y-9042073D02*
X19802073Y-8957927D01*
X19717927Y-8957927D01*
X19717927Y-9042073D01*
X19802073Y-9042073D01*
D17*
X8437500Y-7275000D02*
X8737500Y-7575000D01*
X8737500Y-7275000D02*
X8437500Y-7575000D01*
X8587500Y-7575000D02*
X8737500Y-7425000D01*
X8587500Y-7275000D01*
X8437500Y-7425000D01*
X8587500Y-7575000D01*
X8437500Y-13900000D02*
X8737500Y-14200000D01*
X8737500Y-13900000D02*
X8437500Y-14200000D01*
X8587500Y-14200000D02*
X8737500Y-14050000D01*
X8587500Y-13900000D01*
X8437500Y-14050000D01*
X8587500Y-14200000D01*
X20495000Y-7200000D02*
X20795000Y-7500000D01*
X20795000Y-7200000D02*
X20495000Y-7500000D01*
X20645000Y-7500000D02*
X20795000Y-7350000D01*
X20645000Y-7200000D01*
X20495000Y-7350000D01*
X20645000Y-7500000D01*
X20495000Y-13862500D02*
X20795000Y-14162500D01*
X20795000Y-13862500D02*
X20495000Y-14162500D01*
X20645000Y-14162500D02*
X20795000Y-14012500D01*
X20645000Y-13862500D01*
X20495000Y-14012500D01*
X20645000Y-14162500D01*
D11*
X8158277Y-15063984D02*
X8158277Y-14863984D01*
X8158277Y-14863984D02*
X8205896Y-14863984D01*
X8205896Y-14863984D02*
X8234467Y-14873508D01*
X8234467Y-14873508D02*
X8253515Y-14892555D01*
X8253515Y-14892555D02*
X8263039Y-14911603D01*
X8263039Y-14911603D02*
X8272562Y-14949698D01*
X8272562Y-14949698D02*
X8272562Y-14978269D01*
X8272562Y-14978269D02*
X8263039Y-15016365D01*
X8263039Y-15016365D02*
X8253515Y-15035412D01*
X8253515Y-15035412D02*
X8234467Y-15054460D01*
X8234467Y-15054460D02*
X8205896Y-15063984D01*
X8205896Y-15063984D02*
X8158277Y-15063984D01*
X8358277Y-15063984D02*
X8358277Y-14930650D01*
X8358277Y-14968746D02*
X8367801Y-14949698D01*
X8367801Y-14949698D02*
X8377324Y-14940174D01*
X8377324Y-14940174D02*
X8396372Y-14930650D01*
X8396372Y-14930650D02*
X8415420Y-14930650D01*
X8482086Y-15063984D02*
X8482086Y-14930650D01*
X8482086Y-14863984D02*
X8472563Y-14873508D01*
X8472563Y-14873508D02*
X8482086Y-14883031D01*
X8482086Y-14883031D02*
X8491610Y-14873508D01*
X8491610Y-14873508D02*
X8482086Y-14863984D01*
X8482086Y-14863984D02*
X8482086Y-14883031D01*
X8605896Y-15063984D02*
X8586848Y-15054460D01*
X8586848Y-15054460D02*
X8577324Y-15035412D01*
X8577324Y-15035412D02*
X8577324Y-14863984D01*
X8710658Y-15063984D02*
X8691610Y-15054460D01*
X8691610Y-15054460D02*
X8682086Y-15035412D01*
X8682086Y-15035412D02*
X8682086Y-14863984D01*
X8939229Y-15063984D02*
X8939229Y-14863984D01*
X8939229Y-14863984D02*
X9005896Y-15006841D01*
X9005896Y-15006841D02*
X9072563Y-14863984D01*
X9072563Y-14863984D02*
X9072563Y-15063984D01*
X9253515Y-15063984D02*
X9253515Y-14959222D01*
X9253515Y-14959222D02*
X9243991Y-14940174D01*
X9243991Y-14940174D02*
X9224944Y-14930650D01*
X9224944Y-14930650D02*
X9186848Y-14930650D01*
X9186848Y-14930650D02*
X9167801Y-14940174D01*
X9253515Y-15054460D02*
X9234467Y-15063984D01*
X9234467Y-15063984D02*
X9186848Y-15063984D01*
X9186848Y-15063984D02*
X9167801Y-15054460D01*
X9167801Y-15054460D02*
X9158277Y-15035412D01*
X9158277Y-15035412D02*
X9158277Y-15016365D01*
X9158277Y-15016365D02*
X9167801Y-14997317D01*
X9167801Y-14997317D02*
X9186848Y-14987793D01*
X9186848Y-14987793D02*
X9234467Y-14987793D01*
X9234467Y-14987793D02*
X9253515Y-14978269D01*
X9348753Y-14930650D02*
X9348753Y-15130650D01*
X9348753Y-14940174D02*
X9367801Y-14930650D01*
X9367801Y-14930650D02*
X9405896Y-14930650D01*
X9405896Y-14930650D02*
X9424944Y-14940174D01*
X9424944Y-14940174D02*
X9434467Y-14949698D01*
X9434467Y-14949698D02*
X9443991Y-14968746D01*
X9443991Y-14968746D02*
X9443991Y-15025888D01*
X9443991Y-15025888D02*
X9434467Y-15044936D01*
X9434467Y-15044936D02*
X9424944Y-15054460D01*
X9424944Y-15054460D02*
X9405896Y-15063984D01*
X9405896Y-15063984D02*
X9367801Y-15063984D01*
X9367801Y-15063984D02*
X9348753Y-15054460D01*
X9529705Y-15044936D02*
X9539229Y-15054460D01*
X9539229Y-15054460D02*
X9529705Y-15063984D01*
X9529705Y-15063984D02*
X9520182Y-15054460D01*
X9520182Y-15054460D02*
X9529705Y-15044936D01*
X9529705Y-15044936D02*
X9529705Y-15063984D01*
X9529705Y-14940174D02*
X9539229Y-14949698D01*
X9539229Y-14949698D02*
X9529705Y-14959222D01*
X9529705Y-14959222D02*
X9520182Y-14949698D01*
X9520182Y-14949698D02*
X9529705Y-14940174D01*
X9529705Y-14940174D02*
X9529705Y-14959222D01*
D12*
X7867500Y-15377500D02*
X7897500Y-15407500D01*
X7897500Y-15377500D02*
X7867500Y-15407500D01*
D11*
X8196372Y-15283984D02*
X8215420Y-15283984D01*
X8215420Y-15283984D02*
X8234467Y-15293508D01*
X8234467Y-15293508D02*
X8243991Y-15303031D01*
X8243991Y-15303031D02*
X8253515Y-15322079D01*
X8253515Y-15322079D02*
X8263039Y-15360174D01*
X8263039Y-15360174D02*
X8263039Y-15407793D01*
X8263039Y-15407793D02*
X8253515Y-15445888D01*
X8253515Y-15445888D02*
X8243991Y-15464936D01*
X8243991Y-15464936D02*
X8234467Y-15474460D01*
X8234467Y-15474460D02*
X8215420Y-15483984D01*
X8215420Y-15483984D02*
X8196372Y-15483984D01*
X8196372Y-15483984D02*
X8177324Y-15474460D01*
X8177324Y-15474460D02*
X8167801Y-15464936D01*
X8167801Y-15464936D02*
X8158277Y-15445888D01*
X8158277Y-15445888D02*
X8148753Y-15407793D01*
X8148753Y-15407793D02*
X8148753Y-15360174D01*
X8148753Y-15360174D02*
X8158277Y-15322079D01*
X8158277Y-15322079D02*
X8167801Y-15303031D01*
X8167801Y-15303031D02*
X8177324Y-15293508D01*
X8177324Y-15293508D02*
X8196372Y-15283984D01*
X8348753Y-15464936D02*
X8358277Y-15474460D01*
X8358277Y-15474460D02*
X8348753Y-15483984D01*
X8348753Y-15483984D02*
X8339229Y-15474460D01*
X8339229Y-15474460D02*
X8348753Y-15464936D01*
X8348753Y-15464936D02*
X8348753Y-15483984D01*
X8424944Y-15283984D02*
X8548753Y-15283984D01*
X8548753Y-15283984D02*
X8482086Y-15360174D01*
X8482086Y-15360174D02*
X8510658Y-15360174D01*
X8510658Y-15360174D02*
X8529705Y-15369698D01*
X8529705Y-15369698D02*
X8539229Y-15379222D01*
X8539229Y-15379222D02*
X8548753Y-15398269D01*
X8548753Y-15398269D02*
X8548753Y-15445888D01*
X8548753Y-15445888D02*
X8539229Y-15464936D01*
X8539229Y-15464936D02*
X8529705Y-15474460D01*
X8529705Y-15474460D02*
X8510658Y-15483984D01*
X8510658Y-15483984D02*
X8453515Y-15483984D01*
X8453515Y-15483984D02*
X8434467Y-15474460D01*
X8434467Y-15474460D02*
X8424944Y-15464936D01*
X8672563Y-15283984D02*
X8691610Y-15283984D01*
X8691610Y-15283984D02*
X8710658Y-15293508D01*
X8710658Y-15293508D02*
X8720182Y-15303031D01*
X8720182Y-15303031D02*
X8729705Y-15322079D01*
X8729705Y-15322079D02*
X8739229Y-15360174D01*
X8739229Y-15360174D02*
X8739229Y-15407793D01*
X8739229Y-15407793D02*
X8729705Y-15445888D01*
X8729705Y-15445888D02*
X8720182Y-15464936D01*
X8720182Y-15464936D02*
X8710658Y-15474460D01*
X8710658Y-15474460D02*
X8691610Y-15483984D01*
X8691610Y-15483984D02*
X8672563Y-15483984D01*
X8672563Y-15483984D02*
X8653515Y-15474460D01*
X8653515Y-15474460D02*
X8643991Y-15464936D01*
X8643991Y-15464936D02*
X8634467Y-15445888D01*
X8634467Y-15445888D02*
X8624944Y-15407793D01*
X8624944Y-15407793D02*
X8624944Y-15360174D01*
X8624944Y-15360174D02*
X8634467Y-15322079D01*
X8634467Y-15322079D02*
X8643991Y-15303031D01*
X8643991Y-15303031D02*
X8653515Y-15293508D01*
X8653515Y-15293508D02*
X8672563Y-15283984D01*
X8863039Y-15283984D02*
X8882086Y-15283984D01*
X8882086Y-15283984D02*
X8901134Y-15293508D01*
X8901134Y-15293508D02*
X8910658Y-15303031D01*
X8910658Y-15303031D02*
X8920182Y-15322079D01*
X8920182Y-15322079D02*
X8929705Y-15360174D01*
X8929705Y-15360174D02*
X8929705Y-15407793D01*
X8929705Y-15407793D02*
X8920182Y-15445888D01*
X8920182Y-15445888D02*
X8910658Y-15464936D01*
X8910658Y-15464936D02*
X8901134Y-15474460D01*
X8901134Y-15474460D02*
X8882086Y-15483984D01*
X8882086Y-15483984D02*
X8863039Y-15483984D01*
X8863039Y-15483984D02*
X8843991Y-15474460D01*
X8843991Y-15474460D02*
X8834467Y-15464936D01*
X8834467Y-15464936D02*
X8824944Y-15445888D01*
X8824944Y-15445888D02*
X8815420Y-15407793D01*
X8815420Y-15407793D02*
X8815420Y-15360174D01*
X8815420Y-15360174D02*
X8824944Y-15322079D01*
X8824944Y-15322079D02*
X8834467Y-15303031D01*
X8834467Y-15303031D02*
X8843991Y-15293508D01*
X8843991Y-15293508D02*
X8863039Y-15283984D01*
X9015420Y-15483984D02*
X9015420Y-15350650D01*
X9015420Y-15369698D02*
X9024944Y-15360174D01*
X9024944Y-15360174D02*
X9043991Y-15350650D01*
X9043991Y-15350650D02*
X9072563Y-15350650D01*
X9072563Y-15350650D02*
X9091610Y-15360174D01*
X9091610Y-15360174D02*
X9101134Y-15379222D01*
X9101134Y-15379222D02*
X9101134Y-15483984D01*
X9101134Y-15379222D02*
X9110658Y-15360174D01*
X9110658Y-15360174D02*
X9129705Y-15350650D01*
X9129705Y-15350650D02*
X9158277Y-15350650D01*
X9158277Y-15350650D02*
X9177325Y-15360174D01*
X9177325Y-15360174D02*
X9186848Y-15379222D01*
X9186848Y-15379222D02*
X9186848Y-15483984D01*
X9282086Y-15483984D02*
X9282086Y-15350650D01*
X9282086Y-15369698D02*
X9291610Y-15360174D01*
X9291610Y-15360174D02*
X9310658Y-15350650D01*
X9310658Y-15350650D02*
X9339229Y-15350650D01*
X9339229Y-15350650D02*
X9358277Y-15360174D01*
X9358277Y-15360174D02*
X9367801Y-15379222D01*
X9367801Y-15379222D02*
X9367801Y-15483984D01*
X9367801Y-15379222D02*
X9377325Y-15360174D01*
X9377325Y-15360174D02*
X9396372Y-15350650D01*
X9396372Y-15350650D02*
X9424944Y-15350650D01*
X9424944Y-15350650D02*
X9443991Y-15360174D01*
X9443991Y-15360174D02*
X9453515Y-15379222D01*
X9453515Y-15379222D02*
X9453515Y-15483984D01*
X9843991Y-15274460D02*
X9672563Y-15531603D01*
X10101134Y-15283984D02*
X10120182Y-15283984D01*
X10120182Y-15283984D02*
X10139229Y-15293508D01*
X10139229Y-15293508D02*
X10148753Y-15303031D01*
X10148753Y-15303031D02*
X10158277Y-15322079D01*
X10158277Y-15322079D02*
X10167801Y-15360174D01*
X10167801Y-15360174D02*
X10167801Y-15407793D01*
X10167801Y-15407793D02*
X10158277Y-15445888D01*
X10158277Y-15445888D02*
X10148753Y-15464936D01*
X10148753Y-15464936D02*
X10139229Y-15474460D01*
X10139229Y-15474460D02*
X10120182Y-15483984D01*
X10120182Y-15483984D02*
X10101134Y-15483984D01*
X10101134Y-15483984D02*
X10082087Y-15474460D01*
X10082087Y-15474460D02*
X10072563Y-15464936D01*
X10072563Y-15464936D02*
X10063039Y-15445888D01*
X10063039Y-15445888D02*
X10053515Y-15407793D01*
X10053515Y-15407793D02*
X10053515Y-15360174D01*
X10053515Y-15360174D02*
X10063039Y-15322079D01*
X10063039Y-15322079D02*
X10072563Y-15303031D01*
X10072563Y-15303031D02*
X10082087Y-15293508D01*
X10082087Y-15293508D02*
X10101134Y-15283984D01*
X10253515Y-15464936D02*
X10263039Y-15474460D01*
X10263039Y-15474460D02*
X10253515Y-15483984D01*
X10253515Y-15483984D02*
X10243991Y-15474460D01*
X10243991Y-15474460D02*
X10253515Y-15464936D01*
X10253515Y-15464936D02*
X10253515Y-15483984D01*
X10386848Y-15283984D02*
X10405896Y-15283984D01*
X10405896Y-15283984D02*
X10424944Y-15293508D01*
X10424944Y-15293508D02*
X10434468Y-15303031D01*
X10434468Y-15303031D02*
X10443991Y-15322079D01*
X10443991Y-15322079D02*
X10453515Y-15360174D01*
X10453515Y-15360174D02*
X10453515Y-15407793D01*
X10453515Y-15407793D02*
X10443991Y-15445888D01*
X10443991Y-15445888D02*
X10434468Y-15464936D01*
X10434468Y-15464936D02*
X10424944Y-15474460D01*
X10424944Y-15474460D02*
X10405896Y-15483984D01*
X10405896Y-15483984D02*
X10386848Y-15483984D01*
X10386848Y-15483984D02*
X10367801Y-15474460D01*
X10367801Y-15474460D02*
X10358277Y-15464936D01*
X10358277Y-15464936D02*
X10348753Y-15445888D01*
X10348753Y-15445888D02*
X10339229Y-15407793D01*
X10339229Y-15407793D02*
X10339229Y-15360174D01*
X10339229Y-15360174D02*
X10348753Y-15322079D01*
X10348753Y-15322079D02*
X10358277Y-15303031D01*
X10358277Y-15303031D02*
X10367801Y-15293508D01*
X10367801Y-15293508D02*
X10386848Y-15283984D01*
X10643991Y-15483984D02*
X10529706Y-15483984D01*
X10586848Y-15483984D02*
X10586848Y-15283984D01*
X10586848Y-15283984D02*
X10567801Y-15312555D01*
X10567801Y-15312555D02*
X10548753Y-15331603D01*
X10548753Y-15331603D02*
X10529706Y-15341127D01*
X10834468Y-15483984D02*
X10720182Y-15483984D01*
X10777325Y-15483984D02*
X10777325Y-15283984D01*
X10777325Y-15283984D02*
X10758277Y-15312555D01*
X10758277Y-15312555D02*
X10739229Y-15331603D01*
X10739229Y-15331603D02*
X10720182Y-15341127D01*
X10948753Y-15369698D02*
X10929706Y-15360174D01*
X10929706Y-15360174D02*
X10920182Y-15350650D01*
X10920182Y-15350650D02*
X10910658Y-15331603D01*
X10910658Y-15331603D02*
X10910658Y-15322079D01*
X10910658Y-15322079D02*
X10920182Y-15303031D01*
X10920182Y-15303031D02*
X10929706Y-15293508D01*
X10929706Y-15293508D02*
X10948753Y-15283984D01*
X10948753Y-15283984D02*
X10986849Y-15283984D01*
X10986849Y-15283984D02*
X11005896Y-15293508D01*
X11005896Y-15293508D02*
X11015420Y-15303031D01*
X11015420Y-15303031D02*
X11024944Y-15322079D01*
X11024944Y-15322079D02*
X11024944Y-15331603D01*
X11024944Y-15331603D02*
X11015420Y-15350650D01*
X11015420Y-15350650D02*
X11005896Y-15360174D01*
X11005896Y-15360174D02*
X10986849Y-15369698D01*
X10986849Y-15369698D02*
X10948753Y-15369698D01*
X10948753Y-15369698D02*
X10929706Y-15379222D01*
X10929706Y-15379222D02*
X10920182Y-15388746D01*
X10920182Y-15388746D02*
X10910658Y-15407793D01*
X10910658Y-15407793D02*
X10910658Y-15445888D01*
X10910658Y-15445888D02*
X10920182Y-15464936D01*
X10920182Y-15464936D02*
X10929706Y-15474460D01*
X10929706Y-15474460D02*
X10948753Y-15483984D01*
X10948753Y-15483984D02*
X10986849Y-15483984D01*
X10986849Y-15483984D02*
X11005896Y-15474460D01*
X11005896Y-15474460D02*
X11015420Y-15464936D01*
X11015420Y-15464936D02*
X11024944Y-15445888D01*
X11024944Y-15445888D02*
X11024944Y-15407793D01*
X11024944Y-15407793D02*
X11015420Y-15388746D01*
X11015420Y-15388746D02*
X11005896Y-15379222D01*
X11005896Y-15379222D02*
X10986849Y-15369698D01*
X11101134Y-15283984D02*
X11101134Y-15322079D01*
X11177325Y-15283984D02*
X11177325Y-15322079D01*
X11472563Y-15560174D02*
X11463039Y-15550650D01*
X11463039Y-15550650D02*
X11443991Y-15522079D01*
X11443991Y-15522079D02*
X11434468Y-15503031D01*
X11434468Y-15503031D02*
X11424944Y-15474460D01*
X11424944Y-15474460D02*
X11415420Y-15426841D01*
X11415420Y-15426841D02*
X11415420Y-15388746D01*
X11415420Y-15388746D02*
X11424944Y-15341127D01*
X11424944Y-15341127D02*
X11434468Y-15312555D01*
X11434468Y-15312555D02*
X11443991Y-15293508D01*
X11443991Y-15293508D02*
X11463039Y-15264936D01*
X11463039Y-15264936D02*
X11472563Y-15255412D01*
X11634468Y-15283984D02*
X11596372Y-15283984D01*
X11596372Y-15283984D02*
X11577325Y-15293508D01*
X11577325Y-15293508D02*
X11567801Y-15303031D01*
X11567801Y-15303031D02*
X11548753Y-15331603D01*
X11548753Y-15331603D02*
X11539229Y-15369698D01*
X11539229Y-15369698D02*
X11539229Y-15445888D01*
X11539229Y-15445888D02*
X11548753Y-15464936D01*
X11548753Y-15464936D02*
X11558277Y-15474460D01*
X11558277Y-15474460D02*
X11577325Y-15483984D01*
X11577325Y-15483984D02*
X11615420Y-15483984D01*
X11615420Y-15483984D02*
X11634468Y-15474460D01*
X11634468Y-15474460D02*
X11643991Y-15464936D01*
X11643991Y-15464936D02*
X11653515Y-15445888D01*
X11653515Y-15445888D02*
X11653515Y-15398269D01*
X11653515Y-15398269D02*
X11643991Y-15379222D01*
X11643991Y-15379222D02*
X11634468Y-15369698D01*
X11634468Y-15369698D02*
X11615420Y-15360174D01*
X11615420Y-15360174D02*
X11577325Y-15360174D01*
X11577325Y-15360174D02*
X11558277Y-15369698D01*
X11558277Y-15369698D02*
X11548753Y-15379222D01*
X11548753Y-15379222D02*
X11539229Y-15398269D01*
X11891610Y-15483984D02*
X11891610Y-15283984D01*
X11977325Y-15483984D02*
X11977325Y-15379222D01*
X11977325Y-15379222D02*
X11967801Y-15360174D01*
X11967801Y-15360174D02*
X11948753Y-15350650D01*
X11948753Y-15350650D02*
X11920182Y-15350650D01*
X11920182Y-15350650D02*
X11901134Y-15360174D01*
X11901134Y-15360174D02*
X11891610Y-15369698D01*
X12101134Y-15483984D02*
X12082087Y-15474460D01*
X12082087Y-15474460D02*
X12072563Y-15464936D01*
X12072563Y-15464936D02*
X12063039Y-15445888D01*
X12063039Y-15445888D02*
X12063039Y-15388746D01*
X12063039Y-15388746D02*
X12072563Y-15369698D01*
X12072563Y-15369698D02*
X12082087Y-15360174D01*
X12082087Y-15360174D02*
X12101134Y-15350650D01*
X12101134Y-15350650D02*
X12129706Y-15350650D01*
X12129706Y-15350650D02*
X12148753Y-15360174D01*
X12148753Y-15360174D02*
X12158277Y-15369698D01*
X12158277Y-15369698D02*
X12167801Y-15388746D01*
X12167801Y-15388746D02*
X12167801Y-15445888D01*
X12167801Y-15445888D02*
X12158277Y-15464936D01*
X12158277Y-15464936D02*
X12148753Y-15474460D01*
X12148753Y-15474460D02*
X12129706Y-15483984D01*
X12129706Y-15483984D02*
X12101134Y-15483984D01*
X12282087Y-15483984D02*
X12263039Y-15474460D01*
X12263039Y-15474460D02*
X12253515Y-15455412D01*
X12253515Y-15455412D02*
X12253515Y-15283984D01*
X12434468Y-15474460D02*
X12415420Y-15483984D01*
X12415420Y-15483984D02*
X12377325Y-15483984D01*
X12377325Y-15483984D02*
X12358277Y-15474460D01*
X12358277Y-15474460D02*
X12348753Y-15455412D01*
X12348753Y-15455412D02*
X12348753Y-15379222D01*
X12348753Y-15379222D02*
X12358277Y-15360174D01*
X12358277Y-15360174D02*
X12377325Y-15350650D01*
X12377325Y-15350650D02*
X12415420Y-15350650D01*
X12415420Y-15350650D02*
X12434468Y-15360174D01*
X12434468Y-15360174D02*
X12443991Y-15379222D01*
X12443991Y-15379222D02*
X12443991Y-15398269D01*
X12443991Y-15398269D02*
X12348753Y-15417317D01*
X12520182Y-15474460D02*
X12539230Y-15483984D01*
X12539230Y-15483984D02*
X12577325Y-15483984D01*
X12577325Y-15483984D02*
X12596372Y-15474460D01*
X12596372Y-15474460D02*
X12605896Y-15455412D01*
X12605896Y-15455412D02*
X12605896Y-15445888D01*
X12605896Y-15445888D02*
X12596372Y-15426841D01*
X12596372Y-15426841D02*
X12577325Y-15417317D01*
X12577325Y-15417317D02*
X12548753Y-15417317D01*
X12548753Y-15417317D02*
X12529706Y-15407793D01*
X12529706Y-15407793D02*
X12520182Y-15388746D01*
X12520182Y-15388746D02*
X12520182Y-15379222D01*
X12520182Y-15379222D02*
X12529706Y-15360174D01*
X12529706Y-15360174D02*
X12548753Y-15350650D01*
X12548753Y-15350650D02*
X12577325Y-15350650D01*
X12577325Y-15350650D02*
X12596372Y-15360174D01*
X12672563Y-15560174D02*
X12682087Y-15550650D01*
X12682087Y-15550650D02*
X12701134Y-15522079D01*
X12701134Y-15522079D02*
X12710658Y-15503031D01*
X12710658Y-15503031D02*
X12720182Y-15474460D01*
X12720182Y-15474460D02*
X12729706Y-15426841D01*
X12729706Y-15426841D02*
X12729706Y-15388746D01*
X12729706Y-15388746D02*
X12720182Y-15341127D01*
X12720182Y-15341127D02*
X12710658Y-15312555D01*
X12710658Y-15312555D02*
X12701134Y-15293508D01*
X12701134Y-15293508D02*
X12682087Y-15264936D01*
X12682087Y-15264936D02*
X12672563Y-15255412D01*
D12*
X7897500Y-15656500D02*
G75*
G02*
X7824500Y-15656500I-36500J0D01*
G01*
X7824500Y-15656500D02*
G75*
G02*
X7897500Y-15656500I36500J0D01*
G01*
D11*
X8196372Y-15547984D02*
X8215420Y-15547984D01*
X8215420Y-15547984D02*
X8234467Y-15557508D01*
X8234467Y-15557508D02*
X8243991Y-15567031D01*
X8243991Y-15567031D02*
X8253515Y-15586079D01*
X8253515Y-15586079D02*
X8263039Y-15624174D01*
X8263039Y-15624174D02*
X8263039Y-15671793D01*
X8263039Y-15671793D02*
X8253515Y-15709888D01*
X8253515Y-15709888D02*
X8243991Y-15728936D01*
X8243991Y-15728936D02*
X8234467Y-15738460D01*
X8234467Y-15738460D02*
X8215420Y-15747984D01*
X8215420Y-15747984D02*
X8196372Y-15747984D01*
X8196372Y-15747984D02*
X8177324Y-15738460D01*
X8177324Y-15738460D02*
X8167801Y-15728936D01*
X8167801Y-15728936D02*
X8158277Y-15709888D01*
X8158277Y-15709888D02*
X8148753Y-15671793D01*
X8148753Y-15671793D02*
X8148753Y-15624174D01*
X8148753Y-15624174D02*
X8158277Y-15586079D01*
X8158277Y-15586079D02*
X8167801Y-15567031D01*
X8167801Y-15567031D02*
X8177324Y-15557508D01*
X8177324Y-15557508D02*
X8196372Y-15547984D01*
X8348753Y-15728936D02*
X8358277Y-15738460D01*
X8358277Y-15738460D02*
X8348753Y-15747984D01*
X8348753Y-15747984D02*
X8339229Y-15738460D01*
X8339229Y-15738460D02*
X8348753Y-15728936D01*
X8348753Y-15728936D02*
X8348753Y-15747984D01*
X8424944Y-15547984D02*
X8558277Y-15547984D01*
X8558277Y-15547984D02*
X8472563Y-15747984D01*
X8615420Y-15547984D02*
X8739229Y-15547984D01*
X8739229Y-15547984D02*
X8672563Y-15624174D01*
X8672563Y-15624174D02*
X8701134Y-15624174D01*
X8701134Y-15624174D02*
X8720182Y-15633698D01*
X8720182Y-15633698D02*
X8729705Y-15643222D01*
X8729705Y-15643222D02*
X8739229Y-15662269D01*
X8739229Y-15662269D02*
X8739229Y-15709888D01*
X8739229Y-15709888D02*
X8729705Y-15728936D01*
X8729705Y-15728936D02*
X8720182Y-15738460D01*
X8720182Y-15738460D02*
X8701134Y-15747984D01*
X8701134Y-15747984D02*
X8643991Y-15747984D01*
X8643991Y-15747984D02*
X8624944Y-15738460D01*
X8624944Y-15738460D02*
X8615420Y-15728936D01*
X8863039Y-15547984D02*
X8882086Y-15547984D01*
X8882086Y-15547984D02*
X8901134Y-15557508D01*
X8901134Y-15557508D02*
X8910658Y-15567031D01*
X8910658Y-15567031D02*
X8920182Y-15586079D01*
X8920182Y-15586079D02*
X8929705Y-15624174D01*
X8929705Y-15624174D02*
X8929705Y-15671793D01*
X8929705Y-15671793D02*
X8920182Y-15709888D01*
X8920182Y-15709888D02*
X8910658Y-15728936D01*
X8910658Y-15728936D02*
X8901134Y-15738460D01*
X8901134Y-15738460D02*
X8882086Y-15747984D01*
X8882086Y-15747984D02*
X8863039Y-15747984D01*
X8863039Y-15747984D02*
X8843991Y-15738460D01*
X8843991Y-15738460D02*
X8834467Y-15728936D01*
X8834467Y-15728936D02*
X8824944Y-15709888D01*
X8824944Y-15709888D02*
X8815420Y-15671793D01*
X8815420Y-15671793D02*
X8815420Y-15624174D01*
X8815420Y-15624174D02*
X8824944Y-15586079D01*
X8824944Y-15586079D02*
X8834467Y-15567031D01*
X8834467Y-15567031D02*
X8843991Y-15557508D01*
X8843991Y-15557508D02*
X8863039Y-15547984D01*
X9015420Y-15747984D02*
X9015420Y-15614650D01*
X9015420Y-15633698D02*
X9024944Y-15624174D01*
X9024944Y-15624174D02*
X9043991Y-15614650D01*
X9043991Y-15614650D02*
X9072563Y-15614650D01*
X9072563Y-15614650D02*
X9091610Y-15624174D01*
X9091610Y-15624174D02*
X9101134Y-15643222D01*
X9101134Y-15643222D02*
X9101134Y-15747984D01*
X9101134Y-15643222D02*
X9110658Y-15624174D01*
X9110658Y-15624174D02*
X9129705Y-15614650D01*
X9129705Y-15614650D02*
X9158277Y-15614650D01*
X9158277Y-15614650D02*
X9177325Y-15624174D01*
X9177325Y-15624174D02*
X9186848Y-15643222D01*
X9186848Y-15643222D02*
X9186848Y-15747984D01*
X9282086Y-15747984D02*
X9282086Y-15614650D01*
X9282086Y-15633698D02*
X9291610Y-15624174D01*
X9291610Y-15624174D02*
X9310658Y-15614650D01*
X9310658Y-15614650D02*
X9339229Y-15614650D01*
X9339229Y-15614650D02*
X9358277Y-15624174D01*
X9358277Y-15624174D02*
X9367801Y-15643222D01*
X9367801Y-15643222D02*
X9367801Y-15747984D01*
X9367801Y-15643222D02*
X9377325Y-15624174D01*
X9377325Y-15624174D02*
X9396372Y-15614650D01*
X9396372Y-15614650D02*
X9424944Y-15614650D01*
X9424944Y-15614650D02*
X9443991Y-15624174D01*
X9443991Y-15624174D02*
X9453515Y-15643222D01*
X9453515Y-15643222D02*
X9453515Y-15747984D01*
X9843991Y-15538460D02*
X9672563Y-15795603D01*
X10101134Y-15547984D02*
X10120182Y-15547984D01*
X10120182Y-15547984D02*
X10139229Y-15557508D01*
X10139229Y-15557508D02*
X10148753Y-15567031D01*
X10148753Y-15567031D02*
X10158277Y-15586079D01*
X10158277Y-15586079D02*
X10167801Y-15624174D01*
X10167801Y-15624174D02*
X10167801Y-15671793D01*
X10167801Y-15671793D02*
X10158277Y-15709888D01*
X10158277Y-15709888D02*
X10148753Y-15728936D01*
X10148753Y-15728936D02*
X10139229Y-15738460D01*
X10139229Y-15738460D02*
X10120182Y-15747984D01*
X10120182Y-15747984D02*
X10101134Y-15747984D01*
X10101134Y-15747984D02*
X10082087Y-15738460D01*
X10082087Y-15738460D02*
X10072563Y-15728936D01*
X10072563Y-15728936D02*
X10063039Y-15709888D01*
X10063039Y-15709888D02*
X10053515Y-15671793D01*
X10053515Y-15671793D02*
X10053515Y-15624174D01*
X10053515Y-15624174D02*
X10063039Y-15586079D01*
X10063039Y-15586079D02*
X10072563Y-15567031D01*
X10072563Y-15567031D02*
X10082087Y-15557508D01*
X10082087Y-15557508D02*
X10101134Y-15547984D01*
X10253515Y-15728936D02*
X10263039Y-15738460D01*
X10263039Y-15738460D02*
X10253515Y-15747984D01*
X10253515Y-15747984D02*
X10243991Y-15738460D01*
X10243991Y-15738460D02*
X10253515Y-15728936D01*
X10253515Y-15728936D02*
X10253515Y-15747984D01*
X10386848Y-15547984D02*
X10405896Y-15547984D01*
X10405896Y-15547984D02*
X10424944Y-15557508D01*
X10424944Y-15557508D02*
X10434468Y-15567031D01*
X10434468Y-15567031D02*
X10443991Y-15586079D01*
X10443991Y-15586079D02*
X10453515Y-15624174D01*
X10453515Y-15624174D02*
X10453515Y-15671793D01*
X10453515Y-15671793D02*
X10443991Y-15709888D01*
X10443991Y-15709888D02*
X10434468Y-15728936D01*
X10434468Y-15728936D02*
X10424944Y-15738460D01*
X10424944Y-15738460D02*
X10405896Y-15747984D01*
X10405896Y-15747984D02*
X10386848Y-15747984D01*
X10386848Y-15747984D02*
X10367801Y-15738460D01*
X10367801Y-15738460D02*
X10358277Y-15728936D01*
X10358277Y-15728936D02*
X10348753Y-15709888D01*
X10348753Y-15709888D02*
X10339229Y-15671793D01*
X10339229Y-15671793D02*
X10339229Y-15624174D01*
X10339229Y-15624174D02*
X10348753Y-15586079D01*
X10348753Y-15586079D02*
X10358277Y-15567031D01*
X10358277Y-15567031D02*
X10367801Y-15557508D01*
X10367801Y-15557508D02*
X10386848Y-15547984D01*
X10529706Y-15567031D02*
X10539229Y-15557508D01*
X10539229Y-15557508D02*
X10558277Y-15547984D01*
X10558277Y-15547984D02*
X10605896Y-15547984D01*
X10605896Y-15547984D02*
X10624944Y-15557508D01*
X10624944Y-15557508D02*
X10634468Y-15567031D01*
X10634468Y-15567031D02*
X10643991Y-15586079D01*
X10643991Y-15586079D02*
X10643991Y-15605127D01*
X10643991Y-15605127D02*
X10634468Y-15633698D01*
X10634468Y-15633698D02*
X10520182Y-15747984D01*
X10520182Y-15747984D02*
X10643991Y-15747984D01*
X10758277Y-15633698D02*
X10739229Y-15624174D01*
X10739229Y-15624174D02*
X10729706Y-15614650D01*
X10729706Y-15614650D02*
X10720182Y-15595603D01*
X10720182Y-15595603D02*
X10720182Y-15586079D01*
X10720182Y-15586079D02*
X10729706Y-15567031D01*
X10729706Y-15567031D02*
X10739229Y-15557508D01*
X10739229Y-15557508D02*
X10758277Y-15547984D01*
X10758277Y-15547984D02*
X10796372Y-15547984D01*
X10796372Y-15547984D02*
X10815420Y-15557508D01*
X10815420Y-15557508D02*
X10824944Y-15567031D01*
X10824944Y-15567031D02*
X10834468Y-15586079D01*
X10834468Y-15586079D02*
X10834468Y-15595603D01*
X10834468Y-15595603D02*
X10824944Y-15614650D01*
X10824944Y-15614650D02*
X10815420Y-15624174D01*
X10815420Y-15624174D02*
X10796372Y-15633698D01*
X10796372Y-15633698D02*
X10758277Y-15633698D01*
X10758277Y-15633698D02*
X10739229Y-15643222D01*
X10739229Y-15643222D02*
X10729706Y-15652746D01*
X10729706Y-15652746D02*
X10720182Y-15671793D01*
X10720182Y-15671793D02*
X10720182Y-15709888D01*
X10720182Y-15709888D02*
X10729706Y-15728936D01*
X10729706Y-15728936D02*
X10739229Y-15738460D01*
X10739229Y-15738460D02*
X10758277Y-15747984D01*
X10758277Y-15747984D02*
X10796372Y-15747984D01*
X10796372Y-15747984D02*
X10815420Y-15738460D01*
X10815420Y-15738460D02*
X10824944Y-15728936D01*
X10824944Y-15728936D02*
X10834468Y-15709888D01*
X10834468Y-15709888D02*
X10834468Y-15671793D01*
X10834468Y-15671793D02*
X10824944Y-15652746D01*
X10824944Y-15652746D02*
X10815420Y-15643222D01*
X10815420Y-15643222D02*
X10796372Y-15633698D01*
X10901134Y-15547984D02*
X11034468Y-15547984D01*
X11034468Y-15547984D02*
X10948753Y-15747984D01*
X11101134Y-15547984D02*
X11101134Y-15586079D01*
X11177325Y-15547984D02*
X11177325Y-15586079D01*
X11472563Y-15824174D02*
X11463039Y-15814650D01*
X11463039Y-15814650D02*
X11443991Y-15786079D01*
X11443991Y-15786079D02*
X11434468Y-15767031D01*
X11434468Y-15767031D02*
X11424944Y-15738460D01*
X11424944Y-15738460D02*
X11415420Y-15690841D01*
X11415420Y-15690841D02*
X11415420Y-15652746D01*
X11415420Y-15652746D02*
X11424944Y-15605127D01*
X11424944Y-15605127D02*
X11434468Y-15576555D01*
X11434468Y-15576555D02*
X11443991Y-15557508D01*
X11443991Y-15557508D02*
X11463039Y-15528936D01*
X11463039Y-15528936D02*
X11472563Y-15519412D01*
X11634468Y-15614650D02*
X11634468Y-15747984D01*
X11586848Y-15538460D02*
X11539229Y-15681317D01*
X11539229Y-15681317D02*
X11663039Y-15681317D01*
X11891610Y-15747984D02*
X11891610Y-15547984D01*
X11977325Y-15747984D02*
X11977325Y-15643222D01*
X11977325Y-15643222D02*
X11967801Y-15624174D01*
X11967801Y-15624174D02*
X11948753Y-15614650D01*
X11948753Y-15614650D02*
X11920182Y-15614650D01*
X11920182Y-15614650D02*
X11901134Y-15624174D01*
X11901134Y-15624174D02*
X11891610Y-15633698D01*
X12101134Y-15747984D02*
X12082087Y-15738460D01*
X12082087Y-15738460D02*
X12072563Y-15728936D01*
X12072563Y-15728936D02*
X12063039Y-15709888D01*
X12063039Y-15709888D02*
X12063039Y-15652746D01*
X12063039Y-15652746D02*
X12072563Y-15633698D01*
X12072563Y-15633698D02*
X12082087Y-15624174D01*
X12082087Y-15624174D02*
X12101134Y-15614650D01*
X12101134Y-15614650D02*
X12129706Y-15614650D01*
X12129706Y-15614650D02*
X12148753Y-15624174D01*
X12148753Y-15624174D02*
X12158277Y-15633698D01*
X12158277Y-15633698D02*
X12167801Y-15652746D01*
X12167801Y-15652746D02*
X12167801Y-15709888D01*
X12167801Y-15709888D02*
X12158277Y-15728936D01*
X12158277Y-15728936D02*
X12148753Y-15738460D01*
X12148753Y-15738460D02*
X12129706Y-15747984D01*
X12129706Y-15747984D02*
X12101134Y-15747984D01*
X12282087Y-15747984D02*
X12263039Y-15738460D01*
X12263039Y-15738460D02*
X12253515Y-15719412D01*
X12253515Y-15719412D02*
X12253515Y-15547984D01*
X12434468Y-15738460D02*
X12415420Y-15747984D01*
X12415420Y-15747984D02*
X12377325Y-15747984D01*
X12377325Y-15747984D02*
X12358277Y-15738460D01*
X12358277Y-15738460D02*
X12348753Y-15719412D01*
X12348753Y-15719412D02*
X12348753Y-15643222D01*
X12348753Y-15643222D02*
X12358277Y-15624174D01*
X12358277Y-15624174D02*
X12377325Y-15614650D01*
X12377325Y-15614650D02*
X12415420Y-15614650D01*
X12415420Y-15614650D02*
X12434468Y-15624174D01*
X12434468Y-15624174D02*
X12443991Y-15643222D01*
X12443991Y-15643222D02*
X12443991Y-15662269D01*
X12443991Y-15662269D02*
X12348753Y-15681317D01*
X12520182Y-15738460D02*
X12539230Y-15747984D01*
X12539230Y-15747984D02*
X12577325Y-15747984D01*
X12577325Y-15747984D02*
X12596372Y-15738460D01*
X12596372Y-15738460D02*
X12605896Y-15719412D01*
X12605896Y-15719412D02*
X12605896Y-15709888D01*
X12605896Y-15709888D02*
X12596372Y-15690841D01*
X12596372Y-15690841D02*
X12577325Y-15681317D01*
X12577325Y-15681317D02*
X12548753Y-15681317D01*
X12548753Y-15681317D02*
X12529706Y-15671793D01*
X12529706Y-15671793D02*
X12520182Y-15652746D01*
X12520182Y-15652746D02*
X12520182Y-15643222D01*
X12520182Y-15643222D02*
X12529706Y-15624174D01*
X12529706Y-15624174D02*
X12548753Y-15614650D01*
X12548753Y-15614650D02*
X12577325Y-15614650D01*
X12577325Y-15614650D02*
X12596372Y-15624174D01*
X12672563Y-15824174D02*
X12682087Y-15814650D01*
X12682087Y-15814650D02*
X12701134Y-15786079D01*
X12701134Y-15786079D02*
X12710658Y-15767031D01*
X12710658Y-15767031D02*
X12720182Y-15738460D01*
X12720182Y-15738460D02*
X12729706Y-15690841D01*
X12729706Y-15690841D02*
X12729706Y-15652746D01*
X12729706Y-15652746D02*
X12720182Y-15605127D01*
X12720182Y-15605127D02*
X12710658Y-15576555D01*
X12710658Y-15576555D02*
X12701134Y-15557508D01*
X12701134Y-15557508D02*
X12682087Y-15528936D01*
X12682087Y-15528936D02*
X12672563Y-15519412D01*
D12*
X7857500Y-15880500D02*
X7857500Y-15960500D01*
X7817500Y-15920500D02*
X7897500Y-15920500D01*
D11*
X8196372Y-15811984D02*
X8215420Y-15811984D01*
X8215420Y-15811984D02*
X8234467Y-15821508D01*
X8234467Y-15821508D02*
X8243991Y-15831031D01*
X8243991Y-15831031D02*
X8253515Y-15850079D01*
X8253515Y-15850079D02*
X8263039Y-15888174D01*
X8263039Y-15888174D02*
X8263039Y-15935793D01*
X8263039Y-15935793D02*
X8253515Y-15973888D01*
X8253515Y-15973888D02*
X8243991Y-15992936D01*
X8243991Y-15992936D02*
X8234467Y-16002460D01*
X8234467Y-16002460D02*
X8215420Y-16011984D01*
X8215420Y-16011984D02*
X8196372Y-16011984D01*
X8196372Y-16011984D02*
X8177324Y-16002460D01*
X8177324Y-16002460D02*
X8167801Y-15992936D01*
X8167801Y-15992936D02*
X8158277Y-15973888D01*
X8158277Y-15973888D02*
X8148753Y-15935793D01*
X8148753Y-15935793D02*
X8148753Y-15888174D01*
X8148753Y-15888174D02*
X8158277Y-15850079D01*
X8158277Y-15850079D02*
X8167801Y-15831031D01*
X8167801Y-15831031D02*
X8177324Y-15821508D01*
X8177324Y-15821508D02*
X8196372Y-15811984D01*
X8348753Y-15992936D02*
X8358277Y-16002460D01*
X8358277Y-16002460D02*
X8348753Y-16011984D01*
X8348753Y-16011984D02*
X8339229Y-16002460D01*
X8339229Y-16002460D02*
X8348753Y-15992936D01*
X8348753Y-15992936D02*
X8348753Y-16011984D01*
X8472563Y-15897698D02*
X8453515Y-15888174D01*
X8453515Y-15888174D02*
X8443991Y-15878650D01*
X8443991Y-15878650D02*
X8434467Y-15859603D01*
X8434467Y-15859603D02*
X8434467Y-15850079D01*
X8434467Y-15850079D02*
X8443991Y-15831031D01*
X8443991Y-15831031D02*
X8453515Y-15821508D01*
X8453515Y-15821508D02*
X8472563Y-15811984D01*
X8472563Y-15811984D02*
X8510658Y-15811984D01*
X8510658Y-15811984D02*
X8529705Y-15821508D01*
X8529705Y-15821508D02*
X8539229Y-15831031D01*
X8539229Y-15831031D02*
X8548753Y-15850079D01*
X8548753Y-15850079D02*
X8548753Y-15859603D01*
X8548753Y-15859603D02*
X8539229Y-15878650D01*
X8539229Y-15878650D02*
X8529705Y-15888174D01*
X8529705Y-15888174D02*
X8510658Y-15897698D01*
X8510658Y-15897698D02*
X8472563Y-15897698D01*
X8472563Y-15897698D02*
X8453515Y-15907222D01*
X8453515Y-15907222D02*
X8443991Y-15916746D01*
X8443991Y-15916746D02*
X8434467Y-15935793D01*
X8434467Y-15935793D02*
X8434467Y-15973888D01*
X8434467Y-15973888D02*
X8443991Y-15992936D01*
X8443991Y-15992936D02*
X8453515Y-16002460D01*
X8453515Y-16002460D02*
X8472563Y-16011984D01*
X8472563Y-16011984D02*
X8510658Y-16011984D01*
X8510658Y-16011984D02*
X8529705Y-16002460D01*
X8529705Y-16002460D02*
X8539229Y-15992936D01*
X8539229Y-15992936D02*
X8548753Y-15973888D01*
X8548753Y-15973888D02*
X8548753Y-15935793D01*
X8548753Y-15935793D02*
X8539229Y-15916746D01*
X8539229Y-15916746D02*
X8529705Y-15907222D01*
X8529705Y-15907222D02*
X8510658Y-15897698D01*
X8672563Y-15811984D02*
X8691610Y-15811984D01*
X8691610Y-15811984D02*
X8710658Y-15821508D01*
X8710658Y-15821508D02*
X8720182Y-15831031D01*
X8720182Y-15831031D02*
X8729705Y-15850079D01*
X8729705Y-15850079D02*
X8739229Y-15888174D01*
X8739229Y-15888174D02*
X8739229Y-15935793D01*
X8739229Y-15935793D02*
X8729705Y-15973888D01*
X8729705Y-15973888D02*
X8720182Y-15992936D01*
X8720182Y-15992936D02*
X8710658Y-16002460D01*
X8710658Y-16002460D02*
X8691610Y-16011984D01*
X8691610Y-16011984D02*
X8672563Y-16011984D01*
X8672563Y-16011984D02*
X8653515Y-16002460D01*
X8653515Y-16002460D02*
X8643991Y-15992936D01*
X8643991Y-15992936D02*
X8634467Y-15973888D01*
X8634467Y-15973888D02*
X8624944Y-15935793D01*
X8624944Y-15935793D02*
X8624944Y-15888174D01*
X8624944Y-15888174D02*
X8634467Y-15850079D01*
X8634467Y-15850079D02*
X8643991Y-15831031D01*
X8643991Y-15831031D02*
X8653515Y-15821508D01*
X8653515Y-15821508D02*
X8672563Y-15811984D01*
X8863039Y-15811984D02*
X8882086Y-15811984D01*
X8882086Y-15811984D02*
X8901134Y-15821508D01*
X8901134Y-15821508D02*
X8910658Y-15831031D01*
X8910658Y-15831031D02*
X8920182Y-15850079D01*
X8920182Y-15850079D02*
X8929705Y-15888174D01*
X8929705Y-15888174D02*
X8929705Y-15935793D01*
X8929705Y-15935793D02*
X8920182Y-15973888D01*
X8920182Y-15973888D02*
X8910658Y-15992936D01*
X8910658Y-15992936D02*
X8901134Y-16002460D01*
X8901134Y-16002460D02*
X8882086Y-16011984D01*
X8882086Y-16011984D02*
X8863039Y-16011984D01*
X8863039Y-16011984D02*
X8843991Y-16002460D01*
X8843991Y-16002460D02*
X8834467Y-15992936D01*
X8834467Y-15992936D02*
X8824944Y-15973888D01*
X8824944Y-15973888D02*
X8815420Y-15935793D01*
X8815420Y-15935793D02*
X8815420Y-15888174D01*
X8815420Y-15888174D02*
X8824944Y-15850079D01*
X8824944Y-15850079D02*
X8834467Y-15831031D01*
X8834467Y-15831031D02*
X8843991Y-15821508D01*
X8843991Y-15821508D02*
X8863039Y-15811984D01*
X9015420Y-16011984D02*
X9015420Y-15878650D01*
X9015420Y-15897698D02*
X9024944Y-15888174D01*
X9024944Y-15888174D02*
X9043991Y-15878650D01*
X9043991Y-15878650D02*
X9072563Y-15878650D01*
X9072563Y-15878650D02*
X9091610Y-15888174D01*
X9091610Y-15888174D02*
X9101134Y-15907222D01*
X9101134Y-15907222D02*
X9101134Y-16011984D01*
X9101134Y-15907222D02*
X9110658Y-15888174D01*
X9110658Y-15888174D02*
X9129705Y-15878650D01*
X9129705Y-15878650D02*
X9158277Y-15878650D01*
X9158277Y-15878650D02*
X9177325Y-15888174D01*
X9177325Y-15888174D02*
X9186848Y-15907222D01*
X9186848Y-15907222D02*
X9186848Y-16011984D01*
X9282086Y-16011984D02*
X9282086Y-15878650D01*
X9282086Y-15897698D02*
X9291610Y-15888174D01*
X9291610Y-15888174D02*
X9310658Y-15878650D01*
X9310658Y-15878650D02*
X9339229Y-15878650D01*
X9339229Y-15878650D02*
X9358277Y-15888174D01*
X9358277Y-15888174D02*
X9367801Y-15907222D01*
X9367801Y-15907222D02*
X9367801Y-16011984D01*
X9367801Y-15907222D02*
X9377325Y-15888174D01*
X9377325Y-15888174D02*
X9396372Y-15878650D01*
X9396372Y-15878650D02*
X9424944Y-15878650D01*
X9424944Y-15878650D02*
X9443991Y-15888174D01*
X9443991Y-15888174D02*
X9453515Y-15907222D01*
X9453515Y-15907222D02*
X9453515Y-16011984D01*
X9843991Y-15802460D02*
X9672563Y-16059603D01*
X10101134Y-15811984D02*
X10120182Y-15811984D01*
X10120182Y-15811984D02*
X10139229Y-15821508D01*
X10139229Y-15821508D02*
X10148753Y-15831031D01*
X10148753Y-15831031D02*
X10158277Y-15850079D01*
X10158277Y-15850079D02*
X10167801Y-15888174D01*
X10167801Y-15888174D02*
X10167801Y-15935793D01*
X10167801Y-15935793D02*
X10158277Y-15973888D01*
X10158277Y-15973888D02*
X10148753Y-15992936D01*
X10148753Y-15992936D02*
X10139229Y-16002460D01*
X10139229Y-16002460D02*
X10120182Y-16011984D01*
X10120182Y-16011984D02*
X10101134Y-16011984D01*
X10101134Y-16011984D02*
X10082087Y-16002460D01*
X10082087Y-16002460D02*
X10072563Y-15992936D01*
X10072563Y-15992936D02*
X10063039Y-15973888D01*
X10063039Y-15973888D02*
X10053515Y-15935793D01*
X10053515Y-15935793D02*
X10053515Y-15888174D01*
X10053515Y-15888174D02*
X10063039Y-15850079D01*
X10063039Y-15850079D02*
X10072563Y-15831031D01*
X10072563Y-15831031D02*
X10082087Y-15821508D01*
X10082087Y-15821508D02*
X10101134Y-15811984D01*
X10253515Y-15992936D02*
X10263039Y-16002460D01*
X10263039Y-16002460D02*
X10253515Y-16011984D01*
X10253515Y-16011984D02*
X10243991Y-16002460D01*
X10243991Y-16002460D02*
X10253515Y-15992936D01*
X10253515Y-15992936D02*
X10253515Y-16011984D01*
X10386848Y-15811984D02*
X10405896Y-15811984D01*
X10405896Y-15811984D02*
X10424944Y-15821508D01*
X10424944Y-15821508D02*
X10434468Y-15831031D01*
X10434468Y-15831031D02*
X10443991Y-15850079D01*
X10443991Y-15850079D02*
X10453515Y-15888174D01*
X10453515Y-15888174D02*
X10453515Y-15935793D01*
X10453515Y-15935793D02*
X10443991Y-15973888D01*
X10443991Y-15973888D02*
X10434468Y-15992936D01*
X10434468Y-15992936D02*
X10424944Y-16002460D01*
X10424944Y-16002460D02*
X10405896Y-16011984D01*
X10405896Y-16011984D02*
X10386848Y-16011984D01*
X10386848Y-16011984D02*
X10367801Y-16002460D01*
X10367801Y-16002460D02*
X10358277Y-15992936D01*
X10358277Y-15992936D02*
X10348753Y-15973888D01*
X10348753Y-15973888D02*
X10339229Y-15935793D01*
X10339229Y-15935793D02*
X10339229Y-15888174D01*
X10339229Y-15888174D02*
X10348753Y-15850079D01*
X10348753Y-15850079D02*
X10358277Y-15831031D01*
X10358277Y-15831031D02*
X10367801Y-15821508D01*
X10367801Y-15821508D02*
X10386848Y-15811984D01*
X10520182Y-15811984D02*
X10643991Y-15811984D01*
X10643991Y-15811984D02*
X10577325Y-15888174D01*
X10577325Y-15888174D02*
X10605896Y-15888174D01*
X10605896Y-15888174D02*
X10624944Y-15897698D01*
X10624944Y-15897698D02*
X10634468Y-15907222D01*
X10634468Y-15907222D02*
X10643991Y-15926269D01*
X10643991Y-15926269D02*
X10643991Y-15973888D01*
X10643991Y-15973888D02*
X10634468Y-15992936D01*
X10634468Y-15992936D02*
X10624944Y-16002460D01*
X10624944Y-16002460D02*
X10605896Y-16011984D01*
X10605896Y-16011984D02*
X10548753Y-16011984D01*
X10548753Y-16011984D02*
X10529706Y-16002460D01*
X10529706Y-16002460D02*
X10520182Y-15992936D01*
X10834468Y-16011984D02*
X10720182Y-16011984D01*
X10777325Y-16011984D02*
X10777325Y-15811984D01*
X10777325Y-15811984D02*
X10758277Y-15840555D01*
X10758277Y-15840555D02*
X10739229Y-15859603D01*
X10739229Y-15859603D02*
X10720182Y-15869127D01*
X11015420Y-15811984D02*
X10920182Y-15811984D01*
X10920182Y-15811984D02*
X10910658Y-15907222D01*
X10910658Y-15907222D02*
X10920182Y-15897698D01*
X10920182Y-15897698D02*
X10939229Y-15888174D01*
X10939229Y-15888174D02*
X10986849Y-15888174D01*
X10986849Y-15888174D02*
X11005896Y-15897698D01*
X11005896Y-15897698D02*
X11015420Y-15907222D01*
X11015420Y-15907222D02*
X11024944Y-15926269D01*
X11024944Y-15926269D02*
X11024944Y-15973888D01*
X11024944Y-15973888D02*
X11015420Y-15992936D01*
X11015420Y-15992936D02*
X11005896Y-16002460D01*
X11005896Y-16002460D02*
X10986849Y-16011984D01*
X10986849Y-16011984D02*
X10939229Y-16011984D01*
X10939229Y-16011984D02*
X10920182Y-16002460D01*
X10920182Y-16002460D02*
X10910658Y-15992936D01*
X11101134Y-15811984D02*
X11101134Y-15850079D01*
X11177325Y-15811984D02*
X11177325Y-15850079D01*
X11472563Y-16088174D02*
X11463039Y-16078650D01*
X11463039Y-16078650D02*
X11443991Y-16050079D01*
X11443991Y-16050079D02*
X11434468Y-16031031D01*
X11434468Y-16031031D02*
X11424944Y-16002460D01*
X11424944Y-16002460D02*
X11415420Y-15954841D01*
X11415420Y-15954841D02*
X11415420Y-15916746D01*
X11415420Y-15916746D02*
X11424944Y-15869127D01*
X11424944Y-15869127D02*
X11434468Y-15840555D01*
X11434468Y-15840555D02*
X11443991Y-15821508D01*
X11443991Y-15821508D02*
X11463039Y-15792936D01*
X11463039Y-15792936D02*
X11472563Y-15783412D01*
X11653515Y-16011984D02*
X11539229Y-16011984D01*
X11596372Y-16011984D02*
X11596372Y-15811984D01*
X11596372Y-15811984D02*
X11577325Y-15840555D01*
X11577325Y-15840555D02*
X11558277Y-15859603D01*
X11558277Y-15859603D02*
X11539229Y-15869127D01*
X11843991Y-16011984D02*
X11729706Y-16011984D01*
X11786848Y-16011984D02*
X11786848Y-15811984D01*
X11786848Y-15811984D02*
X11767801Y-15840555D01*
X11767801Y-15840555D02*
X11748753Y-15859603D01*
X11748753Y-15859603D02*
X11729706Y-15869127D01*
X12082087Y-16011984D02*
X12082087Y-15811984D01*
X12167801Y-16011984D02*
X12167801Y-15907222D01*
X12167801Y-15907222D02*
X12158277Y-15888174D01*
X12158277Y-15888174D02*
X12139230Y-15878650D01*
X12139230Y-15878650D02*
X12110658Y-15878650D01*
X12110658Y-15878650D02*
X12091610Y-15888174D01*
X12091610Y-15888174D02*
X12082087Y-15897698D01*
X12291610Y-16011984D02*
X12272563Y-16002460D01*
X12272563Y-16002460D02*
X12263039Y-15992936D01*
X12263039Y-15992936D02*
X12253515Y-15973888D01*
X12253515Y-15973888D02*
X12253515Y-15916746D01*
X12253515Y-15916746D02*
X12263039Y-15897698D01*
X12263039Y-15897698D02*
X12272563Y-15888174D01*
X12272563Y-15888174D02*
X12291610Y-15878650D01*
X12291610Y-15878650D02*
X12320182Y-15878650D01*
X12320182Y-15878650D02*
X12339230Y-15888174D01*
X12339230Y-15888174D02*
X12348753Y-15897698D01*
X12348753Y-15897698D02*
X12358277Y-15916746D01*
X12358277Y-15916746D02*
X12358277Y-15973888D01*
X12358277Y-15973888D02*
X12348753Y-15992936D01*
X12348753Y-15992936D02*
X12339230Y-16002460D01*
X12339230Y-16002460D02*
X12320182Y-16011984D01*
X12320182Y-16011984D02*
X12291610Y-16011984D01*
X12472563Y-16011984D02*
X12453515Y-16002460D01*
X12453515Y-16002460D02*
X12443991Y-15983412D01*
X12443991Y-15983412D02*
X12443991Y-15811984D01*
X12624944Y-16002460D02*
X12605896Y-16011984D01*
X12605896Y-16011984D02*
X12567801Y-16011984D01*
X12567801Y-16011984D02*
X12548753Y-16002460D01*
X12548753Y-16002460D02*
X12539230Y-15983412D01*
X12539230Y-15983412D02*
X12539230Y-15907222D01*
X12539230Y-15907222D02*
X12548753Y-15888174D01*
X12548753Y-15888174D02*
X12567801Y-15878650D01*
X12567801Y-15878650D02*
X12605896Y-15878650D01*
X12605896Y-15878650D02*
X12624944Y-15888174D01*
X12624944Y-15888174D02*
X12634468Y-15907222D01*
X12634468Y-15907222D02*
X12634468Y-15926269D01*
X12634468Y-15926269D02*
X12539230Y-15945317D01*
X12710658Y-16002460D02*
X12729706Y-16011984D01*
X12729706Y-16011984D02*
X12767801Y-16011984D01*
X12767801Y-16011984D02*
X12786849Y-16002460D01*
X12786849Y-16002460D02*
X12796372Y-15983412D01*
X12796372Y-15983412D02*
X12796372Y-15973888D01*
X12796372Y-15973888D02*
X12786849Y-15954841D01*
X12786849Y-15954841D02*
X12767801Y-15945317D01*
X12767801Y-15945317D02*
X12739230Y-15945317D01*
X12739230Y-15945317D02*
X12720182Y-15935793D01*
X12720182Y-15935793D02*
X12710658Y-15916746D01*
X12710658Y-15916746D02*
X12710658Y-15907222D01*
X12710658Y-15907222D02*
X12720182Y-15888174D01*
X12720182Y-15888174D02*
X12739230Y-15878650D01*
X12739230Y-15878650D02*
X12767801Y-15878650D01*
X12767801Y-15878650D02*
X12786849Y-15888174D01*
X12863039Y-16088174D02*
X12872563Y-16078650D01*
X12872563Y-16078650D02*
X12891611Y-16050079D01*
X12891611Y-16050079D02*
X12901134Y-16031031D01*
X12901134Y-16031031D02*
X12910658Y-16002460D01*
X12910658Y-16002460D02*
X12920182Y-15954841D01*
X12920182Y-15954841D02*
X12920182Y-15916746D01*
X12920182Y-15916746D02*
X12910658Y-15869127D01*
X12910658Y-15869127D02*
X12901134Y-15840555D01*
X12901134Y-15840555D02*
X12891611Y-15821508D01*
X12891611Y-15821508D02*
X12872563Y-15792936D01*
X12872563Y-15792936D02*
X12863039Y-15783412D01*
D12*
X7882856Y-16219856D02*
X7882856Y-16149144D01*
X7812144Y-16149144D01*
X7812144Y-16219856D01*
X7882856Y-16219856D01*
D11*
X8263039Y-16275984D02*
X8148753Y-16275984D01*
X8205896Y-16275984D02*
X8205896Y-16075984D01*
X8205896Y-16075984D02*
X8186848Y-16104555D01*
X8186848Y-16104555D02*
X8167801Y-16123603D01*
X8167801Y-16123603D02*
X8148753Y-16133127D01*
X8348753Y-16256936D02*
X8358277Y-16266460D01*
X8358277Y-16266460D02*
X8348753Y-16275984D01*
X8348753Y-16275984D02*
X8339229Y-16266460D01*
X8339229Y-16266460D02*
X8348753Y-16256936D01*
X8348753Y-16256936D02*
X8348753Y-16275984D01*
X8482086Y-16075984D02*
X8501134Y-16075984D01*
X8501134Y-16075984D02*
X8520182Y-16085508D01*
X8520182Y-16085508D02*
X8529705Y-16095031D01*
X8529705Y-16095031D02*
X8539229Y-16114079D01*
X8539229Y-16114079D02*
X8548753Y-16152174D01*
X8548753Y-16152174D02*
X8548753Y-16199793D01*
X8548753Y-16199793D02*
X8539229Y-16237888D01*
X8539229Y-16237888D02*
X8529705Y-16256936D01*
X8529705Y-16256936D02*
X8520182Y-16266460D01*
X8520182Y-16266460D02*
X8501134Y-16275984D01*
X8501134Y-16275984D02*
X8482086Y-16275984D01*
X8482086Y-16275984D02*
X8463039Y-16266460D01*
X8463039Y-16266460D02*
X8453515Y-16256936D01*
X8453515Y-16256936D02*
X8443991Y-16237888D01*
X8443991Y-16237888D02*
X8434467Y-16199793D01*
X8434467Y-16199793D02*
X8434467Y-16152174D01*
X8434467Y-16152174D02*
X8443991Y-16114079D01*
X8443991Y-16114079D02*
X8453515Y-16095031D01*
X8453515Y-16095031D02*
X8463039Y-16085508D01*
X8463039Y-16085508D02*
X8482086Y-16075984D01*
X8672563Y-16075984D02*
X8691610Y-16075984D01*
X8691610Y-16075984D02*
X8710658Y-16085508D01*
X8710658Y-16085508D02*
X8720182Y-16095031D01*
X8720182Y-16095031D02*
X8729705Y-16114079D01*
X8729705Y-16114079D02*
X8739229Y-16152174D01*
X8739229Y-16152174D02*
X8739229Y-16199793D01*
X8739229Y-16199793D02*
X8729705Y-16237888D01*
X8729705Y-16237888D02*
X8720182Y-16256936D01*
X8720182Y-16256936D02*
X8710658Y-16266460D01*
X8710658Y-16266460D02*
X8691610Y-16275984D01*
X8691610Y-16275984D02*
X8672563Y-16275984D01*
X8672563Y-16275984D02*
X8653515Y-16266460D01*
X8653515Y-16266460D02*
X8643991Y-16256936D01*
X8643991Y-16256936D02*
X8634467Y-16237888D01*
X8634467Y-16237888D02*
X8624944Y-16199793D01*
X8624944Y-16199793D02*
X8624944Y-16152174D01*
X8624944Y-16152174D02*
X8634467Y-16114079D01*
X8634467Y-16114079D02*
X8643991Y-16095031D01*
X8643991Y-16095031D02*
X8653515Y-16085508D01*
X8653515Y-16085508D02*
X8672563Y-16075984D01*
X8863039Y-16075984D02*
X8882086Y-16075984D01*
X8882086Y-16075984D02*
X8901134Y-16085508D01*
X8901134Y-16085508D02*
X8910658Y-16095031D01*
X8910658Y-16095031D02*
X8920182Y-16114079D01*
X8920182Y-16114079D02*
X8929705Y-16152174D01*
X8929705Y-16152174D02*
X8929705Y-16199793D01*
X8929705Y-16199793D02*
X8920182Y-16237888D01*
X8920182Y-16237888D02*
X8910658Y-16256936D01*
X8910658Y-16256936D02*
X8901134Y-16266460D01*
X8901134Y-16266460D02*
X8882086Y-16275984D01*
X8882086Y-16275984D02*
X8863039Y-16275984D01*
X8863039Y-16275984D02*
X8843991Y-16266460D01*
X8843991Y-16266460D02*
X8834467Y-16256936D01*
X8834467Y-16256936D02*
X8824944Y-16237888D01*
X8824944Y-16237888D02*
X8815420Y-16199793D01*
X8815420Y-16199793D02*
X8815420Y-16152174D01*
X8815420Y-16152174D02*
X8824944Y-16114079D01*
X8824944Y-16114079D02*
X8834467Y-16095031D01*
X8834467Y-16095031D02*
X8843991Y-16085508D01*
X8843991Y-16085508D02*
X8863039Y-16075984D01*
X9015420Y-16275984D02*
X9015420Y-16142650D01*
X9015420Y-16161698D02*
X9024944Y-16152174D01*
X9024944Y-16152174D02*
X9043991Y-16142650D01*
X9043991Y-16142650D02*
X9072563Y-16142650D01*
X9072563Y-16142650D02*
X9091610Y-16152174D01*
X9091610Y-16152174D02*
X9101134Y-16171222D01*
X9101134Y-16171222D02*
X9101134Y-16275984D01*
X9101134Y-16171222D02*
X9110658Y-16152174D01*
X9110658Y-16152174D02*
X9129705Y-16142650D01*
X9129705Y-16142650D02*
X9158277Y-16142650D01*
X9158277Y-16142650D02*
X9177325Y-16152174D01*
X9177325Y-16152174D02*
X9186848Y-16171222D01*
X9186848Y-16171222D02*
X9186848Y-16275984D01*
X9282086Y-16275984D02*
X9282086Y-16142650D01*
X9282086Y-16161698D02*
X9291610Y-16152174D01*
X9291610Y-16152174D02*
X9310658Y-16142650D01*
X9310658Y-16142650D02*
X9339229Y-16142650D01*
X9339229Y-16142650D02*
X9358277Y-16152174D01*
X9358277Y-16152174D02*
X9367801Y-16171222D01*
X9367801Y-16171222D02*
X9367801Y-16275984D01*
X9367801Y-16171222D02*
X9377325Y-16152174D01*
X9377325Y-16152174D02*
X9396372Y-16142650D01*
X9396372Y-16142650D02*
X9424944Y-16142650D01*
X9424944Y-16142650D02*
X9443991Y-16152174D01*
X9443991Y-16152174D02*
X9453515Y-16171222D01*
X9453515Y-16171222D02*
X9453515Y-16275984D01*
X9843991Y-16066460D02*
X9672563Y-16323603D01*
X10101134Y-16075984D02*
X10120182Y-16075984D01*
X10120182Y-16075984D02*
X10139229Y-16085508D01*
X10139229Y-16085508D02*
X10148753Y-16095031D01*
X10148753Y-16095031D02*
X10158277Y-16114079D01*
X10158277Y-16114079D02*
X10167801Y-16152174D01*
X10167801Y-16152174D02*
X10167801Y-16199793D01*
X10167801Y-16199793D02*
X10158277Y-16237888D01*
X10158277Y-16237888D02*
X10148753Y-16256936D01*
X10148753Y-16256936D02*
X10139229Y-16266460D01*
X10139229Y-16266460D02*
X10120182Y-16275984D01*
X10120182Y-16275984D02*
X10101134Y-16275984D01*
X10101134Y-16275984D02*
X10082087Y-16266460D01*
X10082087Y-16266460D02*
X10072563Y-16256936D01*
X10072563Y-16256936D02*
X10063039Y-16237888D01*
X10063039Y-16237888D02*
X10053515Y-16199793D01*
X10053515Y-16199793D02*
X10053515Y-16152174D01*
X10053515Y-16152174D02*
X10063039Y-16114079D01*
X10063039Y-16114079D02*
X10072563Y-16095031D01*
X10072563Y-16095031D02*
X10082087Y-16085508D01*
X10082087Y-16085508D02*
X10101134Y-16075984D01*
X10253515Y-16256936D02*
X10263039Y-16266460D01*
X10263039Y-16266460D02*
X10253515Y-16275984D01*
X10253515Y-16275984D02*
X10243991Y-16266460D01*
X10243991Y-16266460D02*
X10253515Y-16256936D01*
X10253515Y-16256936D02*
X10253515Y-16275984D01*
X10386848Y-16075984D02*
X10405896Y-16075984D01*
X10405896Y-16075984D02*
X10424944Y-16085508D01*
X10424944Y-16085508D02*
X10434468Y-16095031D01*
X10434468Y-16095031D02*
X10443991Y-16114079D01*
X10443991Y-16114079D02*
X10453515Y-16152174D01*
X10453515Y-16152174D02*
X10453515Y-16199793D01*
X10453515Y-16199793D02*
X10443991Y-16237888D01*
X10443991Y-16237888D02*
X10434468Y-16256936D01*
X10434468Y-16256936D02*
X10424944Y-16266460D01*
X10424944Y-16266460D02*
X10405896Y-16275984D01*
X10405896Y-16275984D02*
X10386848Y-16275984D01*
X10386848Y-16275984D02*
X10367801Y-16266460D01*
X10367801Y-16266460D02*
X10358277Y-16256936D01*
X10358277Y-16256936D02*
X10348753Y-16237888D01*
X10348753Y-16237888D02*
X10339229Y-16199793D01*
X10339229Y-16199793D02*
X10339229Y-16152174D01*
X10339229Y-16152174D02*
X10348753Y-16114079D01*
X10348753Y-16114079D02*
X10358277Y-16095031D01*
X10358277Y-16095031D02*
X10367801Y-16085508D01*
X10367801Y-16085508D02*
X10386848Y-16075984D01*
X10520182Y-16075984D02*
X10643991Y-16075984D01*
X10643991Y-16075984D02*
X10577325Y-16152174D01*
X10577325Y-16152174D02*
X10605896Y-16152174D01*
X10605896Y-16152174D02*
X10624944Y-16161698D01*
X10624944Y-16161698D02*
X10634468Y-16171222D01*
X10634468Y-16171222D02*
X10643991Y-16190269D01*
X10643991Y-16190269D02*
X10643991Y-16237888D01*
X10643991Y-16237888D02*
X10634468Y-16256936D01*
X10634468Y-16256936D02*
X10624944Y-16266460D01*
X10624944Y-16266460D02*
X10605896Y-16275984D01*
X10605896Y-16275984D02*
X10548753Y-16275984D01*
X10548753Y-16275984D02*
X10529706Y-16266460D01*
X10529706Y-16266460D02*
X10520182Y-16256936D01*
X10739229Y-16275984D02*
X10777325Y-16275984D01*
X10777325Y-16275984D02*
X10796372Y-16266460D01*
X10796372Y-16266460D02*
X10805896Y-16256936D01*
X10805896Y-16256936D02*
X10824944Y-16228365D01*
X10824944Y-16228365D02*
X10834468Y-16190269D01*
X10834468Y-16190269D02*
X10834468Y-16114079D01*
X10834468Y-16114079D02*
X10824944Y-16095031D01*
X10824944Y-16095031D02*
X10815420Y-16085508D01*
X10815420Y-16085508D02*
X10796372Y-16075984D01*
X10796372Y-16075984D02*
X10758277Y-16075984D01*
X10758277Y-16075984D02*
X10739229Y-16085508D01*
X10739229Y-16085508D02*
X10729706Y-16095031D01*
X10729706Y-16095031D02*
X10720182Y-16114079D01*
X10720182Y-16114079D02*
X10720182Y-16161698D01*
X10720182Y-16161698D02*
X10729706Y-16180746D01*
X10729706Y-16180746D02*
X10739229Y-16190269D01*
X10739229Y-16190269D02*
X10758277Y-16199793D01*
X10758277Y-16199793D02*
X10796372Y-16199793D01*
X10796372Y-16199793D02*
X10815420Y-16190269D01*
X10815420Y-16190269D02*
X10824944Y-16180746D01*
X10824944Y-16180746D02*
X10834468Y-16161698D01*
X11005896Y-16142650D02*
X11005896Y-16275984D01*
X10958277Y-16066460D02*
X10910658Y-16209317D01*
X10910658Y-16209317D02*
X11034468Y-16209317D01*
X11101134Y-16075984D02*
X11101134Y-16114079D01*
X11177325Y-16075984D02*
X11177325Y-16114079D01*
X11472563Y-16352174D02*
X11463039Y-16342650D01*
X11463039Y-16342650D02*
X11443991Y-16314079D01*
X11443991Y-16314079D02*
X11434468Y-16295031D01*
X11434468Y-16295031D02*
X11424944Y-16266460D01*
X11424944Y-16266460D02*
X11415420Y-16218841D01*
X11415420Y-16218841D02*
X11415420Y-16180746D01*
X11415420Y-16180746D02*
X11424944Y-16133127D01*
X11424944Y-16133127D02*
X11434468Y-16104555D01*
X11434468Y-16104555D02*
X11443991Y-16085508D01*
X11443991Y-16085508D02*
X11463039Y-16056936D01*
X11463039Y-16056936D02*
X11472563Y-16047412D01*
X11577325Y-16161698D02*
X11558277Y-16152174D01*
X11558277Y-16152174D02*
X11548753Y-16142650D01*
X11548753Y-16142650D02*
X11539229Y-16123603D01*
X11539229Y-16123603D02*
X11539229Y-16114079D01*
X11539229Y-16114079D02*
X11548753Y-16095031D01*
X11548753Y-16095031D02*
X11558277Y-16085508D01*
X11558277Y-16085508D02*
X11577325Y-16075984D01*
X11577325Y-16075984D02*
X11615420Y-16075984D01*
X11615420Y-16075984D02*
X11634468Y-16085508D01*
X11634468Y-16085508D02*
X11643991Y-16095031D01*
X11643991Y-16095031D02*
X11653515Y-16114079D01*
X11653515Y-16114079D02*
X11653515Y-16123603D01*
X11653515Y-16123603D02*
X11643991Y-16142650D01*
X11643991Y-16142650D02*
X11634468Y-16152174D01*
X11634468Y-16152174D02*
X11615420Y-16161698D01*
X11615420Y-16161698D02*
X11577325Y-16161698D01*
X11577325Y-16161698D02*
X11558277Y-16171222D01*
X11558277Y-16171222D02*
X11548753Y-16180746D01*
X11548753Y-16180746D02*
X11539229Y-16199793D01*
X11539229Y-16199793D02*
X11539229Y-16237888D01*
X11539229Y-16237888D02*
X11548753Y-16256936D01*
X11548753Y-16256936D02*
X11558277Y-16266460D01*
X11558277Y-16266460D02*
X11577325Y-16275984D01*
X11577325Y-16275984D02*
X11615420Y-16275984D01*
X11615420Y-16275984D02*
X11634468Y-16266460D01*
X11634468Y-16266460D02*
X11643991Y-16256936D01*
X11643991Y-16256936D02*
X11653515Y-16237888D01*
X11653515Y-16237888D02*
X11653515Y-16199793D01*
X11653515Y-16199793D02*
X11643991Y-16180746D01*
X11643991Y-16180746D02*
X11634468Y-16171222D01*
X11634468Y-16171222D02*
X11615420Y-16161698D01*
X11891610Y-16275984D02*
X11891610Y-16075984D01*
X11977325Y-16275984D02*
X11977325Y-16171222D01*
X11977325Y-16171222D02*
X11967801Y-16152174D01*
X11967801Y-16152174D02*
X11948753Y-16142650D01*
X11948753Y-16142650D02*
X11920182Y-16142650D01*
X11920182Y-16142650D02*
X11901134Y-16152174D01*
X11901134Y-16152174D02*
X11891610Y-16161698D01*
X12101134Y-16275984D02*
X12082087Y-16266460D01*
X12082087Y-16266460D02*
X12072563Y-16256936D01*
X12072563Y-16256936D02*
X12063039Y-16237888D01*
X12063039Y-16237888D02*
X12063039Y-16180746D01*
X12063039Y-16180746D02*
X12072563Y-16161698D01*
X12072563Y-16161698D02*
X12082087Y-16152174D01*
X12082087Y-16152174D02*
X12101134Y-16142650D01*
X12101134Y-16142650D02*
X12129706Y-16142650D01*
X12129706Y-16142650D02*
X12148753Y-16152174D01*
X12148753Y-16152174D02*
X12158277Y-16161698D01*
X12158277Y-16161698D02*
X12167801Y-16180746D01*
X12167801Y-16180746D02*
X12167801Y-16237888D01*
X12167801Y-16237888D02*
X12158277Y-16256936D01*
X12158277Y-16256936D02*
X12148753Y-16266460D01*
X12148753Y-16266460D02*
X12129706Y-16275984D01*
X12129706Y-16275984D02*
X12101134Y-16275984D01*
X12282087Y-16275984D02*
X12263039Y-16266460D01*
X12263039Y-16266460D02*
X12253515Y-16247412D01*
X12253515Y-16247412D02*
X12253515Y-16075984D01*
X12434468Y-16266460D02*
X12415420Y-16275984D01*
X12415420Y-16275984D02*
X12377325Y-16275984D01*
X12377325Y-16275984D02*
X12358277Y-16266460D01*
X12358277Y-16266460D02*
X12348753Y-16247412D01*
X12348753Y-16247412D02*
X12348753Y-16171222D01*
X12348753Y-16171222D02*
X12358277Y-16152174D01*
X12358277Y-16152174D02*
X12377325Y-16142650D01*
X12377325Y-16142650D02*
X12415420Y-16142650D01*
X12415420Y-16142650D02*
X12434468Y-16152174D01*
X12434468Y-16152174D02*
X12443991Y-16171222D01*
X12443991Y-16171222D02*
X12443991Y-16190269D01*
X12443991Y-16190269D02*
X12348753Y-16209317D01*
X12520182Y-16266460D02*
X12539230Y-16275984D01*
X12539230Y-16275984D02*
X12577325Y-16275984D01*
X12577325Y-16275984D02*
X12596372Y-16266460D01*
X12596372Y-16266460D02*
X12605896Y-16247412D01*
X12605896Y-16247412D02*
X12605896Y-16237888D01*
X12605896Y-16237888D02*
X12596372Y-16218841D01*
X12596372Y-16218841D02*
X12577325Y-16209317D01*
X12577325Y-16209317D02*
X12548753Y-16209317D01*
X12548753Y-16209317D02*
X12529706Y-16199793D01*
X12529706Y-16199793D02*
X12520182Y-16180746D01*
X12520182Y-16180746D02*
X12520182Y-16171222D01*
X12520182Y-16171222D02*
X12529706Y-16152174D01*
X12529706Y-16152174D02*
X12548753Y-16142650D01*
X12548753Y-16142650D02*
X12577325Y-16142650D01*
X12577325Y-16142650D02*
X12596372Y-16152174D01*
X12672563Y-16352174D02*
X12682087Y-16342650D01*
X12682087Y-16342650D02*
X12701134Y-16314079D01*
X12701134Y-16314079D02*
X12710658Y-16295031D01*
X12710658Y-16295031D02*
X12720182Y-16266460D01*
X12720182Y-16266460D02*
X12729706Y-16218841D01*
X12729706Y-16218841D02*
X12729706Y-16180746D01*
X12729706Y-16180746D02*
X12720182Y-16133127D01*
X12720182Y-16133127D02*
X12710658Y-16104555D01*
X12710658Y-16104555D02*
X12701134Y-16085508D01*
X12701134Y-16085508D02*
X12682087Y-16056936D01*
X12682087Y-16056936D02*
X12672563Y-16047412D01*
D13*
X7846700Y-16499300D02*
X7897500Y-16448500D01*
X7846700Y-16397700D01*
X7795900Y-16448500D01*
X7846700Y-16499300D01*
D11*
X8263039Y-16539984D02*
X8148753Y-16539984D01*
X8205896Y-16539984D02*
X8205896Y-16339984D01*
X8205896Y-16339984D02*
X8186848Y-16368555D01*
X8186848Y-16368555D02*
X8167801Y-16387603D01*
X8167801Y-16387603D02*
X8148753Y-16397127D01*
X8348753Y-16520936D02*
X8358277Y-16530460D01*
X8358277Y-16530460D02*
X8348753Y-16539984D01*
X8348753Y-16539984D02*
X8339229Y-16530460D01*
X8339229Y-16530460D02*
X8348753Y-16520936D01*
X8348753Y-16520936D02*
X8348753Y-16539984D01*
X8482086Y-16339984D02*
X8501134Y-16339984D01*
X8501134Y-16339984D02*
X8520182Y-16349508D01*
X8520182Y-16349508D02*
X8529705Y-16359031D01*
X8529705Y-16359031D02*
X8539229Y-16378079D01*
X8539229Y-16378079D02*
X8548753Y-16416174D01*
X8548753Y-16416174D02*
X8548753Y-16463793D01*
X8548753Y-16463793D02*
X8539229Y-16501888D01*
X8539229Y-16501888D02*
X8529705Y-16520936D01*
X8529705Y-16520936D02*
X8520182Y-16530460D01*
X8520182Y-16530460D02*
X8501134Y-16539984D01*
X8501134Y-16539984D02*
X8482086Y-16539984D01*
X8482086Y-16539984D02*
X8463039Y-16530460D01*
X8463039Y-16530460D02*
X8453515Y-16520936D01*
X8453515Y-16520936D02*
X8443991Y-16501888D01*
X8443991Y-16501888D02*
X8434467Y-16463793D01*
X8434467Y-16463793D02*
X8434467Y-16416174D01*
X8434467Y-16416174D02*
X8443991Y-16378079D01*
X8443991Y-16378079D02*
X8453515Y-16359031D01*
X8453515Y-16359031D02*
X8463039Y-16349508D01*
X8463039Y-16349508D02*
X8482086Y-16339984D01*
X8739229Y-16539984D02*
X8624944Y-16539984D01*
X8682086Y-16539984D02*
X8682086Y-16339984D01*
X8682086Y-16339984D02*
X8663039Y-16368555D01*
X8663039Y-16368555D02*
X8643991Y-16387603D01*
X8643991Y-16387603D02*
X8624944Y-16397127D01*
X8910658Y-16339984D02*
X8872563Y-16339984D01*
X8872563Y-16339984D02*
X8853515Y-16349508D01*
X8853515Y-16349508D02*
X8843991Y-16359031D01*
X8843991Y-16359031D02*
X8824944Y-16387603D01*
X8824944Y-16387603D02*
X8815420Y-16425698D01*
X8815420Y-16425698D02*
X8815420Y-16501888D01*
X8815420Y-16501888D02*
X8824944Y-16520936D01*
X8824944Y-16520936D02*
X8834467Y-16530460D01*
X8834467Y-16530460D02*
X8853515Y-16539984D01*
X8853515Y-16539984D02*
X8891610Y-16539984D01*
X8891610Y-16539984D02*
X8910658Y-16530460D01*
X8910658Y-16530460D02*
X8920182Y-16520936D01*
X8920182Y-16520936D02*
X8929705Y-16501888D01*
X8929705Y-16501888D02*
X8929705Y-16454269D01*
X8929705Y-16454269D02*
X8920182Y-16435222D01*
X8920182Y-16435222D02*
X8910658Y-16425698D01*
X8910658Y-16425698D02*
X8891610Y-16416174D01*
X8891610Y-16416174D02*
X8853515Y-16416174D01*
X8853515Y-16416174D02*
X8834467Y-16425698D01*
X8834467Y-16425698D02*
X8824944Y-16435222D01*
X8824944Y-16435222D02*
X8815420Y-16454269D01*
X9015420Y-16539984D02*
X9015420Y-16406650D01*
X9015420Y-16425698D02*
X9024944Y-16416174D01*
X9024944Y-16416174D02*
X9043991Y-16406650D01*
X9043991Y-16406650D02*
X9072563Y-16406650D01*
X9072563Y-16406650D02*
X9091610Y-16416174D01*
X9091610Y-16416174D02*
X9101134Y-16435222D01*
X9101134Y-16435222D02*
X9101134Y-16539984D01*
X9101134Y-16435222D02*
X9110658Y-16416174D01*
X9110658Y-16416174D02*
X9129705Y-16406650D01*
X9129705Y-16406650D02*
X9158277Y-16406650D01*
X9158277Y-16406650D02*
X9177325Y-16416174D01*
X9177325Y-16416174D02*
X9186848Y-16435222D01*
X9186848Y-16435222D02*
X9186848Y-16539984D01*
X9282086Y-16539984D02*
X9282086Y-16406650D01*
X9282086Y-16425698D02*
X9291610Y-16416174D01*
X9291610Y-16416174D02*
X9310658Y-16406650D01*
X9310658Y-16406650D02*
X9339229Y-16406650D01*
X9339229Y-16406650D02*
X9358277Y-16416174D01*
X9358277Y-16416174D02*
X9367801Y-16435222D01*
X9367801Y-16435222D02*
X9367801Y-16539984D01*
X9367801Y-16435222D02*
X9377325Y-16416174D01*
X9377325Y-16416174D02*
X9396372Y-16406650D01*
X9396372Y-16406650D02*
X9424944Y-16406650D01*
X9424944Y-16406650D02*
X9443991Y-16416174D01*
X9443991Y-16416174D02*
X9453515Y-16435222D01*
X9453515Y-16435222D02*
X9453515Y-16539984D01*
X9843991Y-16330460D02*
X9672563Y-16587603D01*
X10101134Y-16339984D02*
X10120182Y-16339984D01*
X10120182Y-16339984D02*
X10139229Y-16349508D01*
X10139229Y-16349508D02*
X10148753Y-16359031D01*
X10148753Y-16359031D02*
X10158277Y-16378079D01*
X10158277Y-16378079D02*
X10167801Y-16416174D01*
X10167801Y-16416174D02*
X10167801Y-16463793D01*
X10167801Y-16463793D02*
X10158277Y-16501888D01*
X10158277Y-16501888D02*
X10148753Y-16520936D01*
X10148753Y-16520936D02*
X10139229Y-16530460D01*
X10139229Y-16530460D02*
X10120182Y-16539984D01*
X10120182Y-16539984D02*
X10101134Y-16539984D01*
X10101134Y-16539984D02*
X10082087Y-16530460D01*
X10082087Y-16530460D02*
X10072563Y-16520936D01*
X10072563Y-16520936D02*
X10063039Y-16501888D01*
X10063039Y-16501888D02*
X10053515Y-16463793D01*
X10053515Y-16463793D02*
X10053515Y-16416174D01*
X10053515Y-16416174D02*
X10063039Y-16378079D01*
X10063039Y-16378079D02*
X10072563Y-16359031D01*
X10072563Y-16359031D02*
X10082087Y-16349508D01*
X10082087Y-16349508D02*
X10101134Y-16339984D01*
X10253515Y-16520936D02*
X10263039Y-16530460D01*
X10263039Y-16530460D02*
X10253515Y-16539984D01*
X10253515Y-16539984D02*
X10243991Y-16530460D01*
X10243991Y-16530460D02*
X10253515Y-16520936D01*
X10253515Y-16520936D02*
X10253515Y-16539984D01*
X10386848Y-16339984D02*
X10405896Y-16339984D01*
X10405896Y-16339984D02*
X10424944Y-16349508D01*
X10424944Y-16349508D02*
X10434468Y-16359031D01*
X10434468Y-16359031D02*
X10443991Y-16378079D01*
X10443991Y-16378079D02*
X10453515Y-16416174D01*
X10453515Y-16416174D02*
X10453515Y-16463793D01*
X10453515Y-16463793D02*
X10443991Y-16501888D01*
X10443991Y-16501888D02*
X10434468Y-16520936D01*
X10434468Y-16520936D02*
X10424944Y-16530460D01*
X10424944Y-16530460D02*
X10405896Y-16539984D01*
X10405896Y-16539984D02*
X10386848Y-16539984D01*
X10386848Y-16539984D02*
X10367801Y-16530460D01*
X10367801Y-16530460D02*
X10358277Y-16520936D01*
X10358277Y-16520936D02*
X10348753Y-16501888D01*
X10348753Y-16501888D02*
X10339229Y-16463793D01*
X10339229Y-16463793D02*
X10339229Y-16416174D01*
X10339229Y-16416174D02*
X10348753Y-16378079D01*
X10348753Y-16378079D02*
X10358277Y-16359031D01*
X10358277Y-16359031D02*
X10367801Y-16349508D01*
X10367801Y-16349508D02*
X10386848Y-16339984D01*
X10624944Y-16406650D02*
X10624944Y-16539984D01*
X10577325Y-16330460D02*
X10529706Y-16473317D01*
X10529706Y-16473317D02*
X10653515Y-16473317D01*
X10767801Y-16339984D02*
X10786849Y-16339984D01*
X10786849Y-16339984D02*
X10805896Y-16349508D01*
X10805896Y-16349508D02*
X10815420Y-16359031D01*
X10815420Y-16359031D02*
X10824944Y-16378079D01*
X10824944Y-16378079D02*
X10834468Y-16416174D01*
X10834468Y-16416174D02*
X10834468Y-16463793D01*
X10834468Y-16463793D02*
X10824944Y-16501888D01*
X10824944Y-16501888D02*
X10815420Y-16520936D01*
X10815420Y-16520936D02*
X10805896Y-16530460D01*
X10805896Y-16530460D02*
X10786849Y-16539984D01*
X10786849Y-16539984D02*
X10767801Y-16539984D01*
X10767801Y-16539984D02*
X10748753Y-16530460D01*
X10748753Y-16530460D02*
X10739229Y-16520936D01*
X10739229Y-16520936D02*
X10729706Y-16501888D01*
X10729706Y-16501888D02*
X10720182Y-16463793D01*
X10720182Y-16463793D02*
X10720182Y-16416174D01*
X10720182Y-16416174D02*
X10729706Y-16378079D01*
X10729706Y-16378079D02*
X10739229Y-16359031D01*
X10739229Y-16359031D02*
X10748753Y-16349508D01*
X10748753Y-16349508D02*
X10767801Y-16339984D01*
X10958277Y-16339984D02*
X10977325Y-16339984D01*
X10977325Y-16339984D02*
X10996372Y-16349508D01*
X10996372Y-16349508D02*
X11005896Y-16359031D01*
X11005896Y-16359031D02*
X11015420Y-16378079D01*
X11015420Y-16378079D02*
X11024944Y-16416174D01*
X11024944Y-16416174D02*
X11024944Y-16463793D01*
X11024944Y-16463793D02*
X11015420Y-16501888D01*
X11015420Y-16501888D02*
X11005896Y-16520936D01*
X11005896Y-16520936D02*
X10996372Y-16530460D01*
X10996372Y-16530460D02*
X10977325Y-16539984D01*
X10977325Y-16539984D02*
X10958277Y-16539984D01*
X10958277Y-16539984D02*
X10939229Y-16530460D01*
X10939229Y-16530460D02*
X10929706Y-16520936D01*
X10929706Y-16520936D02*
X10920182Y-16501888D01*
X10920182Y-16501888D02*
X10910658Y-16463793D01*
X10910658Y-16463793D02*
X10910658Y-16416174D01*
X10910658Y-16416174D02*
X10920182Y-16378079D01*
X10920182Y-16378079D02*
X10929706Y-16359031D01*
X10929706Y-16359031D02*
X10939229Y-16349508D01*
X10939229Y-16349508D02*
X10958277Y-16339984D01*
X11101134Y-16339984D02*
X11101134Y-16378079D01*
X11177325Y-16339984D02*
X11177325Y-16378079D01*
X11472563Y-16616174D02*
X11463039Y-16606650D01*
X11463039Y-16606650D02*
X11443991Y-16578079D01*
X11443991Y-16578079D02*
X11434468Y-16559031D01*
X11434468Y-16559031D02*
X11424944Y-16530460D01*
X11424944Y-16530460D02*
X11415420Y-16482841D01*
X11415420Y-16482841D02*
X11415420Y-16444746D01*
X11415420Y-16444746D02*
X11424944Y-16397127D01*
X11424944Y-16397127D02*
X11434468Y-16368555D01*
X11434468Y-16368555D02*
X11443991Y-16349508D01*
X11443991Y-16349508D02*
X11463039Y-16320936D01*
X11463039Y-16320936D02*
X11472563Y-16311412D01*
X11529706Y-16339984D02*
X11653515Y-16339984D01*
X11653515Y-16339984D02*
X11586848Y-16416174D01*
X11586848Y-16416174D02*
X11615420Y-16416174D01*
X11615420Y-16416174D02*
X11634468Y-16425698D01*
X11634468Y-16425698D02*
X11643991Y-16435222D01*
X11643991Y-16435222D02*
X11653515Y-16454269D01*
X11653515Y-16454269D02*
X11653515Y-16501888D01*
X11653515Y-16501888D02*
X11643991Y-16520936D01*
X11643991Y-16520936D02*
X11634468Y-16530460D01*
X11634468Y-16530460D02*
X11615420Y-16539984D01*
X11615420Y-16539984D02*
X11558277Y-16539984D01*
X11558277Y-16539984D02*
X11539229Y-16530460D01*
X11539229Y-16530460D02*
X11529706Y-16520936D01*
X11834468Y-16339984D02*
X11739229Y-16339984D01*
X11739229Y-16339984D02*
X11729706Y-16435222D01*
X11729706Y-16435222D02*
X11739229Y-16425698D01*
X11739229Y-16425698D02*
X11758277Y-16416174D01*
X11758277Y-16416174D02*
X11805896Y-16416174D01*
X11805896Y-16416174D02*
X11824944Y-16425698D01*
X11824944Y-16425698D02*
X11834468Y-16435222D01*
X11834468Y-16435222D02*
X11843991Y-16454269D01*
X11843991Y-16454269D02*
X11843991Y-16501888D01*
X11843991Y-16501888D02*
X11834468Y-16520936D01*
X11834468Y-16520936D02*
X11824944Y-16530460D01*
X11824944Y-16530460D02*
X11805896Y-16539984D01*
X11805896Y-16539984D02*
X11758277Y-16539984D01*
X11758277Y-16539984D02*
X11739229Y-16530460D01*
X11739229Y-16530460D02*
X11729706Y-16520936D01*
X12082087Y-16539984D02*
X12082087Y-16339984D01*
X12167801Y-16539984D02*
X12167801Y-16435222D01*
X12167801Y-16435222D02*
X12158277Y-16416174D01*
X12158277Y-16416174D02*
X12139230Y-16406650D01*
X12139230Y-16406650D02*
X12110658Y-16406650D01*
X12110658Y-16406650D02*
X12091610Y-16416174D01*
X12091610Y-16416174D02*
X12082087Y-16425698D01*
X12291610Y-16539984D02*
X12272563Y-16530460D01*
X12272563Y-16530460D02*
X12263039Y-16520936D01*
X12263039Y-16520936D02*
X12253515Y-16501888D01*
X12253515Y-16501888D02*
X12253515Y-16444746D01*
X12253515Y-16444746D02*
X12263039Y-16425698D01*
X12263039Y-16425698D02*
X12272563Y-16416174D01*
X12272563Y-16416174D02*
X12291610Y-16406650D01*
X12291610Y-16406650D02*
X12320182Y-16406650D01*
X12320182Y-16406650D02*
X12339230Y-16416174D01*
X12339230Y-16416174D02*
X12348753Y-16425698D01*
X12348753Y-16425698D02*
X12358277Y-16444746D01*
X12358277Y-16444746D02*
X12358277Y-16501888D01*
X12358277Y-16501888D02*
X12348753Y-16520936D01*
X12348753Y-16520936D02*
X12339230Y-16530460D01*
X12339230Y-16530460D02*
X12320182Y-16539984D01*
X12320182Y-16539984D02*
X12291610Y-16539984D01*
X12472563Y-16539984D02*
X12453515Y-16530460D01*
X12453515Y-16530460D02*
X12443991Y-16511412D01*
X12443991Y-16511412D02*
X12443991Y-16339984D01*
X12624944Y-16530460D02*
X12605896Y-16539984D01*
X12605896Y-16539984D02*
X12567801Y-16539984D01*
X12567801Y-16539984D02*
X12548753Y-16530460D01*
X12548753Y-16530460D02*
X12539230Y-16511412D01*
X12539230Y-16511412D02*
X12539230Y-16435222D01*
X12539230Y-16435222D02*
X12548753Y-16416174D01*
X12548753Y-16416174D02*
X12567801Y-16406650D01*
X12567801Y-16406650D02*
X12605896Y-16406650D01*
X12605896Y-16406650D02*
X12624944Y-16416174D01*
X12624944Y-16416174D02*
X12634468Y-16435222D01*
X12634468Y-16435222D02*
X12634468Y-16454269D01*
X12634468Y-16454269D02*
X12539230Y-16473317D01*
X12710658Y-16530460D02*
X12729706Y-16539984D01*
X12729706Y-16539984D02*
X12767801Y-16539984D01*
X12767801Y-16539984D02*
X12786849Y-16530460D01*
X12786849Y-16530460D02*
X12796372Y-16511412D01*
X12796372Y-16511412D02*
X12796372Y-16501888D01*
X12796372Y-16501888D02*
X12786849Y-16482841D01*
X12786849Y-16482841D02*
X12767801Y-16473317D01*
X12767801Y-16473317D02*
X12739230Y-16473317D01*
X12739230Y-16473317D02*
X12720182Y-16463793D01*
X12720182Y-16463793D02*
X12710658Y-16444746D01*
X12710658Y-16444746D02*
X12710658Y-16435222D01*
X12710658Y-16435222D02*
X12720182Y-16416174D01*
X12720182Y-16416174D02*
X12739230Y-16406650D01*
X12739230Y-16406650D02*
X12767801Y-16406650D01*
X12767801Y-16406650D02*
X12786849Y-16416174D01*
X12863039Y-16616174D02*
X12872563Y-16606650D01*
X12872563Y-16606650D02*
X12891611Y-16578079D01*
X12891611Y-16578079D02*
X12901134Y-16559031D01*
X12901134Y-16559031D02*
X12910658Y-16530460D01*
X12910658Y-16530460D02*
X12920182Y-16482841D01*
X12920182Y-16482841D02*
X12920182Y-16444746D01*
X12920182Y-16444746D02*
X12910658Y-16397127D01*
X12910658Y-16397127D02*
X12901134Y-16368555D01*
X12901134Y-16368555D02*
X12891611Y-16349508D01*
X12891611Y-16349508D02*
X12872563Y-16320936D01*
X12872563Y-16320936D02*
X12863039Y-16311412D01*
D14*
X7795500Y-16661500D02*
X7897500Y-16763500D01*
X7897500Y-16661500D02*
X7795500Y-16763500D01*
X7897500Y-16712500D02*
G75*
G02*
X7795500Y-16712500I-51000J0D01*
G01*
X7795500Y-16712500D02*
G75*
G02*
X7897500Y-16712500I51000J0D01*
G01*
D11*
X8263039Y-16803984D02*
X8148753Y-16803984D01*
X8205896Y-16803984D02*
X8205896Y-16603984D01*
X8205896Y-16603984D02*
X8186848Y-16632555D01*
X8186848Y-16632555D02*
X8167801Y-16651603D01*
X8167801Y-16651603D02*
X8148753Y-16661127D01*
X8348753Y-16784936D02*
X8358277Y-16794460D01*
X8358277Y-16794460D02*
X8348753Y-16803984D01*
X8348753Y-16803984D02*
X8339229Y-16794460D01*
X8339229Y-16794460D02*
X8348753Y-16784936D01*
X8348753Y-16784936D02*
X8348753Y-16803984D01*
X8482086Y-16603984D02*
X8501134Y-16603984D01*
X8501134Y-16603984D02*
X8520182Y-16613508D01*
X8520182Y-16613508D02*
X8529705Y-16623031D01*
X8529705Y-16623031D02*
X8539229Y-16642079D01*
X8539229Y-16642079D02*
X8548753Y-16680174D01*
X8548753Y-16680174D02*
X8548753Y-16727793D01*
X8548753Y-16727793D02*
X8539229Y-16765888D01*
X8539229Y-16765888D02*
X8529705Y-16784936D01*
X8529705Y-16784936D02*
X8520182Y-16794460D01*
X8520182Y-16794460D02*
X8501134Y-16803984D01*
X8501134Y-16803984D02*
X8482086Y-16803984D01*
X8482086Y-16803984D02*
X8463039Y-16794460D01*
X8463039Y-16794460D02*
X8453515Y-16784936D01*
X8453515Y-16784936D02*
X8443991Y-16765888D01*
X8443991Y-16765888D02*
X8434467Y-16727793D01*
X8434467Y-16727793D02*
X8434467Y-16680174D01*
X8434467Y-16680174D02*
X8443991Y-16642079D01*
X8443991Y-16642079D02*
X8453515Y-16623031D01*
X8453515Y-16623031D02*
X8463039Y-16613508D01*
X8463039Y-16613508D02*
X8482086Y-16603984D01*
X8624944Y-16623031D02*
X8634467Y-16613508D01*
X8634467Y-16613508D02*
X8653515Y-16603984D01*
X8653515Y-16603984D02*
X8701134Y-16603984D01*
X8701134Y-16603984D02*
X8720182Y-16613508D01*
X8720182Y-16613508D02*
X8729705Y-16623031D01*
X8729705Y-16623031D02*
X8739229Y-16642079D01*
X8739229Y-16642079D02*
X8739229Y-16661127D01*
X8739229Y-16661127D02*
X8729705Y-16689698D01*
X8729705Y-16689698D02*
X8615420Y-16803984D01*
X8615420Y-16803984D02*
X8739229Y-16803984D01*
X8863039Y-16603984D02*
X8882086Y-16603984D01*
X8882086Y-16603984D02*
X8901134Y-16613508D01*
X8901134Y-16613508D02*
X8910658Y-16623031D01*
X8910658Y-16623031D02*
X8920182Y-16642079D01*
X8920182Y-16642079D02*
X8929705Y-16680174D01*
X8929705Y-16680174D02*
X8929705Y-16727793D01*
X8929705Y-16727793D02*
X8920182Y-16765888D01*
X8920182Y-16765888D02*
X8910658Y-16784936D01*
X8910658Y-16784936D02*
X8901134Y-16794460D01*
X8901134Y-16794460D02*
X8882086Y-16803984D01*
X8882086Y-16803984D02*
X8863039Y-16803984D01*
X8863039Y-16803984D02*
X8843991Y-16794460D01*
X8843991Y-16794460D02*
X8834467Y-16784936D01*
X8834467Y-16784936D02*
X8824944Y-16765888D01*
X8824944Y-16765888D02*
X8815420Y-16727793D01*
X8815420Y-16727793D02*
X8815420Y-16680174D01*
X8815420Y-16680174D02*
X8824944Y-16642079D01*
X8824944Y-16642079D02*
X8834467Y-16623031D01*
X8834467Y-16623031D02*
X8843991Y-16613508D01*
X8843991Y-16613508D02*
X8863039Y-16603984D01*
X9015420Y-16803984D02*
X9015420Y-16670650D01*
X9015420Y-16689698D02*
X9024944Y-16680174D01*
X9024944Y-16680174D02*
X9043991Y-16670650D01*
X9043991Y-16670650D02*
X9072563Y-16670650D01*
X9072563Y-16670650D02*
X9091610Y-16680174D01*
X9091610Y-16680174D02*
X9101134Y-16699222D01*
X9101134Y-16699222D02*
X9101134Y-16803984D01*
X9101134Y-16699222D02*
X9110658Y-16680174D01*
X9110658Y-16680174D02*
X9129705Y-16670650D01*
X9129705Y-16670650D02*
X9158277Y-16670650D01*
X9158277Y-16670650D02*
X9177325Y-16680174D01*
X9177325Y-16680174D02*
X9186848Y-16699222D01*
X9186848Y-16699222D02*
X9186848Y-16803984D01*
X9282086Y-16803984D02*
X9282086Y-16670650D01*
X9282086Y-16689698D02*
X9291610Y-16680174D01*
X9291610Y-16680174D02*
X9310658Y-16670650D01*
X9310658Y-16670650D02*
X9339229Y-16670650D01*
X9339229Y-16670650D02*
X9358277Y-16680174D01*
X9358277Y-16680174D02*
X9367801Y-16699222D01*
X9367801Y-16699222D02*
X9367801Y-16803984D01*
X9367801Y-16699222D02*
X9377325Y-16680174D01*
X9377325Y-16680174D02*
X9396372Y-16670650D01*
X9396372Y-16670650D02*
X9424944Y-16670650D01*
X9424944Y-16670650D02*
X9443991Y-16680174D01*
X9443991Y-16680174D02*
X9453515Y-16699222D01*
X9453515Y-16699222D02*
X9453515Y-16803984D01*
X9843991Y-16594460D02*
X9672563Y-16851603D01*
X10101134Y-16603984D02*
X10120182Y-16603984D01*
X10120182Y-16603984D02*
X10139229Y-16613508D01*
X10139229Y-16613508D02*
X10148753Y-16623031D01*
X10148753Y-16623031D02*
X10158277Y-16642079D01*
X10158277Y-16642079D02*
X10167801Y-16680174D01*
X10167801Y-16680174D02*
X10167801Y-16727793D01*
X10167801Y-16727793D02*
X10158277Y-16765888D01*
X10158277Y-16765888D02*
X10148753Y-16784936D01*
X10148753Y-16784936D02*
X10139229Y-16794460D01*
X10139229Y-16794460D02*
X10120182Y-16803984D01*
X10120182Y-16803984D02*
X10101134Y-16803984D01*
X10101134Y-16803984D02*
X10082087Y-16794460D01*
X10082087Y-16794460D02*
X10072563Y-16784936D01*
X10072563Y-16784936D02*
X10063039Y-16765888D01*
X10063039Y-16765888D02*
X10053515Y-16727793D01*
X10053515Y-16727793D02*
X10053515Y-16680174D01*
X10053515Y-16680174D02*
X10063039Y-16642079D01*
X10063039Y-16642079D02*
X10072563Y-16623031D01*
X10072563Y-16623031D02*
X10082087Y-16613508D01*
X10082087Y-16613508D02*
X10101134Y-16603984D01*
X10253515Y-16784936D02*
X10263039Y-16794460D01*
X10263039Y-16794460D02*
X10253515Y-16803984D01*
X10253515Y-16803984D02*
X10243991Y-16794460D01*
X10243991Y-16794460D02*
X10253515Y-16784936D01*
X10253515Y-16784936D02*
X10253515Y-16803984D01*
X10386848Y-16603984D02*
X10405896Y-16603984D01*
X10405896Y-16603984D02*
X10424944Y-16613508D01*
X10424944Y-16613508D02*
X10434468Y-16623031D01*
X10434468Y-16623031D02*
X10443991Y-16642079D01*
X10443991Y-16642079D02*
X10453515Y-16680174D01*
X10453515Y-16680174D02*
X10453515Y-16727793D01*
X10453515Y-16727793D02*
X10443991Y-16765888D01*
X10443991Y-16765888D02*
X10434468Y-16784936D01*
X10434468Y-16784936D02*
X10424944Y-16794460D01*
X10424944Y-16794460D02*
X10405896Y-16803984D01*
X10405896Y-16803984D02*
X10386848Y-16803984D01*
X10386848Y-16803984D02*
X10367801Y-16794460D01*
X10367801Y-16794460D02*
X10358277Y-16784936D01*
X10358277Y-16784936D02*
X10348753Y-16765888D01*
X10348753Y-16765888D02*
X10339229Y-16727793D01*
X10339229Y-16727793D02*
X10339229Y-16680174D01*
X10339229Y-16680174D02*
X10348753Y-16642079D01*
X10348753Y-16642079D02*
X10358277Y-16623031D01*
X10358277Y-16623031D02*
X10367801Y-16613508D01*
X10367801Y-16613508D02*
X10386848Y-16603984D01*
X10624944Y-16670650D02*
X10624944Y-16803984D01*
X10577325Y-16594460D02*
X10529706Y-16737317D01*
X10529706Y-16737317D02*
X10653515Y-16737317D01*
X10767801Y-16603984D02*
X10786849Y-16603984D01*
X10786849Y-16603984D02*
X10805896Y-16613508D01*
X10805896Y-16613508D02*
X10815420Y-16623031D01*
X10815420Y-16623031D02*
X10824944Y-16642079D01*
X10824944Y-16642079D02*
X10834468Y-16680174D01*
X10834468Y-16680174D02*
X10834468Y-16727793D01*
X10834468Y-16727793D02*
X10824944Y-16765888D01*
X10824944Y-16765888D02*
X10815420Y-16784936D01*
X10815420Y-16784936D02*
X10805896Y-16794460D01*
X10805896Y-16794460D02*
X10786849Y-16803984D01*
X10786849Y-16803984D02*
X10767801Y-16803984D01*
X10767801Y-16803984D02*
X10748753Y-16794460D01*
X10748753Y-16794460D02*
X10739229Y-16784936D01*
X10739229Y-16784936D02*
X10729706Y-16765888D01*
X10729706Y-16765888D02*
X10720182Y-16727793D01*
X10720182Y-16727793D02*
X10720182Y-16680174D01*
X10720182Y-16680174D02*
X10729706Y-16642079D01*
X10729706Y-16642079D02*
X10739229Y-16623031D01*
X10739229Y-16623031D02*
X10748753Y-16613508D01*
X10748753Y-16613508D02*
X10767801Y-16603984D01*
X10910658Y-16623031D02*
X10920182Y-16613508D01*
X10920182Y-16613508D02*
X10939229Y-16603984D01*
X10939229Y-16603984D02*
X10986849Y-16603984D01*
X10986849Y-16603984D02*
X11005896Y-16613508D01*
X11005896Y-16613508D02*
X11015420Y-16623031D01*
X11015420Y-16623031D02*
X11024944Y-16642079D01*
X11024944Y-16642079D02*
X11024944Y-16661127D01*
X11024944Y-16661127D02*
X11015420Y-16689698D01*
X11015420Y-16689698D02*
X10901134Y-16803984D01*
X10901134Y-16803984D02*
X11024944Y-16803984D01*
X11101134Y-16603984D02*
X11101134Y-16642079D01*
X11177325Y-16603984D02*
X11177325Y-16642079D01*
X11472563Y-16880174D02*
X11463039Y-16870650D01*
X11463039Y-16870650D02*
X11443991Y-16842079D01*
X11443991Y-16842079D02*
X11434468Y-16823031D01*
X11434468Y-16823031D02*
X11424944Y-16794460D01*
X11424944Y-16794460D02*
X11415420Y-16746841D01*
X11415420Y-16746841D02*
X11415420Y-16708746D01*
X11415420Y-16708746D02*
X11424944Y-16661127D01*
X11424944Y-16661127D02*
X11434468Y-16632555D01*
X11434468Y-16632555D02*
X11443991Y-16613508D01*
X11443991Y-16613508D02*
X11463039Y-16584936D01*
X11463039Y-16584936D02*
X11472563Y-16575412D01*
X11577325Y-16689698D02*
X11558277Y-16680174D01*
X11558277Y-16680174D02*
X11548753Y-16670650D01*
X11548753Y-16670650D02*
X11539229Y-16651603D01*
X11539229Y-16651603D02*
X11539229Y-16642079D01*
X11539229Y-16642079D02*
X11548753Y-16623031D01*
X11548753Y-16623031D02*
X11558277Y-16613508D01*
X11558277Y-16613508D02*
X11577325Y-16603984D01*
X11577325Y-16603984D02*
X11615420Y-16603984D01*
X11615420Y-16603984D02*
X11634468Y-16613508D01*
X11634468Y-16613508D02*
X11643991Y-16623031D01*
X11643991Y-16623031D02*
X11653515Y-16642079D01*
X11653515Y-16642079D02*
X11653515Y-16651603D01*
X11653515Y-16651603D02*
X11643991Y-16670650D01*
X11643991Y-16670650D02*
X11634468Y-16680174D01*
X11634468Y-16680174D02*
X11615420Y-16689698D01*
X11615420Y-16689698D02*
X11577325Y-16689698D01*
X11577325Y-16689698D02*
X11558277Y-16699222D01*
X11558277Y-16699222D02*
X11548753Y-16708746D01*
X11548753Y-16708746D02*
X11539229Y-16727793D01*
X11539229Y-16727793D02*
X11539229Y-16765888D01*
X11539229Y-16765888D02*
X11548753Y-16784936D01*
X11548753Y-16784936D02*
X11558277Y-16794460D01*
X11558277Y-16794460D02*
X11577325Y-16803984D01*
X11577325Y-16803984D02*
X11615420Y-16803984D01*
X11615420Y-16803984D02*
X11634468Y-16794460D01*
X11634468Y-16794460D02*
X11643991Y-16784936D01*
X11643991Y-16784936D02*
X11653515Y-16765888D01*
X11653515Y-16765888D02*
X11653515Y-16727793D01*
X11653515Y-16727793D02*
X11643991Y-16708746D01*
X11643991Y-16708746D02*
X11634468Y-16699222D01*
X11634468Y-16699222D02*
X11615420Y-16689698D01*
X11891610Y-16803984D02*
X11891610Y-16603984D01*
X11977325Y-16803984D02*
X11977325Y-16699222D01*
X11977325Y-16699222D02*
X11967801Y-16680174D01*
X11967801Y-16680174D02*
X11948753Y-16670650D01*
X11948753Y-16670650D02*
X11920182Y-16670650D01*
X11920182Y-16670650D02*
X11901134Y-16680174D01*
X11901134Y-16680174D02*
X11891610Y-16689698D01*
X12101134Y-16803984D02*
X12082087Y-16794460D01*
X12082087Y-16794460D02*
X12072563Y-16784936D01*
X12072563Y-16784936D02*
X12063039Y-16765888D01*
X12063039Y-16765888D02*
X12063039Y-16708746D01*
X12063039Y-16708746D02*
X12072563Y-16689698D01*
X12072563Y-16689698D02*
X12082087Y-16680174D01*
X12082087Y-16680174D02*
X12101134Y-16670650D01*
X12101134Y-16670650D02*
X12129706Y-16670650D01*
X12129706Y-16670650D02*
X12148753Y-16680174D01*
X12148753Y-16680174D02*
X12158277Y-16689698D01*
X12158277Y-16689698D02*
X12167801Y-16708746D01*
X12167801Y-16708746D02*
X12167801Y-16765888D01*
X12167801Y-16765888D02*
X12158277Y-16784936D01*
X12158277Y-16784936D02*
X12148753Y-16794460D01*
X12148753Y-16794460D02*
X12129706Y-16803984D01*
X12129706Y-16803984D02*
X12101134Y-16803984D01*
X12282087Y-16803984D02*
X12263039Y-16794460D01*
X12263039Y-16794460D02*
X12253515Y-16775412D01*
X12253515Y-16775412D02*
X12253515Y-16603984D01*
X12434468Y-16794460D02*
X12415420Y-16803984D01*
X12415420Y-16803984D02*
X12377325Y-16803984D01*
X12377325Y-16803984D02*
X12358277Y-16794460D01*
X12358277Y-16794460D02*
X12348753Y-16775412D01*
X12348753Y-16775412D02*
X12348753Y-16699222D01*
X12348753Y-16699222D02*
X12358277Y-16680174D01*
X12358277Y-16680174D02*
X12377325Y-16670650D01*
X12377325Y-16670650D02*
X12415420Y-16670650D01*
X12415420Y-16670650D02*
X12434468Y-16680174D01*
X12434468Y-16680174D02*
X12443991Y-16699222D01*
X12443991Y-16699222D02*
X12443991Y-16718269D01*
X12443991Y-16718269D02*
X12348753Y-16737317D01*
X12520182Y-16794460D02*
X12539230Y-16803984D01*
X12539230Y-16803984D02*
X12577325Y-16803984D01*
X12577325Y-16803984D02*
X12596372Y-16794460D01*
X12596372Y-16794460D02*
X12605896Y-16775412D01*
X12605896Y-16775412D02*
X12605896Y-16765888D01*
X12605896Y-16765888D02*
X12596372Y-16746841D01*
X12596372Y-16746841D02*
X12577325Y-16737317D01*
X12577325Y-16737317D02*
X12548753Y-16737317D01*
X12548753Y-16737317D02*
X12529706Y-16727793D01*
X12529706Y-16727793D02*
X12520182Y-16708746D01*
X12520182Y-16708746D02*
X12520182Y-16699222D01*
X12520182Y-16699222D02*
X12529706Y-16680174D01*
X12529706Y-16680174D02*
X12548753Y-16670650D01*
X12548753Y-16670650D02*
X12577325Y-16670650D01*
X12577325Y-16670650D02*
X12596372Y-16680174D01*
X12672563Y-16880174D02*
X12682087Y-16870650D01*
X12682087Y-16870650D02*
X12701134Y-16842079D01*
X12701134Y-16842079D02*
X12710658Y-16823031D01*
X12710658Y-16823031D02*
X12720182Y-16794460D01*
X12720182Y-16794460D02*
X12729706Y-16746841D01*
X12729706Y-16746841D02*
X12729706Y-16708746D01*
X12729706Y-16708746D02*
X12720182Y-16661127D01*
X12720182Y-16661127D02*
X12710658Y-16632555D01*
X12710658Y-16632555D02*
X12701134Y-16613508D01*
X12701134Y-16613508D02*
X12682087Y-16584936D01*
X12682087Y-16584936D02*
X12672563Y-16575412D01*
D15*
X7787500Y-16921500D02*
X7897500Y-17031500D01*
X7897500Y-16921500D02*
X7787500Y-17031500D01*
X7842500Y-16921500D02*
X7842500Y-17031500D01*
X7787500Y-16976500D02*
X7897500Y-16976500D01*
D11*
X8263039Y-17067984D02*
X8148753Y-17067984D01*
X8205896Y-17067984D02*
X8205896Y-16867984D01*
X8205896Y-16867984D02*
X8186848Y-16896555D01*
X8186848Y-16896555D02*
X8167801Y-16915603D01*
X8167801Y-16915603D02*
X8148753Y-16925127D01*
X8348753Y-17048936D02*
X8358277Y-17058460D01*
X8358277Y-17058460D02*
X8348753Y-17067984D01*
X8348753Y-17067984D02*
X8339229Y-17058460D01*
X8339229Y-17058460D02*
X8348753Y-17048936D01*
X8348753Y-17048936D02*
X8348753Y-17067984D01*
X8548753Y-17067984D02*
X8434467Y-17067984D01*
X8491610Y-17067984D02*
X8491610Y-16867984D01*
X8491610Y-16867984D02*
X8472563Y-16896555D01*
X8472563Y-16896555D02*
X8453515Y-16915603D01*
X8453515Y-16915603D02*
X8434467Y-16925127D01*
X8672563Y-16867984D02*
X8691610Y-16867984D01*
X8691610Y-16867984D02*
X8710658Y-16877508D01*
X8710658Y-16877508D02*
X8720182Y-16887031D01*
X8720182Y-16887031D02*
X8729705Y-16906079D01*
X8729705Y-16906079D02*
X8739229Y-16944174D01*
X8739229Y-16944174D02*
X8739229Y-16991793D01*
X8739229Y-16991793D02*
X8729705Y-17029889D01*
X8729705Y-17029889D02*
X8720182Y-17048936D01*
X8720182Y-17048936D02*
X8710658Y-17058460D01*
X8710658Y-17058460D02*
X8691610Y-17067984D01*
X8691610Y-17067984D02*
X8672563Y-17067984D01*
X8672563Y-17067984D02*
X8653515Y-17058460D01*
X8653515Y-17058460D02*
X8643991Y-17048936D01*
X8643991Y-17048936D02*
X8634467Y-17029889D01*
X8634467Y-17029889D02*
X8624944Y-16991793D01*
X8624944Y-16991793D02*
X8624944Y-16944174D01*
X8624944Y-16944174D02*
X8634467Y-16906079D01*
X8634467Y-16906079D02*
X8643991Y-16887031D01*
X8643991Y-16887031D02*
X8653515Y-16877508D01*
X8653515Y-16877508D02*
X8672563Y-16867984D01*
X8863039Y-16867984D02*
X8882086Y-16867984D01*
X8882086Y-16867984D02*
X8901134Y-16877508D01*
X8901134Y-16877508D02*
X8910658Y-16887031D01*
X8910658Y-16887031D02*
X8920182Y-16906079D01*
X8920182Y-16906079D02*
X8929705Y-16944174D01*
X8929705Y-16944174D02*
X8929705Y-16991793D01*
X8929705Y-16991793D02*
X8920182Y-17029889D01*
X8920182Y-17029889D02*
X8910658Y-17048936D01*
X8910658Y-17048936D02*
X8901134Y-17058460D01*
X8901134Y-17058460D02*
X8882086Y-17067984D01*
X8882086Y-17067984D02*
X8863039Y-17067984D01*
X8863039Y-17067984D02*
X8843991Y-17058460D01*
X8843991Y-17058460D02*
X8834467Y-17048936D01*
X8834467Y-17048936D02*
X8824944Y-17029889D01*
X8824944Y-17029889D02*
X8815420Y-16991793D01*
X8815420Y-16991793D02*
X8815420Y-16944174D01*
X8815420Y-16944174D02*
X8824944Y-16906079D01*
X8824944Y-16906079D02*
X8834467Y-16887031D01*
X8834467Y-16887031D02*
X8843991Y-16877508D01*
X8843991Y-16877508D02*
X8863039Y-16867984D01*
X9015420Y-17067984D02*
X9015420Y-16934650D01*
X9015420Y-16953698D02*
X9024944Y-16944174D01*
X9024944Y-16944174D02*
X9043991Y-16934650D01*
X9043991Y-16934650D02*
X9072563Y-16934650D01*
X9072563Y-16934650D02*
X9091610Y-16944174D01*
X9091610Y-16944174D02*
X9101134Y-16963222D01*
X9101134Y-16963222D02*
X9101134Y-17067984D01*
X9101134Y-16963222D02*
X9110658Y-16944174D01*
X9110658Y-16944174D02*
X9129705Y-16934650D01*
X9129705Y-16934650D02*
X9158277Y-16934650D01*
X9158277Y-16934650D02*
X9177325Y-16944174D01*
X9177325Y-16944174D02*
X9186848Y-16963222D01*
X9186848Y-16963222D02*
X9186848Y-17067984D01*
X9282086Y-17067984D02*
X9282086Y-16934650D01*
X9282086Y-16953698D02*
X9291610Y-16944174D01*
X9291610Y-16944174D02*
X9310658Y-16934650D01*
X9310658Y-16934650D02*
X9339229Y-16934650D01*
X9339229Y-16934650D02*
X9358277Y-16944174D01*
X9358277Y-16944174D02*
X9367801Y-16963222D01*
X9367801Y-16963222D02*
X9367801Y-17067984D01*
X9367801Y-16963222D02*
X9377325Y-16944174D01*
X9377325Y-16944174D02*
X9396372Y-16934650D01*
X9396372Y-16934650D02*
X9424944Y-16934650D01*
X9424944Y-16934650D02*
X9443991Y-16944174D01*
X9443991Y-16944174D02*
X9453515Y-16963222D01*
X9453515Y-16963222D02*
X9453515Y-17067984D01*
X9843991Y-16858460D02*
X9672563Y-17115603D01*
X10101134Y-16867984D02*
X10120182Y-16867984D01*
X10120182Y-16867984D02*
X10139229Y-16877508D01*
X10139229Y-16877508D02*
X10148753Y-16887031D01*
X10148753Y-16887031D02*
X10158277Y-16906079D01*
X10158277Y-16906079D02*
X10167801Y-16944174D01*
X10167801Y-16944174D02*
X10167801Y-16991793D01*
X10167801Y-16991793D02*
X10158277Y-17029889D01*
X10158277Y-17029889D02*
X10148753Y-17048936D01*
X10148753Y-17048936D02*
X10139229Y-17058460D01*
X10139229Y-17058460D02*
X10120182Y-17067984D01*
X10120182Y-17067984D02*
X10101134Y-17067984D01*
X10101134Y-17067984D02*
X10082087Y-17058460D01*
X10082087Y-17058460D02*
X10072563Y-17048936D01*
X10072563Y-17048936D02*
X10063039Y-17029889D01*
X10063039Y-17029889D02*
X10053515Y-16991793D01*
X10053515Y-16991793D02*
X10053515Y-16944174D01*
X10053515Y-16944174D02*
X10063039Y-16906079D01*
X10063039Y-16906079D02*
X10072563Y-16887031D01*
X10072563Y-16887031D02*
X10082087Y-16877508D01*
X10082087Y-16877508D02*
X10101134Y-16867984D01*
X10253515Y-17048936D02*
X10263039Y-17058460D01*
X10263039Y-17058460D02*
X10253515Y-17067984D01*
X10253515Y-17067984D02*
X10243991Y-17058460D01*
X10243991Y-17058460D02*
X10253515Y-17048936D01*
X10253515Y-17048936D02*
X10253515Y-17067984D01*
X10386848Y-16867984D02*
X10405896Y-16867984D01*
X10405896Y-16867984D02*
X10424944Y-16877508D01*
X10424944Y-16877508D02*
X10434468Y-16887031D01*
X10434468Y-16887031D02*
X10443991Y-16906079D01*
X10443991Y-16906079D02*
X10453515Y-16944174D01*
X10453515Y-16944174D02*
X10453515Y-16991793D01*
X10453515Y-16991793D02*
X10443991Y-17029889D01*
X10443991Y-17029889D02*
X10434468Y-17048936D01*
X10434468Y-17048936D02*
X10424944Y-17058460D01*
X10424944Y-17058460D02*
X10405896Y-17067984D01*
X10405896Y-17067984D02*
X10386848Y-17067984D01*
X10386848Y-17067984D02*
X10367801Y-17058460D01*
X10367801Y-17058460D02*
X10358277Y-17048936D01*
X10358277Y-17048936D02*
X10348753Y-17029889D01*
X10348753Y-17029889D02*
X10339229Y-16991793D01*
X10339229Y-16991793D02*
X10339229Y-16944174D01*
X10339229Y-16944174D02*
X10348753Y-16906079D01*
X10348753Y-16906079D02*
X10358277Y-16887031D01*
X10358277Y-16887031D02*
X10367801Y-16877508D01*
X10367801Y-16877508D02*
X10386848Y-16867984D01*
X10624944Y-16934650D02*
X10624944Y-17067984D01*
X10577325Y-16858460D02*
X10529706Y-17001317D01*
X10529706Y-17001317D02*
X10653515Y-17001317D01*
X10710658Y-16867984D02*
X10834468Y-16867984D01*
X10834468Y-16867984D02*
X10767801Y-16944174D01*
X10767801Y-16944174D02*
X10796372Y-16944174D01*
X10796372Y-16944174D02*
X10815420Y-16953698D01*
X10815420Y-16953698D02*
X10824944Y-16963222D01*
X10824944Y-16963222D02*
X10834468Y-16982270D01*
X10834468Y-16982270D02*
X10834468Y-17029889D01*
X10834468Y-17029889D02*
X10824944Y-17048936D01*
X10824944Y-17048936D02*
X10815420Y-17058460D01*
X10815420Y-17058460D02*
X10796372Y-17067984D01*
X10796372Y-17067984D02*
X10739229Y-17067984D01*
X10739229Y-17067984D02*
X10720182Y-17058460D01*
X10720182Y-17058460D02*
X10710658Y-17048936D01*
X10901134Y-16867984D02*
X11024944Y-16867984D01*
X11024944Y-16867984D02*
X10958277Y-16944174D01*
X10958277Y-16944174D02*
X10986849Y-16944174D01*
X10986849Y-16944174D02*
X11005896Y-16953698D01*
X11005896Y-16953698D02*
X11015420Y-16963222D01*
X11015420Y-16963222D02*
X11024944Y-16982270D01*
X11024944Y-16982270D02*
X11024944Y-17029889D01*
X11024944Y-17029889D02*
X11015420Y-17048936D01*
X11015420Y-17048936D02*
X11005896Y-17058460D01*
X11005896Y-17058460D02*
X10986849Y-17067984D01*
X10986849Y-17067984D02*
X10929706Y-17067984D01*
X10929706Y-17067984D02*
X10910658Y-17058460D01*
X10910658Y-17058460D02*
X10901134Y-17048936D01*
X11101134Y-16867984D02*
X11101134Y-16906079D01*
X11177325Y-16867984D02*
X11177325Y-16906079D01*
X11472563Y-17144174D02*
X11463039Y-17134650D01*
X11463039Y-17134650D02*
X11443991Y-17106079D01*
X11443991Y-17106079D02*
X11434468Y-17087031D01*
X11434468Y-17087031D02*
X11424944Y-17058460D01*
X11424944Y-17058460D02*
X11415420Y-17010841D01*
X11415420Y-17010841D02*
X11415420Y-16972746D01*
X11415420Y-16972746D02*
X11424944Y-16925127D01*
X11424944Y-16925127D02*
X11434468Y-16896555D01*
X11434468Y-16896555D02*
X11443991Y-16877508D01*
X11443991Y-16877508D02*
X11463039Y-16848936D01*
X11463039Y-16848936D02*
X11472563Y-16839412D01*
X11634468Y-16867984D02*
X11596372Y-16867984D01*
X11596372Y-16867984D02*
X11577325Y-16877508D01*
X11577325Y-16877508D02*
X11567801Y-16887031D01*
X11567801Y-16887031D02*
X11548753Y-16915603D01*
X11548753Y-16915603D02*
X11539229Y-16953698D01*
X11539229Y-16953698D02*
X11539229Y-17029889D01*
X11539229Y-17029889D02*
X11548753Y-17048936D01*
X11548753Y-17048936D02*
X11558277Y-17058460D01*
X11558277Y-17058460D02*
X11577325Y-17067984D01*
X11577325Y-17067984D02*
X11615420Y-17067984D01*
X11615420Y-17067984D02*
X11634468Y-17058460D01*
X11634468Y-17058460D02*
X11643991Y-17048936D01*
X11643991Y-17048936D02*
X11653515Y-17029889D01*
X11653515Y-17029889D02*
X11653515Y-16982270D01*
X11653515Y-16982270D02*
X11643991Y-16963222D01*
X11643991Y-16963222D02*
X11634468Y-16953698D01*
X11634468Y-16953698D02*
X11615420Y-16944174D01*
X11615420Y-16944174D02*
X11577325Y-16944174D01*
X11577325Y-16944174D02*
X11558277Y-16953698D01*
X11558277Y-16953698D02*
X11548753Y-16963222D01*
X11548753Y-16963222D02*
X11539229Y-16982270D01*
X11891610Y-17067984D02*
X11891610Y-16867984D01*
X11977325Y-17067984D02*
X11977325Y-16963222D01*
X11977325Y-16963222D02*
X11967801Y-16944174D01*
X11967801Y-16944174D02*
X11948753Y-16934650D01*
X11948753Y-16934650D02*
X11920182Y-16934650D01*
X11920182Y-16934650D02*
X11901134Y-16944174D01*
X11901134Y-16944174D02*
X11891610Y-16953698D01*
X12101134Y-17067984D02*
X12082087Y-17058460D01*
X12082087Y-17058460D02*
X12072563Y-17048936D01*
X12072563Y-17048936D02*
X12063039Y-17029889D01*
X12063039Y-17029889D02*
X12063039Y-16972746D01*
X12063039Y-16972746D02*
X12072563Y-16953698D01*
X12072563Y-16953698D02*
X12082087Y-16944174D01*
X12082087Y-16944174D02*
X12101134Y-16934650D01*
X12101134Y-16934650D02*
X12129706Y-16934650D01*
X12129706Y-16934650D02*
X12148753Y-16944174D01*
X12148753Y-16944174D02*
X12158277Y-16953698D01*
X12158277Y-16953698D02*
X12167801Y-16972746D01*
X12167801Y-16972746D02*
X12167801Y-17029889D01*
X12167801Y-17029889D02*
X12158277Y-17048936D01*
X12158277Y-17048936D02*
X12148753Y-17058460D01*
X12148753Y-17058460D02*
X12129706Y-17067984D01*
X12129706Y-17067984D02*
X12101134Y-17067984D01*
X12282087Y-17067984D02*
X12263039Y-17058460D01*
X12263039Y-17058460D02*
X12253515Y-17039412D01*
X12253515Y-17039412D02*
X12253515Y-16867984D01*
X12434468Y-17058460D02*
X12415420Y-17067984D01*
X12415420Y-17067984D02*
X12377325Y-17067984D01*
X12377325Y-17067984D02*
X12358277Y-17058460D01*
X12358277Y-17058460D02*
X12348753Y-17039412D01*
X12348753Y-17039412D02*
X12348753Y-16963222D01*
X12348753Y-16963222D02*
X12358277Y-16944174D01*
X12358277Y-16944174D02*
X12377325Y-16934650D01*
X12377325Y-16934650D02*
X12415420Y-16934650D01*
X12415420Y-16934650D02*
X12434468Y-16944174D01*
X12434468Y-16944174D02*
X12443991Y-16963222D01*
X12443991Y-16963222D02*
X12443991Y-16982270D01*
X12443991Y-16982270D02*
X12348753Y-17001317D01*
X12520182Y-17058460D02*
X12539230Y-17067984D01*
X12539230Y-17067984D02*
X12577325Y-17067984D01*
X12577325Y-17067984D02*
X12596372Y-17058460D01*
X12596372Y-17058460D02*
X12605896Y-17039412D01*
X12605896Y-17039412D02*
X12605896Y-17029889D01*
X12605896Y-17029889D02*
X12596372Y-17010841D01*
X12596372Y-17010841D02*
X12577325Y-17001317D01*
X12577325Y-17001317D02*
X12548753Y-17001317D01*
X12548753Y-17001317D02*
X12529706Y-16991793D01*
X12529706Y-16991793D02*
X12520182Y-16972746D01*
X12520182Y-16972746D02*
X12520182Y-16963222D01*
X12520182Y-16963222D02*
X12529706Y-16944174D01*
X12529706Y-16944174D02*
X12548753Y-16934650D01*
X12548753Y-16934650D02*
X12577325Y-16934650D01*
X12577325Y-16934650D02*
X12596372Y-16944174D01*
X12672563Y-17144174D02*
X12682087Y-17134650D01*
X12682087Y-17134650D02*
X12701134Y-17106079D01*
X12701134Y-17106079D02*
X12710658Y-17087031D01*
X12710658Y-17087031D02*
X12720182Y-17058460D01*
X12720182Y-17058460D02*
X12729706Y-17010841D01*
X12729706Y-17010841D02*
X12729706Y-16972746D01*
X12729706Y-16972746D02*
X12720182Y-16925127D01*
X12720182Y-16925127D02*
X12710658Y-16896555D01*
X12710658Y-16896555D02*
X12701134Y-16877508D01*
X12701134Y-16877508D02*
X12682087Y-16848936D01*
X12682087Y-16848936D02*
X12672563Y-16839412D01*
D16*
X7778500Y-17181000D02*
X7897500Y-17300000D01*
X7897500Y-17181000D02*
X7778500Y-17300000D01*
X7880073Y-17282573D02*
X7880073Y-17198427D01*
X7795927Y-17198427D01*
X7795927Y-17282573D01*
X7880073Y-17282573D01*
D11*
X8263039Y-17331984D02*
X8148753Y-17331984D01*
X8205896Y-17331984D02*
X8205896Y-17131984D01*
X8205896Y-17131984D02*
X8186848Y-17160555D01*
X8186848Y-17160555D02*
X8167801Y-17179603D01*
X8167801Y-17179603D02*
X8148753Y-17189127D01*
X8348753Y-17312936D02*
X8358277Y-17322460D01*
X8358277Y-17322460D02*
X8348753Y-17331984D01*
X8348753Y-17331984D02*
X8339229Y-17322460D01*
X8339229Y-17322460D02*
X8348753Y-17312936D01*
X8348753Y-17312936D02*
X8348753Y-17331984D01*
X8548753Y-17331984D02*
X8434467Y-17331984D01*
X8491610Y-17331984D02*
X8491610Y-17131984D01*
X8491610Y-17131984D02*
X8472563Y-17160555D01*
X8472563Y-17160555D02*
X8453515Y-17179603D01*
X8453515Y-17179603D02*
X8434467Y-17189127D01*
X8643991Y-17331984D02*
X8682086Y-17331984D01*
X8682086Y-17331984D02*
X8701134Y-17322460D01*
X8701134Y-17322460D02*
X8710658Y-17312936D01*
X8710658Y-17312936D02*
X8729705Y-17284365D01*
X8729705Y-17284365D02*
X8739229Y-17246270D01*
X8739229Y-17246270D02*
X8739229Y-17170079D01*
X8739229Y-17170079D02*
X8729705Y-17151031D01*
X8729705Y-17151031D02*
X8720182Y-17141508D01*
X8720182Y-17141508D02*
X8701134Y-17131984D01*
X8701134Y-17131984D02*
X8663039Y-17131984D01*
X8663039Y-17131984D02*
X8643991Y-17141508D01*
X8643991Y-17141508D02*
X8634467Y-17151031D01*
X8634467Y-17151031D02*
X8624944Y-17170079D01*
X8624944Y-17170079D02*
X8624944Y-17217698D01*
X8624944Y-17217698D02*
X8634467Y-17236746D01*
X8634467Y-17236746D02*
X8643991Y-17246270D01*
X8643991Y-17246270D02*
X8663039Y-17255793D01*
X8663039Y-17255793D02*
X8701134Y-17255793D01*
X8701134Y-17255793D02*
X8720182Y-17246270D01*
X8720182Y-17246270D02*
X8729705Y-17236746D01*
X8729705Y-17236746D02*
X8739229Y-17217698D01*
X8863039Y-17131984D02*
X8882086Y-17131984D01*
X8882086Y-17131984D02*
X8901134Y-17141508D01*
X8901134Y-17141508D02*
X8910658Y-17151031D01*
X8910658Y-17151031D02*
X8920182Y-17170079D01*
X8920182Y-17170079D02*
X8929705Y-17208174D01*
X8929705Y-17208174D02*
X8929705Y-17255793D01*
X8929705Y-17255793D02*
X8920182Y-17293889D01*
X8920182Y-17293889D02*
X8910658Y-17312936D01*
X8910658Y-17312936D02*
X8901134Y-17322460D01*
X8901134Y-17322460D02*
X8882086Y-17331984D01*
X8882086Y-17331984D02*
X8863039Y-17331984D01*
X8863039Y-17331984D02*
X8843991Y-17322460D01*
X8843991Y-17322460D02*
X8834467Y-17312936D01*
X8834467Y-17312936D02*
X8824944Y-17293889D01*
X8824944Y-17293889D02*
X8815420Y-17255793D01*
X8815420Y-17255793D02*
X8815420Y-17208174D01*
X8815420Y-17208174D02*
X8824944Y-17170079D01*
X8824944Y-17170079D02*
X8834467Y-17151031D01*
X8834467Y-17151031D02*
X8843991Y-17141508D01*
X8843991Y-17141508D02*
X8863039Y-17131984D01*
X9015420Y-17331984D02*
X9015420Y-17198650D01*
X9015420Y-17217698D02*
X9024944Y-17208174D01*
X9024944Y-17208174D02*
X9043991Y-17198650D01*
X9043991Y-17198650D02*
X9072563Y-17198650D01*
X9072563Y-17198650D02*
X9091610Y-17208174D01*
X9091610Y-17208174D02*
X9101134Y-17227222D01*
X9101134Y-17227222D02*
X9101134Y-17331984D01*
X9101134Y-17227222D02*
X9110658Y-17208174D01*
X9110658Y-17208174D02*
X9129705Y-17198650D01*
X9129705Y-17198650D02*
X9158277Y-17198650D01*
X9158277Y-17198650D02*
X9177325Y-17208174D01*
X9177325Y-17208174D02*
X9186848Y-17227222D01*
X9186848Y-17227222D02*
X9186848Y-17331984D01*
X9282086Y-17331984D02*
X9282086Y-17198650D01*
X9282086Y-17217698D02*
X9291610Y-17208174D01*
X9291610Y-17208174D02*
X9310658Y-17198650D01*
X9310658Y-17198650D02*
X9339229Y-17198650D01*
X9339229Y-17198650D02*
X9358277Y-17208174D01*
X9358277Y-17208174D02*
X9367801Y-17227222D01*
X9367801Y-17227222D02*
X9367801Y-17331984D01*
X9367801Y-17227222D02*
X9377325Y-17208174D01*
X9377325Y-17208174D02*
X9396372Y-17198650D01*
X9396372Y-17198650D02*
X9424944Y-17198650D01*
X9424944Y-17198650D02*
X9443991Y-17208174D01*
X9443991Y-17208174D02*
X9453515Y-17227222D01*
X9453515Y-17227222D02*
X9453515Y-17331984D01*
X9843991Y-17122460D02*
X9672563Y-17379603D01*
X10101134Y-17131984D02*
X10120182Y-17131984D01*
X10120182Y-17131984D02*
X10139229Y-17141508D01*
X10139229Y-17141508D02*
X10148753Y-17151031D01*
X10148753Y-17151031D02*
X10158277Y-17170079D01*
X10158277Y-17170079D02*
X10167801Y-17208174D01*
X10167801Y-17208174D02*
X10167801Y-17255793D01*
X10167801Y-17255793D02*
X10158277Y-17293889D01*
X10158277Y-17293889D02*
X10148753Y-17312936D01*
X10148753Y-17312936D02*
X10139229Y-17322460D01*
X10139229Y-17322460D02*
X10120182Y-17331984D01*
X10120182Y-17331984D02*
X10101134Y-17331984D01*
X10101134Y-17331984D02*
X10082087Y-17322460D01*
X10082087Y-17322460D02*
X10072563Y-17312936D01*
X10072563Y-17312936D02*
X10063039Y-17293889D01*
X10063039Y-17293889D02*
X10053515Y-17255793D01*
X10053515Y-17255793D02*
X10053515Y-17208174D01*
X10053515Y-17208174D02*
X10063039Y-17170079D01*
X10063039Y-17170079D02*
X10072563Y-17151031D01*
X10072563Y-17151031D02*
X10082087Y-17141508D01*
X10082087Y-17141508D02*
X10101134Y-17131984D01*
X10253515Y-17312936D02*
X10263039Y-17322460D01*
X10263039Y-17322460D02*
X10253515Y-17331984D01*
X10253515Y-17331984D02*
X10243991Y-17322460D01*
X10243991Y-17322460D02*
X10253515Y-17312936D01*
X10253515Y-17312936D02*
X10253515Y-17331984D01*
X10386848Y-17131984D02*
X10405896Y-17131984D01*
X10405896Y-17131984D02*
X10424944Y-17141508D01*
X10424944Y-17141508D02*
X10434468Y-17151031D01*
X10434468Y-17151031D02*
X10443991Y-17170079D01*
X10443991Y-17170079D02*
X10453515Y-17208174D01*
X10453515Y-17208174D02*
X10453515Y-17255793D01*
X10453515Y-17255793D02*
X10443991Y-17293889D01*
X10443991Y-17293889D02*
X10434468Y-17312936D01*
X10434468Y-17312936D02*
X10424944Y-17322460D01*
X10424944Y-17322460D02*
X10405896Y-17331984D01*
X10405896Y-17331984D02*
X10386848Y-17331984D01*
X10386848Y-17331984D02*
X10367801Y-17322460D01*
X10367801Y-17322460D02*
X10358277Y-17312936D01*
X10358277Y-17312936D02*
X10348753Y-17293889D01*
X10348753Y-17293889D02*
X10339229Y-17255793D01*
X10339229Y-17255793D02*
X10339229Y-17208174D01*
X10339229Y-17208174D02*
X10348753Y-17170079D01*
X10348753Y-17170079D02*
X10358277Y-17151031D01*
X10358277Y-17151031D02*
X10367801Y-17141508D01*
X10367801Y-17141508D02*
X10386848Y-17131984D01*
X10624944Y-17198650D02*
X10624944Y-17331984D01*
X10577325Y-17122460D02*
X10529706Y-17265317D01*
X10529706Y-17265317D02*
X10653515Y-17265317D01*
X10815420Y-17131984D02*
X10777325Y-17131984D01*
X10777325Y-17131984D02*
X10758277Y-17141508D01*
X10758277Y-17141508D02*
X10748753Y-17151031D01*
X10748753Y-17151031D02*
X10729706Y-17179603D01*
X10729706Y-17179603D02*
X10720182Y-17217698D01*
X10720182Y-17217698D02*
X10720182Y-17293889D01*
X10720182Y-17293889D02*
X10729706Y-17312936D01*
X10729706Y-17312936D02*
X10739229Y-17322460D01*
X10739229Y-17322460D02*
X10758277Y-17331984D01*
X10758277Y-17331984D02*
X10796372Y-17331984D01*
X10796372Y-17331984D02*
X10815420Y-17322460D01*
X10815420Y-17322460D02*
X10824944Y-17312936D01*
X10824944Y-17312936D02*
X10834468Y-17293889D01*
X10834468Y-17293889D02*
X10834468Y-17246270D01*
X10834468Y-17246270D02*
X10824944Y-17227222D01*
X10824944Y-17227222D02*
X10815420Y-17217698D01*
X10815420Y-17217698D02*
X10796372Y-17208174D01*
X10796372Y-17208174D02*
X10758277Y-17208174D01*
X10758277Y-17208174D02*
X10739229Y-17217698D01*
X10739229Y-17217698D02*
X10729706Y-17227222D01*
X10729706Y-17227222D02*
X10720182Y-17246270D01*
X10929706Y-17331984D02*
X10967801Y-17331984D01*
X10967801Y-17331984D02*
X10986849Y-17322460D01*
X10986849Y-17322460D02*
X10996372Y-17312936D01*
X10996372Y-17312936D02*
X11015420Y-17284365D01*
X11015420Y-17284365D02*
X11024944Y-17246270D01*
X11024944Y-17246270D02*
X11024944Y-17170079D01*
X11024944Y-17170079D02*
X11015420Y-17151031D01*
X11015420Y-17151031D02*
X11005896Y-17141508D01*
X11005896Y-17141508D02*
X10986849Y-17131984D01*
X10986849Y-17131984D02*
X10948753Y-17131984D01*
X10948753Y-17131984D02*
X10929706Y-17141508D01*
X10929706Y-17141508D02*
X10920182Y-17151031D01*
X10920182Y-17151031D02*
X10910658Y-17170079D01*
X10910658Y-17170079D02*
X10910658Y-17217698D01*
X10910658Y-17217698D02*
X10920182Y-17236746D01*
X10920182Y-17236746D02*
X10929706Y-17246270D01*
X10929706Y-17246270D02*
X10948753Y-17255793D01*
X10948753Y-17255793D02*
X10986849Y-17255793D01*
X10986849Y-17255793D02*
X11005896Y-17246270D01*
X11005896Y-17246270D02*
X11015420Y-17236746D01*
X11015420Y-17236746D02*
X11024944Y-17217698D01*
X11101134Y-17131984D02*
X11101134Y-17170079D01*
X11177325Y-17131984D02*
X11177325Y-17170079D01*
X11472563Y-17408174D02*
X11463039Y-17398650D01*
X11463039Y-17398650D02*
X11443991Y-17370079D01*
X11443991Y-17370079D02*
X11434468Y-17351031D01*
X11434468Y-17351031D02*
X11424944Y-17322460D01*
X11424944Y-17322460D02*
X11415420Y-17274841D01*
X11415420Y-17274841D02*
X11415420Y-17236746D01*
X11415420Y-17236746D02*
X11424944Y-17189127D01*
X11424944Y-17189127D02*
X11434468Y-17160555D01*
X11434468Y-17160555D02*
X11443991Y-17141508D01*
X11443991Y-17141508D02*
X11463039Y-17112936D01*
X11463039Y-17112936D02*
X11472563Y-17103412D01*
X11539229Y-17151031D02*
X11548753Y-17141508D01*
X11548753Y-17141508D02*
X11567801Y-17131984D01*
X11567801Y-17131984D02*
X11615420Y-17131984D01*
X11615420Y-17131984D02*
X11634468Y-17141508D01*
X11634468Y-17141508D02*
X11643991Y-17151031D01*
X11643991Y-17151031D02*
X11653515Y-17170079D01*
X11653515Y-17170079D02*
X11653515Y-17189127D01*
X11653515Y-17189127D02*
X11643991Y-17217698D01*
X11643991Y-17217698D02*
X11529706Y-17331984D01*
X11529706Y-17331984D02*
X11653515Y-17331984D01*
X11891610Y-17331984D02*
X11891610Y-17131984D01*
X11977325Y-17331984D02*
X11977325Y-17227222D01*
X11977325Y-17227222D02*
X11967801Y-17208174D01*
X11967801Y-17208174D02*
X11948753Y-17198650D01*
X11948753Y-17198650D02*
X11920182Y-17198650D01*
X11920182Y-17198650D02*
X11901134Y-17208174D01*
X11901134Y-17208174D02*
X11891610Y-17217698D01*
X12101134Y-17331984D02*
X12082087Y-17322460D01*
X12082087Y-17322460D02*
X12072563Y-17312936D01*
X12072563Y-17312936D02*
X12063039Y-17293889D01*
X12063039Y-17293889D02*
X12063039Y-17236746D01*
X12063039Y-17236746D02*
X12072563Y-17217698D01*
X12072563Y-17217698D02*
X12082087Y-17208174D01*
X12082087Y-17208174D02*
X12101134Y-17198650D01*
X12101134Y-17198650D02*
X12129706Y-17198650D01*
X12129706Y-17198650D02*
X12148753Y-17208174D01*
X12148753Y-17208174D02*
X12158277Y-17217698D01*
X12158277Y-17217698D02*
X12167801Y-17236746D01*
X12167801Y-17236746D02*
X12167801Y-17293889D01*
X12167801Y-17293889D02*
X12158277Y-17312936D01*
X12158277Y-17312936D02*
X12148753Y-17322460D01*
X12148753Y-17322460D02*
X12129706Y-17331984D01*
X12129706Y-17331984D02*
X12101134Y-17331984D01*
X12282087Y-17331984D02*
X12263039Y-17322460D01*
X12263039Y-17322460D02*
X12253515Y-17303412D01*
X12253515Y-17303412D02*
X12253515Y-17131984D01*
X12434468Y-17322460D02*
X12415420Y-17331984D01*
X12415420Y-17331984D02*
X12377325Y-17331984D01*
X12377325Y-17331984D02*
X12358277Y-17322460D01*
X12358277Y-17322460D02*
X12348753Y-17303412D01*
X12348753Y-17303412D02*
X12348753Y-17227222D01*
X12348753Y-17227222D02*
X12358277Y-17208174D01*
X12358277Y-17208174D02*
X12377325Y-17198650D01*
X12377325Y-17198650D02*
X12415420Y-17198650D01*
X12415420Y-17198650D02*
X12434468Y-17208174D01*
X12434468Y-17208174D02*
X12443991Y-17227222D01*
X12443991Y-17227222D02*
X12443991Y-17246270D01*
X12443991Y-17246270D02*
X12348753Y-17265317D01*
X12520182Y-17322460D02*
X12539230Y-17331984D01*
X12539230Y-17331984D02*
X12577325Y-17331984D01*
X12577325Y-17331984D02*
X12596372Y-17322460D01*
X12596372Y-17322460D02*
X12605896Y-17303412D01*
X12605896Y-17303412D02*
X12605896Y-17293889D01*
X12605896Y-17293889D02*
X12596372Y-17274841D01*
X12596372Y-17274841D02*
X12577325Y-17265317D01*
X12577325Y-17265317D02*
X12548753Y-17265317D01*
X12548753Y-17265317D02*
X12529706Y-17255793D01*
X12529706Y-17255793D02*
X12520182Y-17236746D01*
X12520182Y-17236746D02*
X12520182Y-17227222D01*
X12520182Y-17227222D02*
X12529706Y-17208174D01*
X12529706Y-17208174D02*
X12548753Y-17198650D01*
X12548753Y-17198650D02*
X12577325Y-17198650D01*
X12577325Y-17198650D02*
X12596372Y-17208174D01*
X12672563Y-17408174D02*
X12682087Y-17398650D01*
X12682087Y-17398650D02*
X12701134Y-17370079D01*
X12701134Y-17370079D02*
X12710658Y-17351031D01*
X12710658Y-17351031D02*
X12720182Y-17322460D01*
X12720182Y-17322460D02*
X12729706Y-17274841D01*
X12729706Y-17274841D02*
X12729706Y-17236746D01*
X12729706Y-17236746D02*
X12720182Y-17189127D01*
X12720182Y-17189127D02*
X12710658Y-17160555D01*
X12710658Y-17160555D02*
X12701134Y-17141508D01*
X12701134Y-17141508D02*
X12682087Y-17112936D01*
X12682087Y-17112936D02*
X12672563Y-17103412D01*
X7697500Y-17404500D02*
X7897500Y-17604500D01*
X7897500Y-17404500D02*
X7697500Y-17604500D01*
X7797500Y-17604500D02*
X7897500Y-17504500D01*
X7797500Y-17404500D01*
X7697500Y-17504500D01*
X7797500Y-17604500D01*
X8139229Y-17395984D02*
X8263039Y-17395984D01*
X8263039Y-17395984D02*
X8196372Y-17472174D01*
X8196372Y-17472174D02*
X8224943Y-17472174D01*
X8224943Y-17472174D02*
X8243991Y-17481698D01*
X8243991Y-17481698D02*
X8253515Y-17491222D01*
X8253515Y-17491222D02*
X8263039Y-17510270D01*
X8263039Y-17510270D02*
X8263039Y-17557889D01*
X8263039Y-17557889D02*
X8253515Y-17576936D01*
X8253515Y-17576936D02*
X8243991Y-17586460D01*
X8243991Y-17586460D02*
X8224943Y-17595984D01*
X8224943Y-17595984D02*
X8167801Y-17595984D01*
X8167801Y-17595984D02*
X8148753Y-17586460D01*
X8148753Y-17586460D02*
X8139229Y-17576936D01*
X8348753Y-17576936D02*
X8358277Y-17586460D01*
X8358277Y-17586460D02*
X8348753Y-17595984D01*
X8348753Y-17595984D02*
X8339229Y-17586460D01*
X8339229Y-17586460D02*
X8348753Y-17576936D01*
X8348753Y-17576936D02*
X8348753Y-17595984D01*
X8482086Y-17395984D02*
X8501134Y-17395984D01*
X8501134Y-17395984D02*
X8520182Y-17405508D01*
X8520182Y-17405508D02*
X8529705Y-17415031D01*
X8529705Y-17415031D02*
X8539229Y-17434079D01*
X8539229Y-17434079D02*
X8548753Y-17472174D01*
X8548753Y-17472174D02*
X8548753Y-17519793D01*
X8548753Y-17519793D02*
X8539229Y-17557889D01*
X8539229Y-17557889D02*
X8529705Y-17576936D01*
X8529705Y-17576936D02*
X8520182Y-17586460D01*
X8520182Y-17586460D02*
X8501134Y-17595984D01*
X8501134Y-17595984D02*
X8482086Y-17595984D01*
X8482086Y-17595984D02*
X8463039Y-17586460D01*
X8463039Y-17586460D02*
X8453515Y-17576936D01*
X8453515Y-17576936D02*
X8443991Y-17557889D01*
X8443991Y-17557889D02*
X8434467Y-17519793D01*
X8434467Y-17519793D02*
X8434467Y-17472174D01*
X8434467Y-17472174D02*
X8443991Y-17434079D01*
X8443991Y-17434079D02*
X8453515Y-17415031D01*
X8453515Y-17415031D02*
X8463039Y-17405508D01*
X8463039Y-17405508D02*
X8482086Y-17395984D01*
X8672563Y-17395984D02*
X8691610Y-17395984D01*
X8691610Y-17395984D02*
X8710658Y-17405508D01*
X8710658Y-17405508D02*
X8720182Y-17415031D01*
X8720182Y-17415031D02*
X8729705Y-17434079D01*
X8729705Y-17434079D02*
X8739229Y-17472174D01*
X8739229Y-17472174D02*
X8739229Y-17519793D01*
X8739229Y-17519793D02*
X8729705Y-17557889D01*
X8729705Y-17557889D02*
X8720182Y-17576936D01*
X8720182Y-17576936D02*
X8710658Y-17586460D01*
X8710658Y-17586460D02*
X8691610Y-17595984D01*
X8691610Y-17595984D02*
X8672563Y-17595984D01*
X8672563Y-17595984D02*
X8653515Y-17586460D01*
X8653515Y-17586460D02*
X8643991Y-17576936D01*
X8643991Y-17576936D02*
X8634467Y-17557889D01*
X8634467Y-17557889D02*
X8624944Y-17519793D01*
X8624944Y-17519793D02*
X8624944Y-17472174D01*
X8624944Y-17472174D02*
X8634467Y-17434079D01*
X8634467Y-17434079D02*
X8643991Y-17415031D01*
X8643991Y-17415031D02*
X8653515Y-17405508D01*
X8653515Y-17405508D02*
X8672563Y-17395984D01*
X8863039Y-17395984D02*
X8882086Y-17395984D01*
X8882086Y-17395984D02*
X8901134Y-17405508D01*
X8901134Y-17405508D02*
X8910658Y-17415031D01*
X8910658Y-17415031D02*
X8920182Y-17434079D01*
X8920182Y-17434079D02*
X8929705Y-17472174D01*
X8929705Y-17472174D02*
X8929705Y-17519793D01*
X8929705Y-17519793D02*
X8920182Y-17557889D01*
X8920182Y-17557889D02*
X8910658Y-17576936D01*
X8910658Y-17576936D02*
X8901134Y-17586460D01*
X8901134Y-17586460D02*
X8882086Y-17595984D01*
X8882086Y-17595984D02*
X8863039Y-17595984D01*
X8863039Y-17595984D02*
X8843991Y-17586460D01*
X8843991Y-17586460D02*
X8834467Y-17576936D01*
X8834467Y-17576936D02*
X8824944Y-17557889D01*
X8824944Y-17557889D02*
X8815420Y-17519793D01*
X8815420Y-17519793D02*
X8815420Y-17472174D01*
X8815420Y-17472174D02*
X8824944Y-17434079D01*
X8824944Y-17434079D02*
X8834467Y-17415031D01*
X8834467Y-17415031D02*
X8843991Y-17405508D01*
X8843991Y-17405508D02*
X8863039Y-17395984D01*
X9015420Y-17595984D02*
X9015420Y-17462650D01*
X9015420Y-17481698D02*
X9024944Y-17472174D01*
X9024944Y-17472174D02*
X9043991Y-17462650D01*
X9043991Y-17462650D02*
X9072563Y-17462650D01*
X9072563Y-17462650D02*
X9091610Y-17472174D01*
X9091610Y-17472174D02*
X9101134Y-17491222D01*
X9101134Y-17491222D02*
X9101134Y-17595984D01*
X9101134Y-17491222D02*
X9110658Y-17472174D01*
X9110658Y-17472174D02*
X9129705Y-17462650D01*
X9129705Y-17462650D02*
X9158277Y-17462650D01*
X9158277Y-17462650D02*
X9177325Y-17472174D01*
X9177325Y-17472174D02*
X9186848Y-17491222D01*
X9186848Y-17491222D02*
X9186848Y-17595984D01*
X9282086Y-17595984D02*
X9282086Y-17462650D01*
X9282086Y-17481698D02*
X9291610Y-17472174D01*
X9291610Y-17472174D02*
X9310658Y-17462650D01*
X9310658Y-17462650D02*
X9339229Y-17462650D01*
X9339229Y-17462650D02*
X9358277Y-17472174D01*
X9358277Y-17472174D02*
X9367801Y-17491222D01*
X9367801Y-17491222D02*
X9367801Y-17595984D01*
X9367801Y-17491222D02*
X9377325Y-17472174D01*
X9377325Y-17472174D02*
X9396372Y-17462650D01*
X9396372Y-17462650D02*
X9424944Y-17462650D01*
X9424944Y-17462650D02*
X9443991Y-17472174D01*
X9443991Y-17472174D02*
X9453515Y-17491222D01*
X9453515Y-17491222D02*
X9453515Y-17595984D01*
X9843991Y-17386460D02*
X9672563Y-17643603D01*
X10101134Y-17395984D02*
X10120182Y-17395984D01*
X10120182Y-17395984D02*
X10139229Y-17405508D01*
X10139229Y-17405508D02*
X10148753Y-17415031D01*
X10148753Y-17415031D02*
X10158277Y-17434079D01*
X10158277Y-17434079D02*
X10167801Y-17472174D01*
X10167801Y-17472174D02*
X10167801Y-17519793D01*
X10167801Y-17519793D02*
X10158277Y-17557889D01*
X10158277Y-17557889D02*
X10148753Y-17576936D01*
X10148753Y-17576936D02*
X10139229Y-17586460D01*
X10139229Y-17586460D02*
X10120182Y-17595984D01*
X10120182Y-17595984D02*
X10101134Y-17595984D01*
X10101134Y-17595984D02*
X10082087Y-17586460D01*
X10082087Y-17586460D02*
X10072563Y-17576936D01*
X10072563Y-17576936D02*
X10063039Y-17557889D01*
X10063039Y-17557889D02*
X10053515Y-17519793D01*
X10053515Y-17519793D02*
X10053515Y-17472174D01*
X10053515Y-17472174D02*
X10063039Y-17434079D01*
X10063039Y-17434079D02*
X10072563Y-17415031D01*
X10072563Y-17415031D02*
X10082087Y-17405508D01*
X10082087Y-17405508D02*
X10101134Y-17395984D01*
X10253515Y-17576936D02*
X10263039Y-17586460D01*
X10263039Y-17586460D02*
X10253515Y-17595984D01*
X10253515Y-17595984D02*
X10243991Y-17586460D01*
X10243991Y-17586460D02*
X10253515Y-17576936D01*
X10253515Y-17576936D02*
X10253515Y-17595984D01*
X10453515Y-17595984D02*
X10339229Y-17595984D01*
X10396372Y-17595984D02*
X10396372Y-17395984D01*
X10396372Y-17395984D02*
X10377325Y-17424555D01*
X10377325Y-17424555D02*
X10358277Y-17443603D01*
X10358277Y-17443603D02*
X10339229Y-17453127D01*
X10643991Y-17595984D02*
X10529706Y-17595984D01*
X10586848Y-17595984D02*
X10586848Y-17395984D01*
X10586848Y-17395984D02*
X10567801Y-17424555D01*
X10567801Y-17424555D02*
X10548753Y-17443603D01*
X10548753Y-17443603D02*
X10529706Y-17453127D01*
X10758277Y-17481698D02*
X10739229Y-17472174D01*
X10739229Y-17472174D02*
X10729706Y-17462650D01*
X10729706Y-17462650D02*
X10720182Y-17443603D01*
X10720182Y-17443603D02*
X10720182Y-17434079D01*
X10720182Y-17434079D02*
X10729706Y-17415031D01*
X10729706Y-17415031D02*
X10739229Y-17405508D01*
X10739229Y-17405508D02*
X10758277Y-17395984D01*
X10758277Y-17395984D02*
X10796372Y-17395984D01*
X10796372Y-17395984D02*
X10815420Y-17405508D01*
X10815420Y-17405508D02*
X10824944Y-17415031D01*
X10824944Y-17415031D02*
X10834468Y-17434079D01*
X10834468Y-17434079D02*
X10834468Y-17443603D01*
X10834468Y-17443603D02*
X10824944Y-17462650D01*
X10824944Y-17462650D02*
X10815420Y-17472174D01*
X10815420Y-17472174D02*
X10796372Y-17481698D01*
X10796372Y-17481698D02*
X10758277Y-17481698D01*
X10758277Y-17481698D02*
X10739229Y-17491222D01*
X10739229Y-17491222D02*
X10729706Y-17500746D01*
X10729706Y-17500746D02*
X10720182Y-17519793D01*
X10720182Y-17519793D02*
X10720182Y-17557889D01*
X10720182Y-17557889D02*
X10729706Y-17576936D01*
X10729706Y-17576936D02*
X10739229Y-17586460D01*
X10739229Y-17586460D02*
X10758277Y-17595984D01*
X10758277Y-17595984D02*
X10796372Y-17595984D01*
X10796372Y-17595984D02*
X10815420Y-17586460D01*
X10815420Y-17586460D02*
X10824944Y-17576936D01*
X10824944Y-17576936D02*
X10834468Y-17557889D01*
X10834468Y-17557889D02*
X10834468Y-17519793D01*
X10834468Y-17519793D02*
X10824944Y-17500746D01*
X10824944Y-17500746D02*
X10815420Y-17491222D01*
X10815420Y-17491222D02*
X10796372Y-17481698D01*
X11024944Y-17595984D02*
X10910658Y-17595984D01*
X10967801Y-17595984D02*
X10967801Y-17395984D01*
X10967801Y-17395984D02*
X10948753Y-17424555D01*
X10948753Y-17424555D02*
X10929706Y-17443603D01*
X10929706Y-17443603D02*
X10910658Y-17453127D01*
X11101134Y-17395984D02*
X11101134Y-17434079D01*
X11177325Y-17395984D02*
X11177325Y-17434079D01*
X11472563Y-17672174D02*
X11463039Y-17662650D01*
X11463039Y-17662650D02*
X11443991Y-17634079D01*
X11443991Y-17634079D02*
X11434468Y-17615031D01*
X11434468Y-17615031D02*
X11424944Y-17586460D01*
X11424944Y-17586460D02*
X11415420Y-17538841D01*
X11415420Y-17538841D02*
X11415420Y-17500746D01*
X11415420Y-17500746D02*
X11424944Y-17453127D01*
X11424944Y-17453127D02*
X11434468Y-17424555D01*
X11434468Y-17424555D02*
X11443991Y-17405508D01*
X11443991Y-17405508D02*
X11463039Y-17376936D01*
X11463039Y-17376936D02*
X11472563Y-17367412D01*
X11634468Y-17462650D02*
X11634468Y-17595984D01*
X11586848Y-17386460D02*
X11539229Y-17529317D01*
X11539229Y-17529317D02*
X11663039Y-17529317D01*
X11891610Y-17595984D02*
X11891610Y-17395984D01*
X11977325Y-17595984D02*
X11977325Y-17491222D01*
X11977325Y-17491222D02*
X11967801Y-17472174D01*
X11967801Y-17472174D02*
X11948753Y-17462650D01*
X11948753Y-17462650D02*
X11920182Y-17462650D01*
X11920182Y-17462650D02*
X11901134Y-17472174D01*
X11901134Y-17472174D02*
X11891610Y-17481698D01*
X12101134Y-17595984D02*
X12082087Y-17586460D01*
X12082087Y-17586460D02*
X12072563Y-17576936D01*
X12072563Y-17576936D02*
X12063039Y-17557889D01*
X12063039Y-17557889D02*
X12063039Y-17500746D01*
X12063039Y-17500746D02*
X12072563Y-17481698D01*
X12072563Y-17481698D02*
X12082087Y-17472174D01*
X12082087Y-17472174D02*
X12101134Y-17462650D01*
X12101134Y-17462650D02*
X12129706Y-17462650D01*
X12129706Y-17462650D02*
X12148753Y-17472174D01*
X12148753Y-17472174D02*
X12158277Y-17481698D01*
X12158277Y-17481698D02*
X12167801Y-17500746D01*
X12167801Y-17500746D02*
X12167801Y-17557889D01*
X12167801Y-17557889D02*
X12158277Y-17576936D01*
X12158277Y-17576936D02*
X12148753Y-17586460D01*
X12148753Y-17586460D02*
X12129706Y-17595984D01*
X12129706Y-17595984D02*
X12101134Y-17595984D01*
X12282087Y-17595984D02*
X12263039Y-17586460D01*
X12263039Y-17586460D02*
X12253515Y-17567412D01*
X12253515Y-17567412D02*
X12253515Y-17395984D01*
X12434468Y-17586460D02*
X12415420Y-17595984D01*
X12415420Y-17595984D02*
X12377325Y-17595984D01*
X12377325Y-17595984D02*
X12358277Y-17586460D01*
X12358277Y-17586460D02*
X12348753Y-17567412D01*
X12348753Y-17567412D02*
X12348753Y-17491222D01*
X12348753Y-17491222D02*
X12358277Y-17472174D01*
X12358277Y-17472174D02*
X12377325Y-17462650D01*
X12377325Y-17462650D02*
X12415420Y-17462650D01*
X12415420Y-17462650D02*
X12434468Y-17472174D01*
X12434468Y-17472174D02*
X12443991Y-17491222D01*
X12443991Y-17491222D02*
X12443991Y-17510270D01*
X12443991Y-17510270D02*
X12348753Y-17529317D01*
X12520182Y-17586460D02*
X12539230Y-17595984D01*
X12539230Y-17595984D02*
X12577325Y-17595984D01*
X12577325Y-17595984D02*
X12596372Y-17586460D01*
X12596372Y-17586460D02*
X12605896Y-17567412D01*
X12605896Y-17567412D02*
X12605896Y-17557889D01*
X12605896Y-17557889D02*
X12596372Y-17538841D01*
X12596372Y-17538841D02*
X12577325Y-17529317D01*
X12577325Y-17529317D02*
X12548753Y-17529317D01*
X12548753Y-17529317D02*
X12529706Y-17519793D01*
X12529706Y-17519793D02*
X12520182Y-17500746D01*
X12520182Y-17500746D02*
X12520182Y-17491222D01*
X12520182Y-17491222D02*
X12529706Y-17472174D01*
X12529706Y-17472174D02*
X12548753Y-17462650D01*
X12548753Y-17462650D02*
X12577325Y-17462650D01*
X12577325Y-17462650D02*
X12596372Y-17472174D01*
X12672563Y-17672174D02*
X12682087Y-17662650D01*
X12682087Y-17662650D02*
X12701134Y-17634079D01*
X12701134Y-17634079D02*
X12710658Y-17615031D01*
X12710658Y-17615031D02*
X12720182Y-17586460D01*
X12720182Y-17586460D02*
X12729706Y-17538841D01*
X12729706Y-17538841D02*
X12729706Y-17500746D01*
X12729706Y-17500746D02*
X12720182Y-17453127D01*
X12720182Y-17453127D02*
X12710658Y-17424555D01*
X12710658Y-17424555D02*
X12701134Y-17405508D01*
X12701134Y-17405508D02*
X12682087Y-17376936D01*
X12682087Y-17376936D02*
X12672563Y-17367412D01*
M02*
