M48
; DRILL file {KiCad 8.0.4} date 2024-08-12T16:36:50-0600
; FORMAT={-:-/ absolute / inch / decimal}
; #@! TF.CreationDate,2024-08-12T16:36:50-06:00
; #@! TF.GenerationSoftware,Kicad,Pcbnew,8.0.4
; #@! TF.FileFunction,Plated,1,2,PTH
FMAT,2
INCH
; #@! TA.AperFunction,Plated,PTH,ViaDrill
T1C0.0118
; #@! TA.AperFunction,Plated,PTH,ComponentDrill
T2C0.0287
; #@! TA.AperFunction,Plated,PTH,ComponentDrill
T3C0.0315
; #@! TA.AperFunction,Plated,PTH,ComponentDrill
T4C0.0394
; #@! TA.AperFunction,Plated,PTH,ComponentDrill
T5C0.0400
; #@! TA.AperFunction,Plated,PTH,ComponentDrill
T6C0.0402
; #@! TA.AperFunction,Plated,PTH,ComponentDrill
T7C0.0433
; #@! TA.AperFunction,Plated,PTH,ComponentDrill
T8C0.0469
; #@! TA.AperFunction,Plated,PTH,ComponentDrill
T9C0.1181
%
G90
G05
T1
X3.2274Y-4.2215
X3.3819Y-4.1634
X4.7244Y-5.4488
X4.7244Y-5.7677
X4.968Y-5.2343
X4.9951Y-4.9803
T2
X3.501Y-4.1722
X3.501Y-4.2313
X3.501Y-4.2904
X3.501Y-4.3494
T3
X6.378Y-3.9764
X6.378Y-4.2717
X6.5748Y-3.9764
X6.5748Y-4.2717
X6.6575Y-3.189
X6.7362Y-3.189
X6.815Y-3.189
X7.0335Y-3.9498
X7.0335Y-4.2844
X7.1122Y-3.9498
X7.1122Y-4.2844
T4
X4.9165Y-5.2559
X4.9165Y-5.3559
X5.0165Y-5.2559
X5.0165Y-5.3559
X5.1165Y-5.2559
X5.1165Y-5.3559
X5.2165Y-5.2559
X5.2165Y-5.3559
T5
X3.7583Y-4.252
X3.7583Y-4.352
X3.7583Y-4.452
X3.7583Y-4.552
X3.7583Y-4.652
X3.7583Y-4.752
X3.7583Y-4.852
X3.7583Y-4.952
X3.7583Y-5.052
X3.7583Y-5.152
X3.7583Y-5.252
X3.7583Y-5.352
X3.8583Y-4.252
X3.8583Y-5.252
X3.8583Y-5.352
X3.9583Y-4.252
X3.9583Y-5.252
X3.9583Y-5.352
X4.0583Y-4.252
X4.1583Y-4.252
X4.1583Y-5.352
X4.2583Y-4.252
X4.2583Y-5.352
X4.3583Y-4.252
X4.3583Y-4.352
X4.3583Y-4.452
X4.3583Y-4.552
X4.3583Y-4.652
X4.3583Y-4.752
X4.3583Y-4.852
X4.3583Y-4.952
X4.3583Y-5.052
X4.3583Y-5.152
X4.3583Y-5.252
X4.3583Y-5.352
T6
X5.8412Y-3.1083
X5.8412Y-3.2083
X5.8412Y-3.3083
X5.8412Y-3.4083
X5.8412Y-3.5083
X5.8412Y-3.6083
X5.8412Y-3.7083
X5.8412Y-3.8083
T7
X6.6323Y-4.8031
X6.6346Y-3.5827
X6.7323Y-4.8031
X6.7346Y-3.5827
X6.8323Y-4.8031
X6.8346Y-3.5827
T8
X7.6795Y-3.5433
X7.7795Y-3.5433
T9
X3.3809Y-2.9232
X3.3809Y-5.5315
X8.128Y-2.8937
X8.128Y-5.5167
M30
