%TF.GenerationSoftware,KiCad,Pcbnew,8.0.4*%
%TF.CreationDate,2024-08-12T16:36:46-06:00*%
%TF.ProjectId,eTerrena,65546572-7265-46e6-912e-6b696361645f,rev?*%
%TF.SameCoordinates,Original*%
%TF.FileFunction,Soldermask,Top*%
%TF.FilePolarity,Negative*%
%FSLAX46Y46*%
G04 Gerber Fmt 4.6, Leading zero omitted, Abs format (unit mm)*
G04 Created by KiCad (PCBNEW 8.0.4) date 2024-08-12 16:36:46*
%MOMM*%
%LPD*%
G01*
G04 APERTURE LIST*
G04 Aperture macros list*
%AMRoundRect*
0 Rectangle with rounded corners*
0 $1 Rounding radius*
0 $2 $3 $4 $5 $6 $7 $8 $9 X,Y pos of 4 corners*
0 Add a 4 corners polygon primitive as box body*
4,1,4,$2,$3,$4,$5,$6,$7,$8,$9,$2,$3,0*
0 Add four circle primitives for the rounded corners*
1,1,$1+$1,$2,$3*
1,1,$1+$1,$4,$5*
1,1,$1+$1,$6,$7*
1,1,$1+$1,$8,$9*
0 Add four rect primitives between the rounded corners*
20,1,$1+$1,$2,$3,$4,$5,0*
20,1,$1+$1,$4,$5,$6,$7,0*
20,1,$1+$1,$6,$7,$8,$9,0*
20,1,$1+$1,$8,$9,$2,$3,0*%
G04 Aperture macros list end*
%ADD10C,1.600000*%
%ADD11C,2.200000*%
%ADD12C,1.734000*%
%ADD13C,6.000000*%
%ADD14C,1.500000*%
%ADD15RoundRect,0.102000X-0.654000X-0.654000X0.654000X-0.654000X0.654000X0.654000X-0.654000X0.654000X0*%
%ADD16C,1.512000*%
%ADD17RoundRect,0.250000X0.620000X0.845000X-0.620000X0.845000X-0.620000X-0.845000X0.620000X-0.845000X0*%
%ADD18O,1.740000X2.190000*%
%ADD19C,1.727200*%
%ADD20R,1.727200X1.727200*%
%ADD21RoundRect,0.250000X-0.615000X0.265000X-0.615000X-0.265000X0.615000X-0.265000X0.615000X0.265000X0*%
%ADD22O,1.730000X1.030000*%
%ADD23R,1.700000X1.700000*%
%ADD24C,1.700000*%
%ADD25R,1.905000X2.000000*%
%ADD26O,1.905000X2.000000*%
G04 APERTURE END LIST*
D10*
%TO.C,cElectrolitico1*%
X180650000Y-108825000D03*
X178650000Y-108825000D03*
%TD*%
%TO.C,cCeramicoDisco2*%
X162000000Y-108500000D03*
X167000000Y-108500000D03*
%TD*%
D11*
%TO.C,microSDBreakoutboard+1*%
X120680000Y-77680000D03*
X120680000Y-98000000D03*
X141000000Y-77680000D03*
X141000000Y-98000000D03*
D12*
X148366000Y-78950000D03*
X148366000Y-81490000D03*
X148366000Y-84030000D03*
X148366000Y-86570000D03*
X148366000Y-89110000D03*
X148366000Y-91650000D03*
X148366000Y-94190000D03*
X148366000Y-96730000D03*
%TD*%
D13*
%TO.C,tornillo2*%
X206450000Y-73500000D03*
%TD*%
D14*
%TO.C,Switch1*%
X167000000Y-81000000D03*
X175200000Y-81000000D03*
D15*
X169100000Y-81000000D03*
D16*
X171100000Y-81000000D03*
X173100000Y-81000000D03*
%TD*%
D10*
%TO.C,cCeramicoDisco1*%
X162000000Y-101000000D03*
X167000000Y-101000000D03*
%TD*%
D17*
%TO.C,SocketEntrada1*%
X197600000Y-90000000D03*
D18*
X195060000Y-90000000D03*
%TD*%
D13*
%TO.C,tornillo1*%
X85875000Y-74250000D03*
%TD*%
D19*
%TO.C,ArduinoMini5*%
X110700000Y-115620000D03*
X105620000Y-108000000D03*
X105620000Y-135940000D03*
X110700000Y-125780000D03*
X110700000Y-123240000D03*
X110700000Y-120700000D03*
X110700000Y-118160000D03*
X98000000Y-135940000D03*
X100540000Y-135940000D03*
X98000000Y-133400000D03*
X100540000Y-133400000D03*
X95460000Y-110540000D03*
X95460000Y-108000000D03*
X95460000Y-118160000D03*
X95460000Y-120700000D03*
X95460000Y-123240000D03*
X95460000Y-125780000D03*
X95460000Y-128320000D03*
X95460000Y-130860000D03*
X95460000Y-133400000D03*
X95460000Y-135940000D03*
X110700000Y-135940000D03*
X110700000Y-133400000D03*
X110700000Y-130860000D03*
X110700000Y-128320000D03*
D20*
X110700000Y-110540000D03*
X108160000Y-108000000D03*
X108160000Y-135940000D03*
D19*
X95460000Y-113080000D03*
X95460000Y-115620000D03*
X98000000Y-108000000D03*
X110700000Y-113080000D03*
X103080000Y-108000000D03*
X100540000Y-108000000D03*
X110700000Y-108000000D03*
%TD*%
D21*
%TO.C,conectorFT232RL1*%
X88925000Y-105975000D03*
D22*
X88925000Y-107475000D03*
X88925000Y-108975000D03*
X88925000Y-110475000D03*
%TD*%
D13*
%TO.C,tornillo3*%
X85875000Y-140500000D03*
%TD*%
D23*
%TO.C,Radio1*%
X124880000Y-136040000D03*
D24*
X124880000Y-133500000D03*
X127420000Y-136040000D03*
X127420000Y-133500000D03*
X129960000Y-136040000D03*
X129960000Y-133500000D03*
X132500000Y-136040000D03*
X132500000Y-133500000D03*
%TD*%
D25*
%TO.C,regulador3V1*%
X173540000Y-122000000D03*
D26*
X171000000Y-122000000D03*
X168460000Y-122000000D03*
%TD*%
D25*
%TO.C,regulador5v1*%
X168520000Y-91000000D03*
D26*
X171060000Y-91000000D03*
X173600000Y-91000000D03*
%TD*%
D13*
%TO.C,tornillo4*%
X206450000Y-140125000D03*
%TD*%
D10*
%TO.C,CElectrolitico2*%
X180650000Y-100325000D03*
X178650000Y-100325000D03*
%TD*%
M02*
