%TF.GenerationSoftware,KiCad,Pcbnew,8.0.4*%
%TF.CreationDate,2024-08-09T17:24:03-06:00*%
%TF.ProjectId,computadorayCargaUtil,636f6d70-7574-4616-946f-726179436172,rev?*%
%TF.SameCoordinates,Original*%
%TF.FileFunction,Legend,Bot*%
%TF.FilePolarity,Positive*%
%FSLAX46Y46*%
G04 Gerber Fmt 4.6, Leading zero omitted, Abs format (unit mm)*
G04 Created by KiCad (PCBNEW 8.0.4) date 2024-08-09 17:24:03*
%MOMM*%
%LPD*%
G01*
G04 APERTURE LIST*
%ADD10C,0.250000*%
%ADD11C,0.500000*%
%ADD12C,0.150000*%
G04 APERTURE END LIST*
D10*
X130601190Y-78005352D02*
X130601190Y-79005352D01*
X130601190Y-78529162D02*
X131172618Y-78529162D01*
X131172618Y-78005352D02*
X131172618Y-79005352D01*
X131648809Y-78529162D02*
X131982142Y-78529162D01*
X132124999Y-78005352D02*
X131648809Y-78005352D01*
X131648809Y-78005352D02*
X131648809Y-79005352D01*
X131648809Y-79005352D02*
X132124999Y-79005352D01*
X133124999Y-78100591D02*
X133077380Y-78052972D01*
X133077380Y-78052972D02*
X132934523Y-78005352D01*
X132934523Y-78005352D02*
X132839285Y-78005352D01*
X132839285Y-78005352D02*
X132696428Y-78052972D01*
X132696428Y-78052972D02*
X132601190Y-78148210D01*
X132601190Y-78148210D02*
X132553571Y-78243448D01*
X132553571Y-78243448D02*
X132505952Y-78433924D01*
X132505952Y-78433924D02*
X132505952Y-78576781D01*
X132505952Y-78576781D02*
X132553571Y-78767257D01*
X132553571Y-78767257D02*
X132601190Y-78862495D01*
X132601190Y-78862495D02*
X132696428Y-78957733D01*
X132696428Y-78957733D02*
X132839285Y-79005352D01*
X132839285Y-79005352D02*
X132934523Y-79005352D01*
X132934523Y-79005352D02*
X133077380Y-78957733D01*
X133077380Y-78957733D02*
X133124999Y-78910114D01*
X133553571Y-78005352D02*
X133553571Y-79005352D01*
X133553571Y-78529162D02*
X134124999Y-78529162D01*
X134124999Y-78005352D02*
X134124999Y-79005352D01*
X134791666Y-79005352D02*
X134982142Y-79005352D01*
X134982142Y-79005352D02*
X135077380Y-78957733D01*
X135077380Y-78957733D02*
X135172618Y-78862495D01*
X135172618Y-78862495D02*
X135220237Y-78672019D01*
X135220237Y-78672019D02*
X135220237Y-78338686D01*
X135220237Y-78338686D02*
X135172618Y-78148210D01*
X135172618Y-78148210D02*
X135077380Y-78052972D01*
X135077380Y-78052972D02*
X134982142Y-78005352D01*
X134982142Y-78005352D02*
X134791666Y-78005352D01*
X134791666Y-78005352D02*
X134696428Y-78052972D01*
X134696428Y-78052972D02*
X134601190Y-78148210D01*
X134601190Y-78148210D02*
X134553571Y-78338686D01*
X134553571Y-78338686D02*
X134553571Y-78672019D01*
X134553571Y-78672019D02*
X134601190Y-78862495D01*
X134601190Y-78862495D02*
X134696428Y-78957733D01*
X134696428Y-78957733D02*
X134791666Y-79005352D01*
X136410714Y-78529162D02*
X136744047Y-78529162D01*
X136886904Y-78005352D02*
X136410714Y-78005352D01*
X136410714Y-78005352D02*
X136410714Y-79005352D01*
X136410714Y-79005352D02*
X136886904Y-79005352D01*
X137315476Y-78005352D02*
X137315476Y-79005352D01*
X137315476Y-79005352D02*
X137886904Y-78005352D01*
X137886904Y-78005352D02*
X137886904Y-79005352D01*
X132101191Y-76395408D02*
X132101191Y-77395408D01*
X132101191Y-77395408D02*
X132434524Y-76681123D01*
X132434524Y-76681123D02*
X132767857Y-77395408D01*
X132767857Y-77395408D02*
X132767857Y-76395408D01*
X133244048Y-76919218D02*
X133577381Y-76919218D01*
X133720238Y-76395408D02*
X133244048Y-76395408D01*
X133244048Y-76395408D02*
X133244048Y-77395408D01*
X133244048Y-77395408D02*
X133720238Y-77395408D01*
X133577381Y-77776361D02*
X133434524Y-77633504D01*
X134053572Y-77395408D02*
X134720238Y-76395408D01*
X134720238Y-77395408D02*
X134053572Y-76395408D01*
X135101191Y-76395408D02*
X135101191Y-77395408D01*
X136148809Y-76490647D02*
X136101190Y-76443028D01*
X136101190Y-76443028D02*
X135958333Y-76395408D01*
X135958333Y-76395408D02*
X135863095Y-76395408D01*
X135863095Y-76395408D02*
X135720238Y-76443028D01*
X135720238Y-76443028D02*
X135625000Y-76538266D01*
X135625000Y-76538266D02*
X135577381Y-76633504D01*
X135577381Y-76633504D02*
X135529762Y-76823980D01*
X135529762Y-76823980D02*
X135529762Y-76966837D01*
X135529762Y-76966837D02*
X135577381Y-77157313D01*
X135577381Y-77157313D02*
X135625000Y-77252551D01*
X135625000Y-77252551D02*
X135720238Y-77347789D01*
X135720238Y-77347789D02*
X135863095Y-77395408D01*
X135863095Y-77395408D02*
X135958333Y-77395408D01*
X135958333Y-77395408D02*
X136101190Y-77347789D01*
X136101190Y-77347789D02*
X136148809Y-77300170D01*
X136767857Y-77395408D02*
X136958333Y-77395408D01*
X136958333Y-77395408D02*
X137053571Y-77347789D01*
X137053571Y-77347789D02*
X137148809Y-77252551D01*
X137148809Y-77252551D02*
X137196428Y-77062075D01*
X137196428Y-77062075D02*
X137196428Y-76728742D01*
X137196428Y-76728742D02*
X137148809Y-76538266D01*
X137148809Y-76538266D02*
X137053571Y-76443028D01*
X137053571Y-76443028D02*
X136958333Y-76395408D01*
X136958333Y-76395408D02*
X136767857Y-76395408D01*
X136767857Y-76395408D02*
X136672619Y-76443028D01*
X136672619Y-76443028D02*
X136577381Y-76538266D01*
X136577381Y-76538266D02*
X136529762Y-76728742D01*
X136529762Y-76728742D02*
X136529762Y-77062075D01*
X136529762Y-77062075D02*
X136577381Y-77252551D01*
X136577381Y-77252551D02*
X136672619Y-77347789D01*
X136672619Y-77347789D02*
X136767857Y-77395408D01*
X172252381Y-74455352D02*
X172919047Y-74455352D01*
X172919047Y-74455352D02*
X172252381Y-73455352D01*
X172252381Y-73455352D02*
X172919047Y-73455352D01*
X173252381Y-73741067D02*
X173728571Y-73741067D01*
X173157143Y-73455352D02*
X173490476Y-74455352D01*
X173490476Y-74455352D02*
X173823809Y-73455352D01*
X174728571Y-73550591D02*
X174680952Y-73502972D01*
X174680952Y-73502972D02*
X174538095Y-73455352D01*
X174538095Y-73455352D02*
X174442857Y-73455352D01*
X174442857Y-73455352D02*
X174300000Y-73502972D01*
X174300000Y-73502972D02*
X174204762Y-73598210D01*
X174204762Y-73598210D02*
X174157143Y-73693448D01*
X174157143Y-73693448D02*
X174109524Y-73883924D01*
X174109524Y-73883924D02*
X174109524Y-74026781D01*
X174109524Y-74026781D02*
X174157143Y-74217257D01*
X174157143Y-74217257D02*
X174204762Y-74312495D01*
X174204762Y-74312495D02*
X174300000Y-74407733D01*
X174300000Y-74407733D02*
X174442857Y-74455352D01*
X174442857Y-74455352D02*
X174538095Y-74455352D01*
X174538095Y-74455352D02*
X174680952Y-74407733D01*
X174680952Y-74407733D02*
X174728571Y-74360114D01*
X175109524Y-73741067D02*
X175585714Y-73741067D01*
X175014286Y-73455352D02*
X175347619Y-74455352D01*
X175347619Y-74455352D02*
X175680952Y-73455352D01*
X175871429Y-74455352D02*
X176442857Y-74455352D01*
X176157143Y-73455352D02*
X176157143Y-74455352D01*
X176776191Y-73979162D02*
X177109524Y-73979162D01*
X177252381Y-73455352D02*
X176776191Y-73455352D01*
X176776191Y-73455352D02*
X176776191Y-74455352D01*
X176776191Y-74455352D02*
X177252381Y-74455352D01*
X178252381Y-73550591D02*
X178204762Y-73502972D01*
X178204762Y-73502972D02*
X178061905Y-73455352D01*
X178061905Y-73455352D02*
X177966667Y-73455352D01*
X177966667Y-73455352D02*
X177823810Y-73502972D01*
X177823810Y-73502972D02*
X177728572Y-73598210D01*
X177728572Y-73598210D02*
X177680953Y-73693448D01*
X177680953Y-73693448D02*
X177633334Y-73883924D01*
X177633334Y-73883924D02*
X177633334Y-74026781D01*
X177633334Y-74026781D02*
X177680953Y-74217257D01*
X177680953Y-74217257D02*
X177728572Y-74312495D01*
X177728572Y-74312495D02*
X177823810Y-74407733D01*
X177823810Y-74407733D02*
X177966667Y-74455352D01*
X177966667Y-74455352D02*
X178061905Y-74455352D01*
X178061905Y-74455352D02*
X178204762Y-74407733D01*
X178204762Y-74407733D02*
X178252381Y-74360114D01*
X178633334Y-73741067D02*
X179109524Y-73741067D01*
X178538096Y-73455352D02*
X178871429Y-74455352D01*
X178871429Y-74455352D02*
X179204762Y-73455352D01*
X179490477Y-73502972D02*
X179633334Y-73455352D01*
X179633334Y-73455352D02*
X179871429Y-73455352D01*
X179871429Y-73455352D02*
X179966667Y-73502972D01*
X179966667Y-73502972D02*
X180014286Y-73550591D01*
X180014286Y-73550591D02*
X180061905Y-73645829D01*
X180061905Y-73645829D02*
X180061905Y-73741067D01*
X180061905Y-73741067D02*
X180014286Y-73836305D01*
X180014286Y-73836305D02*
X179966667Y-73883924D01*
X179966667Y-73883924D02*
X179871429Y-73931543D01*
X179871429Y-73931543D02*
X179680953Y-73979162D01*
X179680953Y-73979162D02*
X179585715Y-74026781D01*
X179585715Y-74026781D02*
X179538096Y-74074400D01*
X179538096Y-74074400D02*
X179490477Y-74169638D01*
X179490477Y-74169638D02*
X179490477Y-74264876D01*
X179490477Y-74264876D02*
X179538096Y-74360114D01*
X179538096Y-74360114D02*
X179585715Y-74407733D01*
X179585715Y-74407733D02*
X179680953Y-74455352D01*
X179680953Y-74455352D02*
X179919048Y-74455352D01*
X179919048Y-74455352D02*
X180061905Y-74407733D01*
X180538096Y-73502972D02*
X180538096Y-73455352D01*
X180538096Y-73455352D02*
X180490477Y-73360114D01*
X180490477Y-73360114D02*
X180442858Y-73312495D01*
X175300000Y-72845408D02*
X175966666Y-72845408D01*
X175966666Y-72845408D02*
X175300000Y-71845408D01*
X175300000Y-71845408D02*
X175966666Y-71845408D01*
X176300000Y-72131123D02*
X176776190Y-72131123D01*
X176204762Y-71845408D02*
X176538095Y-72845408D01*
X176538095Y-72845408D02*
X176871428Y-71845408D01*
X177776190Y-71940647D02*
X177728571Y-71893028D01*
X177728571Y-71893028D02*
X177585714Y-71845408D01*
X177585714Y-71845408D02*
X177490476Y-71845408D01*
X177490476Y-71845408D02*
X177347619Y-71893028D01*
X177347619Y-71893028D02*
X177252381Y-71988266D01*
X177252381Y-71988266D02*
X177204762Y-72083504D01*
X177204762Y-72083504D02*
X177157143Y-72273980D01*
X177157143Y-72273980D02*
X177157143Y-72416837D01*
X177157143Y-72416837D02*
X177204762Y-72607313D01*
X177204762Y-72607313D02*
X177252381Y-72702551D01*
X177252381Y-72702551D02*
X177347619Y-72797789D01*
X177347619Y-72797789D02*
X177490476Y-72845408D01*
X177490476Y-72845408D02*
X177585714Y-72845408D01*
X177585714Y-72845408D02*
X177728571Y-72797789D01*
X177728571Y-72797789D02*
X177776190Y-72750170D01*
X178204762Y-71940647D02*
X178252381Y-71893028D01*
X178252381Y-71893028D02*
X178204762Y-71845408D01*
X178204762Y-71845408D02*
X178157143Y-71893028D01*
X178157143Y-71893028D02*
X178204762Y-71940647D01*
X178204762Y-71940647D02*
X178204762Y-71845408D01*
X182598996Y-85755619D02*
X182551377Y-85708000D01*
X182551377Y-85708000D02*
X182408520Y-85660380D01*
X182408520Y-85660380D02*
X182313282Y-85660380D01*
X182313282Y-85660380D02*
X182170425Y-85708000D01*
X182170425Y-85708000D02*
X182075187Y-85803238D01*
X182075187Y-85803238D02*
X182027568Y-85898476D01*
X182027568Y-85898476D02*
X181979949Y-86088952D01*
X181979949Y-86088952D02*
X181979949Y-86231809D01*
X181979949Y-86231809D02*
X182027568Y-86422285D01*
X182027568Y-86422285D02*
X182075187Y-86517523D01*
X182075187Y-86517523D02*
X182170425Y-86612761D01*
X182170425Y-86612761D02*
X182313282Y-86660380D01*
X182313282Y-86660380D02*
X182408520Y-86660380D01*
X182408520Y-86660380D02*
X182551377Y-86612761D01*
X182551377Y-86612761D02*
X182598996Y-86565142D01*
X183218044Y-86660380D02*
X183408520Y-86660380D01*
X183408520Y-86660380D02*
X183503758Y-86612761D01*
X183503758Y-86612761D02*
X183598996Y-86517523D01*
X183598996Y-86517523D02*
X183646615Y-86327047D01*
X183646615Y-86327047D02*
X183646615Y-85993714D01*
X183646615Y-85993714D02*
X183598996Y-85803238D01*
X183598996Y-85803238D02*
X183503758Y-85708000D01*
X183503758Y-85708000D02*
X183408520Y-85660380D01*
X183408520Y-85660380D02*
X183218044Y-85660380D01*
X183218044Y-85660380D02*
X183122806Y-85708000D01*
X183122806Y-85708000D02*
X183027568Y-85803238D01*
X183027568Y-85803238D02*
X182979949Y-85993714D01*
X182979949Y-85993714D02*
X182979949Y-86327047D01*
X182979949Y-86327047D02*
X183027568Y-86517523D01*
X183027568Y-86517523D02*
X183122806Y-86612761D01*
X183122806Y-86612761D02*
X183218044Y-86660380D01*
X183979949Y-86660380D02*
X184646615Y-86660380D01*
X184646615Y-86660380D02*
X183979949Y-85660380D01*
X183979949Y-85660380D02*
X184646615Y-85660380D01*
X185598996Y-85755619D02*
X185551377Y-85708000D01*
X185551377Y-85708000D02*
X185408520Y-85660380D01*
X185408520Y-85660380D02*
X185313282Y-85660380D01*
X185313282Y-85660380D02*
X185170425Y-85708000D01*
X185170425Y-85708000D02*
X185075187Y-85803238D01*
X185075187Y-85803238D02*
X185027568Y-85898476D01*
X185027568Y-85898476D02*
X184979949Y-86088952D01*
X184979949Y-86088952D02*
X184979949Y-86231809D01*
X184979949Y-86231809D02*
X185027568Y-86422285D01*
X185027568Y-86422285D02*
X185075187Y-86517523D01*
X185075187Y-86517523D02*
X185170425Y-86612761D01*
X185170425Y-86612761D02*
X185313282Y-86660380D01*
X185313282Y-86660380D02*
X185408520Y-86660380D01*
X185408520Y-86660380D02*
X185551377Y-86612761D01*
X185551377Y-86612761D02*
X185598996Y-86565142D01*
X186218044Y-86136571D02*
X186218044Y-85660380D01*
X185884711Y-86660380D02*
X186218044Y-86136571D01*
X186218044Y-86136571D02*
X186551377Y-86660380D01*
X186741854Y-86660380D02*
X187313282Y-86660380D01*
X187027568Y-85660380D02*
X187027568Y-86660380D01*
D11*
X144142856Y-117976182D02*
X144047618Y-117880944D01*
X144047618Y-117880944D02*
X143761904Y-117785705D01*
X143761904Y-117785705D02*
X143571428Y-117785705D01*
X143571428Y-117785705D02*
X143285713Y-117880944D01*
X143285713Y-117880944D02*
X143095237Y-118071420D01*
X143095237Y-118071420D02*
X142999999Y-118261896D01*
X142999999Y-118261896D02*
X142904761Y-118642848D01*
X142904761Y-118642848D02*
X142904761Y-118928563D01*
X142904761Y-118928563D02*
X142999999Y-119309515D01*
X142999999Y-119309515D02*
X143095237Y-119499991D01*
X143095237Y-119499991D02*
X143285713Y-119690467D01*
X143285713Y-119690467D02*
X143571428Y-119785705D01*
X143571428Y-119785705D02*
X143761904Y-119785705D01*
X143761904Y-119785705D02*
X144047618Y-119690467D01*
X144047618Y-119690467D02*
X144142856Y-119595229D01*
X144904761Y-118357134D02*
X145857142Y-118357134D01*
X144714285Y-117785705D02*
X145380951Y-119785705D01*
X145380951Y-119785705D02*
X146047618Y-117785705D01*
X146714285Y-117785705D02*
X146714285Y-119785705D01*
X146714285Y-119785705D02*
X147857142Y-117785705D01*
X147857142Y-117785705D02*
X147857142Y-119785705D01*
X148714285Y-117880944D02*
X148999999Y-117785705D01*
X148999999Y-117785705D02*
X149476190Y-117785705D01*
X149476190Y-117785705D02*
X149666666Y-117880944D01*
X149666666Y-117880944D02*
X149761904Y-117976182D01*
X149761904Y-117976182D02*
X149857142Y-118166658D01*
X149857142Y-118166658D02*
X149857142Y-118357134D01*
X149857142Y-118357134D02*
X149761904Y-118547610D01*
X149761904Y-118547610D02*
X149666666Y-118642848D01*
X149666666Y-118642848D02*
X149476190Y-118738086D01*
X149476190Y-118738086D02*
X149095237Y-118833324D01*
X149095237Y-118833324D02*
X148904761Y-118928563D01*
X148904761Y-118928563D02*
X148809523Y-119023801D01*
X148809523Y-119023801D02*
X148714285Y-119214277D01*
X148714285Y-119214277D02*
X148714285Y-119404753D01*
X148714285Y-119404753D02*
X148809523Y-119595229D01*
X148809523Y-119595229D02*
X148904761Y-119690467D01*
X148904761Y-119690467D02*
X149095237Y-119785705D01*
X149095237Y-119785705D02*
X149571428Y-119785705D01*
X149571428Y-119785705D02*
X149857142Y-119690467D01*
X150619047Y-118357134D02*
X151571428Y-118357134D01*
X150428571Y-117785705D02*
X151095237Y-119785705D01*
X151095237Y-119785705D02*
X151761904Y-117785705D01*
X152142857Y-119785705D02*
X153285714Y-119785705D01*
X152714285Y-117785705D02*
X152714285Y-119785705D01*
X141857142Y-114756294D02*
X141761904Y-114661056D01*
X141761904Y-114661056D02*
X141476190Y-114565817D01*
X141476190Y-114565817D02*
X141285714Y-114565817D01*
X141285714Y-114565817D02*
X140999999Y-114661056D01*
X140999999Y-114661056D02*
X140809523Y-114851532D01*
X140809523Y-114851532D02*
X140714285Y-115042008D01*
X140714285Y-115042008D02*
X140619047Y-115422960D01*
X140619047Y-115422960D02*
X140619047Y-115708675D01*
X140619047Y-115708675D02*
X140714285Y-116089627D01*
X140714285Y-116089627D02*
X140809523Y-116280103D01*
X140809523Y-116280103D02*
X140999999Y-116470579D01*
X140999999Y-116470579D02*
X141285714Y-116565817D01*
X141285714Y-116565817D02*
X141476190Y-116565817D01*
X141476190Y-116565817D02*
X141761904Y-116470579D01*
X141761904Y-116470579D02*
X141857142Y-116375341D01*
X142714285Y-114565817D02*
X142714285Y-116565817D01*
X143666666Y-114565817D02*
X143666666Y-116565817D01*
X143666666Y-116565817D02*
X144142856Y-116565817D01*
X144142856Y-116565817D02*
X144428571Y-116470579D01*
X144428571Y-116470579D02*
X144619047Y-116280103D01*
X144619047Y-116280103D02*
X144714285Y-116089627D01*
X144714285Y-116089627D02*
X144809523Y-115708675D01*
X144809523Y-115708675D02*
X144809523Y-115422960D01*
X144809523Y-115422960D02*
X144714285Y-115042008D01*
X144714285Y-115042008D02*
X144619047Y-114851532D01*
X144619047Y-114851532D02*
X144428571Y-114661056D01*
X144428571Y-114661056D02*
X144142856Y-114565817D01*
X144142856Y-114565817D02*
X143666666Y-114565817D01*
X145380952Y-116565817D02*
X146523809Y-116565817D01*
X145952380Y-114565817D02*
X145952380Y-116565817D01*
X147190476Y-115613436D02*
X147857143Y-115613436D01*
X148142857Y-114565817D02*
X147190476Y-114565817D01*
X147190476Y-114565817D02*
X147190476Y-116565817D01*
X147190476Y-116565817D02*
X148142857Y-116565817D01*
X150523810Y-116565817D02*
X150523810Y-114946770D01*
X150523810Y-114946770D02*
X150619048Y-114756294D01*
X150619048Y-114756294D02*
X150714286Y-114661056D01*
X150714286Y-114661056D02*
X150904762Y-114565817D01*
X150904762Y-114565817D02*
X151285715Y-114565817D01*
X151285715Y-114565817D02*
X151476191Y-114661056D01*
X151476191Y-114661056D02*
X151571429Y-114756294D01*
X151571429Y-114756294D02*
X151666667Y-114946770D01*
X151666667Y-114946770D02*
X151666667Y-116565817D01*
X152523810Y-115137246D02*
X153476191Y-115137246D01*
X152333334Y-114565817D02*
X153000000Y-116565817D01*
X153000000Y-116565817D02*
X153666667Y-114565817D01*
X154142858Y-116565817D02*
X155476191Y-116565817D01*
X155476191Y-116565817D02*
X154142858Y-114565817D01*
X154142858Y-114565817D02*
X155476191Y-114565817D01*
D12*
X146788094Y-112849819D02*
X146788094Y-111849819D01*
X146788094Y-111849819D02*
X146549999Y-111849819D01*
X146549999Y-111849819D02*
X146407142Y-111897438D01*
X146407142Y-111897438D02*
X146311904Y-111992676D01*
X146311904Y-111992676D02*
X146264285Y-112087914D01*
X146264285Y-112087914D02*
X146216666Y-112278390D01*
X146216666Y-112278390D02*
X146216666Y-112421247D01*
X146216666Y-112421247D02*
X146264285Y-112611723D01*
X146264285Y-112611723D02*
X146311904Y-112706961D01*
X146311904Y-112706961D02*
X146407142Y-112802200D01*
X146407142Y-112802200D02*
X146549999Y-112849819D01*
X146549999Y-112849819D02*
X146788094Y-112849819D01*
X145597618Y-111849819D02*
X145502380Y-111849819D01*
X145502380Y-111849819D02*
X145407142Y-111897438D01*
X145407142Y-111897438D02*
X145359523Y-111945057D01*
X145359523Y-111945057D02*
X145311904Y-112040295D01*
X145311904Y-112040295D02*
X145264285Y-112230771D01*
X145264285Y-112230771D02*
X145264285Y-112468866D01*
X145264285Y-112468866D02*
X145311904Y-112659342D01*
X145311904Y-112659342D02*
X145359523Y-112754580D01*
X145359523Y-112754580D02*
X145407142Y-112802200D01*
X145407142Y-112802200D02*
X145502380Y-112849819D01*
X145502380Y-112849819D02*
X145597618Y-112849819D01*
X145597618Y-112849819D02*
X145692856Y-112802200D01*
X145692856Y-112802200D02*
X145740475Y-112754580D01*
X145740475Y-112754580D02*
X145788094Y-112659342D01*
X145788094Y-112659342D02*
X145835713Y-112468866D01*
X145835713Y-112468866D02*
X145835713Y-112230771D01*
X145835713Y-112230771D02*
X145788094Y-112040295D01*
X145788094Y-112040295D02*
X145740475Y-111945057D01*
X145740475Y-111945057D02*
X145692856Y-111897438D01*
X145692856Y-111897438D02*
X145597618Y-111849819D01*
M02*
