%TF.GenerationSoftware,KiCad,Pcbnew,8.0.4*%
%TF.CreationDate,2024-08-09T17:24:14-06:00*%
%TF.ProjectId,computadorayCargaUtil,636f6d70-7574-4616-946f-726179436172,rev?*%
%TF.SameCoordinates,Original*%
%TF.FileFunction,Drillmap*%
%TF.FilePolarity,Positive*%
%FSLAX45Y45*%
G04 Gerber Fmt 4.5, Leading zero omitted, Abs format (unit mm)*
G04 Created by KiCad (PCBNEW 8.0.4) date 2024-08-09 17:24:14*
%MOMM*%
%LPD*%
G01*
G04 APERTURE LIST*
%ADD10C,0.050000*%
%ADD11C,0.200000*%
%ADD12C,0.330200*%
G04 APERTURE END LIST*
D10*
X18951817Y-9415683D02*
G75*
G02*
X12543183Y-9415683I-3204317J0D01*
G01*
X12543183Y-9415683D02*
G75*
G02*
X18951817Y-9415683I3204317J0D01*
G01*
D11*
D12*
X15730900Y-7574400D02*
X16061100Y-7904600D01*
X16061100Y-7574400D02*
X15730900Y-7904600D01*
X17254900Y-7574400D02*
X17585100Y-7904600D01*
X17585100Y-7574400D02*
X17254900Y-7904600D01*
D11*
X12801459Y-12933984D02*
X12801459Y-12733984D01*
X12801459Y-12733984D02*
X12849078Y-12733984D01*
X12849078Y-12733984D02*
X12877650Y-12743508D01*
X12877650Y-12743508D02*
X12896697Y-12762555D01*
X12896697Y-12762555D02*
X12906221Y-12781603D01*
X12906221Y-12781603D02*
X12915745Y-12819698D01*
X12915745Y-12819698D02*
X12915745Y-12848269D01*
X12915745Y-12848269D02*
X12906221Y-12886365D01*
X12906221Y-12886365D02*
X12896697Y-12905412D01*
X12896697Y-12905412D02*
X12877650Y-12924460D01*
X12877650Y-12924460D02*
X12849078Y-12933984D01*
X12849078Y-12933984D02*
X12801459Y-12933984D01*
X13001459Y-12933984D02*
X13001459Y-12800650D01*
X13001459Y-12838746D02*
X13010983Y-12819698D01*
X13010983Y-12819698D02*
X13020507Y-12810174D01*
X13020507Y-12810174D02*
X13039555Y-12800650D01*
X13039555Y-12800650D02*
X13058602Y-12800650D01*
X13125269Y-12933984D02*
X13125269Y-12800650D01*
X13125269Y-12733984D02*
X13115745Y-12743508D01*
X13115745Y-12743508D02*
X13125269Y-12753031D01*
X13125269Y-12753031D02*
X13134793Y-12743508D01*
X13134793Y-12743508D02*
X13125269Y-12733984D01*
X13125269Y-12733984D02*
X13125269Y-12753031D01*
X13249078Y-12933984D02*
X13230031Y-12924460D01*
X13230031Y-12924460D02*
X13220507Y-12905412D01*
X13220507Y-12905412D02*
X13220507Y-12733984D01*
X13353840Y-12933984D02*
X13334793Y-12924460D01*
X13334793Y-12924460D02*
X13325269Y-12905412D01*
X13325269Y-12905412D02*
X13325269Y-12733984D01*
X13582412Y-12933984D02*
X13582412Y-12733984D01*
X13582412Y-12733984D02*
X13649078Y-12876841D01*
X13649078Y-12876841D02*
X13715745Y-12733984D01*
X13715745Y-12733984D02*
X13715745Y-12933984D01*
X13896697Y-12933984D02*
X13896697Y-12829222D01*
X13896697Y-12829222D02*
X13887174Y-12810174D01*
X13887174Y-12810174D02*
X13868126Y-12800650D01*
X13868126Y-12800650D02*
X13830031Y-12800650D01*
X13830031Y-12800650D02*
X13810983Y-12810174D01*
X13896697Y-12924460D02*
X13877650Y-12933984D01*
X13877650Y-12933984D02*
X13830031Y-12933984D01*
X13830031Y-12933984D02*
X13810983Y-12924460D01*
X13810983Y-12924460D02*
X13801459Y-12905412D01*
X13801459Y-12905412D02*
X13801459Y-12886365D01*
X13801459Y-12886365D02*
X13810983Y-12867317D01*
X13810983Y-12867317D02*
X13830031Y-12857793D01*
X13830031Y-12857793D02*
X13877650Y-12857793D01*
X13877650Y-12857793D02*
X13896697Y-12848269D01*
X13991936Y-12800650D02*
X13991936Y-13000650D01*
X13991936Y-12810174D02*
X14010983Y-12800650D01*
X14010983Y-12800650D02*
X14049078Y-12800650D01*
X14049078Y-12800650D02*
X14068126Y-12810174D01*
X14068126Y-12810174D02*
X14077650Y-12819698D01*
X14077650Y-12819698D02*
X14087174Y-12838746D01*
X14087174Y-12838746D02*
X14087174Y-12895888D01*
X14087174Y-12895888D02*
X14077650Y-12914936D01*
X14077650Y-12914936D02*
X14068126Y-12924460D01*
X14068126Y-12924460D02*
X14049078Y-12933984D01*
X14049078Y-12933984D02*
X14010983Y-12933984D01*
X14010983Y-12933984D02*
X13991936Y-12924460D01*
X14172888Y-12914936D02*
X14182412Y-12924460D01*
X14182412Y-12924460D02*
X14172888Y-12933984D01*
X14172888Y-12933984D02*
X14163364Y-12924460D01*
X14163364Y-12924460D02*
X14172888Y-12914936D01*
X14172888Y-12914936D02*
X14172888Y-12933984D01*
X14172888Y-12810174D02*
X14182412Y-12819698D01*
X14182412Y-12819698D02*
X14172888Y-12829222D01*
X14172888Y-12829222D02*
X14163364Y-12819698D01*
X14163364Y-12819698D02*
X14172888Y-12810174D01*
X14172888Y-12810174D02*
X14172888Y-12829222D01*
X12340683Y-13162500D02*
X12540683Y-13362500D01*
X12540683Y-13162500D02*
X12340683Y-13362500D01*
X12782412Y-13153984D02*
X12906221Y-13153984D01*
X12906221Y-13153984D02*
X12839555Y-13230174D01*
X12839555Y-13230174D02*
X12868126Y-13230174D01*
X12868126Y-13230174D02*
X12887174Y-13239698D01*
X12887174Y-13239698D02*
X12896697Y-13249222D01*
X12896697Y-13249222D02*
X12906221Y-13268269D01*
X12906221Y-13268269D02*
X12906221Y-13315888D01*
X12906221Y-13315888D02*
X12896697Y-13334936D01*
X12896697Y-13334936D02*
X12887174Y-13344460D01*
X12887174Y-13344460D02*
X12868126Y-13353984D01*
X12868126Y-13353984D02*
X12810983Y-13353984D01*
X12810983Y-13353984D02*
X12791936Y-13344460D01*
X12791936Y-13344460D02*
X12782412Y-13334936D01*
X12991936Y-13334936D02*
X13001459Y-13344460D01*
X13001459Y-13344460D02*
X12991936Y-13353984D01*
X12991936Y-13353984D02*
X12982412Y-13344460D01*
X12982412Y-13344460D02*
X12991936Y-13334936D01*
X12991936Y-13334936D02*
X12991936Y-13353984D01*
X13068126Y-13153984D02*
X13191936Y-13153984D01*
X13191936Y-13153984D02*
X13125269Y-13230174D01*
X13125269Y-13230174D02*
X13153840Y-13230174D01*
X13153840Y-13230174D02*
X13172888Y-13239698D01*
X13172888Y-13239698D02*
X13182412Y-13249222D01*
X13182412Y-13249222D02*
X13191936Y-13268269D01*
X13191936Y-13268269D02*
X13191936Y-13315888D01*
X13191936Y-13315888D02*
X13182412Y-13334936D01*
X13182412Y-13334936D02*
X13172888Y-13344460D01*
X13172888Y-13344460D02*
X13153840Y-13353984D01*
X13153840Y-13353984D02*
X13096697Y-13353984D01*
X13096697Y-13353984D02*
X13077650Y-13344460D01*
X13077650Y-13344460D02*
X13068126Y-13334936D01*
X13315745Y-13153984D02*
X13334793Y-13153984D01*
X13334793Y-13153984D02*
X13353840Y-13163508D01*
X13353840Y-13163508D02*
X13363364Y-13173031D01*
X13363364Y-13173031D02*
X13372888Y-13192079D01*
X13372888Y-13192079D02*
X13382412Y-13230174D01*
X13382412Y-13230174D02*
X13382412Y-13277793D01*
X13382412Y-13277793D02*
X13372888Y-13315888D01*
X13372888Y-13315888D02*
X13363364Y-13334936D01*
X13363364Y-13334936D02*
X13353840Y-13344460D01*
X13353840Y-13344460D02*
X13334793Y-13353984D01*
X13334793Y-13353984D02*
X13315745Y-13353984D01*
X13315745Y-13353984D02*
X13296697Y-13344460D01*
X13296697Y-13344460D02*
X13287174Y-13334936D01*
X13287174Y-13334936D02*
X13277650Y-13315888D01*
X13277650Y-13315888D02*
X13268126Y-13277793D01*
X13268126Y-13277793D02*
X13268126Y-13230174D01*
X13268126Y-13230174D02*
X13277650Y-13192079D01*
X13277650Y-13192079D02*
X13287174Y-13173031D01*
X13287174Y-13173031D02*
X13296697Y-13163508D01*
X13296697Y-13163508D02*
X13315745Y-13153984D01*
X13458602Y-13173031D02*
X13468126Y-13163508D01*
X13468126Y-13163508D02*
X13487174Y-13153984D01*
X13487174Y-13153984D02*
X13534793Y-13153984D01*
X13534793Y-13153984D02*
X13553840Y-13163508D01*
X13553840Y-13163508D02*
X13563364Y-13173031D01*
X13563364Y-13173031D02*
X13572888Y-13192079D01*
X13572888Y-13192079D02*
X13572888Y-13211127D01*
X13572888Y-13211127D02*
X13563364Y-13239698D01*
X13563364Y-13239698D02*
X13449078Y-13353984D01*
X13449078Y-13353984D02*
X13572888Y-13353984D01*
X13658602Y-13353984D02*
X13658602Y-13220650D01*
X13658602Y-13239698D02*
X13668126Y-13230174D01*
X13668126Y-13230174D02*
X13687174Y-13220650D01*
X13687174Y-13220650D02*
X13715745Y-13220650D01*
X13715745Y-13220650D02*
X13734793Y-13230174D01*
X13734793Y-13230174D02*
X13744317Y-13249222D01*
X13744317Y-13249222D02*
X13744317Y-13353984D01*
X13744317Y-13249222D02*
X13753840Y-13230174D01*
X13753840Y-13230174D02*
X13772888Y-13220650D01*
X13772888Y-13220650D02*
X13801459Y-13220650D01*
X13801459Y-13220650D02*
X13820507Y-13230174D01*
X13820507Y-13230174D02*
X13830031Y-13249222D01*
X13830031Y-13249222D02*
X13830031Y-13353984D01*
X13925269Y-13353984D02*
X13925269Y-13220650D01*
X13925269Y-13239698D02*
X13934793Y-13230174D01*
X13934793Y-13230174D02*
X13953840Y-13220650D01*
X13953840Y-13220650D02*
X13982412Y-13220650D01*
X13982412Y-13220650D02*
X14001459Y-13230174D01*
X14001459Y-13230174D02*
X14010983Y-13249222D01*
X14010983Y-13249222D02*
X14010983Y-13353984D01*
X14010983Y-13249222D02*
X14020507Y-13230174D01*
X14020507Y-13230174D02*
X14039555Y-13220650D01*
X14039555Y-13220650D02*
X14068126Y-13220650D01*
X14068126Y-13220650D02*
X14087174Y-13230174D01*
X14087174Y-13230174D02*
X14096698Y-13249222D01*
X14096698Y-13249222D02*
X14096698Y-13353984D01*
X14487174Y-13144460D02*
X14315745Y-13401603D01*
X14744317Y-13153984D02*
X14763364Y-13153984D01*
X14763364Y-13153984D02*
X14782412Y-13163508D01*
X14782412Y-13163508D02*
X14791936Y-13173031D01*
X14791936Y-13173031D02*
X14801460Y-13192079D01*
X14801460Y-13192079D02*
X14810983Y-13230174D01*
X14810983Y-13230174D02*
X14810983Y-13277793D01*
X14810983Y-13277793D02*
X14801460Y-13315888D01*
X14801460Y-13315888D02*
X14791936Y-13334936D01*
X14791936Y-13334936D02*
X14782412Y-13344460D01*
X14782412Y-13344460D02*
X14763364Y-13353984D01*
X14763364Y-13353984D02*
X14744317Y-13353984D01*
X14744317Y-13353984D02*
X14725269Y-13344460D01*
X14725269Y-13344460D02*
X14715745Y-13334936D01*
X14715745Y-13334936D02*
X14706221Y-13315888D01*
X14706221Y-13315888D02*
X14696698Y-13277793D01*
X14696698Y-13277793D02*
X14696698Y-13230174D01*
X14696698Y-13230174D02*
X14706221Y-13192079D01*
X14706221Y-13192079D02*
X14715745Y-13173031D01*
X14715745Y-13173031D02*
X14725269Y-13163508D01*
X14725269Y-13163508D02*
X14744317Y-13153984D01*
X14896698Y-13334936D02*
X14906221Y-13344460D01*
X14906221Y-13344460D02*
X14896698Y-13353984D01*
X14896698Y-13353984D02*
X14887174Y-13344460D01*
X14887174Y-13344460D02*
X14896698Y-13334936D01*
X14896698Y-13334936D02*
X14896698Y-13353984D01*
X15096698Y-13353984D02*
X14982412Y-13353984D01*
X15039555Y-13353984D02*
X15039555Y-13153984D01*
X15039555Y-13153984D02*
X15020507Y-13182555D01*
X15020507Y-13182555D02*
X15001460Y-13201603D01*
X15001460Y-13201603D02*
X14982412Y-13211127D01*
X15163364Y-13153984D02*
X15287174Y-13153984D01*
X15287174Y-13153984D02*
X15220507Y-13230174D01*
X15220507Y-13230174D02*
X15249079Y-13230174D01*
X15249079Y-13230174D02*
X15268126Y-13239698D01*
X15268126Y-13239698D02*
X15277650Y-13249222D01*
X15277650Y-13249222D02*
X15287174Y-13268269D01*
X15287174Y-13268269D02*
X15287174Y-13315888D01*
X15287174Y-13315888D02*
X15277650Y-13334936D01*
X15277650Y-13334936D02*
X15268126Y-13344460D01*
X15268126Y-13344460D02*
X15249079Y-13353984D01*
X15249079Y-13353984D02*
X15191936Y-13353984D01*
X15191936Y-13353984D02*
X15172888Y-13344460D01*
X15172888Y-13344460D02*
X15163364Y-13334936D01*
X15410983Y-13153984D02*
X15430031Y-13153984D01*
X15430031Y-13153984D02*
X15449079Y-13163508D01*
X15449079Y-13163508D02*
X15458602Y-13173031D01*
X15458602Y-13173031D02*
X15468126Y-13192079D01*
X15468126Y-13192079D02*
X15477650Y-13230174D01*
X15477650Y-13230174D02*
X15477650Y-13277793D01*
X15477650Y-13277793D02*
X15468126Y-13315888D01*
X15468126Y-13315888D02*
X15458602Y-13334936D01*
X15458602Y-13334936D02*
X15449079Y-13344460D01*
X15449079Y-13344460D02*
X15430031Y-13353984D01*
X15430031Y-13353984D02*
X15410983Y-13353984D01*
X15410983Y-13353984D02*
X15391936Y-13344460D01*
X15391936Y-13344460D02*
X15382412Y-13334936D01*
X15382412Y-13334936D02*
X15372888Y-13315888D01*
X15372888Y-13315888D02*
X15363364Y-13277793D01*
X15363364Y-13277793D02*
X15363364Y-13230174D01*
X15363364Y-13230174D02*
X15372888Y-13192079D01*
X15372888Y-13192079D02*
X15382412Y-13173031D01*
X15382412Y-13173031D02*
X15391936Y-13163508D01*
X15391936Y-13163508D02*
X15410983Y-13153984D01*
X15601460Y-13153984D02*
X15620507Y-13153984D01*
X15620507Y-13153984D02*
X15639555Y-13163508D01*
X15639555Y-13163508D02*
X15649079Y-13173031D01*
X15649079Y-13173031D02*
X15658602Y-13192079D01*
X15658602Y-13192079D02*
X15668126Y-13230174D01*
X15668126Y-13230174D02*
X15668126Y-13277793D01*
X15668126Y-13277793D02*
X15658602Y-13315888D01*
X15658602Y-13315888D02*
X15649079Y-13334936D01*
X15649079Y-13334936D02*
X15639555Y-13344460D01*
X15639555Y-13344460D02*
X15620507Y-13353984D01*
X15620507Y-13353984D02*
X15601460Y-13353984D01*
X15601460Y-13353984D02*
X15582412Y-13344460D01*
X15582412Y-13344460D02*
X15572888Y-13334936D01*
X15572888Y-13334936D02*
X15563364Y-13315888D01*
X15563364Y-13315888D02*
X15553841Y-13277793D01*
X15553841Y-13277793D02*
X15553841Y-13230174D01*
X15553841Y-13230174D02*
X15563364Y-13192079D01*
X15563364Y-13192079D02*
X15572888Y-13173031D01*
X15572888Y-13173031D02*
X15582412Y-13163508D01*
X15582412Y-13163508D02*
X15601460Y-13153984D01*
X15744317Y-13153984D02*
X15744317Y-13192079D01*
X15820507Y-13153984D02*
X15820507Y-13192079D01*
X16115745Y-13430174D02*
X16106222Y-13420650D01*
X16106222Y-13420650D02*
X16087174Y-13392079D01*
X16087174Y-13392079D02*
X16077650Y-13373031D01*
X16077650Y-13373031D02*
X16068126Y-13344460D01*
X16068126Y-13344460D02*
X16058603Y-13296841D01*
X16058603Y-13296841D02*
X16058603Y-13258746D01*
X16058603Y-13258746D02*
X16068126Y-13211127D01*
X16068126Y-13211127D02*
X16077650Y-13182555D01*
X16077650Y-13182555D02*
X16087174Y-13163508D01*
X16087174Y-13163508D02*
X16106222Y-13134936D01*
X16106222Y-13134936D02*
X16115745Y-13125412D01*
X16182412Y-13173031D02*
X16191936Y-13163508D01*
X16191936Y-13163508D02*
X16210983Y-13153984D01*
X16210983Y-13153984D02*
X16258603Y-13153984D01*
X16258603Y-13153984D02*
X16277650Y-13163508D01*
X16277650Y-13163508D02*
X16287174Y-13173031D01*
X16287174Y-13173031D02*
X16296698Y-13192079D01*
X16296698Y-13192079D02*
X16296698Y-13211127D01*
X16296698Y-13211127D02*
X16287174Y-13239698D01*
X16287174Y-13239698D02*
X16172888Y-13353984D01*
X16172888Y-13353984D02*
X16296698Y-13353984D01*
X16534793Y-13353984D02*
X16534793Y-13153984D01*
X16620507Y-13353984D02*
X16620507Y-13249222D01*
X16620507Y-13249222D02*
X16610984Y-13230174D01*
X16610984Y-13230174D02*
X16591936Y-13220650D01*
X16591936Y-13220650D02*
X16563364Y-13220650D01*
X16563364Y-13220650D02*
X16544317Y-13230174D01*
X16544317Y-13230174D02*
X16534793Y-13239698D01*
X16744317Y-13353984D02*
X16725269Y-13344460D01*
X16725269Y-13344460D02*
X16715745Y-13334936D01*
X16715745Y-13334936D02*
X16706222Y-13315888D01*
X16706222Y-13315888D02*
X16706222Y-13258746D01*
X16706222Y-13258746D02*
X16715745Y-13239698D01*
X16715745Y-13239698D02*
X16725269Y-13230174D01*
X16725269Y-13230174D02*
X16744317Y-13220650D01*
X16744317Y-13220650D02*
X16772888Y-13220650D01*
X16772888Y-13220650D02*
X16791936Y-13230174D01*
X16791936Y-13230174D02*
X16801460Y-13239698D01*
X16801460Y-13239698D02*
X16810984Y-13258746D01*
X16810984Y-13258746D02*
X16810984Y-13315888D01*
X16810984Y-13315888D02*
X16801460Y-13334936D01*
X16801460Y-13334936D02*
X16791936Y-13344460D01*
X16791936Y-13344460D02*
X16772888Y-13353984D01*
X16772888Y-13353984D02*
X16744317Y-13353984D01*
X16925269Y-13353984D02*
X16906222Y-13344460D01*
X16906222Y-13344460D02*
X16896698Y-13325412D01*
X16896698Y-13325412D02*
X16896698Y-13153984D01*
X17077650Y-13344460D02*
X17058603Y-13353984D01*
X17058603Y-13353984D02*
X17020507Y-13353984D01*
X17020507Y-13353984D02*
X17001460Y-13344460D01*
X17001460Y-13344460D02*
X16991936Y-13325412D01*
X16991936Y-13325412D02*
X16991936Y-13249222D01*
X16991936Y-13249222D02*
X17001460Y-13230174D01*
X17001460Y-13230174D02*
X17020507Y-13220650D01*
X17020507Y-13220650D02*
X17058603Y-13220650D01*
X17058603Y-13220650D02*
X17077650Y-13230174D01*
X17077650Y-13230174D02*
X17087174Y-13249222D01*
X17087174Y-13249222D02*
X17087174Y-13268269D01*
X17087174Y-13268269D02*
X16991936Y-13287317D01*
X17163365Y-13344460D02*
X17182412Y-13353984D01*
X17182412Y-13353984D02*
X17220507Y-13353984D01*
X17220507Y-13353984D02*
X17239555Y-13344460D01*
X17239555Y-13344460D02*
X17249079Y-13325412D01*
X17249079Y-13325412D02*
X17249079Y-13315888D01*
X17249079Y-13315888D02*
X17239555Y-13296841D01*
X17239555Y-13296841D02*
X17220507Y-13287317D01*
X17220507Y-13287317D02*
X17191936Y-13287317D01*
X17191936Y-13287317D02*
X17172888Y-13277793D01*
X17172888Y-13277793D02*
X17163365Y-13258746D01*
X17163365Y-13258746D02*
X17163365Y-13249222D01*
X17163365Y-13249222D02*
X17172888Y-13230174D01*
X17172888Y-13230174D02*
X17191936Y-13220650D01*
X17191936Y-13220650D02*
X17220507Y-13220650D01*
X17220507Y-13220650D02*
X17239555Y-13230174D01*
X17315746Y-13430174D02*
X17325269Y-13420650D01*
X17325269Y-13420650D02*
X17344317Y-13392079D01*
X17344317Y-13392079D02*
X17353841Y-13373031D01*
X17353841Y-13373031D02*
X17363365Y-13344460D01*
X17363365Y-13344460D02*
X17372888Y-13296841D01*
X17372888Y-13296841D02*
X17372888Y-13258746D01*
X17372888Y-13258746D02*
X17363365Y-13211127D01*
X17363365Y-13211127D02*
X17353841Y-13182555D01*
X17353841Y-13182555D02*
X17344317Y-13163508D01*
X17344317Y-13163508D02*
X17325269Y-13134936D01*
X17325269Y-13134936D02*
X17315746Y-13125412D01*
X17677650Y-13430174D02*
X17668127Y-13420650D01*
X17668127Y-13420650D02*
X17649079Y-13392079D01*
X17649079Y-13392079D02*
X17639555Y-13373031D01*
X17639555Y-13373031D02*
X17630031Y-13344460D01*
X17630031Y-13344460D02*
X17620508Y-13296841D01*
X17620508Y-13296841D02*
X17620508Y-13258746D01*
X17620508Y-13258746D02*
X17630031Y-13211127D01*
X17630031Y-13211127D02*
X17639555Y-13182555D01*
X17639555Y-13182555D02*
X17649079Y-13163508D01*
X17649079Y-13163508D02*
X17668127Y-13134936D01*
X17668127Y-13134936D02*
X17677650Y-13125412D01*
X17753841Y-13220650D02*
X17753841Y-13353984D01*
X17753841Y-13239698D02*
X17763365Y-13230174D01*
X17763365Y-13230174D02*
X17782412Y-13220650D01*
X17782412Y-13220650D02*
X17810984Y-13220650D01*
X17810984Y-13220650D02*
X17830031Y-13230174D01*
X17830031Y-13230174D02*
X17839555Y-13249222D01*
X17839555Y-13249222D02*
X17839555Y-13353984D01*
X17963365Y-13353984D02*
X17944317Y-13344460D01*
X17944317Y-13344460D02*
X17934793Y-13334936D01*
X17934793Y-13334936D02*
X17925269Y-13315888D01*
X17925269Y-13315888D02*
X17925269Y-13258746D01*
X17925269Y-13258746D02*
X17934793Y-13239698D01*
X17934793Y-13239698D02*
X17944317Y-13230174D01*
X17944317Y-13230174D02*
X17963365Y-13220650D01*
X17963365Y-13220650D02*
X17991936Y-13220650D01*
X17991936Y-13220650D02*
X18010984Y-13230174D01*
X18010984Y-13230174D02*
X18020508Y-13239698D01*
X18020508Y-13239698D02*
X18030031Y-13258746D01*
X18030031Y-13258746D02*
X18030031Y-13315888D01*
X18030031Y-13315888D02*
X18020508Y-13334936D01*
X18020508Y-13334936D02*
X18010984Y-13344460D01*
X18010984Y-13344460D02*
X17991936Y-13353984D01*
X17991936Y-13353984D02*
X17963365Y-13353984D01*
X18087174Y-13220650D02*
X18163365Y-13220650D01*
X18115746Y-13153984D02*
X18115746Y-13325412D01*
X18115746Y-13325412D02*
X18125269Y-13344460D01*
X18125269Y-13344460D02*
X18144317Y-13353984D01*
X18144317Y-13353984D02*
X18163365Y-13353984D01*
X18382412Y-13220650D02*
X18382412Y-13420650D01*
X18382412Y-13230174D02*
X18401460Y-13220650D01*
X18401460Y-13220650D02*
X18439555Y-13220650D01*
X18439555Y-13220650D02*
X18458603Y-13230174D01*
X18458603Y-13230174D02*
X18468127Y-13239698D01*
X18468127Y-13239698D02*
X18477650Y-13258746D01*
X18477650Y-13258746D02*
X18477650Y-13315888D01*
X18477650Y-13315888D02*
X18468127Y-13334936D01*
X18468127Y-13334936D02*
X18458603Y-13344460D01*
X18458603Y-13344460D02*
X18439555Y-13353984D01*
X18439555Y-13353984D02*
X18401460Y-13353984D01*
X18401460Y-13353984D02*
X18382412Y-13344460D01*
X18591936Y-13353984D02*
X18572889Y-13344460D01*
X18572889Y-13344460D02*
X18563365Y-13325412D01*
X18563365Y-13325412D02*
X18563365Y-13153984D01*
X18753841Y-13353984D02*
X18753841Y-13249222D01*
X18753841Y-13249222D02*
X18744317Y-13230174D01*
X18744317Y-13230174D02*
X18725270Y-13220650D01*
X18725270Y-13220650D02*
X18687174Y-13220650D01*
X18687174Y-13220650D02*
X18668127Y-13230174D01*
X18753841Y-13344460D02*
X18734793Y-13353984D01*
X18734793Y-13353984D02*
X18687174Y-13353984D01*
X18687174Y-13353984D02*
X18668127Y-13344460D01*
X18668127Y-13344460D02*
X18658603Y-13325412D01*
X18658603Y-13325412D02*
X18658603Y-13306365D01*
X18658603Y-13306365D02*
X18668127Y-13287317D01*
X18668127Y-13287317D02*
X18687174Y-13277793D01*
X18687174Y-13277793D02*
X18734793Y-13277793D01*
X18734793Y-13277793D02*
X18753841Y-13268269D01*
X18820508Y-13220650D02*
X18896698Y-13220650D01*
X18849079Y-13153984D02*
X18849079Y-13325412D01*
X18849079Y-13325412D02*
X18858603Y-13344460D01*
X18858603Y-13344460D02*
X18877650Y-13353984D01*
X18877650Y-13353984D02*
X18896698Y-13353984D01*
X19039555Y-13344460D02*
X19020508Y-13353984D01*
X19020508Y-13353984D02*
X18982412Y-13353984D01*
X18982412Y-13353984D02*
X18963365Y-13344460D01*
X18963365Y-13344460D02*
X18953841Y-13325412D01*
X18953841Y-13325412D02*
X18953841Y-13249222D01*
X18953841Y-13249222D02*
X18963365Y-13230174D01*
X18963365Y-13230174D02*
X18982412Y-13220650D01*
X18982412Y-13220650D02*
X19020508Y-13220650D01*
X19020508Y-13220650D02*
X19039555Y-13230174D01*
X19039555Y-13230174D02*
X19049079Y-13249222D01*
X19049079Y-13249222D02*
X19049079Y-13268269D01*
X19049079Y-13268269D02*
X18953841Y-13287317D01*
X19220508Y-13353984D02*
X19220508Y-13153984D01*
X19220508Y-13344460D02*
X19201460Y-13353984D01*
X19201460Y-13353984D02*
X19163365Y-13353984D01*
X19163365Y-13353984D02*
X19144317Y-13344460D01*
X19144317Y-13344460D02*
X19134793Y-13334936D01*
X19134793Y-13334936D02*
X19125270Y-13315888D01*
X19125270Y-13315888D02*
X19125270Y-13258746D01*
X19125270Y-13258746D02*
X19134793Y-13239698D01*
X19134793Y-13239698D02*
X19144317Y-13230174D01*
X19144317Y-13230174D02*
X19163365Y-13220650D01*
X19163365Y-13220650D02*
X19201460Y-13220650D01*
X19201460Y-13220650D02*
X19220508Y-13230174D01*
X19296698Y-13430174D02*
X19306222Y-13420650D01*
X19306222Y-13420650D02*
X19325270Y-13392079D01*
X19325270Y-13392079D02*
X19334793Y-13373031D01*
X19334793Y-13373031D02*
X19344317Y-13344460D01*
X19344317Y-13344460D02*
X19353841Y-13296841D01*
X19353841Y-13296841D02*
X19353841Y-13258746D01*
X19353841Y-13258746D02*
X19344317Y-13211127D01*
X19344317Y-13211127D02*
X19334793Y-13182555D01*
X19334793Y-13182555D02*
X19325270Y-13163508D01*
X19325270Y-13163508D02*
X19306222Y-13134936D01*
X19306222Y-13134936D02*
X19296698Y-13125412D01*
M02*
