M48
; DRILL file {KiCad 8.0.4} date 2024-08-09T17:24:08-0600
; FORMAT={-:-/ absolute / inch / decimal}
; #@! TF.CreationDate,2024-08-09T17:24:08-06:00
; #@! TF.GenerationSoftware,Kicad,Pcbnew,8.0.4
; #@! TF.FileFunction,Plated,1,2,PTH
FMAT,2
INCH
; #@! TA.AperFunction,Plated,PTH,ViaDrill
T1C0.0118
; #@! TA.AperFunction,Plated,PTH,ComponentDrill
T2C0.0287
; #@! TA.AperFunction,Plated,PTH,ComponentDrill
T3C0.0315
; #@! TA.AperFunction,Plated,PTH,ComponentDrill
T4C0.0374
; #@! TA.AperFunction,Plated,PTH,ComponentDrill
T5C0.0400
; #@! TA.AperFunction,Plated,PTH,ComponentDrill
T6C0.0469
; #@! TA.AperFunction,Plated,PTH,ComponentDrill
T7C0.1181
%
G90
G05
T1
X6.0661Y-3.2372
X6.4203Y-3.2333
T2
X5.5305Y-3.2116
X5.5305Y-3.2707
X5.5305Y-3.3297
X5.5305Y-3.3888
X5.5305Y-3.4478
X5.5305Y-3.5069
T3
X6.1033Y-2.5094
X6.1033Y-2.8094
X6.3219Y-2.5071
X6.3219Y-2.8071
T4
X5.2667Y-3.8986
X5.2667Y-3.997
X5.2667Y-4.0955
T5
X5.65Y-3.9
X5.65Y-4.0
X5.65Y-4.1
X5.65Y-4.2
X5.65Y-4.3
X5.65Y-4.4
X5.65Y-4.5
X5.75Y-3.9
X5.75Y-4.5
X5.85Y-3.9
X5.85Y-4.5
X5.95Y-3.9
X5.95Y-4.5
X6.05Y-3.9
X6.05Y-4.5
X6.15Y-3.9
X6.15Y-4.5
X6.2083Y-3.497
X6.25Y-3.9
X6.25Y-4.5
X6.3083Y-3.497
X6.35Y-3.9
X6.35Y-4.5
X6.4083Y-3.497
X6.45Y-3.9
X6.45Y-4.5
X6.5083Y-3.497
X6.55Y-3.9
X6.55Y-4.5
X6.6083Y-3.497
X6.65Y-3.9
X6.65Y-4.3
X6.65Y-4.4
X6.65Y-4.5
X6.7083Y-3.497
X6.75Y-3.9
X6.75Y-4.0
X6.75Y-4.1
X6.75Y-4.3
X6.75Y-4.4
X6.75Y-4.5
X6.8083Y-3.497
X6.9083Y-3.497
T6
X7.1152Y-3.5154
X7.1152Y-3.6154
X7.1152Y-3.7154
X7.1152Y-3.8154
X7.1152Y-3.9154
X7.1152Y-4.0154
T7
X5.2008Y-3.3189
X6.2303Y-4.7963
X7.1309Y-3.1437
M30
