%TF.GenerationSoftware,KiCad,Pcbnew,8.0.4*%
%TF.CreationDate,2024-08-09T17:24:03-06:00*%
%TF.ProjectId,computadorayCargaUtil,636f6d70-7574-4616-946f-726179436172,rev?*%
%TF.SameCoordinates,Original*%
%TF.FileFunction,Legend,Top*%
%TF.FilePolarity,Positive*%
%FSLAX46Y46*%
G04 Gerber Fmt 4.6, Leading zero omitted, Abs format (unit mm)*
G04 Created by KiCad (PCBNEW 8.0.4) date 2024-08-09 17:24:03*
%MOMM*%
%LPD*%
G01*
G04 APERTURE LIST*
%ADD10C,0.150000*%
%ADD11C,0.120000*%
%ADD12C,0.127000*%
%ADD13C,0.200000*%
%ADD14C,0.000000*%
G04 APERTURE END LIST*
D10*
X141678819Y-117149047D02*
X141155009Y-117149047D01*
X141155009Y-117149047D02*
X141059771Y-117196666D01*
X141059771Y-117196666D02*
X141012152Y-117291904D01*
X141012152Y-117291904D02*
X141012152Y-117482380D01*
X141012152Y-117482380D02*
X141059771Y-117577618D01*
X141631200Y-117149047D02*
X141678819Y-117244285D01*
X141678819Y-117244285D02*
X141678819Y-117482380D01*
X141678819Y-117482380D02*
X141631200Y-117577618D01*
X141631200Y-117577618D02*
X141535961Y-117625237D01*
X141535961Y-117625237D02*
X141440723Y-117625237D01*
X141440723Y-117625237D02*
X141345485Y-117577618D01*
X141345485Y-117577618D02*
X141297866Y-117482380D01*
X141297866Y-117482380D02*
X141297866Y-117244285D01*
X141297866Y-117244285D02*
X141250247Y-117149047D01*
X141678819Y-116672856D02*
X141012152Y-116672856D01*
X141202628Y-116672856D02*
X141107390Y-116625237D01*
X141107390Y-116625237D02*
X141059771Y-116577618D01*
X141059771Y-116577618D02*
X141012152Y-116482380D01*
X141012152Y-116482380D02*
X141012152Y-116387142D01*
X141678819Y-115625237D02*
X140678819Y-115625237D01*
X141631200Y-115625237D02*
X141678819Y-115720475D01*
X141678819Y-115720475D02*
X141678819Y-115910951D01*
X141678819Y-115910951D02*
X141631200Y-116006189D01*
X141631200Y-116006189D02*
X141583580Y-116053808D01*
X141583580Y-116053808D02*
X141488342Y-116101427D01*
X141488342Y-116101427D02*
X141202628Y-116101427D01*
X141202628Y-116101427D02*
X141107390Y-116053808D01*
X141107390Y-116053808D02*
X141059771Y-116006189D01*
X141059771Y-116006189D02*
X141012152Y-115910951D01*
X141012152Y-115910951D02*
X141012152Y-115720475D01*
X141012152Y-115720475D02*
X141059771Y-115625237D01*
X141012152Y-114720475D02*
X141678819Y-114720475D01*
X141012152Y-115149046D02*
X141535961Y-115149046D01*
X141535961Y-115149046D02*
X141631200Y-115101427D01*
X141631200Y-115101427D02*
X141678819Y-115006189D01*
X141678819Y-115006189D02*
X141678819Y-114863332D01*
X141678819Y-114863332D02*
X141631200Y-114768094D01*
X141631200Y-114768094D02*
X141583580Y-114720475D01*
X141678819Y-114244284D02*
X141012152Y-114244284D01*
X140678819Y-114244284D02*
X140726438Y-114291903D01*
X140726438Y-114291903D02*
X140774057Y-114244284D01*
X140774057Y-114244284D02*
X140726438Y-114196665D01*
X140726438Y-114196665D02*
X140678819Y-114244284D01*
X140678819Y-114244284D02*
X140774057Y-114244284D01*
X141012152Y-113768094D02*
X141678819Y-113768094D01*
X141107390Y-113768094D02*
X141059771Y-113720475D01*
X141059771Y-113720475D02*
X141012152Y-113625237D01*
X141012152Y-113625237D02*
X141012152Y-113482380D01*
X141012152Y-113482380D02*
X141059771Y-113387142D01*
X141059771Y-113387142D02*
X141155009Y-113339523D01*
X141155009Y-113339523D02*
X141678819Y-113339523D01*
X141678819Y-112720475D02*
X141631200Y-112815713D01*
X141631200Y-112815713D02*
X141583580Y-112863332D01*
X141583580Y-112863332D02*
X141488342Y-112910951D01*
X141488342Y-112910951D02*
X141202628Y-112910951D01*
X141202628Y-112910951D02*
X141107390Y-112863332D01*
X141107390Y-112863332D02*
X141059771Y-112815713D01*
X141059771Y-112815713D02*
X141012152Y-112720475D01*
X141012152Y-112720475D02*
X141012152Y-112577618D01*
X141012152Y-112577618D02*
X141059771Y-112482380D01*
X141059771Y-112482380D02*
X141107390Y-112434761D01*
X141107390Y-112434761D02*
X141202628Y-112387142D01*
X141202628Y-112387142D02*
X141488342Y-112387142D01*
X141488342Y-112387142D02*
X141583580Y-112434761D01*
X141583580Y-112434761D02*
X141631200Y-112482380D01*
X141631200Y-112482380D02*
X141678819Y-112577618D01*
X141678819Y-112577618D02*
X141678819Y-112720475D01*
X141678819Y-111958570D02*
X140678819Y-111958570D01*
X140678819Y-111958570D02*
X141393104Y-111625237D01*
X141393104Y-111625237D02*
X140678819Y-111291904D01*
X140678819Y-111291904D02*
X141678819Y-111291904D01*
X141678819Y-110815713D02*
X141012152Y-110815713D01*
X140678819Y-110815713D02*
X140726438Y-110863332D01*
X140726438Y-110863332D02*
X140774057Y-110815713D01*
X140774057Y-110815713D02*
X140726438Y-110768094D01*
X140726438Y-110768094D02*
X140678819Y-110815713D01*
X140678819Y-110815713D02*
X140774057Y-110815713D01*
X141012152Y-110339523D02*
X141678819Y-110339523D01*
X141107390Y-110339523D02*
X141059771Y-110291904D01*
X141059771Y-110291904D02*
X141012152Y-110196666D01*
X141012152Y-110196666D02*
X141012152Y-110053809D01*
X141012152Y-110053809D02*
X141059771Y-109958571D01*
X141059771Y-109958571D02*
X141155009Y-109910952D01*
X141155009Y-109910952D02*
X141678819Y-109910952D01*
X141678819Y-109434761D02*
X141012152Y-109434761D01*
X140678819Y-109434761D02*
X140726438Y-109482380D01*
X140726438Y-109482380D02*
X140774057Y-109434761D01*
X140774057Y-109434761D02*
X140726438Y-109387142D01*
X140726438Y-109387142D02*
X140678819Y-109434761D01*
X140678819Y-109434761D02*
X140774057Y-109434761D01*
X140678819Y-108482381D02*
X140678819Y-108958571D01*
X140678819Y-108958571D02*
X141155009Y-109006190D01*
X141155009Y-109006190D02*
X141107390Y-108958571D01*
X141107390Y-108958571D02*
X141059771Y-108863333D01*
X141059771Y-108863333D02*
X141059771Y-108625238D01*
X141059771Y-108625238D02*
X141107390Y-108530000D01*
X141107390Y-108530000D02*
X141155009Y-108482381D01*
X141155009Y-108482381D02*
X141250247Y-108434762D01*
X141250247Y-108434762D02*
X141488342Y-108434762D01*
X141488342Y-108434762D02*
X141583580Y-108482381D01*
X141583580Y-108482381D02*
X141631200Y-108530000D01*
X141631200Y-108530000D02*
X141678819Y-108625238D01*
X141678819Y-108625238D02*
X141678819Y-108863333D01*
X141678819Y-108863333D02*
X141631200Y-108958571D01*
X141631200Y-108958571D02*
X141583580Y-109006190D01*
X145311905Y-112849819D02*
X145311905Y-111849819D01*
X145311905Y-111849819D02*
X145550000Y-111849819D01*
X145550000Y-111849819D02*
X145692857Y-111897438D01*
X145692857Y-111897438D02*
X145788095Y-111992676D01*
X145788095Y-111992676D02*
X145835714Y-112087914D01*
X145835714Y-112087914D02*
X145883333Y-112278390D01*
X145883333Y-112278390D02*
X145883333Y-112421247D01*
X145883333Y-112421247D02*
X145835714Y-112611723D01*
X145835714Y-112611723D02*
X145788095Y-112706961D01*
X145788095Y-112706961D02*
X145692857Y-112802200D01*
X145692857Y-112802200D02*
X145550000Y-112849819D01*
X145550000Y-112849819D02*
X145311905Y-112849819D01*
X146502381Y-111849819D02*
X146597619Y-111849819D01*
X146597619Y-111849819D02*
X146692857Y-111897438D01*
X146692857Y-111897438D02*
X146740476Y-111945057D01*
X146740476Y-111945057D02*
X146788095Y-112040295D01*
X146788095Y-112040295D02*
X146835714Y-112230771D01*
X146835714Y-112230771D02*
X146835714Y-112468866D01*
X146835714Y-112468866D02*
X146788095Y-112659342D01*
X146788095Y-112659342D02*
X146740476Y-112754580D01*
X146740476Y-112754580D02*
X146692857Y-112802200D01*
X146692857Y-112802200D02*
X146597619Y-112849819D01*
X146597619Y-112849819D02*
X146502381Y-112849819D01*
X146502381Y-112849819D02*
X146407143Y-112802200D01*
X146407143Y-112802200D02*
X146359524Y-112754580D01*
X146359524Y-112754580D02*
X146311905Y-112659342D01*
X146311905Y-112659342D02*
X146264286Y-112468866D01*
X146264286Y-112468866D02*
X146264286Y-112230771D01*
X146264286Y-112230771D02*
X146311905Y-112040295D01*
X146311905Y-112040295D02*
X146359524Y-111945057D01*
X146359524Y-111945057D02*
X146407143Y-111897438D01*
X146407143Y-111897438D02*
X146502381Y-111849819D01*
X143429819Y-94110714D02*
X142429819Y-94110714D01*
X142429819Y-94110714D02*
X143144104Y-93777381D01*
X143144104Y-93777381D02*
X142429819Y-93444048D01*
X142429819Y-93444048D02*
X143429819Y-93444048D01*
X143429819Y-92967857D02*
X142429819Y-92967857D01*
X142429819Y-92967857D02*
X142429819Y-92586905D01*
X142429819Y-92586905D02*
X142477438Y-92491667D01*
X142477438Y-92491667D02*
X142525057Y-92444048D01*
X142525057Y-92444048D02*
X142620295Y-92396429D01*
X142620295Y-92396429D02*
X142763152Y-92396429D01*
X142763152Y-92396429D02*
X142858390Y-92444048D01*
X142858390Y-92444048D02*
X142906009Y-92491667D01*
X142906009Y-92491667D02*
X142953628Y-92586905D01*
X142953628Y-92586905D02*
X142953628Y-92967857D01*
X143429819Y-91491667D02*
X143429819Y-91967857D01*
X143429819Y-91967857D02*
X142429819Y-91967857D01*
X142429819Y-91253571D02*
X142429819Y-90634524D01*
X142429819Y-90634524D02*
X142810771Y-90967857D01*
X142810771Y-90967857D02*
X142810771Y-90825000D01*
X142810771Y-90825000D02*
X142858390Y-90729762D01*
X142858390Y-90729762D02*
X142906009Y-90682143D01*
X142906009Y-90682143D02*
X143001247Y-90634524D01*
X143001247Y-90634524D02*
X143239342Y-90634524D01*
X143239342Y-90634524D02*
X143334580Y-90682143D01*
X143334580Y-90682143D02*
X143382200Y-90729762D01*
X143382200Y-90729762D02*
X143429819Y-90825000D01*
X143429819Y-90825000D02*
X143429819Y-91110714D01*
X143429819Y-91110714D02*
X143382200Y-91205952D01*
X143382200Y-91205952D02*
X143334580Y-91253571D01*
X143429819Y-89682143D02*
X143429819Y-90253571D01*
X143429819Y-89967857D02*
X142429819Y-89967857D01*
X142429819Y-89967857D02*
X142572676Y-90063095D01*
X142572676Y-90063095D02*
X142667914Y-90158333D01*
X142667914Y-90158333D02*
X142715533Y-90253571D01*
X143429819Y-88729762D02*
X143429819Y-89301190D01*
X143429819Y-89015476D02*
X142429819Y-89015476D01*
X142429819Y-89015476D02*
X142572676Y-89110714D01*
X142572676Y-89110714D02*
X142667914Y-89205952D01*
X142667914Y-89205952D02*
X142715533Y-89301190D01*
X142429819Y-87825000D02*
X142429819Y-88301190D01*
X142429819Y-88301190D02*
X142906009Y-88348809D01*
X142906009Y-88348809D02*
X142858390Y-88301190D01*
X142858390Y-88301190D02*
X142810771Y-88205952D01*
X142810771Y-88205952D02*
X142810771Y-87967857D01*
X142810771Y-87967857D02*
X142858390Y-87872619D01*
X142858390Y-87872619D02*
X142906009Y-87825000D01*
X142906009Y-87825000D02*
X143001247Y-87777381D01*
X143001247Y-87777381D02*
X143239342Y-87777381D01*
X143239342Y-87777381D02*
X143334580Y-87825000D01*
X143334580Y-87825000D02*
X143382200Y-87872619D01*
X143382200Y-87872619D02*
X143429819Y-87967857D01*
X143429819Y-87967857D02*
X143429819Y-88205952D01*
X143429819Y-88205952D02*
X143382200Y-88301190D01*
X143382200Y-88301190D02*
X143334580Y-88348809D01*
X143144104Y-87396428D02*
X143144104Y-86920238D01*
X143429819Y-87491666D02*
X142429819Y-87158333D01*
X142429819Y-87158333D02*
X143429819Y-86825000D01*
X142525057Y-86539285D02*
X142477438Y-86491666D01*
X142477438Y-86491666D02*
X142429819Y-86396428D01*
X142429819Y-86396428D02*
X142429819Y-86158333D01*
X142429819Y-86158333D02*
X142477438Y-86063095D01*
X142477438Y-86063095D02*
X142525057Y-86015476D01*
X142525057Y-86015476D02*
X142620295Y-85967857D01*
X142620295Y-85967857D02*
X142715533Y-85967857D01*
X142715533Y-85967857D02*
X142858390Y-86015476D01*
X142858390Y-86015476D02*
X143429819Y-86586904D01*
X143429819Y-86586904D02*
X143429819Y-85967857D01*
X143525057Y-85777381D02*
X143525057Y-85015476D01*
X143382200Y-84824999D02*
X143429819Y-84682142D01*
X143429819Y-84682142D02*
X143429819Y-84444047D01*
X143429819Y-84444047D02*
X143382200Y-84348809D01*
X143382200Y-84348809D02*
X143334580Y-84301190D01*
X143334580Y-84301190D02*
X143239342Y-84253571D01*
X143239342Y-84253571D02*
X143144104Y-84253571D01*
X143144104Y-84253571D02*
X143048866Y-84301190D01*
X143048866Y-84301190D02*
X143001247Y-84348809D01*
X143001247Y-84348809D02*
X142953628Y-84444047D01*
X142953628Y-84444047D02*
X142906009Y-84634523D01*
X142906009Y-84634523D02*
X142858390Y-84729761D01*
X142858390Y-84729761D02*
X142810771Y-84777380D01*
X142810771Y-84777380D02*
X142715533Y-84824999D01*
X142715533Y-84824999D02*
X142620295Y-84824999D01*
X142620295Y-84824999D02*
X142525057Y-84777380D01*
X142525057Y-84777380D02*
X142477438Y-84729761D01*
X142477438Y-84729761D02*
X142429819Y-84634523D01*
X142429819Y-84634523D02*
X142429819Y-84396428D01*
X142429819Y-84396428D02*
X142477438Y-84253571D01*
X143429819Y-83824999D02*
X142429819Y-83824999D01*
X142429819Y-83824999D02*
X142429819Y-83444047D01*
X142429819Y-83444047D02*
X142477438Y-83348809D01*
X142477438Y-83348809D02*
X142525057Y-83301190D01*
X142525057Y-83301190D02*
X142620295Y-83253571D01*
X142620295Y-83253571D02*
X142763152Y-83253571D01*
X142763152Y-83253571D02*
X142858390Y-83301190D01*
X142858390Y-83301190D02*
X142906009Y-83348809D01*
X142906009Y-83348809D02*
X142953628Y-83444047D01*
X142953628Y-83444047D02*
X142953628Y-83824999D01*
X143144104Y-82872618D02*
X143144104Y-82396428D01*
X143429819Y-82967856D02*
X142429819Y-82634523D01*
X142429819Y-82634523D02*
X143429819Y-82301190D01*
X143429819Y-81396428D02*
X142953628Y-81729761D01*
X143429819Y-81967856D02*
X142429819Y-81967856D01*
X142429819Y-81967856D02*
X142429819Y-81586904D01*
X142429819Y-81586904D02*
X142477438Y-81491666D01*
X142477438Y-81491666D02*
X142525057Y-81444047D01*
X142525057Y-81444047D02*
X142620295Y-81396428D01*
X142620295Y-81396428D02*
X142763152Y-81396428D01*
X142763152Y-81396428D02*
X142858390Y-81444047D01*
X142858390Y-81444047D02*
X142906009Y-81491666D01*
X142906009Y-81491666D02*
X142953628Y-81586904D01*
X142953628Y-81586904D02*
X142953628Y-81967856D01*
X143429819Y-80967856D02*
X142429819Y-80967856D01*
X143429819Y-80396428D02*
X142858390Y-80824999D01*
X142429819Y-80396428D02*
X143001247Y-80967856D01*
X142906009Y-79634523D02*
X142906009Y-79967856D01*
X143429819Y-79967856D02*
X142429819Y-79967856D01*
X142429819Y-79967856D02*
X142429819Y-79491666D01*
X142429819Y-79110713D02*
X143239342Y-79110713D01*
X143239342Y-79110713D02*
X143334580Y-79063094D01*
X143334580Y-79063094D02*
X143382200Y-79015475D01*
X143382200Y-79015475D02*
X143429819Y-78920237D01*
X143429819Y-78920237D02*
X143429819Y-78729761D01*
X143429819Y-78729761D02*
X143382200Y-78634523D01*
X143382200Y-78634523D02*
X143334580Y-78586904D01*
X143334580Y-78586904D02*
X143239342Y-78539285D01*
X143239342Y-78539285D02*
X142429819Y-78539285D01*
X143429819Y-78063094D02*
X142429819Y-78063094D01*
X142429819Y-78063094D02*
X143429819Y-77491666D01*
X143429819Y-77491666D02*
X142429819Y-77491666D01*
X143429819Y-76491666D02*
X143429819Y-77063094D01*
X143429819Y-76777380D02*
X142429819Y-76777380D01*
X142429819Y-76777380D02*
X142572676Y-76872618D01*
X142572676Y-76872618D02*
X142667914Y-76967856D01*
X142667914Y-76967856D02*
X142715533Y-77063094D01*
X178029761Y-75638152D02*
X178410713Y-75638152D01*
X178172618Y-75304819D02*
X178172618Y-76161961D01*
X178172618Y-76161961D02*
X178220237Y-76257200D01*
X178220237Y-76257200D02*
X178315475Y-76304819D01*
X178315475Y-76304819D02*
X178410713Y-76304819D01*
X178886904Y-76304819D02*
X178791666Y-76257200D01*
X178791666Y-76257200D02*
X178744047Y-76209580D01*
X178744047Y-76209580D02*
X178696428Y-76114342D01*
X178696428Y-76114342D02*
X178696428Y-75828628D01*
X178696428Y-75828628D02*
X178744047Y-75733390D01*
X178744047Y-75733390D02*
X178791666Y-75685771D01*
X178791666Y-75685771D02*
X178886904Y-75638152D01*
X178886904Y-75638152D02*
X179029761Y-75638152D01*
X179029761Y-75638152D02*
X179124999Y-75685771D01*
X179124999Y-75685771D02*
X179172618Y-75733390D01*
X179172618Y-75733390D02*
X179220237Y-75828628D01*
X179220237Y-75828628D02*
X179220237Y-76114342D01*
X179220237Y-76114342D02*
X179172618Y-76209580D01*
X179172618Y-76209580D02*
X179124999Y-76257200D01*
X179124999Y-76257200D02*
X179029761Y-76304819D01*
X179029761Y-76304819D02*
X178886904Y-76304819D01*
X179648809Y-76304819D02*
X179648809Y-75638152D01*
X179648809Y-75828628D02*
X179696428Y-75733390D01*
X179696428Y-75733390D02*
X179744047Y-75685771D01*
X179744047Y-75685771D02*
X179839285Y-75638152D01*
X179839285Y-75638152D02*
X179934523Y-75638152D01*
X180267857Y-75638152D02*
X180267857Y-76304819D01*
X180267857Y-75733390D02*
X180315476Y-75685771D01*
X180315476Y-75685771D02*
X180410714Y-75638152D01*
X180410714Y-75638152D02*
X180553571Y-75638152D01*
X180553571Y-75638152D02*
X180648809Y-75685771D01*
X180648809Y-75685771D02*
X180696428Y-75781009D01*
X180696428Y-75781009D02*
X180696428Y-76304819D01*
X181172619Y-76304819D02*
X181172619Y-75638152D01*
X181172619Y-75304819D02*
X181125000Y-75352438D01*
X181125000Y-75352438D02*
X181172619Y-75400057D01*
X181172619Y-75400057D02*
X181220238Y-75352438D01*
X181220238Y-75352438D02*
X181172619Y-75304819D01*
X181172619Y-75304819D02*
X181172619Y-75400057D01*
X181791666Y-76304819D02*
X181696428Y-76257200D01*
X181696428Y-76257200D02*
X181648809Y-76161961D01*
X181648809Y-76161961D02*
X181648809Y-75304819D01*
X182315476Y-76304819D02*
X182220238Y-76257200D01*
X182220238Y-76257200D02*
X182172619Y-76161961D01*
X182172619Y-76161961D02*
X182172619Y-75304819D01*
X182839286Y-76304819D02*
X182744048Y-76257200D01*
X182744048Y-76257200D02*
X182696429Y-76209580D01*
X182696429Y-76209580D02*
X182648810Y-76114342D01*
X182648810Y-76114342D02*
X182648810Y-75828628D01*
X182648810Y-75828628D02*
X182696429Y-75733390D01*
X182696429Y-75733390D02*
X182744048Y-75685771D01*
X182744048Y-75685771D02*
X182839286Y-75638152D01*
X182839286Y-75638152D02*
X182982143Y-75638152D01*
X182982143Y-75638152D02*
X183077381Y-75685771D01*
X183077381Y-75685771D02*
X183125000Y-75733390D01*
X183125000Y-75733390D02*
X183172619Y-75828628D01*
X183172619Y-75828628D02*
X183172619Y-76114342D01*
X183172619Y-76114342D02*
X183125000Y-76209580D01*
X183125000Y-76209580D02*
X183077381Y-76257200D01*
X183077381Y-76257200D02*
X182982143Y-76304819D01*
X182982143Y-76304819D02*
X182839286Y-76304819D01*
X183553572Y-75400057D02*
X183601191Y-75352438D01*
X183601191Y-75352438D02*
X183696429Y-75304819D01*
X183696429Y-75304819D02*
X183934524Y-75304819D01*
X183934524Y-75304819D02*
X184029762Y-75352438D01*
X184029762Y-75352438D02*
X184077381Y-75400057D01*
X184077381Y-75400057D02*
X184125000Y-75495295D01*
X184125000Y-75495295D02*
X184125000Y-75590533D01*
X184125000Y-75590533D02*
X184077381Y-75733390D01*
X184077381Y-75733390D02*
X183505953Y-76304819D01*
X183505953Y-76304819D02*
X184125000Y-76304819D01*
X156547381Y-73759104D02*
X157023571Y-73759104D01*
X156452143Y-74044819D02*
X156785476Y-73044819D01*
X156785476Y-73044819D02*
X157118809Y-74044819D01*
X157452143Y-74044819D02*
X157452143Y-73044819D01*
X157452143Y-73044819D02*
X157690238Y-73044819D01*
X157690238Y-73044819D02*
X157833095Y-73092438D01*
X157833095Y-73092438D02*
X157928333Y-73187676D01*
X157928333Y-73187676D02*
X157975952Y-73282914D01*
X157975952Y-73282914D02*
X158023571Y-73473390D01*
X158023571Y-73473390D02*
X158023571Y-73616247D01*
X158023571Y-73616247D02*
X157975952Y-73806723D01*
X157975952Y-73806723D02*
X157928333Y-73901961D01*
X157928333Y-73901961D02*
X157833095Y-73997200D01*
X157833095Y-73997200D02*
X157690238Y-74044819D01*
X157690238Y-74044819D02*
X157452143Y-74044819D01*
X158356905Y-73044819D02*
X159023571Y-74044819D01*
X159023571Y-73044819D02*
X158356905Y-74044819D01*
X159880714Y-74044819D02*
X159404524Y-74044819D01*
X159404524Y-74044819D02*
X159404524Y-73044819D01*
X160118810Y-73044819D02*
X160737857Y-73044819D01*
X160737857Y-73044819D02*
X160404524Y-73425771D01*
X160404524Y-73425771D02*
X160547381Y-73425771D01*
X160547381Y-73425771D02*
X160642619Y-73473390D01*
X160642619Y-73473390D02*
X160690238Y-73521009D01*
X160690238Y-73521009D02*
X160737857Y-73616247D01*
X160737857Y-73616247D02*
X160737857Y-73854342D01*
X160737857Y-73854342D02*
X160690238Y-73949580D01*
X160690238Y-73949580D02*
X160642619Y-73997200D01*
X160642619Y-73997200D02*
X160547381Y-74044819D01*
X160547381Y-74044819D02*
X160261667Y-74044819D01*
X160261667Y-74044819D02*
X160166429Y-73997200D01*
X160166429Y-73997200D02*
X160118810Y-73949580D01*
X161595000Y-73378152D02*
X161595000Y-74044819D01*
X161356905Y-72997200D02*
X161118810Y-73711485D01*
X161118810Y-73711485D02*
X161737857Y-73711485D01*
X162595000Y-73044819D02*
X162118810Y-73044819D01*
X162118810Y-73044819D02*
X162071191Y-73521009D01*
X162071191Y-73521009D02*
X162118810Y-73473390D01*
X162118810Y-73473390D02*
X162214048Y-73425771D01*
X162214048Y-73425771D02*
X162452143Y-73425771D01*
X162452143Y-73425771D02*
X162547381Y-73473390D01*
X162547381Y-73473390D02*
X162595000Y-73521009D01*
X162595000Y-73521009D02*
X162642619Y-73616247D01*
X162642619Y-73616247D02*
X162642619Y-73854342D01*
X162642619Y-73854342D02*
X162595000Y-73949580D01*
X162595000Y-73949580D02*
X162547381Y-73997200D01*
X162547381Y-73997200D02*
X162452143Y-74044819D01*
X162452143Y-74044819D02*
X162214048Y-74044819D01*
X162214048Y-74044819D02*
X162118810Y-73997200D01*
X162118810Y-73997200D02*
X162071191Y-73949580D01*
X157849819Y-67716666D02*
X157373628Y-68049999D01*
X157849819Y-68288094D02*
X156849819Y-68288094D01*
X156849819Y-68288094D02*
X156849819Y-67907142D01*
X156849819Y-67907142D02*
X156897438Y-67811904D01*
X156897438Y-67811904D02*
X156945057Y-67764285D01*
X156945057Y-67764285D02*
X157040295Y-67716666D01*
X157040295Y-67716666D02*
X157183152Y-67716666D01*
X157183152Y-67716666D02*
X157278390Y-67764285D01*
X157278390Y-67764285D02*
X157326009Y-67811904D01*
X157326009Y-67811904D02*
X157373628Y-67907142D01*
X157373628Y-67907142D02*
X157373628Y-68288094D01*
X157849819Y-66764285D02*
X157849819Y-67335713D01*
X157849819Y-67049999D02*
X156849819Y-67049999D01*
X156849819Y-67049999D02*
X156992676Y-67145237D01*
X156992676Y-67145237D02*
X157087914Y-67240475D01*
X157087914Y-67240475D02*
X157135533Y-67335713D01*
X155154761Y-117613152D02*
X155535713Y-117613152D01*
X155297618Y-117279819D02*
X155297618Y-118136961D01*
X155297618Y-118136961D02*
X155345237Y-118232200D01*
X155345237Y-118232200D02*
X155440475Y-118279819D01*
X155440475Y-118279819D02*
X155535713Y-118279819D01*
X156011904Y-118279819D02*
X155916666Y-118232200D01*
X155916666Y-118232200D02*
X155869047Y-118184580D01*
X155869047Y-118184580D02*
X155821428Y-118089342D01*
X155821428Y-118089342D02*
X155821428Y-117803628D01*
X155821428Y-117803628D02*
X155869047Y-117708390D01*
X155869047Y-117708390D02*
X155916666Y-117660771D01*
X155916666Y-117660771D02*
X156011904Y-117613152D01*
X156011904Y-117613152D02*
X156154761Y-117613152D01*
X156154761Y-117613152D02*
X156249999Y-117660771D01*
X156249999Y-117660771D02*
X156297618Y-117708390D01*
X156297618Y-117708390D02*
X156345237Y-117803628D01*
X156345237Y-117803628D02*
X156345237Y-118089342D01*
X156345237Y-118089342D02*
X156297618Y-118184580D01*
X156297618Y-118184580D02*
X156249999Y-118232200D01*
X156249999Y-118232200D02*
X156154761Y-118279819D01*
X156154761Y-118279819D02*
X156011904Y-118279819D01*
X156773809Y-118279819D02*
X156773809Y-117613152D01*
X156773809Y-117803628D02*
X156821428Y-117708390D01*
X156821428Y-117708390D02*
X156869047Y-117660771D01*
X156869047Y-117660771D02*
X156964285Y-117613152D01*
X156964285Y-117613152D02*
X157059523Y-117613152D01*
X157392857Y-117613152D02*
X157392857Y-118279819D01*
X157392857Y-117708390D02*
X157440476Y-117660771D01*
X157440476Y-117660771D02*
X157535714Y-117613152D01*
X157535714Y-117613152D02*
X157678571Y-117613152D01*
X157678571Y-117613152D02*
X157773809Y-117660771D01*
X157773809Y-117660771D02*
X157821428Y-117756009D01*
X157821428Y-117756009D02*
X157821428Y-118279819D01*
X158297619Y-118279819D02*
X158297619Y-117613152D01*
X158297619Y-117279819D02*
X158250000Y-117327438D01*
X158250000Y-117327438D02*
X158297619Y-117375057D01*
X158297619Y-117375057D02*
X158345238Y-117327438D01*
X158345238Y-117327438D02*
X158297619Y-117279819D01*
X158297619Y-117279819D02*
X158297619Y-117375057D01*
X158916666Y-118279819D02*
X158821428Y-118232200D01*
X158821428Y-118232200D02*
X158773809Y-118136961D01*
X158773809Y-118136961D02*
X158773809Y-117279819D01*
X159440476Y-118279819D02*
X159345238Y-118232200D01*
X159345238Y-118232200D02*
X159297619Y-118136961D01*
X159297619Y-118136961D02*
X159297619Y-117279819D01*
X159964286Y-118279819D02*
X159869048Y-118232200D01*
X159869048Y-118232200D02*
X159821429Y-118184580D01*
X159821429Y-118184580D02*
X159773810Y-118089342D01*
X159773810Y-118089342D02*
X159773810Y-117803628D01*
X159773810Y-117803628D02*
X159821429Y-117708390D01*
X159821429Y-117708390D02*
X159869048Y-117660771D01*
X159869048Y-117660771D02*
X159964286Y-117613152D01*
X159964286Y-117613152D02*
X160107143Y-117613152D01*
X160107143Y-117613152D02*
X160202381Y-117660771D01*
X160202381Y-117660771D02*
X160250000Y-117708390D01*
X160250000Y-117708390D02*
X160297619Y-117803628D01*
X160297619Y-117803628D02*
X160297619Y-118089342D01*
X160297619Y-118089342D02*
X160250000Y-118184580D01*
X160250000Y-118184580D02*
X160202381Y-118232200D01*
X160202381Y-118232200D02*
X160107143Y-118279819D01*
X160107143Y-118279819D02*
X159964286Y-118279819D01*
X160630953Y-117279819D02*
X161250000Y-117279819D01*
X161250000Y-117279819D02*
X160916667Y-117660771D01*
X160916667Y-117660771D02*
X161059524Y-117660771D01*
X161059524Y-117660771D02*
X161154762Y-117708390D01*
X161154762Y-117708390D02*
X161202381Y-117756009D01*
X161202381Y-117756009D02*
X161250000Y-117851247D01*
X161250000Y-117851247D02*
X161250000Y-118089342D01*
X161250000Y-118089342D02*
X161202381Y-118184580D01*
X161202381Y-118184580D02*
X161154762Y-118232200D01*
X161154762Y-118232200D02*
X161059524Y-118279819D01*
X161059524Y-118279819D02*
X160773810Y-118279819D01*
X160773810Y-118279819D02*
X160678572Y-118232200D01*
X160678572Y-118232200D02*
X160630953Y-118184580D01*
X129004761Y-80088152D02*
X129385713Y-80088152D01*
X129147618Y-79754819D02*
X129147618Y-80611961D01*
X129147618Y-80611961D02*
X129195237Y-80707200D01*
X129195237Y-80707200D02*
X129290475Y-80754819D01*
X129290475Y-80754819D02*
X129385713Y-80754819D01*
X129861904Y-80754819D02*
X129766666Y-80707200D01*
X129766666Y-80707200D02*
X129719047Y-80659580D01*
X129719047Y-80659580D02*
X129671428Y-80564342D01*
X129671428Y-80564342D02*
X129671428Y-80278628D01*
X129671428Y-80278628D02*
X129719047Y-80183390D01*
X129719047Y-80183390D02*
X129766666Y-80135771D01*
X129766666Y-80135771D02*
X129861904Y-80088152D01*
X129861904Y-80088152D02*
X130004761Y-80088152D01*
X130004761Y-80088152D02*
X130099999Y-80135771D01*
X130099999Y-80135771D02*
X130147618Y-80183390D01*
X130147618Y-80183390D02*
X130195237Y-80278628D01*
X130195237Y-80278628D02*
X130195237Y-80564342D01*
X130195237Y-80564342D02*
X130147618Y-80659580D01*
X130147618Y-80659580D02*
X130099999Y-80707200D01*
X130099999Y-80707200D02*
X130004761Y-80754819D01*
X130004761Y-80754819D02*
X129861904Y-80754819D01*
X130623809Y-80754819D02*
X130623809Y-80088152D01*
X130623809Y-80278628D02*
X130671428Y-80183390D01*
X130671428Y-80183390D02*
X130719047Y-80135771D01*
X130719047Y-80135771D02*
X130814285Y-80088152D01*
X130814285Y-80088152D02*
X130909523Y-80088152D01*
X131242857Y-80088152D02*
X131242857Y-80754819D01*
X131242857Y-80183390D02*
X131290476Y-80135771D01*
X131290476Y-80135771D02*
X131385714Y-80088152D01*
X131385714Y-80088152D02*
X131528571Y-80088152D01*
X131528571Y-80088152D02*
X131623809Y-80135771D01*
X131623809Y-80135771D02*
X131671428Y-80231009D01*
X131671428Y-80231009D02*
X131671428Y-80754819D01*
X132147619Y-80754819D02*
X132147619Y-80088152D01*
X132147619Y-79754819D02*
X132100000Y-79802438D01*
X132100000Y-79802438D02*
X132147619Y-79850057D01*
X132147619Y-79850057D02*
X132195238Y-79802438D01*
X132195238Y-79802438D02*
X132147619Y-79754819D01*
X132147619Y-79754819D02*
X132147619Y-79850057D01*
X132766666Y-80754819D02*
X132671428Y-80707200D01*
X132671428Y-80707200D02*
X132623809Y-80611961D01*
X132623809Y-80611961D02*
X132623809Y-79754819D01*
X133290476Y-80754819D02*
X133195238Y-80707200D01*
X133195238Y-80707200D02*
X133147619Y-80611961D01*
X133147619Y-80611961D02*
X133147619Y-79754819D01*
X133814286Y-80754819D02*
X133719048Y-80707200D01*
X133719048Y-80707200D02*
X133671429Y-80659580D01*
X133671429Y-80659580D02*
X133623810Y-80564342D01*
X133623810Y-80564342D02*
X133623810Y-80278628D01*
X133623810Y-80278628D02*
X133671429Y-80183390D01*
X133671429Y-80183390D02*
X133719048Y-80135771D01*
X133719048Y-80135771D02*
X133814286Y-80088152D01*
X133814286Y-80088152D02*
X133957143Y-80088152D01*
X133957143Y-80088152D02*
X134052381Y-80135771D01*
X134052381Y-80135771D02*
X134100000Y-80183390D01*
X134100000Y-80183390D02*
X134147619Y-80278628D01*
X134147619Y-80278628D02*
X134147619Y-80564342D01*
X134147619Y-80564342D02*
X134100000Y-80659580D01*
X134100000Y-80659580D02*
X134052381Y-80707200D01*
X134052381Y-80707200D02*
X133957143Y-80754819D01*
X133957143Y-80754819D02*
X133814286Y-80754819D01*
X135100000Y-80754819D02*
X134528572Y-80754819D01*
X134814286Y-80754819D02*
X134814286Y-79754819D01*
X134814286Y-79754819D02*
X134719048Y-79897676D01*
X134719048Y-79897676D02*
X134623810Y-79992914D01*
X134623810Y-79992914D02*
X134528572Y-80040533D01*
X163399819Y-67656666D02*
X162923628Y-67989999D01*
X163399819Y-68228094D02*
X162399819Y-68228094D01*
X162399819Y-68228094D02*
X162399819Y-67847142D01*
X162399819Y-67847142D02*
X162447438Y-67751904D01*
X162447438Y-67751904D02*
X162495057Y-67704285D01*
X162495057Y-67704285D02*
X162590295Y-67656666D01*
X162590295Y-67656666D02*
X162733152Y-67656666D01*
X162733152Y-67656666D02*
X162828390Y-67704285D01*
X162828390Y-67704285D02*
X162876009Y-67751904D01*
X162876009Y-67751904D02*
X162923628Y-67847142D01*
X162923628Y-67847142D02*
X162923628Y-68228094D01*
X162495057Y-67275713D02*
X162447438Y-67228094D01*
X162447438Y-67228094D02*
X162399819Y-67132856D01*
X162399819Y-67132856D02*
X162399819Y-66894761D01*
X162399819Y-66894761D02*
X162447438Y-66799523D01*
X162447438Y-66799523D02*
X162495057Y-66751904D01*
X162495057Y-66751904D02*
X162590295Y-66704285D01*
X162590295Y-66704285D02*
X162685533Y-66704285D01*
X162685533Y-66704285D02*
X162828390Y-66751904D01*
X162828390Y-66751904D02*
X163399819Y-67323332D01*
X163399819Y-67323332D02*
X163399819Y-66704285D01*
X136506009Y-107167857D02*
X136506009Y-106834524D01*
X137029819Y-106691667D02*
X137029819Y-107167857D01*
X137029819Y-107167857D02*
X136029819Y-107167857D01*
X136029819Y-107167857D02*
X136029819Y-106691667D01*
X136363152Y-106263095D02*
X137029819Y-106263095D01*
X136458390Y-106263095D02*
X136410771Y-106215476D01*
X136410771Y-106215476D02*
X136363152Y-106120238D01*
X136363152Y-106120238D02*
X136363152Y-105977381D01*
X136363152Y-105977381D02*
X136410771Y-105882143D01*
X136410771Y-105882143D02*
X136506009Y-105834524D01*
X136506009Y-105834524D02*
X137029819Y-105834524D01*
X136363152Y-105501190D02*
X136363152Y-105120238D01*
X136029819Y-105358333D02*
X136886961Y-105358333D01*
X136886961Y-105358333D02*
X136982200Y-105310714D01*
X136982200Y-105310714D02*
X137029819Y-105215476D01*
X137029819Y-105215476D02*
X137029819Y-105120238D01*
X137029819Y-104786904D02*
X136363152Y-104786904D01*
X136553628Y-104786904D02*
X136458390Y-104739285D01*
X136458390Y-104739285D02*
X136410771Y-104691666D01*
X136410771Y-104691666D02*
X136363152Y-104596428D01*
X136363152Y-104596428D02*
X136363152Y-104501190D01*
X137029819Y-103739285D02*
X136506009Y-103739285D01*
X136506009Y-103739285D02*
X136410771Y-103786904D01*
X136410771Y-103786904D02*
X136363152Y-103882142D01*
X136363152Y-103882142D02*
X136363152Y-104072618D01*
X136363152Y-104072618D02*
X136410771Y-104167856D01*
X136982200Y-103739285D02*
X137029819Y-103834523D01*
X137029819Y-103834523D02*
X137029819Y-104072618D01*
X137029819Y-104072618D02*
X136982200Y-104167856D01*
X136982200Y-104167856D02*
X136886961Y-104215475D01*
X136886961Y-104215475D02*
X136791723Y-104215475D01*
X136791723Y-104215475D02*
X136696485Y-104167856D01*
X136696485Y-104167856D02*
X136648866Y-104072618D01*
X136648866Y-104072618D02*
X136648866Y-103834523D01*
X136648866Y-103834523D02*
X136601247Y-103739285D01*
X137029819Y-102834523D02*
X136029819Y-102834523D01*
X136982200Y-102834523D02*
X137029819Y-102929761D01*
X137029819Y-102929761D02*
X137029819Y-103120237D01*
X137029819Y-103120237D02*
X136982200Y-103215475D01*
X136982200Y-103215475D02*
X136934580Y-103263094D01*
X136934580Y-103263094D02*
X136839342Y-103310713D01*
X136839342Y-103310713D02*
X136553628Y-103310713D01*
X136553628Y-103310713D02*
X136458390Y-103263094D01*
X136458390Y-103263094D02*
X136410771Y-103215475D01*
X136410771Y-103215475D02*
X136363152Y-103120237D01*
X136363152Y-103120237D02*
X136363152Y-102929761D01*
X136363152Y-102929761D02*
X136410771Y-102834523D01*
X137029819Y-101929761D02*
X136506009Y-101929761D01*
X136506009Y-101929761D02*
X136410771Y-101977380D01*
X136410771Y-101977380D02*
X136363152Y-102072618D01*
X136363152Y-102072618D02*
X136363152Y-102263094D01*
X136363152Y-102263094D02*
X136410771Y-102358332D01*
X136982200Y-101929761D02*
X137029819Y-102024999D01*
X137029819Y-102024999D02*
X137029819Y-102263094D01*
X137029819Y-102263094D02*
X136982200Y-102358332D01*
X136982200Y-102358332D02*
X136886961Y-102405951D01*
X136886961Y-102405951D02*
X136791723Y-102405951D01*
X136791723Y-102405951D02*
X136696485Y-102358332D01*
X136696485Y-102358332D02*
X136648866Y-102263094D01*
X136648866Y-102263094D02*
X136648866Y-102024999D01*
X136648866Y-102024999D02*
X136601247Y-101929761D01*
X136029819Y-101596427D02*
X137029819Y-101263094D01*
X137029819Y-101263094D02*
X136029819Y-100929761D01*
X137029819Y-100453570D02*
X136982200Y-100548808D01*
X136982200Y-100548808D02*
X136934580Y-100596427D01*
X136934580Y-100596427D02*
X136839342Y-100644046D01*
X136839342Y-100644046D02*
X136553628Y-100644046D01*
X136553628Y-100644046D02*
X136458390Y-100596427D01*
X136458390Y-100596427D02*
X136410771Y-100548808D01*
X136410771Y-100548808D02*
X136363152Y-100453570D01*
X136363152Y-100453570D02*
X136363152Y-100310713D01*
X136363152Y-100310713D02*
X136410771Y-100215475D01*
X136410771Y-100215475D02*
X136458390Y-100167856D01*
X136458390Y-100167856D02*
X136553628Y-100120237D01*
X136553628Y-100120237D02*
X136839342Y-100120237D01*
X136839342Y-100120237D02*
X136934580Y-100167856D01*
X136934580Y-100167856D02*
X136982200Y-100215475D01*
X136982200Y-100215475D02*
X137029819Y-100310713D01*
X137029819Y-100310713D02*
X137029819Y-100453570D01*
X137029819Y-99548808D02*
X136982200Y-99644046D01*
X136982200Y-99644046D02*
X136886961Y-99691665D01*
X136886961Y-99691665D02*
X136029819Y-99691665D01*
X136363152Y-99310712D02*
X136363152Y-98929760D01*
X136029819Y-99167855D02*
X136886961Y-99167855D01*
X136886961Y-99167855D02*
X136982200Y-99120236D01*
X136982200Y-99120236D02*
X137029819Y-99024998D01*
X137029819Y-99024998D02*
X137029819Y-98929760D01*
X137029819Y-98167855D02*
X136506009Y-98167855D01*
X136506009Y-98167855D02*
X136410771Y-98215474D01*
X136410771Y-98215474D02*
X136363152Y-98310712D01*
X136363152Y-98310712D02*
X136363152Y-98501188D01*
X136363152Y-98501188D02*
X136410771Y-98596426D01*
X136982200Y-98167855D02*
X137029819Y-98263093D01*
X137029819Y-98263093D02*
X137029819Y-98501188D01*
X137029819Y-98501188D02*
X136982200Y-98596426D01*
X136982200Y-98596426D02*
X136886961Y-98644045D01*
X136886961Y-98644045D02*
X136791723Y-98644045D01*
X136791723Y-98644045D02*
X136696485Y-98596426D01*
X136696485Y-98596426D02*
X136648866Y-98501188D01*
X136648866Y-98501188D02*
X136648866Y-98263093D01*
X136648866Y-98263093D02*
X136601247Y-98167855D01*
X136363152Y-97691664D02*
X137220295Y-97691664D01*
X137220295Y-97691664D02*
X137315533Y-97739283D01*
X137315533Y-97739283D02*
X137363152Y-97834521D01*
X137363152Y-97834521D02*
X137363152Y-97882140D01*
X136029819Y-97691664D02*
X136077438Y-97739283D01*
X136077438Y-97739283D02*
X136125057Y-97691664D01*
X136125057Y-97691664D02*
X136077438Y-97644045D01*
X136077438Y-97644045D02*
X136029819Y-97691664D01*
X136029819Y-97691664D02*
X136125057Y-97691664D01*
X136982200Y-96834522D02*
X137029819Y-96929760D01*
X137029819Y-96929760D02*
X137029819Y-97120236D01*
X137029819Y-97120236D02*
X136982200Y-97215474D01*
X136982200Y-97215474D02*
X136886961Y-97263093D01*
X136886961Y-97263093D02*
X136506009Y-97263093D01*
X136506009Y-97263093D02*
X136410771Y-97215474D01*
X136410771Y-97215474D02*
X136363152Y-97120236D01*
X136363152Y-97120236D02*
X136363152Y-96929760D01*
X136363152Y-96929760D02*
X136410771Y-96834522D01*
X136410771Y-96834522D02*
X136506009Y-96786903D01*
X136506009Y-96786903D02*
X136601247Y-96786903D01*
X136601247Y-96786903D02*
X136696485Y-97263093D01*
X137029819Y-95834522D02*
X137029819Y-96405950D01*
X137029819Y-96120236D02*
X136029819Y-96120236D01*
X136029819Y-96120236D02*
X136172676Y-96215474D01*
X136172676Y-96215474D02*
X136267914Y-96310712D01*
X136267914Y-96310712D02*
X136315533Y-96405950D01*
X177012200Y-100782858D02*
X177059819Y-100878096D01*
X177059819Y-100878096D02*
X177059819Y-101068572D01*
X177059819Y-101068572D02*
X177012200Y-101163810D01*
X177012200Y-101163810D02*
X176964580Y-101211429D01*
X176964580Y-101211429D02*
X176869342Y-101259048D01*
X176869342Y-101259048D02*
X176583628Y-101259048D01*
X176583628Y-101259048D02*
X176488390Y-101211429D01*
X176488390Y-101211429D02*
X176440771Y-101163810D01*
X176440771Y-101163810D02*
X176393152Y-101068572D01*
X176393152Y-101068572D02*
X176393152Y-100878096D01*
X176393152Y-100878096D02*
X176440771Y-100782858D01*
X177059819Y-100211429D02*
X177012200Y-100306667D01*
X177012200Y-100306667D02*
X176964580Y-100354286D01*
X176964580Y-100354286D02*
X176869342Y-100401905D01*
X176869342Y-100401905D02*
X176583628Y-100401905D01*
X176583628Y-100401905D02*
X176488390Y-100354286D01*
X176488390Y-100354286D02*
X176440771Y-100306667D01*
X176440771Y-100306667D02*
X176393152Y-100211429D01*
X176393152Y-100211429D02*
X176393152Y-100068572D01*
X176393152Y-100068572D02*
X176440771Y-99973334D01*
X176440771Y-99973334D02*
X176488390Y-99925715D01*
X176488390Y-99925715D02*
X176583628Y-99878096D01*
X176583628Y-99878096D02*
X176869342Y-99878096D01*
X176869342Y-99878096D02*
X176964580Y-99925715D01*
X176964580Y-99925715D02*
X177012200Y-99973334D01*
X177012200Y-99973334D02*
X177059819Y-100068572D01*
X177059819Y-100068572D02*
X177059819Y-100211429D01*
X176393152Y-99449524D02*
X177059819Y-99449524D01*
X176488390Y-99449524D02*
X176440771Y-99401905D01*
X176440771Y-99401905D02*
X176393152Y-99306667D01*
X176393152Y-99306667D02*
X176393152Y-99163810D01*
X176393152Y-99163810D02*
X176440771Y-99068572D01*
X176440771Y-99068572D02*
X176536009Y-99020953D01*
X176536009Y-99020953D02*
X177059819Y-99020953D01*
X177012200Y-98163810D02*
X177059819Y-98259048D01*
X177059819Y-98259048D02*
X177059819Y-98449524D01*
X177059819Y-98449524D02*
X177012200Y-98544762D01*
X177012200Y-98544762D02*
X176916961Y-98592381D01*
X176916961Y-98592381D02*
X176536009Y-98592381D01*
X176536009Y-98592381D02*
X176440771Y-98544762D01*
X176440771Y-98544762D02*
X176393152Y-98449524D01*
X176393152Y-98449524D02*
X176393152Y-98259048D01*
X176393152Y-98259048D02*
X176440771Y-98163810D01*
X176440771Y-98163810D02*
X176536009Y-98116191D01*
X176536009Y-98116191D02*
X176631247Y-98116191D01*
X176631247Y-98116191D02*
X176726485Y-98592381D01*
X177012200Y-97259048D02*
X177059819Y-97354286D01*
X177059819Y-97354286D02*
X177059819Y-97544762D01*
X177059819Y-97544762D02*
X177012200Y-97640000D01*
X177012200Y-97640000D02*
X176964580Y-97687619D01*
X176964580Y-97687619D02*
X176869342Y-97735238D01*
X176869342Y-97735238D02*
X176583628Y-97735238D01*
X176583628Y-97735238D02*
X176488390Y-97687619D01*
X176488390Y-97687619D02*
X176440771Y-97640000D01*
X176440771Y-97640000D02*
X176393152Y-97544762D01*
X176393152Y-97544762D02*
X176393152Y-97354286D01*
X176393152Y-97354286D02*
X176440771Y-97259048D01*
X176393152Y-96973333D02*
X176393152Y-96592381D01*
X176059819Y-96830476D02*
X176916961Y-96830476D01*
X176916961Y-96830476D02*
X177012200Y-96782857D01*
X177012200Y-96782857D02*
X177059819Y-96687619D01*
X177059819Y-96687619D02*
X177059819Y-96592381D01*
X177059819Y-96116190D02*
X177012200Y-96211428D01*
X177012200Y-96211428D02*
X176964580Y-96259047D01*
X176964580Y-96259047D02*
X176869342Y-96306666D01*
X176869342Y-96306666D02*
X176583628Y-96306666D01*
X176583628Y-96306666D02*
X176488390Y-96259047D01*
X176488390Y-96259047D02*
X176440771Y-96211428D01*
X176440771Y-96211428D02*
X176393152Y-96116190D01*
X176393152Y-96116190D02*
X176393152Y-95973333D01*
X176393152Y-95973333D02*
X176440771Y-95878095D01*
X176440771Y-95878095D02*
X176488390Y-95830476D01*
X176488390Y-95830476D02*
X176583628Y-95782857D01*
X176583628Y-95782857D02*
X176869342Y-95782857D01*
X176869342Y-95782857D02*
X176964580Y-95830476D01*
X176964580Y-95830476D02*
X177012200Y-95878095D01*
X177012200Y-95878095D02*
X177059819Y-95973333D01*
X177059819Y-95973333D02*
X177059819Y-96116190D01*
X177059819Y-95354285D02*
X176393152Y-95354285D01*
X176583628Y-95354285D02*
X176488390Y-95306666D01*
X176488390Y-95306666D02*
X176440771Y-95259047D01*
X176440771Y-95259047D02*
X176393152Y-95163809D01*
X176393152Y-95163809D02*
X176393152Y-95068571D01*
X177012200Y-94354285D02*
X177059819Y-94449523D01*
X177059819Y-94449523D02*
X177059819Y-94639999D01*
X177059819Y-94639999D02*
X177012200Y-94735237D01*
X177012200Y-94735237D02*
X176916961Y-94782856D01*
X176916961Y-94782856D02*
X176536009Y-94782856D01*
X176536009Y-94782856D02*
X176440771Y-94735237D01*
X176440771Y-94735237D02*
X176393152Y-94639999D01*
X176393152Y-94639999D02*
X176393152Y-94449523D01*
X176393152Y-94449523D02*
X176440771Y-94354285D01*
X176440771Y-94354285D02*
X176536009Y-94306666D01*
X176536009Y-94306666D02*
X176631247Y-94306666D01*
X176631247Y-94306666D02*
X176726485Y-94782856D01*
X177012200Y-93925713D02*
X177059819Y-93830475D01*
X177059819Y-93830475D02*
X177059819Y-93639999D01*
X177059819Y-93639999D02*
X177012200Y-93544761D01*
X177012200Y-93544761D02*
X176916961Y-93497142D01*
X176916961Y-93497142D02*
X176869342Y-93497142D01*
X176869342Y-93497142D02*
X176774104Y-93544761D01*
X176774104Y-93544761D02*
X176726485Y-93639999D01*
X176726485Y-93639999D02*
X176726485Y-93782856D01*
X176726485Y-93782856D02*
X176678866Y-93878094D01*
X176678866Y-93878094D02*
X176583628Y-93925713D01*
X176583628Y-93925713D02*
X176536009Y-93925713D01*
X176536009Y-93925713D02*
X176440771Y-93878094D01*
X176440771Y-93878094D02*
X176393152Y-93782856D01*
X176393152Y-93782856D02*
X176393152Y-93639999D01*
X176393152Y-93639999D02*
X176440771Y-93544761D01*
X176059819Y-92878094D02*
X176059819Y-92687618D01*
X176059819Y-92687618D02*
X176107438Y-92592380D01*
X176107438Y-92592380D02*
X176202676Y-92497142D01*
X176202676Y-92497142D02*
X176393152Y-92449523D01*
X176393152Y-92449523D02*
X176726485Y-92449523D01*
X176726485Y-92449523D02*
X176916961Y-92497142D01*
X176916961Y-92497142D02*
X177012200Y-92592380D01*
X177012200Y-92592380D02*
X177059819Y-92687618D01*
X177059819Y-92687618D02*
X177059819Y-92878094D01*
X177059819Y-92878094D02*
X177012200Y-92973332D01*
X177012200Y-92973332D02*
X176916961Y-93068570D01*
X176916961Y-93068570D02*
X176726485Y-93116189D01*
X176726485Y-93116189D02*
X176393152Y-93116189D01*
X176393152Y-93116189D02*
X176202676Y-93068570D01*
X176202676Y-93068570D02*
X176107438Y-92973332D01*
X176107438Y-92973332D02*
X176059819Y-92878094D01*
X176393152Y-91592380D02*
X177059819Y-91592380D01*
X176393152Y-92020951D02*
X176916961Y-92020951D01*
X176916961Y-92020951D02*
X177012200Y-91973332D01*
X177012200Y-91973332D02*
X177059819Y-91878094D01*
X177059819Y-91878094D02*
X177059819Y-91735237D01*
X177059819Y-91735237D02*
X177012200Y-91639999D01*
X177012200Y-91639999D02*
X176964580Y-91592380D01*
X176393152Y-91259046D02*
X176393152Y-90878094D01*
X176059819Y-91116189D02*
X176916961Y-91116189D01*
X176916961Y-91116189D02*
X177012200Y-91068570D01*
X177012200Y-91068570D02*
X177059819Y-90973332D01*
X177059819Y-90973332D02*
X177059819Y-90878094D01*
X177059819Y-90020951D02*
X177059819Y-90592379D01*
X177059819Y-90306665D02*
X176059819Y-90306665D01*
X176059819Y-90306665D02*
X176202676Y-90401903D01*
X176202676Y-90401903D02*
X176297914Y-90497141D01*
X176297914Y-90497141D02*
X176345533Y-90592379D01*
%TO.C,arduinoMini5*%
X142240000Y-97790000D02*
X172720000Y-97790000D01*
X142240000Y-115570000D02*
X142240000Y-97790000D01*
X172720000Y-97790000D02*
X172720000Y-115570000D01*
X172720000Y-115570000D02*
X142240000Y-115570000D01*
D11*
%TO.C,MPL3115A2_SPARKFUN1*%
X138165000Y-79965000D02*
X138165000Y-90685000D01*
X138165000Y-90685000D02*
X141885000Y-90685000D01*
X138565000Y-80365000D02*
X138565000Y-90285000D01*
X138565000Y-82225000D02*
X138965000Y-82225000D01*
X138565000Y-82325000D02*
X138965000Y-82325000D01*
X138565000Y-83725000D02*
X138965000Y-83725000D01*
X138565000Y-83825000D02*
X138965000Y-83825000D01*
X138565000Y-85225000D02*
X138965000Y-85225000D01*
X138565000Y-85325000D02*
X138965000Y-85325000D01*
X138565000Y-86725000D02*
X138965000Y-86725000D01*
X138565000Y-86825000D02*
X138965000Y-86825000D01*
X138565000Y-88225000D02*
X138965000Y-88225000D01*
X138565000Y-88325000D02*
X138965000Y-88325000D01*
X138565000Y-90285000D02*
X141485000Y-90285000D01*
X138965000Y-82225000D02*
X138965000Y-82425000D01*
X138965000Y-82425000D02*
X138565000Y-82425000D01*
X138965000Y-83725000D02*
X138965000Y-83925000D01*
X138965000Y-83925000D02*
X138565000Y-83925000D01*
X138965000Y-85225000D02*
X138965000Y-85425000D01*
X138965000Y-85425000D02*
X138565000Y-85425000D01*
X138965000Y-86725000D02*
X138965000Y-86925000D01*
X138965000Y-86925000D02*
X138565000Y-86925000D01*
X138965000Y-88225000D02*
X138965000Y-88425000D01*
X138965000Y-88425000D02*
X138565000Y-88425000D01*
X139975000Y-79965000D02*
X139975000Y-80365000D01*
X139975000Y-90685000D02*
X139975000Y-90285000D01*
X140975000Y-79965000D02*
X140975000Y-80365000D01*
X140975000Y-90685000D02*
X140975000Y-90285000D01*
X141485000Y-80365000D02*
X138565000Y-80365000D01*
X141485000Y-90285000D02*
X141485000Y-80365000D01*
X141885000Y-79965000D02*
X138165000Y-79965000D01*
X141885000Y-81275000D02*
X142085000Y-81275000D01*
X141885000Y-90685000D02*
X141885000Y-79965000D01*
X141985000Y-81275000D02*
X141985000Y-80975000D01*
X142085000Y-79765000D02*
X141285000Y-79765000D01*
X142085000Y-80565000D02*
X142085000Y-79765000D01*
X142085000Y-80975000D02*
X141885000Y-80975000D01*
X142085000Y-81275000D02*
X142085000Y-80975000D01*
D12*
%TO.C,ADXL345*%
X156420000Y-74855000D02*
X156420000Y-90095000D01*
X156420000Y-90095000D02*
X176740000Y-90095000D01*
X176740000Y-74855000D02*
X156420000Y-74855000D01*
X176740000Y-90095000D02*
X176740000Y-74855000D01*
D13*
X157790000Y-90725000D02*
G75*
G02*
X157590000Y-90725000I-100000J0D01*
G01*
X157590000Y-90725000D02*
G75*
G02*
X157790000Y-90725000I100000J0D01*
G01*
D11*
%TO.C,R1*%
X153655000Y-64280000D02*
X153655000Y-70820000D01*
X153655000Y-70820000D02*
X153985000Y-70820000D01*
X153985000Y-64280000D02*
X153655000Y-64280000D01*
X156065000Y-64280000D02*
X156395000Y-64280000D01*
X156395000Y-64280000D02*
X156395000Y-70820000D01*
X156395000Y-70820000D02*
X156065000Y-70820000D01*
%TO.C,R2*%
X159205000Y-64220000D02*
X159205000Y-70760000D01*
X159205000Y-70760000D02*
X159535000Y-70760000D01*
X159535000Y-64220000D02*
X159205000Y-64220000D01*
X161615000Y-64220000D02*
X161945000Y-64220000D01*
X161945000Y-64220000D02*
X161945000Y-70760000D01*
X161945000Y-70760000D02*
X161615000Y-70760000D01*
%TO.C,EntradaVoltaje1*%
X131165000Y-96115000D02*
X131165000Y-98615000D01*
X131465000Y-96415000D02*
X131465000Y-106635000D01*
X131465000Y-106635000D02*
X135485000Y-106635000D01*
X132965000Y-96415000D02*
X132965000Y-97415000D01*
X132965000Y-97415000D02*
X131465000Y-97415000D01*
X132965000Y-105635000D02*
X131465000Y-105635000D01*
X132965000Y-106635000D02*
X132965000Y-105635000D01*
X133665000Y-96115000D02*
X131165000Y-96115000D01*
X133775000Y-96415000D02*
X133775000Y-96915000D01*
X133775000Y-96915000D02*
X134985000Y-96915000D01*
X133775000Y-106135000D02*
X133775000Y-106635000D01*
X134985000Y-96915000D02*
X134985000Y-106135000D01*
X134985000Y-106135000D02*
X133775000Y-106135000D01*
X135485000Y-96415000D02*
X131465000Y-96415000D01*
X135485000Y-106635000D02*
X135485000Y-96415000D01*
D14*
%TO.C,G\u002A\u002A\u002A*%
G36*
X164901826Y-101193927D02*
G01*
X165841176Y-101496007D01*
X167500210Y-102144684D01*
X169256292Y-102912472D01*
X170906618Y-103707101D01*
X172053282Y-104322359D01*
X173466561Y-105134105D01*
X172766614Y-105701961D01*
X172192741Y-106098065D01*
X171346772Y-106601780D01*
X170406671Y-107107433D01*
X170359230Y-107131454D01*
X168651794Y-107993093D01*
X166752662Y-106689193D01*
X165639718Y-105869948D01*
X164412892Y-104881691D01*
X163304737Y-103913220D01*
X163115606Y-103736423D01*
X161377680Y-102087551D01*
X162416665Y-101557501D01*
X163281105Y-101186258D01*
X164047095Y-101066187D01*
X164901826Y-101193927D01*
G37*
G36*
X160663383Y-104414431D02*
G01*
X161358823Y-104608308D01*
X162105798Y-105055372D01*
X162662628Y-105594176D01*
X162924082Y-106108066D01*
X162908549Y-106326255D01*
X162632329Y-106602773D01*
X161972163Y-107073162D01*
X160987041Y-107703584D01*
X159735951Y-108460200D01*
X158277884Y-109309171D01*
X156671829Y-110216660D01*
X154976774Y-111148828D01*
X153251710Y-112071836D01*
X151555626Y-112951846D01*
X150019672Y-113719773D01*
X148597157Y-114376409D01*
X147500374Y-114774327D01*
X146637517Y-114926297D01*
X145916781Y-114845091D01*
X145246363Y-114543480D01*
X145041808Y-114412255D01*
X144379971Y-113895515D01*
X144161472Y-113478965D01*
X144374962Y-113059563D01*
X144848097Y-112653546D01*
X145563535Y-112162207D01*
X146609516Y-111509626D01*
X147916750Y-110733504D01*
X149415943Y-109871545D01*
X151037804Y-108961452D01*
X152713040Y-108040928D01*
X154372359Y-107147675D01*
X155946469Y-106319396D01*
X157366077Y-105593795D01*
X158561892Y-105008574D01*
X159464621Y-104601437D01*
X159993851Y-104412517D01*
X160663383Y-104414431D01*
G37*
G36*
X161051599Y-80940131D02*
G01*
X161633157Y-81032441D01*
X161725141Y-81076021D01*
X161961301Y-81357881D01*
X161936152Y-81483129D01*
X161641815Y-81558697D01*
X160950318Y-81652889D01*
X159961630Y-81754238D01*
X158775721Y-81851276D01*
X158644538Y-81860698D01*
X155655501Y-82179031D01*
X152882911Y-82715364D01*
X150187534Y-83510054D01*
X147430140Y-84603453D01*
X144767987Y-85882631D01*
X141851314Y-87553732D01*
X139398564Y-89338209D01*
X137383828Y-91259382D01*
X135781201Y-93340574D01*
X135012483Y-94664524D01*
X134597886Y-95432291D01*
X134343339Y-95795680D01*
X134202842Y-95803728D01*
X134142397Y-95592085D01*
X134230512Y-94780561D01*
X134672000Y-93748379D01*
X135412996Y-92561590D01*
X136399638Y-91286246D01*
X137578061Y-89988397D01*
X138894404Y-88734095D01*
X140294802Y-87589391D01*
X141175210Y-86967932D01*
X144143850Y-85214164D01*
X147379297Y-83674559D01*
X150707061Y-82423872D01*
X153744895Y-81582610D01*
X154896006Y-81366190D01*
X156212751Y-81184684D01*
X157590908Y-81044709D01*
X158926250Y-80952881D01*
X160114555Y-80915816D01*
X161051599Y-80940131D01*
G37*
G36*
X184838393Y-91429193D02*
G01*
X185503113Y-91708832D01*
X185629284Y-91774145D01*
X186473749Y-92338559D01*
X186829908Y-92861777D01*
X186694532Y-93338531D01*
X186630093Y-93407204D01*
X186231497Y-93702518D01*
X185470905Y-94184443D01*
X184410950Y-94818599D01*
X183114264Y-95570609D01*
X181643480Y-96406095D01*
X180061230Y-97290679D01*
X178430146Y-98189984D01*
X176812861Y-99069632D01*
X175272007Y-99895245D01*
X173870217Y-100632445D01*
X172670123Y-101246855D01*
X171734357Y-101704096D01*
X171125553Y-101969790D01*
X170932132Y-102023529D01*
X170411280Y-101914528D01*
X169697499Y-101636342D01*
X168931822Y-101262199D01*
X168255283Y-100865324D01*
X167808915Y-100518945D01*
X167708823Y-100349933D01*
X167794754Y-100150016D01*
X168075918Y-99872023D01*
X168587374Y-99494422D01*
X169364182Y-98995685D01*
X170441401Y-98354281D01*
X171854090Y-97548680D01*
X173637309Y-96557352D01*
X175826116Y-95358766D01*
X175916455Y-95309554D01*
X178089974Y-94135109D01*
X179873819Y-93193554D01*
X181307990Y-92465933D01*
X182432482Y-91933292D01*
X183287294Y-91576675D01*
X183912423Y-91377127D01*
X184343986Y-91315686D01*
X184838393Y-91429193D01*
G37*
G36*
X163308831Y-88108446D02*
G01*
X164425578Y-88157015D01*
X165094118Y-88239926D01*
X166670641Y-88645327D01*
X167773964Y-89113631D01*
X168426679Y-89660509D01*
X168651382Y-90301631D01*
X168606894Y-90676200D01*
X168283009Y-91278256D01*
X167813118Y-91725360D01*
X167502703Y-91901668D01*
X167162080Y-91997644D01*
X166685813Y-92013436D01*
X165968463Y-91949194D01*
X164904592Y-91805067D01*
X164393052Y-91730199D01*
X163097885Y-91559444D01*
X161937245Y-91462482D01*
X160748934Y-91434982D01*
X159370751Y-91472616D01*
X157872549Y-91556145D01*
X156455709Y-91659233D01*
X155121284Y-91780075D01*
X153993141Y-91905806D01*
X153195145Y-92023559D01*
X153016667Y-92060530D01*
X150326190Y-92832515D01*
X147901631Y-93790479D01*
X145814064Y-94900979D01*
X144134563Y-96130575D01*
X143887334Y-96356043D01*
X143157998Y-97098559D01*
X142665059Y-97779126D01*
X142322182Y-98563606D01*
X142043031Y-99617866D01*
X141941872Y-100093627D01*
X141735465Y-100648006D01*
X141446976Y-100711960D01*
X141080043Y-100285672D01*
X140945610Y-100043739D01*
X140619398Y-99134295D01*
X140618189Y-98210209D01*
X140961795Y-97180949D01*
X141670026Y-95955983D01*
X141920577Y-95588185D01*
X143039050Y-94326987D01*
X144584233Y-93091906D01*
X146484875Y-91917725D01*
X148669723Y-90839224D01*
X151067525Y-89891188D01*
X153607027Y-89108396D01*
X156216978Y-88525632D01*
X156484567Y-88478764D01*
X157586371Y-88334831D01*
X158948235Y-88222268D01*
X160441624Y-88144639D01*
X161938001Y-88105510D01*
X163308831Y-88108446D01*
G37*
G36*
X147253494Y-76210019D02*
G01*
X147289329Y-76250136D01*
X147599186Y-76920661D01*
X147736056Y-77833536D01*
X147688907Y-78760140D01*
X147446709Y-79471853D01*
X147444911Y-79474607D01*
X147043766Y-79844032D01*
X146233222Y-80382012D01*
X145061084Y-81059589D01*
X143575155Y-81847810D01*
X143271374Y-82002589D01*
X140103019Y-83700588D01*
X137406304Y-85350334D01*
X135159207Y-86969452D01*
X133339705Y-88575566D01*
X131925774Y-90186300D01*
X130895392Y-91819278D01*
X130821963Y-91965410D01*
X130407561Y-92863133D01*
X130161624Y-93605281D01*
X130041128Y-94391323D01*
X130003050Y-95420727D01*
X130001312Y-95770214D01*
X130036148Y-97044930D01*
X130163626Y-97999210D01*
X130411356Y-98806396D01*
X130528296Y-99079039D01*
X131459682Y-100594869D01*
X132809168Y-102032842D01*
X134496830Y-103311408D01*
X134947257Y-103587805D01*
X135830161Y-104153220D01*
X136254998Y-104529955D01*
X136230056Y-104704133D01*
X135763621Y-104661878D01*
X134863980Y-104389315D01*
X134539129Y-104271164D01*
X132518434Y-103313492D01*
X130853569Y-102062286D01*
X129482368Y-100459189D01*
X128349602Y-98460679D01*
X127700363Y-96615324D01*
X127398783Y-94677968D01*
X127458069Y-92798333D01*
X127739197Y-91541309D01*
X128829909Y-88916385D01*
X130323984Y-86426911D01*
X131980561Y-84385626D01*
X133346842Y-83048315D01*
X134879960Y-81743513D01*
X136525780Y-80499990D01*
X138230167Y-79346513D01*
X139938987Y-78311851D01*
X141598107Y-77424772D01*
X143153391Y-76714045D01*
X144550706Y-76208438D01*
X145735918Y-75936719D01*
X146654892Y-75927657D01*
X147253494Y-76210019D01*
G37*
D11*
%TO.C,conectoresOut1*%
X177695000Y-87910000D02*
X177695000Y-103370000D01*
X177695000Y-90090000D02*
X178295000Y-90090000D01*
X177695000Y-92630000D02*
X178295000Y-92630000D01*
X177695000Y-95170000D02*
X178295000Y-95170000D01*
X177695000Y-97710000D02*
X178295000Y-97710000D01*
X177695000Y-100250000D02*
X178295000Y-100250000D01*
X177695000Y-102790000D02*
X178295000Y-102790000D01*
X177695000Y-103370000D02*
X183715000Y-103370000D01*
X178295000Y-88490000D02*
X177695000Y-88490000D01*
X178295000Y-90090000D02*
X178295000Y-88490000D01*
X178295000Y-91030000D02*
X177695000Y-91030000D01*
X178295000Y-92630000D02*
X178295000Y-91030000D01*
X178295000Y-93570000D02*
X177695000Y-93570000D01*
X178295000Y-95170000D02*
X178295000Y-93570000D01*
X178295000Y-96110000D02*
X177695000Y-96110000D01*
X178295000Y-97710000D02*
X178295000Y-96110000D01*
X178295000Y-98650000D02*
X177695000Y-98650000D01*
X178295000Y-100250000D02*
X178295000Y-98650000D01*
X178295000Y-101190000D02*
X177695000Y-101190000D01*
X178295000Y-102790000D02*
X178295000Y-101190000D01*
X178725000Y-103660000D02*
X182725000Y-103660000D01*
X182185000Y-89540000D02*
X182715000Y-89290000D01*
X182185000Y-101740000D02*
X182185000Y-89540000D01*
X182715000Y-89290000D02*
X183715000Y-89290000D01*
X182715000Y-101990000D02*
X182185000Y-101740000D01*
X182715000Y-101990000D02*
X182715000Y-89290000D01*
X183715000Y-87910000D02*
X177695000Y-87910000D01*
X183715000Y-89540000D02*
X182715000Y-89540000D01*
X183715000Y-101740000D02*
X182715000Y-101740000D01*
X183715000Y-101990000D02*
X182715000Y-101990000D01*
X183715000Y-103370000D02*
X183715000Y-87910000D01*
%TD*%
M02*
