%TF.GenerationSoftware,KiCad,Pcbnew,8.0.4*%
%TF.CreationDate,2024-08-09T17:24:14-06:00*%
%TF.ProjectId,computadorayCargaUtil,636f6d70-7574-4616-946f-726179436172,rev?*%
%TF.SameCoordinates,Original*%
%TF.FileFunction,Drillmap*%
%TF.FilePolarity,Positive*%
%FSLAX45Y45*%
G04 Gerber Fmt 4.5, Leading zero omitted, Abs format (unit mm)*
G04 Created by KiCad (PCBNEW 8.0.4) date 2024-08-09 17:24:14*
%MOMM*%
%LPD*%
G01*
G04 APERTURE LIST*
%ADD10C,0.050000*%
%ADD11C,0.200000*%
%ADD12C,0.100000*%
%ADD13C,0.101600*%
%ADD14C,0.119000*%
%ADD15C,0.300000*%
G04 APERTURE END LIST*
D10*
X18951817Y-9415683D02*
G75*
G02*
X12543183Y-9415683I-3204317J0D01*
G01*
X12543183Y-9415683D02*
G75*
G02*
X18951817Y-9415683I3204317J0D01*
G01*
D11*
D12*
X15392794Y-8207500D02*
X15422794Y-8237500D01*
X15422794Y-8207500D02*
X15392794Y-8237500D01*
X16292500Y-8197500D02*
X16322500Y-8227500D01*
X16322500Y-8197500D02*
X16292500Y-8227500D01*
X14084000Y-8157500D02*
G75*
G02*
X14011000Y-8157500I-36500J0D01*
G01*
X14011000Y-8157500D02*
G75*
G02*
X14084000Y-8157500I36500J0D01*
G01*
X14084000Y-8307500D02*
G75*
G02*
X14011000Y-8307500I-36500J0D01*
G01*
X14011000Y-8307500D02*
G75*
G02*
X14084000Y-8307500I36500J0D01*
G01*
X14084000Y-8457500D02*
G75*
G02*
X14011000Y-8457500I-36500J0D01*
G01*
X14011000Y-8457500D02*
G75*
G02*
X14084000Y-8457500I36500J0D01*
G01*
X14084000Y-8607500D02*
G75*
G02*
X14011000Y-8607500I-36500J0D01*
G01*
X14011000Y-8607500D02*
G75*
G02*
X14084000Y-8607500I36500J0D01*
G01*
X14084000Y-8757500D02*
G75*
G02*
X14011000Y-8757500I-36500J0D01*
G01*
X14011000Y-8757500D02*
G75*
G02*
X14084000Y-8757500I36500J0D01*
G01*
X14084000Y-8907500D02*
G75*
G02*
X14011000Y-8907500I-36500J0D01*
G01*
X14011000Y-8907500D02*
G75*
G02*
X14084000Y-8907500I36500J0D01*
G01*
X15502500Y-6334000D02*
X15502500Y-6414000D01*
X15462500Y-6374000D02*
X15542500Y-6374000D01*
X15502500Y-7096000D02*
X15502500Y-7176000D01*
X15462500Y-7136000D02*
X15542500Y-7136000D01*
X16057500Y-6328000D02*
X16057500Y-6408000D01*
X16017500Y-6368000D02*
X16097500Y-6368000D01*
X16057500Y-7090000D02*
X16057500Y-7170000D01*
X16017500Y-7130000D02*
X16097500Y-7130000D01*
X13411088Y-9936088D02*
X13411088Y-9868912D01*
X13343912Y-9868912D01*
X13343912Y-9936088D01*
X13411088Y-9936088D01*
X13411088Y-10186088D02*
X13411088Y-10118912D01*
X13343912Y-10118912D01*
X13343912Y-10186088D01*
X13411088Y-10186088D01*
X13411088Y-10436088D02*
X13411088Y-10368912D01*
X13343912Y-10368912D01*
X13343912Y-10436088D01*
X13411088Y-10436088D01*
D13*
X14351000Y-9956800D02*
X14401800Y-9906000D01*
X14351000Y-9855200D01*
X14300200Y-9906000D01*
X14351000Y-9956800D01*
X14351000Y-10210800D02*
X14401800Y-10160000D01*
X14351000Y-10109200D01*
X14300200Y-10160000D01*
X14351000Y-10210800D01*
X14351000Y-10464800D02*
X14401800Y-10414000D01*
X14351000Y-10363200D01*
X14300200Y-10414000D01*
X14351000Y-10464800D01*
X14351000Y-10718800D02*
X14401800Y-10668000D01*
X14351000Y-10617200D01*
X14300200Y-10668000D01*
X14351000Y-10718800D01*
X14351000Y-10972800D02*
X14401800Y-10922000D01*
X14351000Y-10871200D01*
X14300200Y-10922000D01*
X14351000Y-10972800D01*
X14351000Y-11226800D02*
X14401800Y-11176000D01*
X14351000Y-11125200D01*
X14300200Y-11176000D01*
X14351000Y-11226800D01*
X14351000Y-11480800D02*
X14401800Y-11430000D01*
X14351000Y-11379200D01*
X14300200Y-11430000D01*
X14351000Y-11480800D01*
X14605000Y-9956800D02*
X14655800Y-9906000D01*
X14605000Y-9855200D01*
X14554200Y-9906000D01*
X14605000Y-9956800D01*
X14605000Y-11480800D02*
X14655800Y-11430000D01*
X14605000Y-11379200D01*
X14554200Y-11430000D01*
X14605000Y-11480800D01*
X14859000Y-9956800D02*
X14909800Y-9906000D01*
X14859000Y-9855200D01*
X14808200Y-9906000D01*
X14859000Y-9956800D01*
X14859000Y-11480800D02*
X14909800Y-11430000D01*
X14859000Y-11379200D01*
X14808200Y-11430000D01*
X14859000Y-11480800D01*
X15113000Y-9956800D02*
X15163800Y-9906000D01*
X15113000Y-9855200D01*
X15062200Y-9906000D01*
X15113000Y-9956800D01*
X15113000Y-11480800D02*
X15163800Y-11430000D01*
X15113000Y-11379200D01*
X15062200Y-11430000D01*
X15113000Y-11480800D01*
X15367000Y-9956800D02*
X15417800Y-9906000D01*
X15367000Y-9855200D01*
X15316200Y-9906000D01*
X15367000Y-9956800D01*
X15367000Y-11480800D02*
X15417800Y-11430000D01*
X15367000Y-11379200D01*
X15316200Y-11430000D01*
X15367000Y-11480800D01*
X15621000Y-9956800D02*
X15671800Y-9906000D01*
X15621000Y-9855200D01*
X15570200Y-9906000D01*
X15621000Y-9956800D01*
X15621000Y-11480800D02*
X15671800Y-11430000D01*
X15621000Y-11379200D01*
X15570200Y-11430000D01*
X15621000Y-11480800D01*
X15769000Y-8933300D02*
X15819800Y-8882500D01*
X15769000Y-8831700D01*
X15718200Y-8882500D01*
X15769000Y-8933300D01*
X15875000Y-9956800D02*
X15925800Y-9906000D01*
X15875000Y-9855200D01*
X15824200Y-9906000D01*
X15875000Y-9956800D01*
X15875000Y-11480800D02*
X15925800Y-11430000D01*
X15875000Y-11379200D01*
X15824200Y-11430000D01*
X15875000Y-11480800D01*
X16023000Y-8933300D02*
X16073800Y-8882500D01*
X16023000Y-8831700D01*
X15972200Y-8882500D01*
X16023000Y-8933300D01*
X16129000Y-9956800D02*
X16179800Y-9906000D01*
X16129000Y-9855200D01*
X16078200Y-9906000D01*
X16129000Y-9956800D01*
X16129000Y-11480800D02*
X16179800Y-11430000D01*
X16129000Y-11379200D01*
X16078200Y-11430000D01*
X16129000Y-11480800D01*
X16277000Y-8933300D02*
X16327800Y-8882500D01*
X16277000Y-8831700D01*
X16226200Y-8882500D01*
X16277000Y-8933300D01*
X16383000Y-9956800D02*
X16433800Y-9906000D01*
X16383000Y-9855200D01*
X16332200Y-9906000D01*
X16383000Y-9956800D01*
X16383000Y-11480800D02*
X16433800Y-11430000D01*
X16383000Y-11379200D01*
X16332200Y-11430000D01*
X16383000Y-11480800D01*
X16531000Y-8933300D02*
X16581800Y-8882500D01*
X16531000Y-8831700D01*
X16480200Y-8882500D01*
X16531000Y-8933300D01*
X16637000Y-9956800D02*
X16687800Y-9906000D01*
X16637000Y-9855200D01*
X16586200Y-9906000D01*
X16637000Y-9956800D01*
X16637000Y-11480800D02*
X16687800Y-11430000D01*
X16637000Y-11379200D01*
X16586200Y-11430000D01*
X16637000Y-11480800D01*
X16785000Y-8933300D02*
X16835800Y-8882500D01*
X16785000Y-8831700D01*
X16734200Y-8882500D01*
X16785000Y-8933300D01*
X16891000Y-9956800D02*
X16941800Y-9906000D01*
X16891000Y-9855200D01*
X16840200Y-9906000D01*
X16891000Y-9956800D01*
X16891000Y-10972800D02*
X16941800Y-10922000D01*
X16891000Y-10871200D01*
X16840200Y-10922000D01*
X16891000Y-10972800D01*
X16891000Y-11226800D02*
X16941800Y-11176000D01*
X16891000Y-11125200D01*
X16840200Y-11176000D01*
X16891000Y-11226800D01*
X16891000Y-11480800D02*
X16941800Y-11430000D01*
X16891000Y-11379200D01*
X16840200Y-11430000D01*
X16891000Y-11480800D01*
X17039000Y-8933300D02*
X17089800Y-8882500D01*
X17039000Y-8831700D01*
X16988200Y-8882500D01*
X17039000Y-8933300D01*
X17145000Y-9956800D02*
X17195800Y-9906000D01*
X17145000Y-9855200D01*
X17094200Y-9906000D01*
X17145000Y-9956800D01*
X17145000Y-10210800D02*
X17195800Y-10160000D01*
X17145000Y-10109200D01*
X17094200Y-10160000D01*
X17145000Y-10210800D01*
X17145000Y-10464800D02*
X17195800Y-10414000D01*
X17145000Y-10363200D01*
X17094200Y-10414000D01*
X17145000Y-10464800D01*
X17145000Y-10972800D02*
X17195800Y-10922000D01*
X17145000Y-10871200D01*
X17094200Y-10922000D01*
X17145000Y-10972800D01*
X17145000Y-11226800D02*
X17195800Y-11176000D01*
X17145000Y-11125200D01*
X17094200Y-11176000D01*
X17145000Y-11226800D01*
X17145000Y-11480800D02*
X17195800Y-11430000D01*
X17145000Y-11379200D01*
X17094200Y-11430000D01*
X17145000Y-11480800D01*
X17293000Y-8933300D02*
X17343800Y-8882500D01*
X17293000Y-8831700D01*
X17242200Y-8882500D01*
X17293000Y-8933300D01*
X17547000Y-8933300D02*
X17597800Y-8882500D01*
X17547000Y-8831700D01*
X17496200Y-8882500D01*
X17547000Y-8933300D01*
D14*
X18013000Y-8869500D02*
X18132000Y-8988500D01*
X18132000Y-8869500D02*
X18013000Y-8988500D01*
X18132000Y-8929000D02*
G75*
G02*
X18013000Y-8929000I-59500J0D01*
G01*
X18013000Y-8929000D02*
G75*
G02*
X18132000Y-8929000I59500J0D01*
G01*
X18013000Y-9123500D02*
X18132000Y-9242500D01*
X18132000Y-9123500D02*
X18013000Y-9242500D01*
X18132000Y-9183000D02*
G75*
G02*
X18013000Y-9183000I-59500J0D01*
G01*
X18013000Y-9183000D02*
G75*
G02*
X18132000Y-9183000I59500J0D01*
G01*
X18013000Y-9377500D02*
X18132000Y-9496500D01*
X18132000Y-9377500D02*
X18013000Y-9496500D01*
X18132000Y-9437000D02*
G75*
G02*
X18013000Y-9437000I-59500J0D01*
G01*
X18013000Y-9437000D02*
G75*
G02*
X18132000Y-9437000I59500J0D01*
G01*
X18013000Y-9631500D02*
X18132000Y-9750500D01*
X18132000Y-9631500D02*
X18013000Y-9750500D01*
X18132000Y-9691000D02*
G75*
G02*
X18013000Y-9691000I-59500J0D01*
G01*
X18013000Y-9691000D02*
G75*
G02*
X18132000Y-9691000I59500J0D01*
G01*
X18013000Y-9885500D02*
X18132000Y-10004500D01*
X18132000Y-9885500D02*
X18013000Y-10004500D01*
X18132000Y-9945000D02*
G75*
G02*
X18013000Y-9945000I-59500J0D01*
G01*
X18013000Y-9945000D02*
G75*
G02*
X18132000Y-9945000I59500J0D01*
G01*
X18013000Y-10139500D02*
X18132000Y-10258500D01*
X18132000Y-10139500D02*
X18013000Y-10258500D01*
X18132000Y-10199000D02*
G75*
G02*
X18013000Y-10199000I-59500J0D01*
G01*
X18013000Y-10199000D02*
G75*
G02*
X18132000Y-10199000I59500J0D01*
G01*
D15*
X13060000Y-8280000D02*
X13360000Y-8580000D01*
X13360000Y-8280000D02*
X13060000Y-8580000D01*
X13210000Y-8280000D02*
X13210000Y-8580000D01*
X13060000Y-8430000D02*
X13360000Y-8430000D01*
X15675000Y-12032500D02*
X15975000Y-12332500D01*
X15975000Y-12032500D02*
X15675000Y-12332500D01*
X15825000Y-12032500D02*
X15825000Y-12332500D01*
X15675000Y-12182500D02*
X15975000Y-12182500D01*
X17962500Y-7835000D02*
X18262500Y-8135000D01*
X18262500Y-7835000D02*
X17962500Y-8135000D01*
X18112500Y-7835000D02*
X18112500Y-8135000D01*
X17962500Y-7985000D02*
X18262500Y-7985000D01*
D11*
X12801459Y-12933984D02*
X12801459Y-12733984D01*
X12801459Y-12733984D02*
X12849078Y-12733984D01*
X12849078Y-12733984D02*
X12877650Y-12743508D01*
X12877650Y-12743508D02*
X12896697Y-12762555D01*
X12896697Y-12762555D02*
X12906221Y-12781603D01*
X12906221Y-12781603D02*
X12915745Y-12819698D01*
X12915745Y-12819698D02*
X12915745Y-12848269D01*
X12915745Y-12848269D02*
X12906221Y-12886365D01*
X12906221Y-12886365D02*
X12896697Y-12905412D01*
X12896697Y-12905412D02*
X12877650Y-12924460D01*
X12877650Y-12924460D02*
X12849078Y-12933984D01*
X12849078Y-12933984D02*
X12801459Y-12933984D01*
X13001459Y-12933984D02*
X13001459Y-12800650D01*
X13001459Y-12838746D02*
X13010983Y-12819698D01*
X13010983Y-12819698D02*
X13020507Y-12810174D01*
X13020507Y-12810174D02*
X13039555Y-12800650D01*
X13039555Y-12800650D02*
X13058602Y-12800650D01*
X13125269Y-12933984D02*
X13125269Y-12800650D01*
X13125269Y-12733984D02*
X13115745Y-12743508D01*
X13115745Y-12743508D02*
X13125269Y-12753031D01*
X13125269Y-12753031D02*
X13134793Y-12743508D01*
X13134793Y-12743508D02*
X13125269Y-12733984D01*
X13125269Y-12733984D02*
X13125269Y-12753031D01*
X13249078Y-12933984D02*
X13230031Y-12924460D01*
X13230031Y-12924460D02*
X13220507Y-12905412D01*
X13220507Y-12905412D02*
X13220507Y-12733984D01*
X13353840Y-12933984D02*
X13334793Y-12924460D01*
X13334793Y-12924460D02*
X13325269Y-12905412D01*
X13325269Y-12905412D02*
X13325269Y-12733984D01*
X13582412Y-12933984D02*
X13582412Y-12733984D01*
X13582412Y-12733984D02*
X13649078Y-12876841D01*
X13649078Y-12876841D02*
X13715745Y-12733984D01*
X13715745Y-12733984D02*
X13715745Y-12933984D01*
X13896697Y-12933984D02*
X13896697Y-12829222D01*
X13896697Y-12829222D02*
X13887174Y-12810174D01*
X13887174Y-12810174D02*
X13868126Y-12800650D01*
X13868126Y-12800650D02*
X13830031Y-12800650D01*
X13830031Y-12800650D02*
X13810983Y-12810174D01*
X13896697Y-12924460D02*
X13877650Y-12933984D01*
X13877650Y-12933984D02*
X13830031Y-12933984D01*
X13830031Y-12933984D02*
X13810983Y-12924460D01*
X13810983Y-12924460D02*
X13801459Y-12905412D01*
X13801459Y-12905412D02*
X13801459Y-12886365D01*
X13801459Y-12886365D02*
X13810983Y-12867317D01*
X13810983Y-12867317D02*
X13830031Y-12857793D01*
X13830031Y-12857793D02*
X13877650Y-12857793D01*
X13877650Y-12857793D02*
X13896697Y-12848269D01*
X13991936Y-12800650D02*
X13991936Y-13000650D01*
X13991936Y-12810174D02*
X14010983Y-12800650D01*
X14010983Y-12800650D02*
X14049078Y-12800650D01*
X14049078Y-12800650D02*
X14068126Y-12810174D01*
X14068126Y-12810174D02*
X14077650Y-12819698D01*
X14077650Y-12819698D02*
X14087174Y-12838746D01*
X14087174Y-12838746D02*
X14087174Y-12895888D01*
X14087174Y-12895888D02*
X14077650Y-12914936D01*
X14077650Y-12914936D02*
X14068126Y-12924460D01*
X14068126Y-12924460D02*
X14049078Y-12933984D01*
X14049078Y-12933984D02*
X14010983Y-12933984D01*
X14010983Y-12933984D02*
X13991936Y-12924460D01*
X14172888Y-12914936D02*
X14182412Y-12924460D01*
X14182412Y-12924460D02*
X14172888Y-12933984D01*
X14172888Y-12933984D02*
X14163364Y-12924460D01*
X14163364Y-12924460D02*
X14172888Y-12914936D01*
X14172888Y-12914936D02*
X14172888Y-12933984D01*
X14172888Y-12810174D02*
X14182412Y-12819698D01*
X14182412Y-12819698D02*
X14172888Y-12829222D01*
X14172888Y-12829222D02*
X14163364Y-12819698D01*
X14163364Y-12819698D02*
X14172888Y-12810174D01*
X14172888Y-12810174D02*
X14172888Y-12829222D01*
D12*
X12510683Y-13247500D02*
X12540683Y-13277500D01*
X12540683Y-13247500D02*
X12510683Y-13277500D01*
D11*
X12839555Y-13153984D02*
X12858602Y-13153984D01*
X12858602Y-13153984D02*
X12877650Y-13163508D01*
X12877650Y-13163508D02*
X12887174Y-13173031D01*
X12887174Y-13173031D02*
X12896697Y-13192079D01*
X12896697Y-13192079D02*
X12906221Y-13230174D01*
X12906221Y-13230174D02*
X12906221Y-13277793D01*
X12906221Y-13277793D02*
X12896697Y-13315888D01*
X12896697Y-13315888D02*
X12887174Y-13334936D01*
X12887174Y-13334936D02*
X12877650Y-13344460D01*
X12877650Y-13344460D02*
X12858602Y-13353984D01*
X12858602Y-13353984D02*
X12839555Y-13353984D01*
X12839555Y-13353984D02*
X12820507Y-13344460D01*
X12820507Y-13344460D02*
X12810983Y-13334936D01*
X12810983Y-13334936D02*
X12801459Y-13315888D01*
X12801459Y-13315888D02*
X12791936Y-13277793D01*
X12791936Y-13277793D02*
X12791936Y-13230174D01*
X12791936Y-13230174D02*
X12801459Y-13192079D01*
X12801459Y-13192079D02*
X12810983Y-13173031D01*
X12810983Y-13173031D02*
X12820507Y-13163508D01*
X12820507Y-13163508D02*
X12839555Y-13153984D01*
X12991936Y-13334936D02*
X13001459Y-13344460D01*
X13001459Y-13344460D02*
X12991936Y-13353984D01*
X12991936Y-13353984D02*
X12982412Y-13344460D01*
X12982412Y-13344460D02*
X12991936Y-13334936D01*
X12991936Y-13334936D02*
X12991936Y-13353984D01*
X13068126Y-13153984D02*
X13191936Y-13153984D01*
X13191936Y-13153984D02*
X13125269Y-13230174D01*
X13125269Y-13230174D02*
X13153840Y-13230174D01*
X13153840Y-13230174D02*
X13172888Y-13239698D01*
X13172888Y-13239698D02*
X13182412Y-13249222D01*
X13182412Y-13249222D02*
X13191936Y-13268269D01*
X13191936Y-13268269D02*
X13191936Y-13315888D01*
X13191936Y-13315888D02*
X13182412Y-13334936D01*
X13182412Y-13334936D02*
X13172888Y-13344460D01*
X13172888Y-13344460D02*
X13153840Y-13353984D01*
X13153840Y-13353984D02*
X13096697Y-13353984D01*
X13096697Y-13353984D02*
X13077650Y-13344460D01*
X13077650Y-13344460D02*
X13068126Y-13334936D01*
X13315745Y-13153984D02*
X13334793Y-13153984D01*
X13334793Y-13153984D02*
X13353840Y-13163508D01*
X13353840Y-13163508D02*
X13363364Y-13173031D01*
X13363364Y-13173031D02*
X13372888Y-13192079D01*
X13372888Y-13192079D02*
X13382412Y-13230174D01*
X13382412Y-13230174D02*
X13382412Y-13277793D01*
X13382412Y-13277793D02*
X13372888Y-13315888D01*
X13372888Y-13315888D02*
X13363364Y-13334936D01*
X13363364Y-13334936D02*
X13353840Y-13344460D01*
X13353840Y-13344460D02*
X13334793Y-13353984D01*
X13334793Y-13353984D02*
X13315745Y-13353984D01*
X13315745Y-13353984D02*
X13296697Y-13344460D01*
X13296697Y-13344460D02*
X13287174Y-13334936D01*
X13287174Y-13334936D02*
X13277650Y-13315888D01*
X13277650Y-13315888D02*
X13268126Y-13277793D01*
X13268126Y-13277793D02*
X13268126Y-13230174D01*
X13268126Y-13230174D02*
X13277650Y-13192079D01*
X13277650Y-13192079D02*
X13287174Y-13173031D01*
X13287174Y-13173031D02*
X13296697Y-13163508D01*
X13296697Y-13163508D02*
X13315745Y-13153984D01*
X13506221Y-13153984D02*
X13525269Y-13153984D01*
X13525269Y-13153984D02*
X13544317Y-13163508D01*
X13544317Y-13163508D02*
X13553840Y-13173031D01*
X13553840Y-13173031D02*
X13563364Y-13192079D01*
X13563364Y-13192079D02*
X13572888Y-13230174D01*
X13572888Y-13230174D02*
X13572888Y-13277793D01*
X13572888Y-13277793D02*
X13563364Y-13315888D01*
X13563364Y-13315888D02*
X13553840Y-13334936D01*
X13553840Y-13334936D02*
X13544317Y-13344460D01*
X13544317Y-13344460D02*
X13525269Y-13353984D01*
X13525269Y-13353984D02*
X13506221Y-13353984D01*
X13506221Y-13353984D02*
X13487174Y-13344460D01*
X13487174Y-13344460D02*
X13477650Y-13334936D01*
X13477650Y-13334936D02*
X13468126Y-13315888D01*
X13468126Y-13315888D02*
X13458602Y-13277793D01*
X13458602Y-13277793D02*
X13458602Y-13230174D01*
X13458602Y-13230174D02*
X13468126Y-13192079D01*
X13468126Y-13192079D02*
X13477650Y-13173031D01*
X13477650Y-13173031D02*
X13487174Y-13163508D01*
X13487174Y-13163508D02*
X13506221Y-13153984D01*
X13658602Y-13353984D02*
X13658602Y-13220650D01*
X13658602Y-13239698D02*
X13668126Y-13230174D01*
X13668126Y-13230174D02*
X13687174Y-13220650D01*
X13687174Y-13220650D02*
X13715745Y-13220650D01*
X13715745Y-13220650D02*
X13734793Y-13230174D01*
X13734793Y-13230174D02*
X13744317Y-13249222D01*
X13744317Y-13249222D02*
X13744317Y-13353984D01*
X13744317Y-13249222D02*
X13753840Y-13230174D01*
X13753840Y-13230174D02*
X13772888Y-13220650D01*
X13772888Y-13220650D02*
X13801459Y-13220650D01*
X13801459Y-13220650D02*
X13820507Y-13230174D01*
X13820507Y-13230174D02*
X13830031Y-13249222D01*
X13830031Y-13249222D02*
X13830031Y-13353984D01*
X13925269Y-13353984D02*
X13925269Y-13220650D01*
X13925269Y-13239698D02*
X13934793Y-13230174D01*
X13934793Y-13230174D02*
X13953840Y-13220650D01*
X13953840Y-13220650D02*
X13982412Y-13220650D01*
X13982412Y-13220650D02*
X14001459Y-13230174D01*
X14001459Y-13230174D02*
X14010983Y-13249222D01*
X14010983Y-13249222D02*
X14010983Y-13353984D01*
X14010983Y-13249222D02*
X14020507Y-13230174D01*
X14020507Y-13230174D02*
X14039555Y-13220650D01*
X14039555Y-13220650D02*
X14068126Y-13220650D01*
X14068126Y-13220650D02*
X14087174Y-13230174D01*
X14087174Y-13230174D02*
X14096698Y-13249222D01*
X14096698Y-13249222D02*
X14096698Y-13353984D01*
X14487174Y-13144460D02*
X14315745Y-13401603D01*
X14744317Y-13153984D02*
X14763364Y-13153984D01*
X14763364Y-13153984D02*
X14782412Y-13163508D01*
X14782412Y-13163508D02*
X14791936Y-13173031D01*
X14791936Y-13173031D02*
X14801460Y-13192079D01*
X14801460Y-13192079D02*
X14810983Y-13230174D01*
X14810983Y-13230174D02*
X14810983Y-13277793D01*
X14810983Y-13277793D02*
X14801460Y-13315888D01*
X14801460Y-13315888D02*
X14791936Y-13334936D01*
X14791936Y-13334936D02*
X14782412Y-13344460D01*
X14782412Y-13344460D02*
X14763364Y-13353984D01*
X14763364Y-13353984D02*
X14744317Y-13353984D01*
X14744317Y-13353984D02*
X14725269Y-13344460D01*
X14725269Y-13344460D02*
X14715745Y-13334936D01*
X14715745Y-13334936D02*
X14706221Y-13315888D01*
X14706221Y-13315888D02*
X14696698Y-13277793D01*
X14696698Y-13277793D02*
X14696698Y-13230174D01*
X14696698Y-13230174D02*
X14706221Y-13192079D01*
X14706221Y-13192079D02*
X14715745Y-13173031D01*
X14715745Y-13173031D02*
X14725269Y-13163508D01*
X14725269Y-13163508D02*
X14744317Y-13153984D01*
X14896698Y-13334936D02*
X14906221Y-13344460D01*
X14906221Y-13344460D02*
X14896698Y-13353984D01*
X14896698Y-13353984D02*
X14887174Y-13344460D01*
X14887174Y-13344460D02*
X14896698Y-13334936D01*
X14896698Y-13334936D02*
X14896698Y-13353984D01*
X15030031Y-13153984D02*
X15049079Y-13153984D01*
X15049079Y-13153984D02*
X15068126Y-13163508D01*
X15068126Y-13163508D02*
X15077650Y-13173031D01*
X15077650Y-13173031D02*
X15087174Y-13192079D01*
X15087174Y-13192079D02*
X15096698Y-13230174D01*
X15096698Y-13230174D02*
X15096698Y-13277793D01*
X15096698Y-13277793D02*
X15087174Y-13315888D01*
X15087174Y-13315888D02*
X15077650Y-13334936D01*
X15077650Y-13334936D02*
X15068126Y-13344460D01*
X15068126Y-13344460D02*
X15049079Y-13353984D01*
X15049079Y-13353984D02*
X15030031Y-13353984D01*
X15030031Y-13353984D02*
X15010983Y-13344460D01*
X15010983Y-13344460D02*
X15001460Y-13334936D01*
X15001460Y-13334936D02*
X14991936Y-13315888D01*
X14991936Y-13315888D02*
X14982412Y-13277793D01*
X14982412Y-13277793D02*
X14982412Y-13230174D01*
X14982412Y-13230174D02*
X14991936Y-13192079D01*
X14991936Y-13192079D02*
X15001460Y-13173031D01*
X15001460Y-13173031D02*
X15010983Y-13163508D01*
X15010983Y-13163508D02*
X15030031Y-13153984D01*
X15287174Y-13353984D02*
X15172888Y-13353984D01*
X15230031Y-13353984D02*
X15230031Y-13153984D01*
X15230031Y-13153984D02*
X15210983Y-13182555D01*
X15210983Y-13182555D02*
X15191936Y-13201603D01*
X15191936Y-13201603D02*
X15172888Y-13211127D01*
X15477650Y-13353984D02*
X15363364Y-13353984D01*
X15420507Y-13353984D02*
X15420507Y-13153984D01*
X15420507Y-13153984D02*
X15401460Y-13182555D01*
X15401460Y-13182555D02*
X15382412Y-13201603D01*
X15382412Y-13201603D02*
X15363364Y-13211127D01*
X15591936Y-13239698D02*
X15572888Y-13230174D01*
X15572888Y-13230174D02*
X15563364Y-13220650D01*
X15563364Y-13220650D02*
X15553841Y-13201603D01*
X15553841Y-13201603D02*
X15553841Y-13192079D01*
X15553841Y-13192079D02*
X15563364Y-13173031D01*
X15563364Y-13173031D02*
X15572888Y-13163508D01*
X15572888Y-13163508D02*
X15591936Y-13153984D01*
X15591936Y-13153984D02*
X15630031Y-13153984D01*
X15630031Y-13153984D02*
X15649079Y-13163508D01*
X15649079Y-13163508D02*
X15658602Y-13173031D01*
X15658602Y-13173031D02*
X15668126Y-13192079D01*
X15668126Y-13192079D02*
X15668126Y-13201603D01*
X15668126Y-13201603D02*
X15658602Y-13220650D01*
X15658602Y-13220650D02*
X15649079Y-13230174D01*
X15649079Y-13230174D02*
X15630031Y-13239698D01*
X15630031Y-13239698D02*
X15591936Y-13239698D01*
X15591936Y-13239698D02*
X15572888Y-13249222D01*
X15572888Y-13249222D02*
X15563364Y-13258746D01*
X15563364Y-13258746D02*
X15553841Y-13277793D01*
X15553841Y-13277793D02*
X15553841Y-13315888D01*
X15553841Y-13315888D02*
X15563364Y-13334936D01*
X15563364Y-13334936D02*
X15572888Y-13344460D01*
X15572888Y-13344460D02*
X15591936Y-13353984D01*
X15591936Y-13353984D02*
X15630031Y-13353984D01*
X15630031Y-13353984D02*
X15649079Y-13344460D01*
X15649079Y-13344460D02*
X15658602Y-13334936D01*
X15658602Y-13334936D02*
X15668126Y-13315888D01*
X15668126Y-13315888D02*
X15668126Y-13277793D01*
X15668126Y-13277793D02*
X15658602Y-13258746D01*
X15658602Y-13258746D02*
X15649079Y-13249222D01*
X15649079Y-13249222D02*
X15630031Y-13239698D01*
X15744317Y-13153984D02*
X15744317Y-13192079D01*
X15820507Y-13153984D02*
X15820507Y-13192079D01*
X16115745Y-13430174D02*
X16106222Y-13420650D01*
X16106222Y-13420650D02*
X16087174Y-13392079D01*
X16087174Y-13392079D02*
X16077650Y-13373031D01*
X16077650Y-13373031D02*
X16068126Y-13344460D01*
X16068126Y-13344460D02*
X16058603Y-13296841D01*
X16058603Y-13296841D02*
X16058603Y-13258746D01*
X16058603Y-13258746D02*
X16068126Y-13211127D01*
X16068126Y-13211127D02*
X16077650Y-13182555D01*
X16077650Y-13182555D02*
X16087174Y-13163508D01*
X16087174Y-13163508D02*
X16106222Y-13134936D01*
X16106222Y-13134936D02*
X16115745Y-13125412D01*
X16182412Y-13173031D02*
X16191936Y-13163508D01*
X16191936Y-13163508D02*
X16210983Y-13153984D01*
X16210983Y-13153984D02*
X16258603Y-13153984D01*
X16258603Y-13153984D02*
X16277650Y-13163508D01*
X16277650Y-13163508D02*
X16287174Y-13173031D01*
X16287174Y-13173031D02*
X16296698Y-13192079D01*
X16296698Y-13192079D02*
X16296698Y-13211127D01*
X16296698Y-13211127D02*
X16287174Y-13239698D01*
X16287174Y-13239698D02*
X16172888Y-13353984D01*
X16172888Y-13353984D02*
X16296698Y-13353984D01*
X16534793Y-13353984D02*
X16534793Y-13153984D01*
X16620507Y-13353984D02*
X16620507Y-13249222D01*
X16620507Y-13249222D02*
X16610984Y-13230174D01*
X16610984Y-13230174D02*
X16591936Y-13220650D01*
X16591936Y-13220650D02*
X16563364Y-13220650D01*
X16563364Y-13220650D02*
X16544317Y-13230174D01*
X16544317Y-13230174D02*
X16534793Y-13239698D01*
X16744317Y-13353984D02*
X16725269Y-13344460D01*
X16725269Y-13344460D02*
X16715745Y-13334936D01*
X16715745Y-13334936D02*
X16706222Y-13315888D01*
X16706222Y-13315888D02*
X16706222Y-13258746D01*
X16706222Y-13258746D02*
X16715745Y-13239698D01*
X16715745Y-13239698D02*
X16725269Y-13230174D01*
X16725269Y-13230174D02*
X16744317Y-13220650D01*
X16744317Y-13220650D02*
X16772888Y-13220650D01*
X16772888Y-13220650D02*
X16791936Y-13230174D01*
X16791936Y-13230174D02*
X16801460Y-13239698D01*
X16801460Y-13239698D02*
X16810984Y-13258746D01*
X16810984Y-13258746D02*
X16810984Y-13315888D01*
X16810984Y-13315888D02*
X16801460Y-13334936D01*
X16801460Y-13334936D02*
X16791936Y-13344460D01*
X16791936Y-13344460D02*
X16772888Y-13353984D01*
X16772888Y-13353984D02*
X16744317Y-13353984D01*
X16925269Y-13353984D02*
X16906222Y-13344460D01*
X16906222Y-13344460D02*
X16896698Y-13325412D01*
X16896698Y-13325412D02*
X16896698Y-13153984D01*
X17077650Y-13344460D02*
X17058603Y-13353984D01*
X17058603Y-13353984D02*
X17020507Y-13353984D01*
X17020507Y-13353984D02*
X17001460Y-13344460D01*
X17001460Y-13344460D02*
X16991936Y-13325412D01*
X16991936Y-13325412D02*
X16991936Y-13249222D01*
X16991936Y-13249222D02*
X17001460Y-13230174D01*
X17001460Y-13230174D02*
X17020507Y-13220650D01*
X17020507Y-13220650D02*
X17058603Y-13220650D01*
X17058603Y-13220650D02*
X17077650Y-13230174D01*
X17077650Y-13230174D02*
X17087174Y-13249222D01*
X17087174Y-13249222D02*
X17087174Y-13268269D01*
X17087174Y-13268269D02*
X16991936Y-13287317D01*
X17163365Y-13344460D02*
X17182412Y-13353984D01*
X17182412Y-13353984D02*
X17220507Y-13353984D01*
X17220507Y-13353984D02*
X17239555Y-13344460D01*
X17239555Y-13344460D02*
X17249079Y-13325412D01*
X17249079Y-13325412D02*
X17249079Y-13315888D01*
X17249079Y-13315888D02*
X17239555Y-13296841D01*
X17239555Y-13296841D02*
X17220507Y-13287317D01*
X17220507Y-13287317D02*
X17191936Y-13287317D01*
X17191936Y-13287317D02*
X17172888Y-13277793D01*
X17172888Y-13277793D02*
X17163365Y-13258746D01*
X17163365Y-13258746D02*
X17163365Y-13249222D01*
X17163365Y-13249222D02*
X17172888Y-13230174D01*
X17172888Y-13230174D02*
X17191936Y-13220650D01*
X17191936Y-13220650D02*
X17220507Y-13220650D01*
X17220507Y-13220650D02*
X17239555Y-13230174D01*
X17315746Y-13430174D02*
X17325269Y-13420650D01*
X17325269Y-13420650D02*
X17344317Y-13392079D01*
X17344317Y-13392079D02*
X17353841Y-13373031D01*
X17353841Y-13373031D02*
X17363365Y-13344460D01*
X17363365Y-13344460D02*
X17372888Y-13296841D01*
X17372888Y-13296841D02*
X17372888Y-13258746D01*
X17372888Y-13258746D02*
X17363365Y-13211127D01*
X17363365Y-13211127D02*
X17353841Y-13182555D01*
X17353841Y-13182555D02*
X17344317Y-13163508D01*
X17344317Y-13163508D02*
X17325269Y-13134936D01*
X17325269Y-13134936D02*
X17315746Y-13125412D01*
D12*
X12540683Y-13526500D02*
G75*
G02*
X12467683Y-13526500I-36500J0D01*
G01*
X12467683Y-13526500D02*
G75*
G02*
X12540683Y-13526500I36500J0D01*
G01*
D11*
X12839555Y-13417984D02*
X12858602Y-13417984D01*
X12858602Y-13417984D02*
X12877650Y-13427508D01*
X12877650Y-13427508D02*
X12887174Y-13437031D01*
X12887174Y-13437031D02*
X12896697Y-13456079D01*
X12896697Y-13456079D02*
X12906221Y-13494174D01*
X12906221Y-13494174D02*
X12906221Y-13541793D01*
X12906221Y-13541793D02*
X12896697Y-13579888D01*
X12896697Y-13579888D02*
X12887174Y-13598936D01*
X12887174Y-13598936D02*
X12877650Y-13608460D01*
X12877650Y-13608460D02*
X12858602Y-13617984D01*
X12858602Y-13617984D02*
X12839555Y-13617984D01*
X12839555Y-13617984D02*
X12820507Y-13608460D01*
X12820507Y-13608460D02*
X12810983Y-13598936D01*
X12810983Y-13598936D02*
X12801459Y-13579888D01*
X12801459Y-13579888D02*
X12791936Y-13541793D01*
X12791936Y-13541793D02*
X12791936Y-13494174D01*
X12791936Y-13494174D02*
X12801459Y-13456079D01*
X12801459Y-13456079D02*
X12810983Y-13437031D01*
X12810983Y-13437031D02*
X12820507Y-13427508D01*
X12820507Y-13427508D02*
X12839555Y-13417984D01*
X12991936Y-13598936D02*
X13001459Y-13608460D01*
X13001459Y-13608460D02*
X12991936Y-13617984D01*
X12991936Y-13617984D02*
X12982412Y-13608460D01*
X12982412Y-13608460D02*
X12991936Y-13598936D01*
X12991936Y-13598936D02*
X12991936Y-13617984D01*
X13068126Y-13417984D02*
X13201459Y-13417984D01*
X13201459Y-13417984D02*
X13115745Y-13617984D01*
X13258602Y-13417984D02*
X13382412Y-13417984D01*
X13382412Y-13417984D02*
X13315745Y-13494174D01*
X13315745Y-13494174D02*
X13344317Y-13494174D01*
X13344317Y-13494174D02*
X13363364Y-13503698D01*
X13363364Y-13503698D02*
X13372888Y-13513222D01*
X13372888Y-13513222D02*
X13382412Y-13532269D01*
X13382412Y-13532269D02*
X13382412Y-13579888D01*
X13382412Y-13579888D02*
X13372888Y-13598936D01*
X13372888Y-13598936D02*
X13363364Y-13608460D01*
X13363364Y-13608460D02*
X13344317Y-13617984D01*
X13344317Y-13617984D02*
X13287174Y-13617984D01*
X13287174Y-13617984D02*
X13268126Y-13608460D01*
X13268126Y-13608460D02*
X13258602Y-13598936D01*
X13506221Y-13417984D02*
X13525269Y-13417984D01*
X13525269Y-13417984D02*
X13544317Y-13427508D01*
X13544317Y-13427508D02*
X13553840Y-13437031D01*
X13553840Y-13437031D02*
X13563364Y-13456079D01*
X13563364Y-13456079D02*
X13572888Y-13494174D01*
X13572888Y-13494174D02*
X13572888Y-13541793D01*
X13572888Y-13541793D02*
X13563364Y-13579888D01*
X13563364Y-13579888D02*
X13553840Y-13598936D01*
X13553840Y-13598936D02*
X13544317Y-13608460D01*
X13544317Y-13608460D02*
X13525269Y-13617984D01*
X13525269Y-13617984D02*
X13506221Y-13617984D01*
X13506221Y-13617984D02*
X13487174Y-13608460D01*
X13487174Y-13608460D02*
X13477650Y-13598936D01*
X13477650Y-13598936D02*
X13468126Y-13579888D01*
X13468126Y-13579888D02*
X13458602Y-13541793D01*
X13458602Y-13541793D02*
X13458602Y-13494174D01*
X13458602Y-13494174D02*
X13468126Y-13456079D01*
X13468126Y-13456079D02*
X13477650Y-13437031D01*
X13477650Y-13437031D02*
X13487174Y-13427508D01*
X13487174Y-13427508D02*
X13506221Y-13417984D01*
X13658602Y-13617984D02*
X13658602Y-13484650D01*
X13658602Y-13503698D02*
X13668126Y-13494174D01*
X13668126Y-13494174D02*
X13687174Y-13484650D01*
X13687174Y-13484650D02*
X13715745Y-13484650D01*
X13715745Y-13484650D02*
X13734793Y-13494174D01*
X13734793Y-13494174D02*
X13744317Y-13513222D01*
X13744317Y-13513222D02*
X13744317Y-13617984D01*
X13744317Y-13513222D02*
X13753840Y-13494174D01*
X13753840Y-13494174D02*
X13772888Y-13484650D01*
X13772888Y-13484650D02*
X13801459Y-13484650D01*
X13801459Y-13484650D02*
X13820507Y-13494174D01*
X13820507Y-13494174D02*
X13830031Y-13513222D01*
X13830031Y-13513222D02*
X13830031Y-13617984D01*
X13925269Y-13617984D02*
X13925269Y-13484650D01*
X13925269Y-13503698D02*
X13934793Y-13494174D01*
X13934793Y-13494174D02*
X13953840Y-13484650D01*
X13953840Y-13484650D02*
X13982412Y-13484650D01*
X13982412Y-13484650D02*
X14001459Y-13494174D01*
X14001459Y-13494174D02*
X14010983Y-13513222D01*
X14010983Y-13513222D02*
X14010983Y-13617984D01*
X14010983Y-13513222D02*
X14020507Y-13494174D01*
X14020507Y-13494174D02*
X14039555Y-13484650D01*
X14039555Y-13484650D02*
X14068126Y-13484650D01*
X14068126Y-13484650D02*
X14087174Y-13494174D01*
X14087174Y-13494174D02*
X14096698Y-13513222D01*
X14096698Y-13513222D02*
X14096698Y-13617984D01*
X14487174Y-13408460D02*
X14315745Y-13665603D01*
X14744317Y-13417984D02*
X14763364Y-13417984D01*
X14763364Y-13417984D02*
X14782412Y-13427508D01*
X14782412Y-13427508D02*
X14791936Y-13437031D01*
X14791936Y-13437031D02*
X14801460Y-13456079D01*
X14801460Y-13456079D02*
X14810983Y-13494174D01*
X14810983Y-13494174D02*
X14810983Y-13541793D01*
X14810983Y-13541793D02*
X14801460Y-13579888D01*
X14801460Y-13579888D02*
X14791936Y-13598936D01*
X14791936Y-13598936D02*
X14782412Y-13608460D01*
X14782412Y-13608460D02*
X14763364Y-13617984D01*
X14763364Y-13617984D02*
X14744317Y-13617984D01*
X14744317Y-13617984D02*
X14725269Y-13608460D01*
X14725269Y-13608460D02*
X14715745Y-13598936D01*
X14715745Y-13598936D02*
X14706221Y-13579888D01*
X14706221Y-13579888D02*
X14696698Y-13541793D01*
X14696698Y-13541793D02*
X14696698Y-13494174D01*
X14696698Y-13494174D02*
X14706221Y-13456079D01*
X14706221Y-13456079D02*
X14715745Y-13437031D01*
X14715745Y-13437031D02*
X14725269Y-13427508D01*
X14725269Y-13427508D02*
X14744317Y-13417984D01*
X14896698Y-13598936D02*
X14906221Y-13608460D01*
X14906221Y-13608460D02*
X14896698Y-13617984D01*
X14896698Y-13617984D02*
X14887174Y-13608460D01*
X14887174Y-13608460D02*
X14896698Y-13598936D01*
X14896698Y-13598936D02*
X14896698Y-13617984D01*
X15030031Y-13417984D02*
X15049079Y-13417984D01*
X15049079Y-13417984D02*
X15068126Y-13427508D01*
X15068126Y-13427508D02*
X15077650Y-13437031D01*
X15077650Y-13437031D02*
X15087174Y-13456079D01*
X15087174Y-13456079D02*
X15096698Y-13494174D01*
X15096698Y-13494174D02*
X15096698Y-13541793D01*
X15096698Y-13541793D02*
X15087174Y-13579888D01*
X15087174Y-13579888D02*
X15077650Y-13598936D01*
X15077650Y-13598936D02*
X15068126Y-13608460D01*
X15068126Y-13608460D02*
X15049079Y-13617984D01*
X15049079Y-13617984D02*
X15030031Y-13617984D01*
X15030031Y-13617984D02*
X15010983Y-13608460D01*
X15010983Y-13608460D02*
X15001460Y-13598936D01*
X15001460Y-13598936D02*
X14991936Y-13579888D01*
X14991936Y-13579888D02*
X14982412Y-13541793D01*
X14982412Y-13541793D02*
X14982412Y-13494174D01*
X14982412Y-13494174D02*
X14991936Y-13456079D01*
X14991936Y-13456079D02*
X15001460Y-13437031D01*
X15001460Y-13437031D02*
X15010983Y-13427508D01*
X15010983Y-13427508D02*
X15030031Y-13417984D01*
X15172888Y-13437031D02*
X15182412Y-13427508D01*
X15182412Y-13427508D02*
X15201460Y-13417984D01*
X15201460Y-13417984D02*
X15249079Y-13417984D01*
X15249079Y-13417984D02*
X15268126Y-13427508D01*
X15268126Y-13427508D02*
X15277650Y-13437031D01*
X15277650Y-13437031D02*
X15287174Y-13456079D01*
X15287174Y-13456079D02*
X15287174Y-13475127D01*
X15287174Y-13475127D02*
X15277650Y-13503698D01*
X15277650Y-13503698D02*
X15163364Y-13617984D01*
X15163364Y-13617984D02*
X15287174Y-13617984D01*
X15401460Y-13503698D02*
X15382412Y-13494174D01*
X15382412Y-13494174D02*
X15372888Y-13484650D01*
X15372888Y-13484650D02*
X15363364Y-13465603D01*
X15363364Y-13465603D02*
X15363364Y-13456079D01*
X15363364Y-13456079D02*
X15372888Y-13437031D01*
X15372888Y-13437031D02*
X15382412Y-13427508D01*
X15382412Y-13427508D02*
X15401460Y-13417984D01*
X15401460Y-13417984D02*
X15439555Y-13417984D01*
X15439555Y-13417984D02*
X15458602Y-13427508D01*
X15458602Y-13427508D02*
X15468126Y-13437031D01*
X15468126Y-13437031D02*
X15477650Y-13456079D01*
X15477650Y-13456079D02*
X15477650Y-13465603D01*
X15477650Y-13465603D02*
X15468126Y-13484650D01*
X15468126Y-13484650D02*
X15458602Y-13494174D01*
X15458602Y-13494174D02*
X15439555Y-13503698D01*
X15439555Y-13503698D02*
X15401460Y-13503698D01*
X15401460Y-13503698D02*
X15382412Y-13513222D01*
X15382412Y-13513222D02*
X15372888Y-13522746D01*
X15372888Y-13522746D02*
X15363364Y-13541793D01*
X15363364Y-13541793D02*
X15363364Y-13579888D01*
X15363364Y-13579888D02*
X15372888Y-13598936D01*
X15372888Y-13598936D02*
X15382412Y-13608460D01*
X15382412Y-13608460D02*
X15401460Y-13617984D01*
X15401460Y-13617984D02*
X15439555Y-13617984D01*
X15439555Y-13617984D02*
X15458602Y-13608460D01*
X15458602Y-13608460D02*
X15468126Y-13598936D01*
X15468126Y-13598936D02*
X15477650Y-13579888D01*
X15477650Y-13579888D02*
X15477650Y-13541793D01*
X15477650Y-13541793D02*
X15468126Y-13522746D01*
X15468126Y-13522746D02*
X15458602Y-13513222D01*
X15458602Y-13513222D02*
X15439555Y-13503698D01*
X15544317Y-13417984D02*
X15677650Y-13417984D01*
X15677650Y-13417984D02*
X15591936Y-13617984D01*
X15744317Y-13417984D02*
X15744317Y-13456079D01*
X15820507Y-13417984D02*
X15820507Y-13456079D01*
X16115745Y-13694174D02*
X16106222Y-13684650D01*
X16106222Y-13684650D02*
X16087174Y-13656079D01*
X16087174Y-13656079D02*
X16077650Y-13637031D01*
X16077650Y-13637031D02*
X16068126Y-13608460D01*
X16068126Y-13608460D02*
X16058603Y-13560841D01*
X16058603Y-13560841D02*
X16058603Y-13522746D01*
X16058603Y-13522746D02*
X16068126Y-13475127D01*
X16068126Y-13475127D02*
X16077650Y-13446555D01*
X16077650Y-13446555D02*
X16087174Y-13427508D01*
X16087174Y-13427508D02*
X16106222Y-13398936D01*
X16106222Y-13398936D02*
X16115745Y-13389412D01*
X16277650Y-13417984D02*
X16239555Y-13417984D01*
X16239555Y-13417984D02*
X16220507Y-13427508D01*
X16220507Y-13427508D02*
X16210983Y-13437031D01*
X16210983Y-13437031D02*
X16191936Y-13465603D01*
X16191936Y-13465603D02*
X16182412Y-13503698D01*
X16182412Y-13503698D02*
X16182412Y-13579888D01*
X16182412Y-13579888D02*
X16191936Y-13598936D01*
X16191936Y-13598936D02*
X16201460Y-13608460D01*
X16201460Y-13608460D02*
X16220507Y-13617984D01*
X16220507Y-13617984D02*
X16258603Y-13617984D01*
X16258603Y-13617984D02*
X16277650Y-13608460D01*
X16277650Y-13608460D02*
X16287174Y-13598936D01*
X16287174Y-13598936D02*
X16296698Y-13579888D01*
X16296698Y-13579888D02*
X16296698Y-13532269D01*
X16296698Y-13532269D02*
X16287174Y-13513222D01*
X16287174Y-13513222D02*
X16277650Y-13503698D01*
X16277650Y-13503698D02*
X16258603Y-13494174D01*
X16258603Y-13494174D02*
X16220507Y-13494174D01*
X16220507Y-13494174D02*
X16201460Y-13503698D01*
X16201460Y-13503698D02*
X16191936Y-13513222D01*
X16191936Y-13513222D02*
X16182412Y-13532269D01*
X16534793Y-13617984D02*
X16534793Y-13417984D01*
X16620507Y-13617984D02*
X16620507Y-13513222D01*
X16620507Y-13513222D02*
X16610984Y-13494174D01*
X16610984Y-13494174D02*
X16591936Y-13484650D01*
X16591936Y-13484650D02*
X16563364Y-13484650D01*
X16563364Y-13484650D02*
X16544317Y-13494174D01*
X16544317Y-13494174D02*
X16534793Y-13503698D01*
X16744317Y-13617984D02*
X16725269Y-13608460D01*
X16725269Y-13608460D02*
X16715745Y-13598936D01*
X16715745Y-13598936D02*
X16706222Y-13579888D01*
X16706222Y-13579888D02*
X16706222Y-13522746D01*
X16706222Y-13522746D02*
X16715745Y-13503698D01*
X16715745Y-13503698D02*
X16725269Y-13494174D01*
X16725269Y-13494174D02*
X16744317Y-13484650D01*
X16744317Y-13484650D02*
X16772888Y-13484650D01*
X16772888Y-13484650D02*
X16791936Y-13494174D01*
X16791936Y-13494174D02*
X16801460Y-13503698D01*
X16801460Y-13503698D02*
X16810984Y-13522746D01*
X16810984Y-13522746D02*
X16810984Y-13579888D01*
X16810984Y-13579888D02*
X16801460Y-13598936D01*
X16801460Y-13598936D02*
X16791936Y-13608460D01*
X16791936Y-13608460D02*
X16772888Y-13617984D01*
X16772888Y-13617984D02*
X16744317Y-13617984D01*
X16925269Y-13617984D02*
X16906222Y-13608460D01*
X16906222Y-13608460D02*
X16896698Y-13589412D01*
X16896698Y-13589412D02*
X16896698Y-13417984D01*
X17077650Y-13608460D02*
X17058603Y-13617984D01*
X17058603Y-13617984D02*
X17020507Y-13617984D01*
X17020507Y-13617984D02*
X17001460Y-13608460D01*
X17001460Y-13608460D02*
X16991936Y-13589412D01*
X16991936Y-13589412D02*
X16991936Y-13513222D01*
X16991936Y-13513222D02*
X17001460Y-13494174D01*
X17001460Y-13494174D02*
X17020507Y-13484650D01*
X17020507Y-13484650D02*
X17058603Y-13484650D01*
X17058603Y-13484650D02*
X17077650Y-13494174D01*
X17077650Y-13494174D02*
X17087174Y-13513222D01*
X17087174Y-13513222D02*
X17087174Y-13532269D01*
X17087174Y-13532269D02*
X16991936Y-13551317D01*
X17163365Y-13608460D02*
X17182412Y-13617984D01*
X17182412Y-13617984D02*
X17220507Y-13617984D01*
X17220507Y-13617984D02*
X17239555Y-13608460D01*
X17239555Y-13608460D02*
X17249079Y-13589412D01*
X17249079Y-13589412D02*
X17249079Y-13579888D01*
X17249079Y-13579888D02*
X17239555Y-13560841D01*
X17239555Y-13560841D02*
X17220507Y-13551317D01*
X17220507Y-13551317D02*
X17191936Y-13551317D01*
X17191936Y-13551317D02*
X17172888Y-13541793D01*
X17172888Y-13541793D02*
X17163365Y-13522746D01*
X17163365Y-13522746D02*
X17163365Y-13513222D01*
X17163365Y-13513222D02*
X17172888Y-13494174D01*
X17172888Y-13494174D02*
X17191936Y-13484650D01*
X17191936Y-13484650D02*
X17220507Y-13484650D01*
X17220507Y-13484650D02*
X17239555Y-13494174D01*
X17315746Y-13694174D02*
X17325269Y-13684650D01*
X17325269Y-13684650D02*
X17344317Y-13656079D01*
X17344317Y-13656079D02*
X17353841Y-13637031D01*
X17353841Y-13637031D02*
X17363365Y-13608460D01*
X17363365Y-13608460D02*
X17372888Y-13560841D01*
X17372888Y-13560841D02*
X17372888Y-13522746D01*
X17372888Y-13522746D02*
X17363365Y-13475127D01*
X17363365Y-13475127D02*
X17353841Y-13446555D01*
X17353841Y-13446555D02*
X17344317Y-13427508D01*
X17344317Y-13427508D02*
X17325269Y-13398936D01*
X17325269Y-13398936D02*
X17315746Y-13389412D01*
D12*
X12500683Y-13750500D02*
X12500683Y-13830500D01*
X12460683Y-13790500D02*
X12540683Y-13790500D01*
D11*
X12839555Y-13681984D02*
X12858602Y-13681984D01*
X12858602Y-13681984D02*
X12877650Y-13691508D01*
X12877650Y-13691508D02*
X12887174Y-13701031D01*
X12887174Y-13701031D02*
X12896697Y-13720079D01*
X12896697Y-13720079D02*
X12906221Y-13758174D01*
X12906221Y-13758174D02*
X12906221Y-13805793D01*
X12906221Y-13805793D02*
X12896697Y-13843888D01*
X12896697Y-13843888D02*
X12887174Y-13862936D01*
X12887174Y-13862936D02*
X12877650Y-13872460D01*
X12877650Y-13872460D02*
X12858602Y-13881984D01*
X12858602Y-13881984D02*
X12839555Y-13881984D01*
X12839555Y-13881984D02*
X12820507Y-13872460D01*
X12820507Y-13872460D02*
X12810983Y-13862936D01*
X12810983Y-13862936D02*
X12801459Y-13843888D01*
X12801459Y-13843888D02*
X12791936Y-13805793D01*
X12791936Y-13805793D02*
X12791936Y-13758174D01*
X12791936Y-13758174D02*
X12801459Y-13720079D01*
X12801459Y-13720079D02*
X12810983Y-13701031D01*
X12810983Y-13701031D02*
X12820507Y-13691508D01*
X12820507Y-13691508D02*
X12839555Y-13681984D01*
X12991936Y-13862936D02*
X13001459Y-13872460D01*
X13001459Y-13872460D02*
X12991936Y-13881984D01*
X12991936Y-13881984D02*
X12982412Y-13872460D01*
X12982412Y-13872460D02*
X12991936Y-13862936D01*
X12991936Y-13862936D02*
X12991936Y-13881984D01*
X13115745Y-13767698D02*
X13096697Y-13758174D01*
X13096697Y-13758174D02*
X13087174Y-13748650D01*
X13087174Y-13748650D02*
X13077650Y-13729603D01*
X13077650Y-13729603D02*
X13077650Y-13720079D01*
X13077650Y-13720079D02*
X13087174Y-13701031D01*
X13087174Y-13701031D02*
X13096697Y-13691508D01*
X13096697Y-13691508D02*
X13115745Y-13681984D01*
X13115745Y-13681984D02*
X13153840Y-13681984D01*
X13153840Y-13681984D02*
X13172888Y-13691508D01*
X13172888Y-13691508D02*
X13182412Y-13701031D01*
X13182412Y-13701031D02*
X13191936Y-13720079D01*
X13191936Y-13720079D02*
X13191936Y-13729603D01*
X13191936Y-13729603D02*
X13182412Y-13748650D01*
X13182412Y-13748650D02*
X13172888Y-13758174D01*
X13172888Y-13758174D02*
X13153840Y-13767698D01*
X13153840Y-13767698D02*
X13115745Y-13767698D01*
X13115745Y-13767698D02*
X13096697Y-13777222D01*
X13096697Y-13777222D02*
X13087174Y-13786746D01*
X13087174Y-13786746D02*
X13077650Y-13805793D01*
X13077650Y-13805793D02*
X13077650Y-13843888D01*
X13077650Y-13843888D02*
X13087174Y-13862936D01*
X13087174Y-13862936D02*
X13096697Y-13872460D01*
X13096697Y-13872460D02*
X13115745Y-13881984D01*
X13115745Y-13881984D02*
X13153840Y-13881984D01*
X13153840Y-13881984D02*
X13172888Y-13872460D01*
X13172888Y-13872460D02*
X13182412Y-13862936D01*
X13182412Y-13862936D02*
X13191936Y-13843888D01*
X13191936Y-13843888D02*
X13191936Y-13805793D01*
X13191936Y-13805793D02*
X13182412Y-13786746D01*
X13182412Y-13786746D02*
X13172888Y-13777222D01*
X13172888Y-13777222D02*
X13153840Y-13767698D01*
X13315745Y-13681984D02*
X13334793Y-13681984D01*
X13334793Y-13681984D02*
X13353840Y-13691508D01*
X13353840Y-13691508D02*
X13363364Y-13701031D01*
X13363364Y-13701031D02*
X13372888Y-13720079D01*
X13372888Y-13720079D02*
X13382412Y-13758174D01*
X13382412Y-13758174D02*
X13382412Y-13805793D01*
X13382412Y-13805793D02*
X13372888Y-13843888D01*
X13372888Y-13843888D02*
X13363364Y-13862936D01*
X13363364Y-13862936D02*
X13353840Y-13872460D01*
X13353840Y-13872460D02*
X13334793Y-13881984D01*
X13334793Y-13881984D02*
X13315745Y-13881984D01*
X13315745Y-13881984D02*
X13296697Y-13872460D01*
X13296697Y-13872460D02*
X13287174Y-13862936D01*
X13287174Y-13862936D02*
X13277650Y-13843888D01*
X13277650Y-13843888D02*
X13268126Y-13805793D01*
X13268126Y-13805793D02*
X13268126Y-13758174D01*
X13268126Y-13758174D02*
X13277650Y-13720079D01*
X13277650Y-13720079D02*
X13287174Y-13701031D01*
X13287174Y-13701031D02*
X13296697Y-13691508D01*
X13296697Y-13691508D02*
X13315745Y-13681984D01*
X13506221Y-13681984D02*
X13525269Y-13681984D01*
X13525269Y-13681984D02*
X13544317Y-13691508D01*
X13544317Y-13691508D02*
X13553840Y-13701031D01*
X13553840Y-13701031D02*
X13563364Y-13720079D01*
X13563364Y-13720079D02*
X13572888Y-13758174D01*
X13572888Y-13758174D02*
X13572888Y-13805793D01*
X13572888Y-13805793D02*
X13563364Y-13843888D01*
X13563364Y-13843888D02*
X13553840Y-13862936D01*
X13553840Y-13862936D02*
X13544317Y-13872460D01*
X13544317Y-13872460D02*
X13525269Y-13881984D01*
X13525269Y-13881984D02*
X13506221Y-13881984D01*
X13506221Y-13881984D02*
X13487174Y-13872460D01*
X13487174Y-13872460D02*
X13477650Y-13862936D01*
X13477650Y-13862936D02*
X13468126Y-13843888D01*
X13468126Y-13843888D02*
X13458602Y-13805793D01*
X13458602Y-13805793D02*
X13458602Y-13758174D01*
X13458602Y-13758174D02*
X13468126Y-13720079D01*
X13468126Y-13720079D02*
X13477650Y-13701031D01*
X13477650Y-13701031D02*
X13487174Y-13691508D01*
X13487174Y-13691508D02*
X13506221Y-13681984D01*
X13658602Y-13881984D02*
X13658602Y-13748650D01*
X13658602Y-13767698D02*
X13668126Y-13758174D01*
X13668126Y-13758174D02*
X13687174Y-13748650D01*
X13687174Y-13748650D02*
X13715745Y-13748650D01*
X13715745Y-13748650D02*
X13734793Y-13758174D01*
X13734793Y-13758174D02*
X13744317Y-13777222D01*
X13744317Y-13777222D02*
X13744317Y-13881984D01*
X13744317Y-13777222D02*
X13753840Y-13758174D01*
X13753840Y-13758174D02*
X13772888Y-13748650D01*
X13772888Y-13748650D02*
X13801459Y-13748650D01*
X13801459Y-13748650D02*
X13820507Y-13758174D01*
X13820507Y-13758174D02*
X13830031Y-13777222D01*
X13830031Y-13777222D02*
X13830031Y-13881984D01*
X13925269Y-13881984D02*
X13925269Y-13748650D01*
X13925269Y-13767698D02*
X13934793Y-13758174D01*
X13934793Y-13758174D02*
X13953840Y-13748650D01*
X13953840Y-13748650D02*
X13982412Y-13748650D01*
X13982412Y-13748650D02*
X14001459Y-13758174D01*
X14001459Y-13758174D02*
X14010983Y-13777222D01*
X14010983Y-13777222D02*
X14010983Y-13881984D01*
X14010983Y-13777222D02*
X14020507Y-13758174D01*
X14020507Y-13758174D02*
X14039555Y-13748650D01*
X14039555Y-13748650D02*
X14068126Y-13748650D01*
X14068126Y-13748650D02*
X14087174Y-13758174D01*
X14087174Y-13758174D02*
X14096698Y-13777222D01*
X14096698Y-13777222D02*
X14096698Y-13881984D01*
X14487174Y-13672460D02*
X14315745Y-13929603D01*
X14744317Y-13681984D02*
X14763364Y-13681984D01*
X14763364Y-13681984D02*
X14782412Y-13691508D01*
X14782412Y-13691508D02*
X14791936Y-13701031D01*
X14791936Y-13701031D02*
X14801460Y-13720079D01*
X14801460Y-13720079D02*
X14810983Y-13758174D01*
X14810983Y-13758174D02*
X14810983Y-13805793D01*
X14810983Y-13805793D02*
X14801460Y-13843888D01*
X14801460Y-13843888D02*
X14791936Y-13862936D01*
X14791936Y-13862936D02*
X14782412Y-13872460D01*
X14782412Y-13872460D02*
X14763364Y-13881984D01*
X14763364Y-13881984D02*
X14744317Y-13881984D01*
X14744317Y-13881984D02*
X14725269Y-13872460D01*
X14725269Y-13872460D02*
X14715745Y-13862936D01*
X14715745Y-13862936D02*
X14706221Y-13843888D01*
X14706221Y-13843888D02*
X14696698Y-13805793D01*
X14696698Y-13805793D02*
X14696698Y-13758174D01*
X14696698Y-13758174D02*
X14706221Y-13720079D01*
X14706221Y-13720079D02*
X14715745Y-13701031D01*
X14715745Y-13701031D02*
X14725269Y-13691508D01*
X14725269Y-13691508D02*
X14744317Y-13681984D01*
X14896698Y-13862936D02*
X14906221Y-13872460D01*
X14906221Y-13872460D02*
X14896698Y-13881984D01*
X14896698Y-13881984D02*
X14887174Y-13872460D01*
X14887174Y-13872460D02*
X14896698Y-13862936D01*
X14896698Y-13862936D02*
X14896698Y-13881984D01*
X15030031Y-13681984D02*
X15049079Y-13681984D01*
X15049079Y-13681984D02*
X15068126Y-13691508D01*
X15068126Y-13691508D02*
X15077650Y-13701031D01*
X15077650Y-13701031D02*
X15087174Y-13720079D01*
X15087174Y-13720079D02*
X15096698Y-13758174D01*
X15096698Y-13758174D02*
X15096698Y-13805793D01*
X15096698Y-13805793D02*
X15087174Y-13843888D01*
X15087174Y-13843888D02*
X15077650Y-13862936D01*
X15077650Y-13862936D02*
X15068126Y-13872460D01*
X15068126Y-13872460D02*
X15049079Y-13881984D01*
X15049079Y-13881984D02*
X15030031Y-13881984D01*
X15030031Y-13881984D02*
X15010983Y-13872460D01*
X15010983Y-13872460D02*
X15001460Y-13862936D01*
X15001460Y-13862936D02*
X14991936Y-13843888D01*
X14991936Y-13843888D02*
X14982412Y-13805793D01*
X14982412Y-13805793D02*
X14982412Y-13758174D01*
X14982412Y-13758174D02*
X14991936Y-13720079D01*
X14991936Y-13720079D02*
X15001460Y-13701031D01*
X15001460Y-13701031D02*
X15010983Y-13691508D01*
X15010983Y-13691508D02*
X15030031Y-13681984D01*
X15163364Y-13681984D02*
X15287174Y-13681984D01*
X15287174Y-13681984D02*
X15220507Y-13758174D01*
X15220507Y-13758174D02*
X15249079Y-13758174D01*
X15249079Y-13758174D02*
X15268126Y-13767698D01*
X15268126Y-13767698D02*
X15277650Y-13777222D01*
X15277650Y-13777222D02*
X15287174Y-13796269D01*
X15287174Y-13796269D02*
X15287174Y-13843888D01*
X15287174Y-13843888D02*
X15277650Y-13862936D01*
X15277650Y-13862936D02*
X15268126Y-13872460D01*
X15268126Y-13872460D02*
X15249079Y-13881984D01*
X15249079Y-13881984D02*
X15191936Y-13881984D01*
X15191936Y-13881984D02*
X15172888Y-13872460D01*
X15172888Y-13872460D02*
X15163364Y-13862936D01*
X15477650Y-13881984D02*
X15363364Y-13881984D01*
X15420507Y-13881984D02*
X15420507Y-13681984D01*
X15420507Y-13681984D02*
X15401460Y-13710555D01*
X15401460Y-13710555D02*
X15382412Y-13729603D01*
X15382412Y-13729603D02*
X15363364Y-13739127D01*
X15658602Y-13681984D02*
X15563364Y-13681984D01*
X15563364Y-13681984D02*
X15553841Y-13777222D01*
X15553841Y-13777222D02*
X15563364Y-13767698D01*
X15563364Y-13767698D02*
X15582412Y-13758174D01*
X15582412Y-13758174D02*
X15630031Y-13758174D01*
X15630031Y-13758174D02*
X15649079Y-13767698D01*
X15649079Y-13767698D02*
X15658602Y-13777222D01*
X15658602Y-13777222D02*
X15668126Y-13796269D01*
X15668126Y-13796269D02*
X15668126Y-13843888D01*
X15668126Y-13843888D02*
X15658602Y-13862936D01*
X15658602Y-13862936D02*
X15649079Y-13872460D01*
X15649079Y-13872460D02*
X15630031Y-13881984D01*
X15630031Y-13881984D02*
X15582412Y-13881984D01*
X15582412Y-13881984D02*
X15563364Y-13872460D01*
X15563364Y-13872460D02*
X15553841Y-13862936D01*
X15744317Y-13681984D02*
X15744317Y-13720079D01*
X15820507Y-13681984D02*
X15820507Y-13720079D01*
X16115745Y-13958174D02*
X16106222Y-13948650D01*
X16106222Y-13948650D02*
X16087174Y-13920079D01*
X16087174Y-13920079D02*
X16077650Y-13901031D01*
X16077650Y-13901031D02*
X16068126Y-13872460D01*
X16068126Y-13872460D02*
X16058603Y-13824841D01*
X16058603Y-13824841D02*
X16058603Y-13786746D01*
X16058603Y-13786746D02*
X16068126Y-13739127D01*
X16068126Y-13739127D02*
X16077650Y-13710555D01*
X16077650Y-13710555D02*
X16087174Y-13691508D01*
X16087174Y-13691508D02*
X16106222Y-13662936D01*
X16106222Y-13662936D02*
X16115745Y-13653412D01*
X16277650Y-13748650D02*
X16277650Y-13881984D01*
X16230031Y-13672460D02*
X16182412Y-13815317D01*
X16182412Y-13815317D02*
X16306222Y-13815317D01*
X16534793Y-13881984D02*
X16534793Y-13681984D01*
X16620507Y-13881984D02*
X16620507Y-13777222D01*
X16620507Y-13777222D02*
X16610984Y-13758174D01*
X16610984Y-13758174D02*
X16591936Y-13748650D01*
X16591936Y-13748650D02*
X16563364Y-13748650D01*
X16563364Y-13748650D02*
X16544317Y-13758174D01*
X16544317Y-13758174D02*
X16534793Y-13767698D01*
X16744317Y-13881984D02*
X16725269Y-13872460D01*
X16725269Y-13872460D02*
X16715745Y-13862936D01*
X16715745Y-13862936D02*
X16706222Y-13843888D01*
X16706222Y-13843888D02*
X16706222Y-13786746D01*
X16706222Y-13786746D02*
X16715745Y-13767698D01*
X16715745Y-13767698D02*
X16725269Y-13758174D01*
X16725269Y-13758174D02*
X16744317Y-13748650D01*
X16744317Y-13748650D02*
X16772888Y-13748650D01*
X16772888Y-13748650D02*
X16791936Y-13758174D01*
X16791936Y-13758174D02*
X16801460Y-13767698D01*
X16801460Y-13767698D02*
X16810984Y-13786746D01*
X16810984Y-13786746D02*
X16810984Y-13843888D01*
X16810984Y-13843888D02*
X16801460Y-13862936D01*
X16801460Y-13862936D02*
X16791936Y-13872460D01*
X16791936Y-13872460D02*
X16772888Y-13881984D01*
X16772888Y-13881984D02*
X16744317Y-13881984D01*
X16925269Y-13881984D02*
X16906222Y-13872460D01*
X16906222Y-13872460D02*
X16896698Y-13853412D01*
X16896698Y-13853412D02*
X16896698Y-13681984D01*
X17077650Y-13872460D02*
X17058603Y-13881984D01*
X17058603Y-13881984D02*
X17020507Y-13881984D01*
X17020507Y-13881984D02*
X17001460Y-13872460D01*
X17001460Y-13872460D02*
X16991936Y-13853412D01*
X16991936Y-13853412D02*
X16991936Y-13777222D01*
X16991936Y-13777222D02*
X17001460Y-13758174D01*
X17001460Y-13758174D02*
X17020507Y-13748650D01*
X17020507Y-13748650D02*
X17058603Y-13748650D01*
X17058603Y-13748650D02*
X17077650Y-13758174D01*
X17077650Y-13758174D02*
X17087174Y-13777222D01*
X17087174Y-13777222D02*
X17087174Y-13796269D01*
X17087174Y-13796269D02*
X16991936Y-13815317D01*
X17163365Y-13872460D02*
X17182412Y-13881984D01*
X17182412Y-13881984D02*
X17220507Y-13881984D01*
X17220507Y-13881984D02*
X17239555Y-13872460D01*
X17239555Y-13872460D02*
X17249079Y-13853412D01*
X17249079Y-13853412D02*
X17249079Y-13843888D01*
X17249079Y-13843888D02*
X17239555Y-13824841D01*
X17239555Y-13824841D02*
X17220507Y-13815317D01*
X17220507Y-13815317D02*
X17191936Y-13815317D01*
X17191936Y-13815317D02*
X17172888Y-13805793D01*
X17172888Y-13805793D02*
X17163365Y-13786746D01*
X17163365Y-13786746D02*
X17163365Y-13777222D01*
X17163365Y-13777222D02*
X17172888Y-13758174D01*
X17172888Y-13758174D02*
X17191936Y-13748650D01*
X17191936Y-13748650D02*
X17220507Y-13748650D01*
X17220507Y-13748650D02*
X17239555Y-13758174D01*
X17315746Y-13958174D02*
X17325269Y-13948650D01*
X17325269Y-13948650D02*
X17344317Y-13920079D01*
X17344317Y-13920079D02*
X17353841Y-13901031D01*
X17353841Y-13901031D02*
X17363365Y-13872460D01*
X17363365Y-13872460D02*
X17372888Y-13824841D01*
X17372888Y-13824841D02*
X17372888Y-13786746D01*
X17372888Y-13786746D02*
X17363365Y-13739127D01*
X17363365Y-13739127D02*
X17353841Y-13710555D01*
X17353841Y-13710555D02*
X17344317Y-13691508D01*
X17344317Y-13691508D02*
X17325269Y-13662936D01*
X17325269Y-13662936D02*
X17315746Y-13653412D01*
D12*
X12526770Y-14088088D02*
X12526770Y-14020912D01*
X12459595Y-14020912D01*
X12459595Y-14088088D01*
X12526770Y-14088088D01*
D11*
X12839555Y-13945984D02*
X12858602Y-13945984D01*
X12858602Y-13945984D02*
X12877650Y-13955508D01*
X12877650Y-13955508D02*
X12887174Y-13965031D01*
X12887174Y-13965031D02*
X12896697Y-13984079D01*
X12896697Y-13984079D02*
X12906221Y-14022174D01*
X12906221Y-14022174D02*
X12906221Y-14069793D01*
X12906221Y-14069793D02*
X12896697Y-14107888D01*
X12896697Y-14107888D02*
X12887174Y-14126936D01*
X12887174Y-14126936D02*
X12877650Y-14136460D01*
X12877650Y-14136460D02*
X12858602Y-14145984D01*
X12858602Y-14145984D02*
X12839555Y-14145984D01*
X12839555Y-14145984D02*
X12820507Y-14136460D01*
X12820507Y-14136460D02*
X12810983Y-14126936D01*
X12810983Y-14126936D02*
X12801459Y-14107888D01*
X12801459Y-14107888D02*
X12791936Y-14069793D01*
X12791936Y-14069793D02*
X12791936Y-14022174D01*
X12791936Y-14022174D02*
X12801459Y-13984079D01*
X12801459Y-13984079D02*
X12810983Y-13965031D01*
X12810983Y-13965031D02*
X12820507Y-13955508D01*
X12820507Y-13955508D02*
X12839555Y-13945984D01*
X12991936Y-14126936D02*
X13001459Y-14136460D01*
X13001459Y-14136460D02*
X12991936Y-14145984D01*
X12991936Y-14145984D02*
X12982412Y-14136460D01*
X12982412Y-14136460D02*
X12991936Y-14126936D01*
X12991936Y-14126936D02*
X12991936Y-14145984D01*
X13096697Y-14145984D02*
X13134793Y-14145984D01*
X13134793Y-14145984D02*
X13153840Y-14136460D01*
X13153840Y-14136460D02*
X13163364Y-14126936D01*
X13163364Y-14126936D02*
X13182412Y-14098365D01*
X13182412Y-14098365D02*
X13191936Y-14060269D01*
X13191936Y-14060269D02*
X13191936Y-13984079D01*
X13191936Y-13984079D02*
X13182412Y-13965031D01*
X13182412Y-13965031D02*
X13172888Y-13955508D01*
X13172888Y-13955508D02*
X13153840Y-13945984D01*
X13153840Y-13945984D02*
X13115745Y-13945984D01*
X13115745Y-13945984D02*
X13096697Y-13955508D01*
X13096697Y-13955508D02*
X13087174Y-13965031D01*
X13087174Y-13965031D02*
X13077650Y-13984079D01*
X13077650Y-13984079D02*
X13077650Y-14031698D01*
X13077650Y-14031698D02*
X13087174Y-14050746D01*
X13087174Y-14050746D02*
X13096697Y-14060269D01*
X13096697Y-14060269D02*
X13115745Y-14069793D01*
X13115745Y-14069793D02*
X13153840Y-14069793D01*
X13153840Y-14069793D02*
X13172888Y-14060269D01*
X13172888Y-14060269D02*
X13182412Y-14050746D01*
X13182412Y-14050746D02*
X13191936Y-14031698D01*
X13372888Y-13945984D02*
X13277650Y-13945984D01*
X13277650Y-13945984D02*
X13268126Y-14041222D01*
X13268126Y-14041222D02*
X13277650Y-14031698D01*
X13277650Y-14031698D02*
X13296697Y-14022174D01*
X13296697Y-14022174D02*
X13344317Y-14022174D01*
X13344317Y-14022174D02*
X13363364Y-14031698D01*
X13363364Y-14031698D02*
X13372888Y-14041222D01*
X13372888Y-14041222D02*
X13382412Y-14060269D01*
X13382412Y-14060269D02*
X13382412Y-14107888D01*
X13382412Y-14107888D02*
X13372888Y-14126936D01*
X13372888Y-14126936D02*
X13363364Y-14136460D01*
X13363364Y-14136460D02*
X13344317Y-14145984D01*
X13344317Y-14145984D02*
X13296697Y-14145984D01*
X13296697Y-14145984D02*
X13277650Y-14136460D01*
X13277650Y-14136460D02*
X13268126Y-14126936D01*
X13506221Y-13945984D02*
X13525269Y-13945984D01*
X13525269Y-13945984D02*
X13544317Y-13955508D01*
X13544317Y-13955508D02*
X13553840Y-13965031D01*
X13553840Y-13965031D02*
X13563364Y-13984079D01*
X13563364Y-13984079D02*
X13572888Y-14022174D01*
X13572888Y-14022174D02*
X13572888Y-14069793D01*
X13572888Y-14069793D02*
X13563364Y-14107888D01*
X13563364Y-14107888D02*
X13553840Y-14126936D01*
X13553840Y-14126936D02*
X13544317Y-14136460D01*
X13544317Y-14136460D02*
X13525269Y-14145984D01*
X13525269Y-14145984D02*
X13506221Y-14145984D01*
X13506221Y-14145984D02*
X13487174Y-14136460D01*
X13487174Y-14136460D02*
X13477650Y-14126936D01*
X13477650Y-14126936D02*
X13468126Y-14107888D01*
X13468126Y-14107888D02*
X13458602Y-14069793D01*
X13458602Y-14069793D02*
X13458602Y-14022174D01*
X13458602Y-14022174D02*
X13468126Y-13984079D01*
X13468126Y-13984079D02*
X13477650Y-13965031D01*
X13477650Y-13965031D02*
X13487174Y-13955508D01*
X13487174Y-13955508D02*
X13506221Y-13945984D01*
X13658602Y-14145984D02*
X13658602Y-14012650D01*
X13658602Y-14031698D02*
X13668126Y-14022174D01*
X13668126Y-14022174D02*
X13687174Y-14012650D01*
X13687174Y-14012650D02*
X13715745Y-14012650D01*
X13715745Y-14012650D02*
X13734793Y-14022174D01*
X13734793Y-14022174D02*
X13744317Y-14041222D01*
X13744317Y-14041222D02*
X13744317Y-14145984D01*
X13744317Y-14041222D02*
X13753840Y-14022174D01*
X13753840Y-14022174D02*
X13772888Y-14012650D01*
X13772888Y-14012650D02*
X13801459Y-14012650D01*
X13801459Y-14012650D02*
X13820507Y-14022174D01*
X13820507Y-14022174D02*
X13830031Y-14041222D01*
X13830031Y-14041222D02*
X13830031Y-14145984D01*
X13925269Y-14145984D02*
X13925269Y-14012650D01*
X13925269Y-14031698D02*
X13934793Y-14022174D01*
X13934793Y-14022174D02*
X13953840Y-14012650D01*
X13953840Y-14012650D02*
X13982412Y-14012650D01*
X13982412Y-14012650D02*
X14001459Y-14022174D01*
X14001459Y-14022174D02*
X14010983Y-14041222D01*
X14010983Y-14041222D02*
X14010983Y-14145984D01*
X14010983Y-14041222D02*
X14020507Y-14022174D01*
X14020507Y-14022174D02*
X14039555Y-14012650D01*
X14039555Y-14012650D02*
X14068126Y-14012650D01*
X14068126Y-14012650D02*
X14087174Y-14022174D01*
X14087174Y-14022174D02*
X14096698Y-14041222D01*
X14096698Y-14041222D02*
X14096698Y-14145984D01*
X14487174Y-13936460D02*
X14315745Y-14193603D01*
X14744317Y-13945984D02*
X14763364Y-13945984D01*
X14763364Y-13945984D02*
X14782412Y-13955508D01*
X14782412Y-13955508D02*
X14791936Y-13965031D01*
X14791936Y-13965031D02*
X14801460Y-13984079D01*
X14801460Y-13984079D02*
X14810983Y-14022174D01*
X14810983Y-14022174D02*
X14810983Y-14069793D01*
X14810983Y-14069793D02*
X14801460Y-14107888D01*
X14801460Y-14107888D02*
X14791936Y-14126936D01*
X14791936Y-14126936D02*
X14782412Y-14136460D01*
X14782412Y-14136460D02*
X14763364Y-14145984D01*
X14763364Y-14145984D02*
X14744317Y-14145984D01*
X14744317Y-14145984D02*
X14725269Y-14136460D01*
X14725269Y-14136460D02*
X14715745Y-14126936D01*
X14715745Y-14126936D02*
X14706221Y-14107888D01*
X14706221Y-14107888D02*
X14696698Y-14069793D01*
X14696698Y-14069793D02*
X14696698Y-14022174D01*
X14696698Y-14022174D02*
X14706221Y-13984079D01*
X14706221Y-13984079D02*
X14715745Y-13965031D01*
X14715745Y-13965031D02*
X14725269Y-13955508D01*
X14725269Y-13955508D02*
X14744317Y-13945984D01*
X14896698Y-14126936D02*
X14906221Y-14136460D01*
X14906221Y-14136460D02*
X14896698Y-14145984D01*
X14896698Y-14145984D02*
X14887174Y-14136460D01*
X14887174Y-14136460D02*
X14896698Y-14126936D01*
X14896698Y-14126936D02*
X14896698Y-14145984D01*
X15030031Y-13945984D02*
X15049079Y-13945984D01*
X15049079Y-13945984D02*
X15068126Y-13955508D01*
X15068126Y-13955508D02*
X15077650Y-13965031D01*
X15077650Y-13965031D02*
X15087174Y-13984079D01*
X15087174Y-13984079D02*
X15096698Y-14022174D01*
X15096698Y-14022174D02*
X15096698Y-14069793D01*
X15096698Y-14069793D02*
X15087174Y-14107888D01*
X15087174Y-14107888D02*
X15077650Y-14126936D01*
X15077650Y-14126936D02*
X15068126Y-14136460D01*
X15068126Y-14136460D02*
X15049079Y-14145984D01*
X15049079Y-14145984D02*
X15030031Y-14145984D01*
X15030031Y-14145984D02*
X15010983Y-14136460D01*
X15010983Y-14136460D02*
X15001460Y-14126936D01*
X15001460Y-14126936D02*
X14991936Y-14107888D01*
X14991936Y-14107888D02*
X14982412Y-14069793D01*
X14982412Y-14069793D02*
X14982412Y-14022174D01*
X14982412Y-14022174D02*
X14991936Y-13984079D01*
X14991936Y-13984079D02*
X15001460Y-13965031D01*
X15001460Y-13965031D02*
X15010983Y-13955508D01*
X15010983Y-13955508D02*
X15030031Y-13945984D01*
X15163364Y-13945984D02*
X15287174Y-13945984D01*
X15287174Y-13945984D02*
X15220507Y-14022174D01*
X15220507Y-14022174D02*
X15249079Y-14022174D01*
X15249079Y-14022174D02*
X15268126Y-14031698D01*
X15268126Y-14031698D02*
X15277650Y-14041222D01*
X15277650Y-14041222D02*
X15287174Y-14060269D01*
X15287174Y-14060269D02*
X15287174Y-14107888D01*
X15287174Y-14107888D02*
X15277650Y-14126936D01*
X15277650Y-14126936D02*
X15268126Y-14136460D01*
X15268126Y-14136460D02*
X15249079Y-14145984D01*
X15249079Y-14145984D02*
X15191936Y-14145984D01*
X15191936Y-14145984D02*
X15172888Y-14136460D01*
X15172888Y-14136460D02*
X15163364Y-14126936D01*
X15353841Y-13945984D02*
X15487174Y-13945984D01*
X15487174Y-13945984D02*
X15401460Y-14145984D01*
X15649079Y-14012650D02*
X15649079Y-14145984D01*
X15601460Y-13936460D02*
X15553841Y-14079317D01*
X15553841Y-14079317D02*
X15677650Y-14079317D01*
X15744317Y-13945984D02*
X15744317Y-13984079D01*
X15820507Y-13945984D02*
X15820507Y-13984079D01*
X16115745Y-14222174D02*
X16106222Y-14212650D01*
X16106222Y-14212650D02*
X16087174Y-14184079D01*
X16087174Y-14184079D02*
X16077650Y-14165031D01*
X16077650Y-14165031D02*
X16068126Y-14136460D01*
X16068126Y-14136460D02*
X16058603Y-14088841D01*
X16058603Y-14088841D02*
X16058603Y-14050746D01*
X16058603Y-14050746D02*
X16068126Y-14003127D01*
X16068126Y-14003127D02*
X16077650Y-13974555D01*
X16077650Y-13974555D02*
X16087174Y-13955508D01*
X16087174Y-13955508D02*
X16106222Y-13926936D01*
X16106222Y-13926936D02*
X16115745Y-13917412D01*
X16172888Y-13945984D02*
X16296698Y-13945984D01*
X16296698Y-13945984D02*
X16230031Y-14022174D01*
X16230031Y-14022174D02*
X16258603Y-14022174D01*
X16258603Y-14022174D02*
X16277650Y-14031698D01*
X16277650Y-14031698D02*
X16287174Y-14041222D01*
X16287174Y-14041222D02*
X16296698Y-14060269D01*
X16296698Y-14060269D02*
X16296698Y-14107888D01*
X16296698Y-14107888D02*
X16287174Y-14126936D01*
X16287174Y-14126936D02*
X16277650Y-14136460D01*
X16277650Y-14136460D02*
X16258603Y-14145984D01*
X16258603Y-14145984D02*
X16201460Y-14145984D01*
X16201460Y-14145984D02*
X16182412Y-14136460D01*
X16182412Y-14136460D02*
X16172888Y-14126936D01*
X16534793Y-14145984D02*
X16534793Y-13945984D01*
X16620507Y-14145984D02*
X16620507Y-14041222D01*
X16620507Y-14041222D02*
X16610984Y-14022174D01*
X16610984Y-14022174D02*
X16591936Y-14012650D01*
X16591936Y-14012650D02*
X16563364Y-14012650D01*
X16563364Y-14012650D02*
X16544317Y-14022174D01*
X16544317Y-14022174D02*
X16534793Y-14031698D01*
X16744317Y-14145984D02*
X16725269Y-14136460D01*
X16725269Y-14136460D02*
X16715745Y-14126936D01*
X16715745Y-14126936D02*
X16706222Y-14107888D01*
X16706222Y-14107888D02*
X16706222Y-14050746D01*
X16706222Y-14050746D02*
X16715745Y-14031698D01*
X16715745Y-14031698D02*
X16725269Y-14022174D01*
X16725269Y-14022174D02*
X16744317Y-14012650D01*
X16744317Y-14012650D02*
X16772888Y-14012650D01*
X16772888Y-14012650D02*
X16791936Y-14022174D01*
X16791936Y-14022174D02*
X16801460Y-14031698D01*
X16801460Y-14031698D02*
X16810984Y-14050746D01*
X16810984Y-14050746D02*
X16810984Y-14107888D01*
X16810984Y-14107888D02*
X16801460Y-14126936D01*
X16801460Y-14126936D02*
X16791936Y-14136460D01*
X16791936Y-14136460D02*
X16772888Y-14145984D01*
X16772888Y-14145984D02*
X16744317Y-14145984D01*
X16925269Y-14145984D02*
X16906222Y-14136460D01*
X16906222Y-14136460D02*
X16896698Y-14117412D01*
X16896698Y-14117412D02*
X16896698Y-13945984D01*
X17077650Y-14136460D02*
X17058603Y-14145984D01*
X17058603Y-14145984D02*
X17020507Y-14145984D01*
X17020507Y-14145984D02*
X17001460Y-14136460D01*
X17001460Y-14136460D02*
X16991936Y-14117412D01*
X16991936Y-14117412D02*
X16991936Y-14041222D01*
X16991936Y-14041222D02*
X17001460Y-14022174D01*
X17001460Y-14022174D02*
X17020507Y-14012650D01*
X17020507Y-14012650D02*
X17058603Y-14012650D01*
X17058603Y-14012650D02*
X17077650Y-14022174D01*
X17077650Y-14022174D02*
X17087174Y-14041222D01*
X17087174Y-14041222D02*
X17087174Y-14060269D01*
X17087174Y-14060269D02*
X16991936Y-14079317D01*
X17163365Y-14136460D02*
X17182412Y-14145984D01*
X17182412Y-14145984D02*
X17220507Y-14145984D01*
X17220507Y-14145984D02*
X17239555Y-14136460D01*
X17239555Y-14136460D02*
X17249079Y-14117412D01*
X17249079Y-14117412D02*
X17249079Y-14107888D01*
X17249079Y-14107888D02*
X17239555Y-14088841D01*
X17239555Y-14088841D02*
X17220507Y-14079317D01*
X17220507Y-14079317D02*
X17191936Y-14079317D01*
X17191936Y-14079317D02*
X17172888Y-14069793D01*
X17172888Y-14069793D02*
X17163365Y-14050746D01*
X17163365Y-14050746D02*
X17163365Y-14041222D01*
X17163365Y-14041222D02*
X17172888Y-14022174D01*
X17172888Y-14022174D02*
X17191936Y-14012650D01*
X17191936Y-14012650D02*
X17220507Y-14012650D01*
X17220507Y-14012650D02*
X17239555Y-14022174D01*
X17315746Y-14222174D02*
X17325269Y-14212650D01*
X17325269Y-14212650D02*
X17344317Y-14184079D01*
X17344317Y-14184079D02*
X17353841Y-14165031D01*
X17353841Y-14165031D02*
X17363365Y-14136460D01*
X17363365Y-14136460D02*
X17372888Y-14088841D01*
X17372888Y-14088841D02*
X17372888Y-14050746D01*
X17372888Y-14050746D02*
X17363365Y-14003127D01*
X17363365Y-14003127D02*
X17353841Y-13974555D01*
X17353841Y-13974555D02*
X17344317Y-13955508D01*
X17344317Y-13955508D02*
X17325269Y-13926936D01*
X17325269Y-13926936D02*
X17315746Y-13917412D01*
D13*
X12489883Y-14369300D02*
X12540683Y-14318500D01*
X12489883Y-14267700D01*
X12439083Y-14318500D01*
X12489883Y-14369300D01*
D11*
X12906221Y-14409984D02*
X12791936Y-14409984D01*
X12849078Y-14409984D02*
X12849078Y-14209984D01*
X12849078Y-14209984D02*
X12830031Y-14238555D01*
X12830031Y-14238555D02*
X12810983Y-14257603D01*
X12810983Y-14257603D02*
X12791936Y-14267127D01*
X12991936Y-14390936D02*
X13001459Y-14400460D01*
X13001459Y-14400460D02*
X12991936Y-14409984D01*
X12991936Y-14409984D02*
X12982412Y-14400460D01*
X12982412Y-14400460D02*
X12991936Y-14390936D01*
X12991936Y-14390936D02*
X12991936Y-14409984D01*
X13125269Y-14209984D02*
X13144317Y-14209984D01*
X13144317Y-14209984D02*
X13163364Y-14219508D01*
X13163364Y-14219508D02*
X13172888Y-14229031D01*
X13172888Y-14229031D02*
X13182412Y-14248079D01*
X13182412Y-14248079D02*
X13191936Y-14286174D01*
X13191936Y-14286174D02*
X13191936Y-14333793D01*
X13191936Y-14333793D02*
X13182412Y-14371888D01*
X13182412Y-14371888D02*
X13172888Y-14390936D01*
X13172888Y-14390936D02*
X13163364Y-14400460D01*
X13163364Y-14400460D02*
X13144317Y-14409984D01*
X13144317Y-14409984D02*
X13125269Y-14409984D01*
X13125269Y-14409984D02*
X13106221Y-14400460D01*
X13106221Y-14400460D02*
X13096697Y-14390936D01*
X13096697Y-14390936D02*
X13087174Y-14371888D01*
X13087174Y-14371888D02*
X13077650Y-14333793D01*
X13077650Y-14333793D02*
X13077650Y-14286174D01*
X13077650Y-14286174D02*
X13087174Y-14248079D01*
X13087174Y-14248079D02*
X13096697Y-14229031D01*
X13096697Y-14229031D02*
X13106221Y-14219508D01*
X13106221Y-14219508D02*
X13125269Y-14209984D01*
X13382412Y-14409984D02*
X13268126Y-14409984D01*
X13325269Y-14409984D02*
X13325269Y-14209984D01*
X13325269Y-14209984D02*
X13306221Y-14238555D01*
X13306221Y-14238555D02*
X13287174Y-14257603D01*
X13287174Y-14257603D02*
X13268126Y-14267127D01*
X13553840Y-14209984D02*
X13515745Y-14209984D01*
X13515745Y-14209984D02*
X13496697Y-14219508D01*
X13496697Y-14219508D02*
X13487174Y-14229031D01*
X13487174Y-14229031D02*
X13468126Y-14257603D01*
X13468126Y-14257603D02*
X13458602Y-14295698D01*
X13458602Y-14295698D02*
X13458602Y-14371888D01*
X13458602Y-14371888D02*
X13468126Y-14390936D01*
X13468126Y-14390936D02*
X13477650Y-14400460D01*
X13477650Y-14400460D02*
X13496697Y-14409984D01*
X13496697Y-14409984D02*
X13534793Y-14409984D01*
X13534793Y-14409984D02*
X13553840Y-14400460D01*
X13553840Y-14400460D02*
X13563364Y-14390936D01*
X13563364Y-14390936D02*
X13572888Y-14371888D01*
X13572888Y-14371888D02*
X13572888Y-14324269D01*
X13572888Y-14324269D02*
X13563364Y-14305222D01*
X13563364Y-14305222D02*
X13553840Y-14295698D01*
X13553840Y-14295698D02*
X13534793Y-14286174D01*
X13534793Y-14286174D02*
X13496697Y-14286174D01*
X13496697Y-14286174D02*
X13477650Y-14295698D01*
X13477650Y-14295698D02*
X13468126Y-14305222D01*
X13468126Y-14305222D02*
X13458602Y-14324269D01*
X13658602Y-14409984D02*
X13658602Y-14276650D01*
X13658602Y-14295698D02*
X13668126Y-14286174D01*
X13668126Y-14286174D02*
X13687174Y-14276650D01*
X13687174Y-14276650D02*
X13715745Y-14276650D01*
X13715745Y-14276650D02*
X13734793Y-14286174D01*
X13734793Y-14286174D02*
X13744317Y-14305222D01*
X13744317Y-14305222D02*
X13744317Y-14409984D01*
X13744317Y-14305222D02*
X13753840Y-14286174D01*
X13753840Y-14286174D02*
X13772888Y-14276650D01*
X13772888Y-14276650D02*
X13801459Y-14276650D01*
X13801459Y-14276650D02*
X13820507Y-14286174D01*
X13820507Y-14286174D02*
X13830031Y-14305222D01*
X13830031Y-14305222D02*
X13830031Y-14409984D01*
X13925269Y-14409984D02*
X13925269Y-14276650D01*
X13925269Y-14295698D02*
X13934793Y-14286174D01*
X13934793Y-14286174D02*
X13953840Y-14276650D01*
X13953840Y-14276650D02*
X13982412Y-14276650D01*
X13982412Y-14276650D02*
X14001459Y-14286174D01*
X14001459Y-14286174D02*
X14010983Y-14305222D01*
X14010983Y-14305222D02*
X14010983Y-14409984D01*
X14010983Y-14305222D02*
X14020507Y-14286174D01*
X14020507Y-14286174D02*
X14039555Y-14276650D01*
X14039555Y-14276650D02*
X14068126Y-14276650D01*
X14068126Y-14276650D02*
X14087174Y-14286174D01*
X14087174Y-14286174D02*
X14096698Y-14305222D01*
X14096698Y-14305222D02*
X14096698Y-14409984D01*
X14487174Y-14200460D02*
X14315745Y-14457603D01*
X14744317Y-14209984D02*
X14763364Y-14209984D01*
X14763364Y-14209984D02*
X14782412Y-14219508D01*
X14782412Y-14219508D02*
X14791936Y-14229031D01*
X14791936Y-14229031D02*
X14801460Y-14248079D01*
X14801460Y-14248079D02*
X14810983Y-14286174D01*
X14810983Y-14286174D02*
X14810983Y-14333793D01*
X14810983Y-14333793D02*
X14801460Y-14371888D01*
X14801460Y-14371888D02*
X14791936Y-14390936D01*
X14791936Y-14390936D02*
X14782412Y-14400460D01*
X14782412Y-14400460D02*
X14763364Y-14409984D01*
X14763364Y-14409984D02*
X14744317Y-14409984D01*
X14744317Y-14409984D02*
X14725269Y-14400460D01*
X14725269Y-14400460D02*
X14715745Y-14390936D01*
X14715745Y-14390936D02*
X14706221Y-14371888D01*
X14706221Y-14371888D02*
X14696698Y-14333793D01*
X14696698Y-14333793D02*
X14696698Y-14286174D01*
X14696698Y-14286174D02*
X14706221Y-14248079D01*
X14706221Y-14248079D02*
X14715745Y-14229031D01*
X14715745Y-14229031D02*
X14725269Y-14219508D01*
X14725269Y-14219508D02*
X14744317Y-14209984D01*
X14896698Y-14390936D02*
X14906221Y-14400460D01*
X14906221Y-14400460D02*
X14896698Y-14409984D01*
X14896698Y-14409984D02*
X14887174Y-14400460D01*
X14887174Y-14400460D02*
X14896698Y-14390936D01*
X14896698Y-14390936D02*
X14896698Y-14409984D01*
X15030031Y-14209984D02*
X15049079Y-14209984D01*
X15049079Y-14209984D02*
X15068126Y-14219508D01*
X15068126Y-14219508D02*
X15077650Y-14229031D01*
X15077650Y-14229031D02*
X15087174Y-14248079D01*
X15087174Y-14248079D02*
X15096698Y-14286174D01*
X15096698Y-14286174D02*
X15096698Y-14333793D01*
X15096698Y-14333793D02*
X15087174Y-14371888D01*
X15087174Y-14371888D02*
X15077650Y-14390936D01*
X15077650Y-14390936D02*
X15068126Y-14400460D01*
X15068126Y-14400460D02*
X15049079Y-14409984D01*
X15049079Y-14409984D02*
X15030031Y-14409984D01*
X15030031Y-14409984D02*
X15010983Y-14400460D01*
X15010983Y-14400460D02*
X15001460Y-14390936D01*
X15001460Y-14390936D02*
X14991936Y-14371888D01*
X14991936Y-14371888D02*
X14982412Y-14333793D01*
X14982412Y-14333793D02*
X14982412Y-14286174D01*
X14982412Y-14286174D02*
X14991936Y-14248079D01*
X14991936Y-14248079D02*
X15001460Y-14229031D01*
X15001460Y-14229031D02*
X15010983Y-14219508D01*
X15010983Y-14219508D02*
X15030031Y-14209984D01*
X15268126Y-14276650D02*
X15268126Y-14409984D01*
X15220507Y-14200460D02*
X15172888Y-14343317D01*
X15172888Y-14343317D02*
X15296698Y-14343317D01*
X15410983Y-14209984D02*
X15430031Y-14209984D01*
X15430031Y-14209984D02*
X15449079Y-14219508D01*
X15449079Y-14219508D02*
X15458602Y-14229031D01*
X15458602Y-14229031D02*
X15468126Y-14248079D01*
X15468126Y-14248079D02*
X15477650Y-14286174D01*
X15477650Y-14286174D02*
X15477650Y-14333793D01*
X15477650Y-14333793D02*
X15468126Y-14371888D01*
X15468126Y-14371888D02*
X15458602Y-14390936D01*
X15458602Y-14390936D02*
X15449079Y-14400460D01*
X15449079Y-14400460D02*
X15430031Y-14409984D01*
X15430031Y-14409984D02*
X15410983Y-14409984D01*
X15410983Y-14409984D02*
X15391936Y-14400460D01*
X15391936Y-14400460D02*
X15382412Y-14390936D01*
X15382412Y-14390936D02*
X15372888Y-14371888D01*
X15372888Y-14371888D02*
X15363364Y-14333793D01*
X15363364Y-14333793D02*
X15363364Y-14286174D01*
X15363364Y-14286174D02*
X15372888Y-14248079D01*
X15372888Y-14248079D02*
X15382412Y-14229031D01*
X15382412Y-14229031D02*
X15391936Y-14219508D01*
X15391936Y-14219508D02*
X15410983Y-14209984D01*
X15601460Y-14209984D02*
X15620507Y-14209984D01*
X15620507Y-14209984D02*
X15639555Y-14219508D01*
X15639555Y-14219508D02*
X15649079Y-14229031D01*
X15649079Y-14229031D02*
X15658602Y-14248079D01*
X15658602Y-14248079D02*
X15668126Y-14286174D01*
X15668126Y-14286174D02*
X15668126Y-14333793D01*
X15668126Y-14333793D02*
X15658602Y-14371888D01*
X15658602Y-14371888D02*
X15649079Y-14390936D01*
X15649079Y-14390936D02*
X15639555Y-14400460D01*
X15639555Y-14400460D02*
X15620507Y-14409984D01*
X15620507Y-14409984D02*
X15601460Y-14409984D01*
X15601460Y-14409984D02*
X15582412Y-14400460D01*
X15582412Y-14400460D02*
X15572888Y-14390936D01*
X15572888Y-14390936D02*
X15563364Y-14371888D01*
X15563364Y-14371888D02*
X15553841Y-14333793D01*
X15553841Y-14333793D02*
X15553841Y-14286174D01*
X15553841Y-14286174D02*
X15563364Y-14248079D01*
X15563364Y-14248079D02*
X15572888Y-14229031D01*
X15572888Y-14229031D02*
X15582412Y-14219508D01*
X15582412Y-14219508D02*
X15601460Y-14209984D01*
X15744317Y-14209984D02*
X15744317Y-14248079D01*
X15820507Y-14209984D02*
X15820507Y-14248079D01*
X16115745Y-14486174D02*
X16106222Y-14476650D01*
X16106222Y-14476650D02*
X16087174Y-14448079D01*
X16087174Y-14448079D02*
X16077650Y-14429031D01*
X16077650Y-14429031D02*
X16068126Y-14400460D01*
X16068126Y-14400460D02*
X16058603Y-14352841D01*
X16058603Y-14352841D02*
X16058603Y-14314746D01*
X16058603Y-14314746D02*
X16068126Y-14267127D01*
X16068126Y-14267127D02*
X16077650Y-14238555D01*
X16077650Y-14238555D02*
X16087174Y-14219508D01*
X16087174Y-14219508D02*
X16106222Y-14190936D01*
X16106222Y-14190936D02*
X16115745Y-14181412D01*
X16277650Y-14276650D02*
X16277650Y-14409984D01*
X16230031Y-14200460D02*
X16182412Y-14343317D01*
X16182412Y-14343317D02*
X16306222Y-14343317D01*
X16363364Y-14209984D02*
X16487174Y-14209984D01*
X16487174Y-14209984D02*
X16420507Y-14286174D01*
X16420507Y-14286174D02*
X16449079Y-14286174D01*
X16449079Y-14286174D02*
X16468126Y-14295698D01*
X16468126Y-14295698D02*
X16477650Y-14305222D01*
X16477650Y-14305222D02*
X16487174Y-14324269D01*
X16487174Y-14324269D02*
X16487174Y-14371888D01*
X16487174Y-14371888D02*
X16477650Y-14390936D01*
X16477650Y-14390936D02*
X16468126Y-14400460D01*
X16468126Y-14400460D02*
X16449079Y-14409984D01*
X16449079Y-14409984D02*
X16391936Y-14409984D01*
X16391936Y-14409984D02*
X16372888Y-14400460D01*
X16372888Y-14400460D02*
X16363364Y-14390936D01*
X16725269Y-14409984D02*
X16725269Y-14209984D01*
X16810984Y-14409984D02*
X16810984Y-14305222D01*
X16810984Y-14305222D02*
X16801460Y-14286174D01*
X16801460Y-14286174D02*
X16782412Y-14276650D01*
X16782412Y-14276650D02*
X16753841Y-14276650D01*
X16753841Y-14276650D02*
X16734793Y-14286174D01*
X16734793Y-14286174D02*
X16725269Y-14295698D01*
X16934793Y-14409984D02*
X16915746Y-14400460D01*
X16915746Y-14400460D02*
X16906222Y-14390936D01*
X16906222Y-14390936D02*
X16896698Y-14371888D01*
X16896698Y-14371888D02*
X16896698Y-14314746D01*
X16896698Y-14314746D02*
X16906222Y-14295698D01*
X16906222Y-14295698D02*
X16915746Y-14286174D01*
X16915746Y-14286174D02*
X16934793Y-14276650D01*
X16934793Y-14276650D02*
X16963365Y-14276650D01*
X16963365Y-14276650D02*
X16982412Y-14286174D01*
X16982412Y-14286174D02*
X16991936Y-14295698D01*
X16991936Y-14295698D02*
X17001460Y-14314746D01*
X17001460Y-14314746D02*
X17001460Y-14371888D01*
X17001460Y-14371888D02*
X16991936Y-14390936D01*
X16991936Y-14390936D02*
X16982412Y-14400460D01*
X16982412Y-14400460D02*
X16963365Y-14409984D01*
X16963365Y-14409984D02*
X16934793Y-14409984D01*
X17115746Y-14409984D02*
X17096698Y-14400460D01*
X17096698Y-14400460D02*
X17087174Y-14381412D01*
X17087174Y-14381412D02*
X17087174Y-14209984D01*
X17268127Y-14400460D02*
X17249079Y-14409984D01*
X17249079Y-14409984D02*
X17210984Y-14409984D01*
X17210984Y-14409984D02*
X17191936Y-14400460D01*
X17191936Y-14400460D02*
X17182412Y-14381412D01*
X17182412Y-14381412D02*
X17182412Y-14305222D01*
X17182412Y-14305222D02*
X17191936Y-14286174D01*
X17191936Y-14286174D02*
X17210984Y-14276650D01*
X17210984Y-14276650D02*
X17249079Y-14276650D01*
X17249079Y-14276650D02*
X17268127Y-14286174D01*
X17268127Y-14286174D02*
X17277650Y-14305222D01*
X17277650Y-14305222D02*
X17277650Y-14324269D01*
X17277650Y-14324269D02*
X17182412Y-14343317D01*
X17353841Y-14400460D02*
X17372888Y-14409984D01*
X17372888Y-14409984D02*
X17410984Y-14409984D01*
X17410984Y-14409984D02*
X17430031Y-14400460D01*
X17430031Y-14400460D02*
X17439555Y-14381412D01*
X17439555Y-14381412D02*
X17439555Y-14371888D01*
X17439555Y-14371888D02*
X17430031Y-14352841D01*
X17430031Y-14352841D02*
X17410984Y-14343317D01*
X17410984Y-14343317D02*
X17382412Y-14343317D01*
X17382412Y-14343317D02*
X17363365Y-14333793D01*
X17363365Y-14333793D02*
X17353841Y-14314746D01*
X17353841Y-14314746D02*
X17353841Y-14305222D01*
X17353841Y-14305222D02*
X17363365Y-14286174D01*
X17363365Y-14286174D02*
X17382412Y-14276650D01*
X17382412Y-14276650D02*
X17410984Y-14276650D01*
X17410984Y-14276650D02*
X17430031Y-14286174D01*
X17506222Y-14486174D02*
X17515746Y-14476650D01*
X17515746Y-14476650D02*
X17534793Y-14448079D01*
X17534793Y-14448079D02*
X17544317Y-14429031D01*
X17544317Y-14429031D02*
X17553841Y-14400460D01*
X17553841Y-14400460D02*
X17563365Y-14352841D01*
X17563365Y-14352841D02*
X17563365Y-14314746D01*
X17563365Y-14314746D02*
X17553841Y-14267127D01*
X17553841Y-14267127D02*
X17544317Y-14238555D01*
X17544317Y-14238555D02*
X17534793Y-14219508D01*
X17534793Y-14219508D02*
X17515746Y-14190936D01*
X17515746Y-14190936D02*
X17506222Y-14181412D01*
D14*
X12421683Y-14523000D02*
X12540683Y-14642000D01*
X12540683Y-14523000D02*
X12421683Y-14642000D01*
X12540683Y-14582500D02*
G75*
G02*
X12421683Y-14582500I-59500J0D01*
G01*
X12421683Y-14582500D02*
G75*
G02*
X12540683Y-14582500I59500J0D01*
G01*
D11*
X12906221Y-14673984D02*
X12791936Y-14673984D01*
X12849078Y-14673984D02*
X12849078Y-14473984D01*
X12849078Y-14473984D02*
X12830031Y-14502555D01*
X12830031Y-14502555D02*
X12810983Y-14521603D01*
X12810983Y-14521603D02*
X12791936Y-14531127D01*
X12991936Y-14654936D02*
X13001459Y-14664460D01*
X13001459Y-14664460D02*
X12991936Y-14673984D01*
X12991936Y-14673984D02*
X12982412Y-14664460D01*
X12982412Y-14664460D02*
X12991936Y-14654936D01*
X12991936Y-14654936D02*
X12991936Y-14673984D01*
X13191936Y-14673984D02*
X13077650Y-14673984D01*
X13134793Y-14673984D02*
X13134793Y-14473984D01*
X13134793Y-14473984D02*
X13115745Y-14502555D01*
X13115745Y-14502555D02*
X13096697Y-14521603D01*
X13096697Y-14521603D02*
X13077650Y-14531127D01*
X13287174Y-14673984D02*
X13325269Y-14673984D01*
X13325269Y-14673984D02*
X13344317Y-14664460D01*
X13344317Y-14664460D02*
X13353840Y-14654936D01*
X13353840Y-14654936D02*
X13372888Y-14626365D01*
X13372888Y-14626365D02*
X13382412Y-14588269D01*
X13382412Y-14588269D02*
X13382412Y-14512079D01*
X13382412Y-14512079D02*
X13372888Y-14493031D01*
X13372888Y-14493031D02*
X13363364Y-14483508D01*
X13363364Y-14483508D02*
X13344317Y-14473984D01*
X13344317Y-14473984D02*
X13306221Y-14473984D01*
X13306221Y-14473984D02*
X13287174Y-14483508D01*
X13287174Y-14483508D02*
X13277650Y-14493031D01*
X13277650Y-14493031D02*
X13268126Y-14512079D01*
X13268126Y-14512079D02*
X13268126Y-14559698D01*
X13268126Y-14559698D02*
X13277650Y-14578746D01*
X13277650Y-14578746D02*
X13287174Y-14588269D01*
X13287174Y-14588269D02*
X13306221Y-14597793D01*
X13306221Y-14597793D02*
X13344317Y-14597793D01*
X13344317Y-14597793D02*
X13363364Y-14588269D01*
X13363364Y-14588269D02*
X13372888Y-14578746D01*
X13372888Y-14578746D02*
X13382412Y-14559698D01*
X13506221Y-14473984D02*
X13525269Y-14473984D01*
X13525269Y-14473984D02*
X13544317Y-14483508D01*
X13544317Y-14483508D02*
X13553840Y-14493031D01*
X13553840Y-14493031D02*
X13563364Y-14512079D01*
X13563364Y-14512079D02*
X13572888Y-14550174D01*
X13572888Y-14550174D02*
X13572888Y-14597793D01*
X13572888Y-14597793D02*
X13563364Y-14635888D01*
X13563364Y-14635888D02*
X13553840Y-14654936D01*
X13553840Y-14654936D02*
X13544317Y-14664460D01*
X13544317Y-14664460D02*
X13525269Y-14673984D01*
X13525269Y-14673984D02*
X13506221Y-14673984D01*
X13506221Y-14673984D02*
X13487174Y-14664460D01*
X13487174Y-14664460D02*
X13477650Y-14654936D01*
X13477650Y-14654936D02*
X13468126Y-14635888D01*
X13468126Y-14635888D02*
X13458602Y-14597793D01*
X13458602Y-14597793D02*
X13458602Y-14550174D01*
X13458602Y-14550174D02*
X13468126Y-14512079D01*
X13468126Y-14512079D02*
X13477650Y-14493031D01*
X13477650Y-14493031D02*
X13487174Y-14483508D01*
X13487174Y-14483508D02*
X13506221Y-14473984D01*
X13658602Y-14673984D02*
X13658602Y-14540650D01*
X13658602Y-14559698D02*
X13668126Y-14550174D01*
X13668126Y-14550174D02*
X13687174Y-14540650D01*
X13687174Y-14540650D02*
X13715745Y-14540650D01*
X13715745Y-14540650D02*
X13734793Y-14550174D01*
X13734793Y-14550174D02*
X13744317Y-14569222D01*
X13744317Y-14569222D02*
X13744317Y-14673984D01*
X13744317Y-14569222D02*
X13753840Y-14550174D01*
X13753840Y-14550174D02*
X13772888Y-14540650D01*
X13772888Y-14540650D02*
X13801459Y-14540650D01*
X13801459Y-14540650D02*
X13820507Y-14550174D01*
X13820507Y-14550174D02*
X13830031Y-14569222D01*
X13830031Y-14569222D02*
X13830031Y-14673984D01*
X13925269Y-14673984D02*
X13925269Y-14540650D01*
X13925269Y-14559698D02*
X13934793Y-14550174D01*
X13934793Y-14550174D02*
X13953840Y-14540650D01*
X13953840Y-14540650D02*
X13982412Y-14540650D01*
X13982412Y-14540650D02*
X14001459Y-14550174D01*
X14001459Y-14550174D02*
X14010983Y-14569222D01*
X14010983Y-14569222D02*
X14010983Y-14673984D01*
X14010983Y-14569222D02*
X14020507Y-14550174D01*
X14020507Y-14550174D02*
X14039555Y-14540650D01*
X14039555Y-14540650D02*
X14068126Y-14540650D01*
X14068126Y-14540650D02*
X14087174Y-14550174D01*
X14087174Y-14550174D02*
X14096698Y-14569222D01*
X14096698Y-14569222D02*
X14096698Y-14673984D01*
X14487174Y-14464460D02*
X14315745Y-14721603D01*
X14744317Y-14473984D02*
X14763364Y-14473984D01*
X14763364Y-14473984D02*
X14782412Y-14483508D01*
X14782412Y-14483508D02*
X14791936Y-14493031D01*
X14791936Y-14493031D02*
X14801460Y-14512079D01*
X14801460Y-14512079D02*
X14810983Y-14550174D01*
X14810983Y-14550174D02*
X14810983Y-14597793D01*
X14810983Y-14597793D02*
X14801460Y-14635888D01*
X14801460Y-14635888D02*
X14791936Y-14654936D01*
X14791936Y-14654936D02*
X14782412Y-14664460D01*
X14782412Y-14664460D02*
X14763364Y-14673984D01*
X14763364Y-14673984D02*
X14744317Y-14673984D01*
X14744317Y-14673984D02*
X14725269Y-14664460D01*
X14725269Y-14664460D02*
X14715745Y-14654936D01*
X14715745Y-14654936D02*
X14706221Y-14635888D01*
X14706221Y-14635888D02*
X14696698Y-14597793D01*
X14696698Y-14597793D02*
X14696698Y-14550174D01*
X14696698Y-14550174D02*
X14706221Y-14512079D01*
X14706221Y-14512079D02*
X14715745Y-14493031D01*
X14715745Y-14493031D02*
X14725269Y-14483508D01*
X14725269Y-14483508D02*
X14744317Y-14473984D01*
X14896698Y-14654936D02*
X14906221Y-14664460D01*
X14906221Y-14664460D02*
X14896698Y-14673984D01*
X14896698Y-14673984D02*
X14887174Y-14664460D01*
X14887174Y-14664460D02*
X14896698Y-14654936D01*
X14896698Y-14654936D02*
X14896698Y-14673984D01*
X15030031Y-14473984D02*
X15049079Y-14473984D01*
X15049079Y-14473984D02*
X15068126Y-14483508D01*
X15068126Y-14483508D02*
X15077650Y-14493031D01*
X15077650Y-14493031D02*
X15087174Y-14512079D01*
X15087174Y-14512079D02*
X15096698Y-14550174D01*
X15096698Y-14550174D02*
X15096698Y-14597793D01*
X15096698Y-14597793D02*
X15087174Y-14635888D01*
X15087174Y-14635888D02*
X15077650Y-14654936D01*
X15077650Y-14654936D02*
X15068126Y-14664460D01*
X15068126Y-14664460D02*
X15049079Y-14673984D01*
X15049079Y-14673984D02*
X15030031Y-14673984D01*
X15030031Y-14673984D02*
X15010983Y-14664460D01*
X15010983Y-14664460D02*
X15001460Y-14654936D01*
X15001460Y-14654936D02*
X14991936Y-14635888D01*
X14991936Y-14635888D02*
X14982412Y-14597793D01*
X14982412Y-14597793D02*
X14982412Y-14550174D01*
X14982412Y-14550174D02*
X14991936Y-14512079D01*
X14991936Y-14512079D02*
X15001460Y-14493031D01*
X15001460Y-14493031D02*
X15010983Y-14483508D01*
X15010983Y-14483508D02*
X15030031Y-14473984D01*
X15268126Y-14540650D02*
X15268126Y-14673984D01*
X15220507Y-14464460D02*
X15172888Y-14607317D01*
X15172888Y-14607317D02*
X15296698Y-14607317D01*
X15458602Y-14473984D02*
X15420507Y-14473984D01*
X15420507Y-14473984D02*
X15401460Y-14483508D01*
X15401460Y-14483508D02*
X15391936Y-14493031D01*
X15391936Y-14493031D02*
X15372888Y-14521603D01*
X15372888Y-14521603D02*
X15363364Y-14559698D01*
X15363364Y-14559698D02*
X15363364Y-14635888D01*
X15363364Y-14635888D02*
X15372888Y-14654936D01*
X15372888Y-14654936D02*
X15382412Y-14664460D01*
X15382412Y-14664460D02*
X15401460Y-14673984D01*
X15401460Y-14673984D02*
X15439555Y-14673984D01*
X15439555Y-14673984D02*
X15458602Y-14664460D01*
X15458602Y-14664460D02*
X15468126Y-14654936D01*
X15468126Y-14654936D02*
X15477650Y-14635888D01*
X15477650Y-14635888D02*
X15477650Y-14588269D01*
X15477650Y-14588269D02*
X15468126Y-14569222D01*
X15468126Y-14569222D02*
X15458602Y-14559698D01*
X15458602Y-14559698D02*
X15439555Y-14550174D01*
X15439555Y-14550174D02*
X15401460Y-14550174D01*
X15401460Y-14550174D02*
X15382412Y-14559698D01*
X15382412Y-14559698D02*
X15372888Y-14569222D01*
X15372888Y-14569222D02*
X15363364Y-14588269D01*
X15572888Y-14673984D02*
X15610983Y-14673984D01*
X15610983Y-14673984D02*
X15630031Y-14664460D01*
X15630031Y-14664460D02*
X15639555Y-14654936D01*
X15639555Y-14654936D02*
X15658602Y-14626365D01*
X15658602Y-14626365D02*
X15668126Y-14588269D01*
X15668126Y-14588269D02*
X15668126Y-14512079D01*
X15668126Y-14512079D02*
X15658602Y-14493031D01*
X15658602Y-14493031D02*
X15649079Y-14483508D01*
X15649079Y-14483508D02*
X15630031Y-14473984D01*
X15630031Y-14473984D02*
X15591936Y-14473984D01*
X15591936Y-14473984D02*
X15572888Y-14483508D01*
X15572888Y-14483508D02*
X15563364Y-14493031D01*
X15563364Y-14493031D02*
X15553841Y-14512079D01*
X15553841Y-14512079D02*
X15553841Y-14559698D01*
X15553841Y-14559698D02*
X15563364Y-14578746D01*
X15563364Y-14578746D02*
X15572888Y-14588269D01*
X15572888Y-14588269D02*
X15591936Y-14597793D01*
X15591936Y-14597793D02*
X15630031Y-14597793D01*
X15630031Y-14597793D02*
X15649079Y-14588269D01*
X15649079Y-14588269D02*
X15658602Y-14578746D01*
X15658602Y-14578746D02*
X15668126Y-14559698D01*
X15744317Y-14473984D02*
X15744317Y-14512079D01*
X15820507Y-14473984D02*
X15820507Y-14512079D01*
X16115745Y-14750174D02*
X16106222Y-14740650D01*
X16106222Y-14740650D02*
X16087174Y-14712079D01*
X16087174Y-14712079D02*
X16077650Y-14693031D01*
X16077650Y-14693031D02*
X16068126Y-14664460D01*
X16068126Y-14664460D02*
X16058603Y-14616841D01*
X16058603Y-14616841D02*
X16058603Y-14578746D01*
X16058603Y-14578746D02*
X16068126Y-14531127D01*
X16068126Y-14531127D02*
X16077650Y-14502555D01*
X16077650Y-14502555D02*
X16087174Y-14483508D01*
X16087174Y-14483508D02*
X16106222Y-14454936D01*
X16106222Y-14454936D02*
X16115745Y-14445412D01*
X16277650Y-14473984D02*
X16239555Y-14473984D01*
X16239555Y-14473984D02*
X16220507Y-14483508D01*
X16220507Y-14483508D02*
X16210983Y-14493031D01*
X16210983Y-14493031D02*
X16191936Y-14521603D01*
X16191936Y-14521603D02*
X16182412Y-14559698D01*
X16182412Y-14559698D02*
X16182412Y-14635888D01*
X16182412Y-14635888D02*
X16191936Y-14654936D01*
X16191936Y-14654936D02*
X16201460Y-14664460D01*
X16201460Y-14664460D02*
X16220507Y-14673984D01*
X16220507Y-14673984D02*
X16258603Y-14673984D01*
X16258603Y-14673984D02*
X16277650Y-14664460D01*
X16277650Y-14664460D02*
X16287174Y-14654936D01*
X16287174Y-14654936D02*
X16296698Y-14635888D01*
X16296698Y-14635888D02*
X16296698Y-14588269D01*
X16296698Y-14588269D02*
X16287174Y-14569222D01*
X16287174Y-14569222D02*
X16277650Y-14559698D01*
X16277650Y-14559698D02*
X16258603Y-14550174D01*
X16258603Y-14550174D02*
X16220507Y-14550174D01*
X16220507Y-14550174D02*
X16201460Y-14559698D01*
X16201460Y-14559698D02*
X16191936Y-14569222D01*
X16191936Y-14569222D02*
X16182412Y-14588269D01*
X16534793Y-14673984D02*
X16534793Y-14473984D01*
X16620507Y-14673984D02*
X16620507Y-14569222D01*
X16620507Y-14569222D02*
X16610984Y-14550174D01*
X16610984Y-14550174D02*
X16591936Y-14540650D01*
X16591936Y-14540650D02*
X16563364Y-14540650D01*
X16563364Y-14540650D02*
X16544317Y-14550174D01*
X16544317Y-14550174D02*
X16534793Y-14559698D01*
X16744317Y-14673984D02*
X16725269Y-14664460D01*
X16725269Y-14664460D02*
X16715745Y-14654936D01*
X16715745Y-14654936D02*
X16706222Y-14635888D01*
X16706222Y-14635888D02*
X16706222Y-14578746D01*
X16706222Y-14578746D02*
X16715745Y-14559698D01*
X16715745Y-14559698D02*
X16725269Y-14550174D01*
X16725269Y-14550174D02*
X16744317Y-14540650D01*
X16744317Y-14540650D02*
X16772888Y-14540650D01*
X16772888Y-14540650D02*
X16791936Y-14550174D01*
X16791936Y-14550174D02*
X16801460Y-14559698D01*
X16801460Y-14559698D02*
X16810984Y-14578746D01*
X16810984Y-14578746D02*
X16810984Y-14635888D01*
X16810984Y-14635888D02*
X16801460Y-14654936D01*
X16801460Y-14654936D02*
X16791936Y-14664460D01*
X16791936Y-14664460D02*
X16772888Y-14673984D01*
X16772888Y-14673984D02*
X16744317Y-14673984D01*
X16925269Y-14673984D02*
X16906222Y-14664460D01*
X16906222Y-14664460D02*
X16896698Y-14645412D01*
X16896698Y-14645412D02*
X16896698Y-14473984D01*
X17077650Y-14664460D02*
X17058603Y-14673984D01*
X17058603Y-14673984D02*
X17020507Y-14673984D01*
X17020507Y-14673984D02*
X17001460Y-14664460D01*
X17001460Y-14664460D02*
X16991936Y-14645412D01*
X16991936Y-14645412D02*
X16991936Y-14569222D01*
X16991936Y-14569222D02*
X17001460Y-14550174D01*
X17001460Y-14550174D02*
X17020507Y-14540650D01*
X17020507Y-14540650D02*
X17058603Y-14540650D01*
X17058603Y-14540650D02*
X17077650Y-14550174D01*
X17077650Y-14550174D02*
X17087174Y-14569222D01*
X17087174Y-14569222D02*
X17087174Y-14588269D01*
X17087174Y-14588269D02*
X16991936Y-14607317D01*
X17163365Y-14664460D02*
X17182412Y-14673984D01*
X17182412Y-14673984D02*
X17220507Y-14673984D01*
X17220507Y-14673984D02*
X17239555Y-14664460D01*
X17239555Y-14664460D02*
X17249079Y-14645412D01*
X17249079Y-14645412D02*
X17249079Y-14635888D01*
X17249079Y-14635888D02*
X17239555Y-14616841D01*
X17239555Y-14616841D02*
X17220507Y-14607317D01*
X17220507Y-14607317D02*
X17191936Y-14607317D01*
X17191936Y-14607317D02*
X17172888Y-14597793D01*
X17172888Y-14597793D02*
X17163365Y-14578746D01*
X17163365Y-14578746D02*
X17163365Y-14569222D01*
X17163365Y-14569222D02*
X17172888Y-14550174D01*
X17172888Y-14550174D02*
X17191936Y-14540650D01*
X17191936Y-14540650D02*
X17220507Y-14540650D01*
X17220507Y-14540650D02*
X17239555Y-14550174D01*
X17315746Y-14750174D02*
X17325269Y-14740650D01*
X17325269Y-14740650D02*
X17344317Y-14712079D01*
X17344317Y-14712079D02*
X17353841Y-14693031D01*
X17353841Y-14693031D02*
X17363365Y-14664460D01*
X17363365Y-14664460D02*
X17372888Y-14616841D01*
X17372888Y-14616841D02*
X17372888Y-14578746D01*
X17372888Y-14578746D02*
X17363365Y-14531127D01*
X17363365Y-14531127D02*
X17353841Y-14502555D01*
X17353841Y-14502555D02*
X17344317Y-14483508D01*
X17344317Y-14483508D02*
X17325269Y-14454936D01*
X17325269Y-14454936D02*
X17315746Y-14445412D01*
X12340683Y-14746500D02*
X12540683Y-14946500D01*
X12540683Y-14746500D02*
X12340683Y-14946500D01*
X12440683Y-14746500D02*
X12440683Y-14946500D01*
X12340683Y-14846500D02*
X12540683Y-14846500D01*
X12782412Y-14737984D02*
X12906221Y-14737984D01*
X12906221Y-14737984D02*
X12839555Y-14814174D01*
X12839555Y-14814174D02*
X12868126Y-14814174D01*
X12868126Y-14814174D02*
X12887174Y-14823698D01*
X12887174Y-14823698D02*
X12896697Y-14833222D01*
X12896697Y-14833222D02*
X12906221Y-14852269D01*
X12906221Y-14852269D02*
X12906221Y-14899888D01*
X12906221Y-14899888D02*
X12896697Y-14918936D01*
X12896697Y-14918936D02*
X12887174Y-14928460D01*
X12887174Y-14928460D02*
X12868126Y-14937984D01*
X12868126Y-14937984D02*
X12810983Y-14937984D01*
X12810983Y-14937984D02*
X12791936Y-14928460D01*
X12791936Y-14928460D02*
X12782412Y-14918936D01*
X12991936Y-14918936D02*
X13001459Y-14928460D01*
X13001459Y-14928460D02*
X12991936Y-14937984D01*
X12991936Y-14937984D02*
X12982412Y-14928460D01*
X12982412Y-14928460D02*
X12991936Y-14918936D01*
X12991936Y-14918936D02*
X12991936Y-14937984D01*
X13125269Y-14737984D02*
X13144317Y-14737984D01*
X13144317Y-14737984D02*
X13163364Y-14747508D01*
X13163364Y-14747508D02*
X13172888Y-14757031D01*
X13172888Y-14757031D02*
X13182412Y-14776079D01*
X13182412Y-14776079D02*
X13191936Y-14814174D01*
X13191936Y-14814174D02*
X13191936Y-14861793D01*
X13191936Y-14861793D02*
X13182412Y-14899888D01*
X13182412Y-14899888D02*
X13172888Y-14918936D01*
X13172888Y-14918936D02*
X13163364Y-14928460D01*
X13163364Y-14928460D02*
X13144317Y-14937984D01*
X13144317Y-14937984D02*
X13125269Y-14937984D01*
X13125269Y-14937984D02*
X13106221Y-14928460D01*
X13106221Y-14928460D02*
X13096697Y-14918936D01*
X13096697Y-14918936D02*
X13087174Y-14899888D01*
X13087174Y-14899888D02*
X13077650Y-14861793D01*
X13077650Y-14861793D02*
X13077650Y-14814174D01*
X13077650Y-14814174D02*
X13087174Y-14776079D01*
X13087174Y-14776079D02*
X13096697Y-14757031D01*
X13096697Y-14757031D02*
X13106221Y-14747508D01*
X13106221Y-14747508D02*
X13125269Y-14737984D01*
X13315745Y-14737984D02*
X13334793Y-14737984D01*
X13334793Y-14737984D02*
X13353840Y-14747508D01*
X13353840Y-14747508D02*
X13363364Y-14757031D01*
X13363364Y-14757031D02*
X13372888Y-14776079D01*
X13372888Y-14776079D02*
X13382412Y-14814174D01*
X13382412Y-14814174D02*
X13382412Y-14861793D01*
X13382412Y-14861793D02*
X13372888Y-14899888D01*
X13372888Y-14899888D02*
X13363364Y-14918936D01*
X13363364Y-14918936D02*
X13353840Y-14928460D01*
X13353840Y-14928460D02*
X13334793Y-14937984D01*
X13334793Y-14937984D02*
X13315745Y-14937984D01*
X13315745Y-14937984D02*
X13296697Y-14928460D01*
X13296697Y-14928460D02*
X13287174Y-14918936D01*
X13287174Y-14918936D02*
X13277650Y-14899888D01*
X13277650Y-14899888D02*
X13268126Y-14861793D01*
X13268126Y-14861793D02*
X13268126Y-14814174D01*
X13268126Y-14814174D02*
X13277650Y-14776079D01*
X13277650Y-14776079D02*
X13287174Y-14757031D01*
X13287174Y-14757031D02*
X13296697Y-14747508D01*
X13296697Y-14747508D02*
X13315745Y-14737984D01*
X13506221Y-14737984D02*
X13525269Y-14737984D01*
X13525269Y-14737984D02*
X13544317Y-14747508D01*
X13544317Y-14747508D02*
X13553840Y-14757031D01*
X13553840Y-14757031D02*
X13563364Y-14776079D01*
X13563364Y-14776079D02*
X13572888Y-14814174D01*
X13572888Y-14814174D02*
X13572888Y-14861793D01*
X13572888Y-14861793D02*
X13563364Y-14899888D01*
X13563364Y-14899888D02*
X13553840Y-14918936D01*
X13553840Y-14918936D02*
X13544317Y-14928460D01*
X13544317Y-14928460D02*
X13525269Y-14937984D01*
X13525269Y-14937984D02*
X13506221Y-14937984D01*
X13506221Y-14937984D02*
X13487174Y-14928460D01*
X13487174Y-14928460D02*
X13477650Y-14918936D01*
X13477650Y-14918936D02*
X13468126Y-14899888D01*
X13468126Y-14899888D02*
X13458602Y-14861793D01*
X13458602Y-14861793D02*
X13458602Y-14814174D01*
X13458602Y-14814174D02*
X13468126Y-14776079D01*
X13468126Y-14776079D02*
X13477650Y-14757031D01*
X13477650Y-14757031D02*
X13487174Y-14747508D01*
X13487174Y-14747508D02*
X13506221Y-14737984D01*
X13658602Y-14937984D02*
X13658602Y-14804650D01*
X13658602Y-14823698D02*
X13668126Y-14814174D01*
X13668126Y-14814174D02*
X13687174Y-14804650D01*
X13687174Y-14804650D02*
X13715745Y-14804650D01*
X13715745Y-14804650D02*
X13734793Y-14814174D01*
X13734793Y-14814174D02*
X13744317Y-14833222D01*
X13744317Y-14833222D02*
X13744317Y-14937984D01*
X13744317Y-14833222D02*
X13753840Y-14814174D01*
X13753840Y-14814174D02*
X13772888Y-14804650D01*
X13772888Y-14804650D02*
X13801459Y-14804650D01*
X13801459Y-14804650D02*
X13820507Y-14814174D01*
X13820507Y-14814174D02*
X13830031Y-14833222D01*
X13830031Y-14833222D02*
X13830031Y-14937984D01*
X13925269Y-14937984D02*
X13925269Y-14804650D01*
X13925269Y-14823698D02*
X13934793Y-14814174D01*
X13934793Y-14814174D02*
X13953840Y-14804650D01*
X13953840Y-14804650D02*
X13982412Y-14804650D01*
X13982412Y-14804650D02*
X14001459Y-14814174D01*
X14001459Y-14814174D02*
X14010983Y-14833222D01*
X14010983Y-14833222D02*
X14010983Y-14937984D01*
X14010983Y-14833222D02*
X14020507Y-14814174D01*
X14020507Y-14814174D02*
X14039555Y-14804650D01*
X14039555Y-14804650D02*
X14068126Y-14804650D01*
X14068126Y-14804650D02*
X14087174Y-14814174D01*
X14087174Y-14814174D02*
X14096698Y-14833222D01*
X14096698Y-14833222D02*
X14096698Y-14937984D01*
X14487174Y-14728460D02*
X14315745Y-14985603D01*
X14744317Y-14737984D02*
X14763364Y-14737984D01*
X14763364Y-14737984D02*
X14782412Y-14747508D01*
X14782412Y-14747508D02*
X14791936Y-14757031D01*
X14791936Y-14757031D02*
X14801460Y-14776079D01*
X14801460Y-14776079D02*
X14810983Y-14814174D01*
X14810983Y-14814174D02*
X14810983Y-14861793D01*
X14810983Y-14861793D02*
X14801460Y-14899888D01*
X14801460Y-14899888D02*
X14791936Y-14918936D01*
X14791936Y-14918936D02*
X14782412Y-14928460D01*
X14782412Y-14928460D02*
X14763364Y-14937984D01*
X14763364Y-14937984D02*
X14744317Y-14937984D01*
X14744317Y-14937984D02*
X14725269Y-14928460D01*
X14725269Y-14928460D02*
X14715745Y-14918936D01*
X14715745Y-14918936D02*
X14706221Y-14899888D01*
X14706221Y-14899888D02*
X14696698Y-14861793D01*
X14696698Y-14861793D02*
X14696698Y-14814174D01*
X14696698Y-14814174D02*
X14706221Y-14776079D01*
X14706221Y-14776079D02*
X14715745Y-14757031D01*
X14715745Y-14757031D02*
X14725269Y-14747508D01*
X14725269Y-14747508D02*
X14744317Y-14737984D01*
X14896698Y-14918936D02*
X14906221Y-14928460D01*
X14906221Y-14928460D02*
X14896698Y-14937984D01*
X14896698Y-14937984D02*
X14887174Y-14928460D01*
X14887174Y-14928460D02*
X14896698Y-14918936D01*
X14896698Y-14918936D02*
X14896698Y-14937984D01*
X15096698Y-14937984D02*
X14982412Y-14937984D01*
X15039555Y-14937984D02*
X15039555Y-14737984D01*
X15039555Y-14737984D02*
X15020507Y-14766555D01*
X15020507Y-14766555D02*
X15001460Y-14785603D01*
X15001460Y-14785603D02*
X14982412Y-14795127D01*
X15287174Y-14937984D02*
X15172888Y-14937984D01*
X15230031Y-14937984D02*
X15230031Y-14737984D01*
X15230031Y-14737984D02*
X15210983Y-14766555D01*
X15210983Y-14766555D02*
X15191936Y-14785603D01*
X15191936Y-14785603D02*
X15172888Y-14795127D01*
X15401460Y-14823698D02*
X15382412Y-14814174D01*
X15382412Y-14814174D02*
X15372888Y-14804650D01*
X15372888Y-14804650D02*
X15363364Y-14785603D01*
X15363364Y-14785603D02*
X15363364Y-14776079D01*
X15363364Y-14776079D02*
X15372888Y-14757031D01*
X15372888Y-14757031D02*
X15382412Y-14747508D01*
X15382412Y-14747508D02*
X15401460Y-14737984D01*
X15401460Y-14737984D02*
X15439555Y-14737984D01*
X15439555Y-14737984D02*
X15458602Y-14747508D01*
X15458602Y-14747508D02*
X15468126Y-14757031D01*
X15468126Y-14757031D02*
X15477650Y-14776079D01*
X15477650Y-14776079D02*
X15477650Y-14785603D01*
X15477650Y-14785603D02*
X15468126Y-14804650D01*
X15468126Y-14804650D02*
X15458602Y-14814174D01*
X15458602Y-14814174D02*
X15439555Y-14823698D01*
X15439555Y-14823698D02*
X15401460Y-14823698D01*
X15401460Y-14823698D02*
X15382412Y-14833222D01*
X15382412Y-14833222D02*
X15372888Y-14842746D01*
X15372888Y-14842746D02*
X15363364Y-14861793D01*
X15363364Y-14861793D02*
X15363364Y-14899888D01*
X15363364Y-14899888D02*
X15372888Y-14918936D01*
X15372888Y-14918936D02*
X15382412Y-14928460D01*
X15382412Y-14928460D02*
X15401460Y-14937984D01*
X15401460Y-14937984D02*
X15439555Y-14937984D01*
X15439555Y-14937984D02*
X15458602Y-14928460D01*
X15458602Y-14928460D02*
X15468126Y-14918936D01*
X15468126Y-14918936D02*
X15477650Y-14899888D01*
X15477650Y-14899888D02*
X15477650Y-14861793D01*
X15477650Y-14861793D02*
X15468126Y-14842746D01*
X15468126Y-14842746D02*
X15458602Y-14833222D01*
X15458602Y-14833222D02*
X15439555Y-14823698D01*
X15668126Y-14937984D02*
X15553841Y-14937984D01*
X15610983Y-14937984D02*
X15610983Y-14737984D01*
X15610983Y-14737984D02*
X15591936Y-14766555D01*
X15591936Y-14766555D02*
X15572888Y-14785603D01*
X15572888Y-14785603D02*
X15553841Y-14795127D01*
X15744317Y-14737984D02*
X15744317Y-14776079D01*
X15820507Y-14737984D02*
X15820507Y-14776079D01*
X16115745Y-15014174D02*
X16106222Y-15004650D01*
X16106222Y-15004650D02*
X16087174Y-14976079D01*
X16087174Y-14976079D02*
X16077650Y-14957031D01*
X16077650Y-14957031D02*
X16068126Y-14928460D01*
X16068126Y-14928460D02*
X16058603Y-14880841D01*
X16058603Y-14880841D02*
X16058603Y-14842746D01*
X16058603Y-14842746D02*
X16068126Y-14795127D01*
X16068126Y-14795127D02*
X16077650Y-14766555D01*
X16077650Y-14766555D02*
X16087174Y-14747508D01*
X16087174Y-14747508D02*
X16106222Y-14718936D01*
X16106222Y-14718936D02*
X16115745Y-14709412D01*
X16172888Y-14737984D02*
X16296698Y-14737984D01*
X16296698Y-14737984D02*
X16230031Y-14814174D01*
X16230031Y-14814174D02*
X16258603Y-14814174D01*
X16258603Y-14814174D02*
X16277650Y-14823698D01*
X16277650Y-14823698D02*
X16287174Y-14833222D01*
X16287174Y-14833222D02*
X16296698Y-14852269D01*
X16296698Y-14852269D02*
X16296698Y-14899888D01*
X16296698Y-14899888D02*
X16287174Y-14918936D01*
X16287174Y-14918936D02*
X16277650Y-14928460D01*
X16277650Y-14928460D02*
X16258603Y-14937984D01*
X16258603Y-14937984D02*
X16201460Y-14937984D01*
X16201460Y-14937984D02*
X16182412Y-14928460D01*
X16182412Y-14928460D02*
X16172888Y-14918936D01*
X16534793Y-14937984D02*
X16534793Y-14737984D01*
X16620507Y-14937984D02*
X16620507Y-14833222D01*
X16620507Y-14833222D02*
X16610984Y-14814174D01*
X16610984Y-14814174D02*
X16591936Y-14804650D01*
X16591936Y-14804650D02*
X16563364Y-14804650D01*
X16563364Y-14804650D02*
X16544317Y-14814174D01*
X16544317Y-14814174D02*
X16534793Y-14823698D01*
X16744317Y-14937984D02*
X16725269Y-14928460D01*
X16725269Y-14928460D02*
X16715745Y-14918936D01*
X16715745Y-14918936D02*
X16706222Y-14899888D01*
X16706222Y-14899888D02*
X16706222Y-14842746D01*
X16706222Y-14842746D02*
X16715745Y-14823698D01*
X16715745Y-14823698D02*
X16725269Y-14814174D01*
X16725269Y-14814174D02*
X16744317Y-14804650D01*
X16744317Y-14804650D02*
X16772888Y-14804650D01*
X16772888Y-14804650D02*
X16791936Y-14814174D01*
X16791936Y-14814174D02*
X16801460Y-14823698D01*
X16801460Y-14823698D02*
X16810984Y-14842746D01*
X16810984Y-14842746D02*
X16810984Y-14899888D01*
X16810984Y-14899888D02*
X16801460Y-14918936D01*
X16801460Y-14918936D02*
X16791936Y-14928460D01*
X16791936Y-14928460D02*
X16772888Y-14937984D01*
X16772888Y-14937984D02*
X16744317Y-14937984D01*
X16925269Y-14937984D02*
X16906222Y-14928460D01*
X16906222Y-14928460D02*
X16896698Y-14909412D01*
X16896698Y-14909412D02*
X16896698Y-14737984D01*
X17077650Y-14928460D02*
X17058603Y-14937984D01*
X17058603Y-14937984D02*
X17020507Y-14937984D01*
X17020507Y-14937984D02*
X17001460Y-14928460D01*
X17001460Y-14928460D02*
X16991936Y-14909412D01*
X16991936Y-14909412D02*
X16991936Y-14833222D01*
X16991936Y-14833222D02*
X17001460Y-14814174D01*
X17001460Y-14814174D02*
X17020507Y-14804650D01*
X17020507Y-14804650D02*
X17058603Y-14804650D01*
X17058603Y-14804650D02*
X17077650Y-14814174D01*
X17077650Y-14814174D02*
X17087174Y-14833222D01*
X17087174Y-14833222D02*
X17087174Y-14852269D01*
X17087174Y-14852269D02*
X16991936Y-14871317D01*
X17163365Y-14928460D02*
X17182412Y-14937984D01*
X17182412Y-14937984D02*
X17220507Y-14937984D01*
X17220507Y-14937984D02*
X17239555Y-14928460D01*
X17239555Y-14928460D02*
X17249079Y-14909412D01*
X17249079Y-14909412D02*
X17249079Y-14899888D01*
X17249079Y-14899888D02*
X17239555Y-14880841D01*
X17239555Y-14880841D02*
X17220507Y-14871317D01*
X17220507Y-14871317D02*
X17191936Y-14871317D01*
X17191936Y-14871317D02*
X17172888Y-14861793D01*
X17172888Y-14861793D02*
X17163365Y-14842746D01*
X17163365Y-14842746D02*
X17163365Y-14833222D01*
X17163365Y-14833222D02*
X17172888Y-14814174D01*
X17172888Y-14814174D02*
X17191936Y-14804650D01*
X17191936Y-14804650D02*
X17220507Y-14804650D01*
X17220507Y-14804650D02*
X17239555Y-14814174D01*
X17315746Y-15014174D02*
X17325269Y-15004650D01*
X17325269Y-15004650D02*
X17344317Y-14976079D01*
X17344317Y-14976079D02*
X17353841Y-14957031D01*
X17353841Y-14957031D02*
X17363365Y-14928460D01*
X17363365Y-14928460D02*
X17372888Y-14880841D01*
X17372888Y-14880841D02*
X17372888Y-14842746D01*
X17372888Y-14842746D02*
X17363365Y-14795127D01*
X17363365Y-14795127D02*
X17353841Y-14766555D01*
X17353841Y-14766555D02*
X17344317Y-14747508D01*
X17344317Y-14747508D02*
X17325269Y-14718936D01*
X17325269Y-14718936D02*
X17315746Y-14709412D01*
M02*
