%TF.GenerationSoftware,KiCad,Pcbnew,8.0.4*%
%TF.CreationDate,2024-08-09T17:24:03-06:00*%
%TF.ProjectId,computadorayCargaUtil,636f6d70-7574-4616-946f-726179436172,rev?*%
%TF.SameCoordinates,Original*%
%TF.FileFunction,Soldermask,Top*%
%TF.FilePolarity,Negative*%
%FSLAX46Y46*%
G04 Gerber Fmt 4.6, Leading zero omitted, Abs format (unit mm)*
G04 Created by KiCad (PCBNEW 8.0.4) date 2024-08-09 17:24:03*
%MOMM*%
%LPD*%
G01*
G04 APERTURE LIST*
G04 Aperture macros list*
%AMRoundRect*
0 Rectangle with rounded corners*
0 $1 Rounding radius*
0 $2 $3 $4 $5 $6 $7 $8 $9 X,Y pos of 4 corners*
0 Add a 4 corners polygon primitive as box body*
4,1,4,$2,$3,$4,$5,$6,$7,$8,$9,$2,$3,0*
0 Add four circle primitives for the rounded corners*
1,1,$1+$1,$2,$3*
1,1,$1+$1,$4,$5*
1,1,$1+$1,$6,$7*
1,1,$1+$1,$8,$9*
0 Add four rect primitives between the rounded corners*
20,1,$1+$1,$2,$3,$4,$5,0*
20,1,$1+$1,$4,$5,$6,$7,0*
20,1,$1+$1,$6,$7,$8,$9,0*
20,1,$1+$1,$8,$9,$2,$3,0*%
G04 Aperture macros list end*
%ADD10C,1.727200*%
%ADD11R,1.727200X1.727200*%
%ADD12RoundRect,0.250000X-0.615000X0.265000X-0.615000X-0.265000X0.615000X-0.265000X0.615000X0.265000X0*%
%ADD13O,1.730000X1.030000*%
%ADD14C,6.000000*%
%ADD15C,3.302000*%
%ADD16RoundRect,0.102000X-0.762000X-0.762000X0.762000X-0.762000X0.762000X0.762000X-0.762000X0.762000X0*%
%ADD17C,1.728000*%
%ADD18C,1.600000*%
%ADD19O,1.600000X1.600000*%
%ADD20RoundRect,0.250000X-0.725000X0.600000X-0.725000X-0.600000X0.725000X-0.600000X0.725000X0.600000X0*%
%ADD21O,1.950000X1.700000*%
%ADD22RoundRect,0.250000X0.845000X-0.620000X0.845000X0.620000X-0.845000X0.620000X-0.845000X-0.620000X0*%
%ADD23O,2.190000X1.740000*%
G04 APERTURE END LIST*
D10*
%TO.C,arduinoMini5*%
X151130000Y-99060000D03*
X143510000Y-104140000D03*
X171450000Y-104140000D03*
X161290000Y-99060000D03*
X158750000Y-99060000D03*
X156210000Y-99060000D03*
X153670000Y-99060000D03*
X171450000Y-111760000D03*
X171450000Y-109220000D03*
X168910000Y-111760000D03*
X168910000Y-109220000D03*
X146050000Y-114300000D03*
X143510000Y-114300000D03*
X153670000Y-114300000D03*
X156210000Y-114300000D03*
X158750000Y-114300000D03*
X161290000Y-114300000D03*
X163830000Y-114300000D03*
X166370000Y-114300000D03*
X168910000Y-114300000D03*
X171450000Y-114300000D03*
X171450000Y-99060000D03*
X168910000Y-99060000D03*
X166370000Y-99060000D03*
X163830000Y-99060000D03*
D11*
X146050000Y-99060000D03*
X143510000Y-101600000D03*
X171450000Y-101600000D03*
D10*
X148590000Y-114300000D03*
X151130000Y-114300000D03*
X143510000Y-111760000D03*
X148590000Y-99060000D03*
X143510000Y-106680000D03*
X143510000Y-109220000D03*
X143510000Y-99060000D03*
%TD*%
D12*
%TO.C,MPL3115A2_SPARKFUN1*%
X140475000Y-81575000D03*
D13*
X140475000Y-83075000D03*
X140475000Y-84575000D03*
X140475000Y-86075000D03*
X140475000Y-87575000D03*
X140475000Y-89075000D03*
%TD*%
D14*
%TO.C,tornillo2*%
X181125000Y-79850000D03*
%TD*%
D15*
%TO.C,ADXL345*%
X158960000Y-77395000D03*
X174200000Y-77395000D03*
D16*
X157690000Y-88825000D03*
D17*
X160230000Y-88825000D03*
X162770000Y-88825000D03*
X165310000Y-88825000D03*
X167850000Y-88825000D03*
X170390000Y-88825000D03*
X172930000Y-88825000D03*
X175470000Y-88825000D03*
%TD*%
D18*
%TO.C,R1*%
X155025000Y-63740000D03*
D19*
X155025000Y-71360000D03*
%TD*%
D14*
%TO.C,tornillo3*%
X158250000Y-121825000D03*
%TD*%
%TO.C,tornillo1*%
X132100000Y-84300000D03*
%TD*%
D18*
%TO.C,R2*%
X160575000Y-63680000D03*
D19*
X160575000Y-71300000D03*
%TD*%
D20*
%TO.C,EntradaVoltaje1*%
X133775000Y-99025000D03*
D21*
X133775000Y-101525000D03*
X133775000Y-104025000D03*
%TD*%
D22*
%TO.C,conectoresOut1*%
X180725000Y-101990000D03*
D23*
X180725000Y-99450000D03*
X180725000Y-96910000D03*
X180725000Y-94370000D03*
X180725000Y-91830000D03*
X180725000Y-89290000D03*
%TD*%
M02*
