%TF.GenerationSoftware,KiCad,Pcbnew,8.0.4*%
%TF.CreationDate,2024-08-09T17:27:33-06:00*%
%TF.ProjectId,radio,72616469-6f2e-46b6-9963-61645f706362,rev?*%
%TF.SameCoordinates,Original*%
%TF.FileFunction,Legend,Top*%
%TF.FilePolarity,Positive*%
%FSLAX46Y46*%
G04 Gerber Fmt 4.6, Leading zero omitted, Abs format (unit mm)*
G04 Created by KiCad (PCBNEW 8.0.4) date 2024-08-09 17:27:33*
%MOMM*%
%LPD*%
G01*
G04 APERTURE LIST*
%ADD10C,0.150000*%
%ADD11C,0.120000*%
%ADD12C,0.000000*%
G04 APERTURE END LIST*
D10*
X110931738Y-92398807D02*
X111312690Y-92398807D01*
X111074595Y-92065474D02*
X111074595Y-92922616D01*
X111074595Y-92922616D02*
X111122214Y-93017855D01*
X111122214Y-93017855D02*
X111217452Y-93065474D01*
X111217452Y-93065474D02*
X111312690Y-93065474D01*
X111788881Y-93065474D02*
X111693643Y-93017855D01*
X111693643Y-93017855D02*
X111646024Y-92970235D01*
X111646024Y-92970235D02*
X111598405Y-92874997D01*
X111598405Y-92874997D02*
X111598405Y-92589283D01*
X111598405Y-92589283D02*
X111646024Y-92494045D01*
X111646024Y-92494045D02*
X111693643Y-92446426D01*
X111693643Y-92446426D02*
X111788881Y-92398807D01*
X111788881Y-92398807D02*
X111931738Y-92398807D01*
X111931738Y-92398807D02*
X112026976Y-92446426D01*
X112026976Y-92446426D02*
X112074595Y-92494045D01*
X112074595Y-92494045D02*
X112122214Y-92589283D01*
X112122214Y-92589283D02*
X112122214Y-92874997D01*
X112122214Y-92874997D02*
X112074595Y-92970235D01*
X112074595Y-92970235D02*
X112026976Y-93017855D01*
X112026976Y-93017855D02*
X111931738Y-93065474D01*
X111931738Y-93065474D02*
X111788881Y-93065474D01*
X112550786Y-93065474D02*
X112550786Y-92398807D01*
X112550786Y-92589283D02*
X112598405Y-92494045D01*
X112598405Y-92494045D02*
X112646024Y-92446426D01*
X112646024Y-92446426D02*
X112741262Y-92398807D01*
X112741262Y-92398807D02*
X112836500Y-92398807D01*
X113169834Y-92398807D02*
X113169834Y-93065474D01*
X113169834Y-92494045D02*
X113217453Y-92446426D01*
X113217453Y-92446426D02*
X113312691Y-92398807D01*
X113312691Y-92398807D02*
X113455548Y-92398807D01*
X113455548Y-92398807D02*
X113550786Y-92446426D01*
X113550786Y-92446426D02*
X113598405Y-92541664D01*
X113598405Y-92541664D02*
X113598405Y-93065474D01*
X114074596Y-93065474D02*
X114074596Y-92398807D01*
X114074596Y-92065474D02*
X114026977Y-92113093D01*
X114026977Y-92113093D02*
X114074596Y-92160712D01*
X114074596Y-92160712D02*
X114122215Y-92113093D01*
X114122215Y-92113093D02*
X114074596Y-92065474D01*
X114074596Y-92065474D02*
X114074596Y-92160712D01*
X114693643Y-93065474D02*
X114598405Y-93017855D01*
X114598405Y-93017855D02*
X114550786Y-92922616D01*
X114550786Y-92922616D02*
X114550786Y-92065474D01*
X115217453Y-93065474D02*
X115122215Y-93017855D01*
X115122215Y-93017855D02*
X115074596Y-92922616D01*
X115074596Y-92922616D02*
X115074596Y-92065474D01*
X115741263Y-93065474D02*
X115646025Y-93017855D01*
X115646025Y-93017855D02*
X115598406Y-92970235D01*
X115598406Y-92970235D02*
X115550787Y-92874997D01*
X115550787Y-92874997D02*
X115550787Y-92589283D01*
X115550787Y-92589283D02*
X115598406Y-92494045D01*
X115598406Y-92494045D02*
X115646025Y-92446426D01*
X115646025Y-92446426D02*
X115741263Y-92398807D01*
X115741263Y-92398807D02*
X115884120Y-92398807D01*
X115884120Y-92398807D02*
X115979358Y-92446426D01*
X115979358Y-92446426D02*
X116026977Y-92494045D01*
X116026977Y-92494045D02*
X116074596Y-92589283D01*
X116074596Y-92589283D02*
X116074596Y-92874997D01*
X116074596Y-92874997D02*
X116026977Y-92970235D01*
X116026977Y-92970235D02*
X115979358Y-93017855D01*
X115979358Y-93017855D02*
X115884120Y-93065474D01*
X115884120Y-93065474D02*
X115741263Y-93065474D01*
X117026977Y-93065474D02*
X116455549Y-93065474D01*
X116741263Y-93065474D02*
X116741263Y-92065474D01*
X116741263Y-92065474D02*
X116646025Y-92208331D01*
X116646025Y-92208331D02*
X116550787Y-92303569D01*
X116550787Y-92303569D02*
X116455549Y-92351188D01*
X159956738Y-87948807D02*
X160337690Y-87948807D01*
X160099595Y-87615474D02*
X160099595Y-88472616D01*
X160099595Y-88472616D02*
X160147214Y-88567855D01*
X160147214Y-88567855D02*
X160242452Y-88615474D01*
X160242452Y-88615474D02*
X160337690Y-88615474D01*
X160813881Y-88615474D02*
X160718643Y-88567855D01*
X160718643Y-88567855D02*
X160671024Y-88520235D01*
X160671024Y-88520235D02*
X160623405Y-88424997D01*
X160623405Y-88424997D02*
X160623405Y-88139283D01*
X160623405Y-88139283D02*
X160671024Y-88044045D01*
X160671024Y-88044045D02*
X160718643Y-87996426D01*
X160718643Y-87996426D02*
X160813881Y-87948807D01*
X160813881Y-87948807D02*
X160956738Y-87948807D01*
X160956738Y-87948807D02*
X161051976Y-87996426D01*
X161051976Y-87996426D02*
X161099595Y-88044045D01*
X161099595Y-88044045D02*
X161147214Y-88139283D01*
X161147214Y-88139283D02*
X161147214Y-88424997D01*
X161147214Y-88424997D02*
X161099595Y-88520235D01*
X161099595Y-88520235D02*
X161051976Y-88567855D01*
X161051976Y-88567855D02*
X160956738Y-88615474D01*
X160956738Y-88615474D02*
X160813881Y-88615474D01*
X161575786Y-88615474D02*
X161575786Y-87948807D01*
X161575786Y-88139283D02*
X161623405Y-88044045D01*
X161623405Y-88044045D02*
X161671024Y-87996426D01*
X161671024Y-87996426D02*
X161766262Y-87948807D01*
X161766262Y-87948807D02*
X161861500Y-87948807D01*
X162194834Y-87948807D02*
X162194834Y-88615474D01*
X162194834Y-88044045D02*
X162242453Y-87996426D01*
X162242453Y-87996426D02*
X162337691Y-87948807D01*
X162337691Y-87948807D02*
X162480548Y-87948807D01*
X162480548Y-87948807D02*
X162575786Y-87996426D01*
X162575786Y-87996426D02*
X162623405Y-88091664D01*
X162623405Y-88091664D02*
X162623405Y-88615474D01*
X163099596Y-88615474D02*
X163099596Y-87948807D01*
X163099596Y-87615474D02*
X163051977Y-87663093D01*
X163051977Y-87663093D02*
X163099596Y-87710712D01*
X163099596Y-87710712D02*
X163147215Y-87663093D01*
X163147215Y-87663093D02*
X163099596Y-87615474D01*
X163099596Y-87615474D02*
X163099596Y-87710712D01*
X163718643Y-88615474D02*
X163623405Y-88567855D01*
X163623405Y-88567855D02*
X163575786Y-88472616D01*
X163575786Y-88472616D02*
X163575786Y-87615474D01*
X164242453Y-88615474D02*
X164147215Y-88567855D01*
X164147215Y-88567855D02*
X164099596Y-88472616D01*
X164099596Y-88472616D02*
X164099596Y-87615474D01*
X164766263Y-88615474D02*
X164671025Y-88567855D01*
X164671025Y-88567855D02*
X164623406Y-88520235D01*
X164623406Y-88520235D02*
X164575787Y-88424997D01*
X164575787Y-88424997D02*
X164575787Y-88139283D01*
X164575787Y-88139283D02*
X164623406Y-88044045D01*
X164623406Y-88044045D02*
X164671025Y-87996426D01*
X164671025Y-87996426D02*
X164766263Y-87948807D01*
X164766263Y-87948807D02*
X164909120Y-87948807D01*
X164909120Y-87948807D02*
X165004358Y-87996426D01*
X165004358Y-87996426D02*
X165051977Y-88044045D01*
X165051977Y-88044045D02*
X165099596Y-88139283D01*
X165099596Y-88139283D02*
X165099596Y-88424997D01*
X165099596Y-88424997D02*
X165051977Y-88520235D01*
X165051977Y-88520235D02*
X165004358Y-88567855D01*
X165004358Y-88567855D02*
X164909120Y-88615474D01*
X164909120Y-88615474D02*
X164766263Y-88615474D01*
X165480549Y-87710712D02*
X165528168Y-87663093D01*
X165528168Y-87663093D02*
X165623406Y-87615474D01*
X165623406Y-87615474D02*
X165861501Y-87615474D01*
X165861501Y-87615474D02*
X165956739Y-87663093D01*
X165956739Y-87663093D02*
X166004358Y-87710712D01*
X166004358Y-87710712D02*
X166051977Y-87805950D01*
X166051977Y-87805950D02*
X166051977Y-87901188D01*
X166051977Y-87901188D02*
X166004358Y-88044045D01*
X166004358Y-88044045D02*
X165432930Y-88615474D01*
X165432930Y-88615474D02*
X166051977Y-88615474D01*
X137081738Y-129923807D02*
X137462690Y-129923807D01*
X137224595Y-129590474D02*
X137224595Y-130447616D01*
X137224595Y-130447616D02*
X137272214Y-130542855D01*
X137272214Y-130542855D02*
X137367452Y-130590474D01*
X137367452Y-130590474D02*
X137462690Y-130590474D01*
X137938881Y-130590474D02*
X137843643Y-130542855D01*
X137843643Y-130542855D02*
X137796024Y-130495235D01*
X137796024Y-130495235D02*
X137748405Y-130399997D01*
X137748405Y-130399997D02*
X137748405Y-130114283D01*
X137748405Y-130114283D02*
X137796024Y-130019045D01*
X137796024Y-130019045D02*
X137843643Y-129971426D01*
X137843643Y-129971426D02*
X137938881Y-129923807D01*
X137938881Y-129923807D02*
X138081738Y-129923807D01*
X138081738Y-129923807D02*
X138176976Y-129971426D01*
X138176976Y-129971426D02*
X138224595Y-130019045D01*
X138224595Y-130019045D02*
X138272214Y-130114283D01*
X138272214Y-130114283D02*
X138272214Y-130399997D01*
X138272214Y-130399997D02*
X138224595Y-130495235D01*
X138224595Y-130495235D02*
X138176976Y-130542855D01*
X138176976Y-130542855D02*
X138081738Y-130590474D01*
X138081738Y-130590474D02*
X137938881Y-130590474D01*
X138700786Y-130590474D02*
X138700786Y-129923807D01*
X138700786Y-130114283D02*
X138748405Y-130019045D01*
X138748405Y-130019045D02*
X138796024Y-129971426D01*
X138796024Y-129971426D02*
X138891262Y-129923807D01*
X138891262Y-129923807D02*
X138986500Y-129923807D01*
X139319834Y-129923807D02*
X139319834Y-130590474D01*
X139319834Y-130019045D02*
X139367453Y-129971426D01*
X139367453Y-129971426D02*
X139462691Y-129923807D01*
X139462691Y-129923807D02*
X139605548Y-129923807D01*
X139605548Y-129923807D02*
X139700786Y-129971426D01*
X139700786Y-129971426D02*
X139748405Y-130066664D01*
X139748405Y-130066664D02*
X139748405Y-130590474D01*
X140224596Y-130590474D02*
X140224596Y-129923807D01*
X140224596Y-129590474D02*
X140176977Y-129638093D01*
X140176977Y-129638093D02*
X140224596Y-129685712D01*
X140224596Y-129685712D02*
X140272215Y-129638093D01*
X140272215Y-129638093D02*
X140224596Y-129590474D01*
X140224596Y-129590474D02*
X140224596Y-129685712D01*
X140843643Y-130590474D02*
X140748405Y-130542855D01*
X140748405Y-130542855D02*
X140700786Y-130447616D01*
X140700786Y-130447616D02*
X140700786Y-129590474D01*
X141367453Y-130590474D02*
X141272215Y-130542855D01*
X141272215Y-130542855D02*
X141224596Y-130447616D01*
X141224596Y-130447616D02*
X141224596Y-129590474D01*
X141891263Y-130590474D02*
X141796025Y-130542855D01*
X141796025Y-130542855D02*
X141748406Y-130495235D01*
X141748406Y-130495235D02*
X141700787Y-130399997D01*
X141700787Y-130399997D02*
X141700787Y-130114283D01*
X141700787Y-130114283D02*
X141748406Y-130019045D01*
X141748406Y-130019045D02*
X141796025Y-129971426D01*
X141796025Y-129971426D02*
X141891263Y-129923807D01*
X141891263Y-129923807D02*
X142034120Y-129923807D01*
X142034120Y-129923807D02*
X142129358Y-129971426D01*
X142129358Y-129971426D02*
X142176977Y-130019045D01*
X142176977Y-130019045D02*
X142224596Y-130114283D01*
X142224596Y-130114283D02*
X142224596Y-130399997D01*
X142224596Y-130399997D02*
X142176977Y-130495235D01*
X142176977Y-130495235D02*
X142129358Y-130542855D01*
X142129358Y-130542855D02*
X142034120Y-130590474D01*
X142034120Y-130590474D02*
X141891263Y-130590474D01*
X142557930Y-129590474D02*
X143176977Y-129590474D01*
X143176977Y-129590474D02*
X142843644Y-129971426D01*
X142843644Y-129971426D02*
X142986501Y-129971426D01*
X142986501Y-129971426D02*
X143081739Y-130019045D01*
X143081739Y-130019045D02*
X143129358Y-130066664D01*
X143129358Y-130066664D02*
X143176977Y-130161902D01*
X143176977Y-130161902D02*
X143176977Y-130399997D01*
X143176977Y-130399997D02*
X143129358Y-130495235D01*
X143129358Y-130495235D02*
X143081739Y-130542855D01*
X143081739Y-130542855D02*
X142986501Y-130590474D01*
X142986501Y-130590474D02*
X142700787Y-130590474D01*
X142700787Y-130590474D02*
X142605549Y-130542855D01*
X142605549Y-130542855D02*
X142557930Y-130495235D01*
X147531796Y-82008059D02*
X147055605Y-82341392D01*
X147531796Y-82579487D02*
X146531796Y-82579487D01*
X146531796Y-82579487D02*
X146531796Y-82198535D01*
X146531796Y-82198535D02*
X146579415Y-82103297D01*
X146579415Y-82103297D02*
X146627034Y-82055678D01*
X146627034Y-82055678D02*
X146722272Y-82008059D01*
X146722272Y-82008059D02*
X146865129Y-82008059D01*
X146865129Y-82008059D02*
X146960367Y-82055678D01*
X146960367Y-82055678D02*
X147007986Y-82103297D01*
X147007986Y-82103297D02*
X147055605Y-82198535D01*
X147055605Y-82198535D02*
X147055605Y-82579487D01*
X147531796Y-81150916D02*
X147007986Y-81150916D01*
X147007986Y-81150916D02*
X146912748Y-81198535D01*
X146912748Y-81198535D02*
X146865129Y-81293773D01*
X146865129Y-81293773D02*
X146865129Y-81484249D01*
X146865129Y-81484249D02*
X146912748Y-81579487D01*
X147484177Y-81150916D02*
X147531796Y-81246154D01*
X147531796Y-81246154D02*
X147531796Y-81484249D01*
X147531796Y-81484249D02*
X147484177Y-81579487D01*
X147484177Y-81579487D02*
X147388938Y-81627106D01*
X147388938Y-81627106D02*
X147293700Y-81627106D01*
X147293700Y-81627106D02*
X147198462Y-81579487D01*
X147198462Y-81579487D02*
X147150843Y-81484249D01*
X147150843Y-81484249D02*
X147150843Y-81246154D01*
X147150843Y-81246154D02*
X147103224Y-81150916D01*
X147531796Y-80246154D02*
X146531796Y-80246154D01*
X147484177Y-80246154D02*
X147531796Y-80341392D01*
X147531796Y-80341392D02*
X147531796Y-80531868D01*
X147531796Y-80531868D02*
X147484177Y-80627106D01*
X147484177Y-80627106D02*
X147436557Y-80674725D01*
X147436557Y-80674725D02*
X147341319Y-80722344D01*
X147341319Y-80722344D02*
X147055605Y-80722344D01*
X147055605Y-80722344D02*
X146960367Y-80674725D01*
X146960367Y-80674725D02*
X146912748Y-80627106D01*
X146912748Y-80627106D02*
X146865129Y-80531868D01*
X146865129Y-80531868D02*
X146865129Y-80341392D01*
X146865129Y-80341392D02*
X146912748Y-80246154D01*
X147531796Y-79769963D02*
X146865129Y-79769963D01*
X146531796Y-79769963D02*
X146579415Y-79817582D01*
X146579415Y-79817582D02*
X146627034Y-79769963D01*
X146627034Y-79769963D02*
X146579415Y-79722344D01*
X146579415Y-79722344D02*
X146531796Y-79769963D01*
X146531796Y-79769963D02*
X146627034Y-79769963D01*
X147531796Y-79150916D02*
X147484177Y-79246154D01*
X147484177Y-79246154D02*
X147436557Y-79293773D01*
X147436557Y-79293773D02*
X147341319Y-79341392D01*
X147341319Y-79341392D02*
X147055605Y-79341392D01*
X147055605Y-79341392D02*
X146960367Y-79293773D01*
X146960367Y-79293773D02*
X146912748Y-79246154D01*
X146912748Y-79246154D02*
X146865129Y-79150916D01*
X146865129Y-79150916D02*
X146865129Y-79008059D01*
X146865129Y-79008059D02*
X146912748Y-78912821D01*
X146912748Y-78912821D02*
X146960367Y-78865202D01*
X146960367Y-78865202D02*
X147055605Y-78817583D01*
X147055605Y-78817583D02*
X147341319Y-78817583D01*
X147341319Y-78817583D02*
X147436557Y-78865202D01*
X147436557Y-78865202D02*
X147484177Y-78912821D01*
X147484177Y-78912821D02*
X147531796Y-79008059D01*
X147531796Y-79008059D02*
X147531796Y-79150916D01*
X147531796Y-77865202D02*
X147531796Y-78436630D01*
X147531796Y-78150916D02*
X146531796Y-78150916D01*
X146531796Y-78150916D02*
X146674653Y-78246154D01*
X146674653Y-78246154D02*
X146769891Y-78341392D01*
X146769891Y-78341392D02*
X146817510Y-78436630D01*
X153614177Y-112753513D02*
X153661796Y-112848751D01*
X153661796Y-112848751D02*
X153661796Y-113039227D01*
X153661796Y-113039227D02*
X153614177Y-113134465D01*
X153614177Y-113134465D02*
X153566557Y-113182084D01*
X153566557Y-113182084D02*
X153471319Y-113229703D01*
X153471319Y-113229703D02*
X153185605Y-113229703D01*
X153185605Y-113229703D02*
X153090367Y-113182084D01*
X153090367Y-113182084D02*
X153042748Y-113134465D01*
X153042748Y-113134465D02*
X152995129Y-113039227D01*
X152995129Y-113039227D02*
X152995129Y-112848751D01*
X152995129Y-112848751D02*
X153042748Y-112753513D01*
X153661796Y-112182084D02*
X153614177Y-112277322D01*
X153614177Y-112277322D02*
X153566557Y-112324941D01*
X153566557Y-112324941D02*
X153471319Y-112372560D01*
X153471319Y-112372560D02*
X153185605Y-112372560D01*
X153185605Y-112372560D02*
X153090367Y-112324941D01*
X153090367Y-112324941D02*
X153042748Y-112277322D01*
X153042748Y-112277322D02*
X152995129Y-112182084D01*
X152995129Y-112182084D02*
X152995129Y-112039227D01*
X152995129Y-112039227D02*
X153042748Y-111943989D01*
X153042748Y-111943989D02*
X153090367Y-111896370D01*
X153090367Y-111896370D02*
X153185605Y-111848751D01*
X153185605Y-111848751D02*
X153471319Y-111848751D01*
X153471319Y-111848751D02*
X153566557Y-111896370D01*
X153566557Y-111896370D02*
X153614177Y-111943989D01*
X153614177Y-111943989D02*
X153661796Y-112039227D01*
X153661796Y-112039227D02*
X153661796Y-112182084D01*
X152995129Y-111420179D02*
X153661796Y-111420179D01*
X153090367Y-111420179D02*
X153042748Y-111372560D01*
X153042748Y-111372560D02*
X152995129Y-111277322D01*
X152995129Y-111277322D02*
X152995129Y-111134465D01*
X152995129Y-111134465D02*
X153042748Y-111039227D01*
X153042748Y-111039227D02*
X153137986Y-110991608D01*
X153137986Y-110991608D02*
X153661796Y-110991608D01*
X153614177Y-110134465D02*
X153661796Y-110229703D01*
X153661796Y-110229703D02*
X153661796Y-110420179D01*
X153661796Y-110420179D02*
X153614177Y-110515417D01*
X153614177Y-110515417D02*
X153518938Y-110563036D01*
X153518938Y-110563036D02*
X153137986Y-110563036D01*
X153137986Y-110563036D02*
X153042748Y-110515417D01*
X153042748Y-110515417D02*
X152995129Y-110420179D01*
X152995129Y-110420179D02*
X152995129Y-110229703D01*
X152995129Y-110229703D02*
X153042748Y-110134465D01*
X153042748Y-110134465D02*
X153137986Y-110086846D01*
X153137986Y-110086846D02*
X153233224Y-110086846D01*
X153233224Y-110086846D02*
X153328462Y-110563036D01*
X153614177Y-109229703D02*
X153661796Y-109324941D01*
X153661796Y-109324941D02*
X153661796Y-109515417D01*
X153661796Y-109515417D02*
X153614177Y-109610655D01*
X153614177Y-109610655D02*
X153566557Y-109658274D01*
X153566557Y-109658274D02*
X153471319Y-109705893D01*
X153471319Y-109705893D02*
X153185605Y-109705893D01*
X153185605Y-109705893D02*
X153090367Y-109658274D01*
X153090367Y-109658274D02*
X153042748Y-109610655D01*
X153042748Y-109610655D02*
X152995129Y-109515417D01*
X152995129Y-109515417D02*
X152995129Y-109324941D01*
X152995129Y-109324941D02*
X153042748Y-109229703D01*
X152995129Y-108943988D02*
X152995129Y-108563036D01*
X152661796Y-108801131D02*
X153518938Y-108801131D01*
X153518938Y-108801131D02*
X153614177Y-108753512D01*
X153614177Y-108753512D02*
X153661796Y-108658274D01*
X153661796Y-108658274D02*
X153661796Y-108563036D01*
X153661796Y-108086845D02*
X153614177Y-108182083D01*
X153614177Y-108182083D02*
X153566557Y-108229702D01*
X153566557Y-108229702D02*
X153471319Y-108277321D01*
X153471319Y-108277321D02*
X153185605Y-108277321D01*
X153185605Y-108277321D02*
X153090367Y-108229702D01*
X153090367Y-108229702D02*
X153042748Y-108182083D01*
X153042748Y-108182083D02*
X152995129Y-108086845D01*
X152995129Y-108086845D02*
X152995129Y-107943988D01*
X152995129Y-107943988D02*
X153042748Y-107848750D01*
X153042748Y-107848750D02*
X153090367Y-107801131D01*
X153090367Y-107801131D02*
X153185605Y-107753512D01*
X153185605Y-107753512D02*
X153471319Y-107753512D01*
X153471319Y-107753512D02*
X153566557Y-107801131D01*
X153566557Y-107801131D02*
X153614177Y-107848750D01*
X153614177Y-107848750D02*
X153661796Y-107943988D01*
X153661796Y-107943988D02*
X153661796Y-108086845D01*
X153661796Y-107324940D02*
X152995129Y-107324940D01*
X153185605Y-107324940D02*
X153090367Y-107277321D01*
X153090367Y-107277321D02*
X153042748Y-107229702D01*
X153042748Y-107229702D02*
X152995129Y-107134464D01*
X152995129Y-107134464D02*
X152995129Y-107039226D01*
X153614177Y-106324940D02*
X153661796Y-106420178D01*
X153661796Y-106420178D02*
X153661796Y-106610654D01*
X153661796Y-106610654D02*
X153614177Y-106705892D01*
X153614177Y-106705892D02*
X153518938Y-106753511D01*
X153518938Y-106753511D02*
X153137986Y-106753511D01*
X153137986Y-106753511D02*
X153042748Y-106705892D01*
X153042748Y-106705892D02*
X152995129Y-106610654D01*
X152995129Y-106610654D02*
X152995129Y-106420178D01*
X152995129Y-106420178D02*
X153042748Y-106324940D01*
X153042748Y-106324940D02*
X153137986Y-106277321D01*
X153137986Y-106277321D02*
X153233224Y-106277321D01*
X153233224Y-106277321D02*
X153328462Y-106753511D01*
X153614177Y-105896368D02*
X153661796Y-105801130D01*
X153661796Y-105801130D02*
X153661796Y-105610654D01*
X153661796Y-105610654D02*
X153614177Y-105515416D01*
X153614177Y-105515416D02*
X153518938Y-105467797D01*
X153518938Y-105467797D02*
X153471319Y-105467797D01*
X153471319Y-105467797D02*
X153376081Y-105515416D01*
X153376081Y-105515416D02*
X153328462Y-105610654D01*
X153328462Y-105610654D02*
X153328462Y-105753511D01*
X153328462Y-105753511D02*
X153280843Y-105848749D01*
X153280843Y-105848749D02*
X153185605Y-105896368D01*
X153185605Y-105896368D02*
X153137986Y-105896368D01*
X153137986Y-105896368D02*
X153042748Y-105848749D01*
X153042748Y-105848749D02*
X152995129Y-105753511D01*
X152995129Y-105753511D02*
X152995129Y-105610654D01*
X152995129Y-105610654D02*
X153042748Y-105515416D01*
X152661796Y-104848749D02*
X152661796Y-104658273D01*
X152661796Y-104658273D02*
X152709415Y-104563035D01*
X152709415Y-104563035D02*
X152804653Y-104467797D01*
X152804653Y-104467797D02*
X152995129Y-104420178D01*
X152995129Y-104420178D02*
X153328462Y-104420178D01*
X153328462Y-104420178D02*
X153518938Y-104467797D01*
X153518938Y-104467797D02*
X153614177Y-104563035D01*
X153614177Y-104563035D02*
X153661796Y-104658273D01*
X153661796Y-104658273D02*
X153661796Y-104848749D01*
X153661796Y-104848749D02*
X153614177Y-104943987D01*
X153614177Y-104943987D02*
X153518938Y-105039225D01*
X153518938Y-105039225D02*
X153328462Y-105086844D01*
X153328462Y-105086844D02*
X152995129Y-105086844D01*
X152995129Y-105086844D02*
X152804653Y-105039225D01*
X152804653Y-105039225D02*
X152709415Y-104943987D01*
X152709415Y-104943987D02*
X152661796Y-104848749D01*
X152995129Y-103563035D02*
X153661796Y-103563035D01*
X152995129Y-103991606D02*
X153518938Y-103991606D01*
X153518938Y-103991606D02*
X153614177Y-103943987D01*
X153614177Y-103943987D02*
X153661796Y-103848749D01*
X153661796Y-103848749D02*
X153661796Y-103705892D01*
X153661796Y-103705892D02*
X153614177Y-103610654D01*
X153614177Y-103610654D02*
X153566557Y-103563035D01*
X152995129Y-103229701D02*
X152995129Y-102848749D01*
X152661796Y-103086844D02*
X153518938Y-103086844D01*
X153518938Y-103086844D02*
X153614177Y-103039225D01*
X153614177Y-103039225D02*
X153661796Y-102943987D01*
X153661796Y-102943987D02*
X153661796Y-102848749D01*
X153661796Y-101991606D02*
X153661796Y-102563034D01*
X153661796Y-102277320D02*
X152661796Y-102277320D01*
X152661796Y-102277320D02*
X152804653Y-102372558D01*
X152804653Y-102372558D02*
X152899891Y-102467796D01*
X152899891Y-102467796D02*
X152947510Y-102563034D01*
X125619177Y-122834227D02*
X125666796Y-122691370D01*
X125666796Y-122691370D02*
X125666796Y-122453275D01*
X125666796Y-122453275D02*
X125619177Y-122358037D01*
X125619177Y-122358037D02*
X125571557Y-122310418D01*
X125571557Y-122310418D02*
X125476319Y-122262799D01*
X125476319Y-122262799D02*
X125381081Y-122262799D01*
X125381081Y-122262799D02*
X125285843Y-122310418D01*
X125285843Y-122310418D02*
X125238224Y-122358037D01*
X125238224Y-122358037D02*
X125190605Y-122453275D01*
X125190605Y-122453275D02*
X125142986Y-122643751D01*
X125142986Y-122643751D02*
X125095367Y-122738989D01*
X125095367Y-122738989D02*
X125047748Y-122786608D01*
X125047748Y-122786608D02*
X124952510Y-122834227D01*
X124952510Y-122834227D02*
X124857272Y-122834227D01*
X124857272Y-122834227D02*
X124762034Y-122786608D01*
X124762034Y-122786608D02*
X124714415Y-122738989D01*
X124714415Y-122738989D02*
X124666796Y-122643751D01*
X124666796Y-122643751D02*
X124666796Y-122405656D01*
X124666796Y-122405656D02*
X124714415Y-122262799D01*
X125619177Y-121453275D02*
X125666796Y-121548513D01*
X125666796Y-121548513D02*
X125666796Y-121738989D01*
X125666796Y-121738989D02*
X125619177Y-121834227D01*
X125619177Y-121834227D02*
X125523938Y-121881846D01*
X125523938Y-121881846D02*
X125142986Y-121881846D01*
X125142986Y-121881846D02*
X125047748Y-121834227D01*
X125047748Y-121834227D02*
X125000129Y-121738989D01*
X125000129Y-121738989D02*
X125000129Y-121548513D01*
X125000129Y-121548513D02*
X125047748Y-121453275D01*
X125047748Y-121453275D02*
X125142986Y-121405656D01*
X125142986Y-121405656D02*
X125238224Y-121405656D01*
X125238224Y-121405656D02*
X125333462Y-121881846D01*
X125000129Y-120977084D02*
X125666796Y-120977084D01*
X125095367Y-120977084D02*
X125047748Y-120929465D01*
X125047748Y-120929465D02*
X125000129Y-120834227D01*
X125000129Y-120834227D02*
X125000129Y-120691370D01*
X125000129Y-120691370D02*
X125047748Y-120596132D01*
X125047748Y-120596132D02*
X125142986Y-120548513D01*
X125142986Y-120548513D02*
X125666796Y-120548513D01*
X125619177Y-120119941D02*
X125666796Y-120024703D01*
X125666796Y-120024703D02*
X125666796Y-119834227D01*
X125666796Y-119834227D02*
X125619177Y-119738989D01*
X125619177Y-119738989D02*
X125523938Y-119691370D01*
X125523938Y-119691370D02*
X125476319Y-119691370D01*
X125476319Y-119691370D02*
X125381081Y-119738989D01*
X125381081Y-119738989D02*
X125333462Y-119834227D01*
X125333462Y-119834227D02*
X125333462Y-119977084D01*
X125333462Y-119977084D02*
X125285843Y-120072322D01*
X125285843Y-120072322D02*
X125190605Y-120119941D01*
X125190605Y-120119941D02*
X125142986Y-120119941D01*
X125142986Y-120119941D02*
X125047748Y-120072322D01*
X125047748Y-120072322D02*
X125000129Y-119977084D01*
X125000129Y-119977084D02*
X125000129Y-119834227D01*
X125000129Y-119834227D02*
X125047748Y-119738989D01*
X125666796Y-119119941D02*
X125619177Y-119215179D01*
X125619177Y-119215179D02*
X125571557Y-119262798D01*
X125571557Y-119262798D02*
X125476319Y-119310417D01*
X125476319Y-119310417D02*
X125190605Y-119310417D01*
X125190605Y-119310417D02*
X125095367Y-119262798D01*
X125095367Y-119262798D02*
X125047748Y-119215179D01*
X125047748Y-119215179D02*
X125000129Y-119119941D01*
X125000129Y-119119941D02*
X125000129Y-118977084D01*
X125000129Y-118977084D02*
X125047748Y-118881846D01*
X125047748Y-118881846D02*
X125095367Y-118834227D01*
X125095367Y-118834227D02*
X125190605Y-118786608D01*
X125190605Y-118786608D02*
X125476319Y-118786608D01*
X125476319Y-118786608D02*
X125571557Y-118834227D01*
X125571557Y-118834227D02*
X125619177Y-118881846D01*
X125619177Y-118881846D02*
X125666796Y-118977084D01*
X125666796Y-118977084D02*
X125666796Y-119119941D01*
X125666796Y-118358036D02*
X125000129Y-118358036D01*
X125190605Y-118358036D02*
X125095367Y-118310417D01*
X125095367Y-118310417D02*
X125047748Y-118262798D01*
X125047748Y-118262798D02*
X125000129Y-118167560D01*
X125000129Y-118167560D02*
X125000129Y-118072322D01*
X124666796Y-117881845D02*
X124666796Y-117310417D01*
X125666796Y-117596131D02*
X124666796Y-117596131D01*
X125619177Y-116596131D02*
X125666796Y-116691369D01*
X125666796Y-116691369D02*
X125666796Y-116881845D01*
X125666796Y-116881845D02*
X125619177Y-116977083D01*
X125619177Y-116977083D02*
X125523938Y-117024702D01*
X125523938Y-117024702D02*
X125142986Y-117024702D01*
X125142986Y-117024702D02*
X125047748Y-116977083D01*
X125047748Y-116977083D02*
X125000129Y-116881845D01*
X125000129Y-116881845D02*
X125000129Y-116691369D01*
X125000129Y-116691369D02*
X125047748Y-116596131D01*
X125047748Y-116596131D02*
X125142986Y-116548512D01*
X125142986Y-116548512D02*
X125238224Y-116548512D01*
X125238224Y-116548512D02*
X125333462Y-117024702D01*
X125666796Y-116119940D02*
X125000129Y-116119940D01*
X125095367Y-116119940D02*
X125047748Y-116072321D01*
X125047748Y-116072321D02*
X125000129Y-115977083D01*
X125000129Y-115977083D02*
X125000129Y-115834226D01*
X125000129Y-115834226D02*
X125047748Y-115738988D01*
X125047748Y-115738988D02*
X125142986Y-115691369D01*
X125142986Y-115691369D02*
X125666796Y-115691369D01*
X125142986Y-115691369D02*
X125047748Y-115643750D01*
X125047748Y-115643750D02*
X125000129Y-115548512D01*
X125000129Y-115548512D02*
X125000129Y-115405655D01*
X125000129Y-115405655D02*
X125047748Y-115310416D01*
X125047748Y-115310416D02*
X125142986Y-115262797D01*
X125142986Y-115262797D02*
X125666796Y-115262797D01*
X125000129Y-114786607D02*
X126000129Y-114786607D01*
X125047748Y-114786607D02*
X125000129Y-114691369D01*
X125000129Y-114691369D02*
X125000129Y-114500893D01*
X125000129Y-114500893D02*
X125047748Y-114405655D01*
X125047748Y-114405655D02*
X125095367Y-114358036D01*
X125095367Y-114358036D02*
X125190605Y-114310417D01*
X125190605Y-114310417D02*
X125476319Y-114310417D01*
X125476319Y-114310417D02*
X125571557Y-114358036D01*
X125571557Y-114358036D02*
X125619177Y-114405655D01*
X125619177Y-114405655D02*
X125666796Y-114500893D01*
X125666796Y-114500893D02*
X125666796Y-114691369D01*
X125666796Y-114691369D02*
X125619177Y-114786607D01*
X125619177Y-113500893D02*
X125666796Y-113596131D01*
X125666796Y-113596131D02*
X125666796Y-113786607D01*
X125666796Y-113786607D02*
X125619177Y-113881845D01*
X125619177Y-113881845D02*
X125523938Y-113929464D01*
X125523938Y-113929464D02*
X125142986Y-113929464D01*
X125142986Y-113929464D02*
X125047748Y-113881845D01*
X125047748Y-113881845D02*
X125000129Y-113786607D01*
X125000129Y-113786607D02*
X125000129Y-113596131D01*
X125000129Y-113596131D02*
X125047748Y-113500893D01*
X125047748Y-113500893D02*
X125142986Y-113453274D01*
X125142986Y-113453274D02*
X125238224Y-113453274D01*
X125238224Y-113453274D02*
X125333462Y-113929464D01*
X125666796Y-113024702D02*
X125000129Y-113024702D01*
X125190605Y-113024702D02*
X125095367Y-112977083D01*
X125095367Y-112977083D02*
X125047748Y-112929464D01*
X125047748Y-112929464D02*
X125000129Y-112834226D01*
X125000129Y-112834226D02*
X125000129Y-112738988D01*
X125666796Y-111977083D02*
X125142986Y-111977083D01*
X125142986Y-111977083D02*
X125047748Y-112024702D01*
X125047748Y-112024702D02*
X125000129Y-112119940D01*
X125000129Y-112119940D02*
X125000129Y-112310416D01*
X125000129Y-112310416D02*
X125047748Y-112405654D01*
X125619177Y-111977083D02*
X125666796Y-112072321D01*
X125666796Y-112072321D02*
X125666796Y-112310416D01*
X125666796Y-112310416D02*
X125619177Y-112405654D01*
X125619177Y-112405654D02*
X125523938Y-112453273D01*
X125523938Y-112453273D02*
X125428700Y-112453273D01*
X125428700Y-112453273D02*
X125333462Y-112405654D01*
X125333462Y-112405654D02*
X125285843Y-112310416D01*
X125285843Y-112310416D02*
X125285843Y-112072321D01*
X125285843Y-112072321D02*
X125238224Y-111977083D01*
X125000129Y-111643749D02*
X125000129Y-111262797D01*
X124666796Y-111500892D02*
X125523938Y-111500892D01*
X125523938Y-111500892D02*
X125619177Y-111453273D01*
X125619177Y-111453273D02*
X125666796Y-111358035D01*
X125666796Y-111358035D02*
X125666796Y-111262797D01*
X125000129Y-110500892D02*
X125666796Y-110500892D01*
X125000129Y-110929463D02*
X125523938Y-110929463D01*
X125523938Y-110929463D02*
X125619177Y-110881844D01*
X125619177Y-110881844D02*
X125666796Y-110786606D01*
X125666796Y-110786606D02*
X125666796Y-110643749D01*
X125666796Y-110643749D02*
X125619177Y-110548511D01*
X125619177Y-110548511D02*
X125571557Y-110500892D01*
X125666796Y-110024701D02*
X125000129Y-110024701D01*
X125190605Y-110024701D02*
X125095367Y-109977082D01*
X125095367Y-109977082D02*
X125047748Y-109929463D01*
X125047748Y-109929463D02*
X125000129Y-109834225D01*
X125000129Y-109834225D02*
X125000129Y-109738987D01*
X125666796Y-108977082D02*
X125142986Y-108977082D01*
X125142986Y-108977082D02*
X125047748Y-109024701D01*
X125047748Y-109024701D02*
X125000129Y-109119939D01*
X125000129Y-109119939D02*
X125000129Y-109310415D01*
X125000129Y-109310415D02*
X125047748Y-109405653D01*
X125619177Y-108977082D02*
X125666796Y-109072320D01*
X125666796Y-109072320D02*
X125666796Y-109310415D01*
X125666796Y-109310415D02*
X125619177Y-109405653D01*
X125619177Y-109405653D02*
X125523938Y-109453272D01*
X125523938Y-109453272D02*
X125428700Y-109453272D01*
X125428700Y-109453272D02*
X125333462Y-109405653D01*
X125333462Y-109405653D02*
X125285843Y-109310415D01*
X125285843Y-109310415D02*
X125285843Y-109072320D01*
X125285843Y-109072320D02*
X125238224Y-108977082D01*
X125666796Y-107977082D02*
X125666796Y-108548510D01*
X125666796Y-108262796D02*
X124666796Y-108262796D01*
X124666796Y-108262796D02*
X124809653Y-108358034D01*
X124809653Y-108358034D02*
X124904891Y-108453272D01*
X124904891Y-108453272D02*
X124952510Y-108548510D01*
X125632986Y-102703512D02*
X125632986Y-102370179D01*
X126156796Y-102227322D02*
X126156796Y-102703512D01*
X126156796Y-102703512D02*
X125156796Y-102703512D01*
X125156796Y-102703512D02*
X125156796Y-102227322D01*
X125490129Y-101798750D02*
X126156796Y-101798750D01*
X125585367Y-101798750D02*
X125537748Y-101751131D01*
X125537748Y-101751131D02*
X125490129Y-101655893D01*
X125490129Y-101655893D02*
X125490129Y-101513036D01*
X125490129Y-101513036D02*
X125537748Y-101417798D01*
X125537748Y-101417798D02*
X125632986Y-101370179D01*
X125632986Y-101370179D02*
X126156796Y-101370179D01*
X125490129Y-101036845D02*
X125490129Y-100655893D01*
X125156796Y-100893988D02*
X126013938Y-100893988D01*
X126013938Y-100893988D02*
X126109177Y-100846369D01*
X126109177Y-100846369D02*
X126156796Y-100751131D01*
X126156796Y-100751131D02*
X126156796Y-100655893D01*
X126156796Y-100322559D02*
X125490129Y-100322559D01*
X125680605Y-100322559D02*
X125585367Y-100274940D01*
X125585367Y-100274940D02*
X125537748Y-100227321D01*
X125537748Y-100227321D02*
X125490129Y-100132083D01*
X125490129Y-100132083D02*
X125490129Y-100036845D01*
X126156796Y-99274940D02*
X125632986Y-99274940D01*
X125632986Y-99274940D02*
X125537748Y-99322559D01*
X125537748Y-99322559D02*
X125490129Y-99417797D01*
X125490129Y-99417797D02*
X125490129Y-99608273D01*
X125490129Y-99608273D02*
X125537748Y-99703511D01*
X126109177Y-99274940D02*
X126156796Y-99370178D01*
X126156796Y-99370178D02*
X126156796Y-99608273D01*
X126156796Y-99608273D02*
X126109177Y-99703511D01*
X126109177Y-99703511D02*
X126013938Y-99751130D01*
X126013938Y-99751130D02*
X125918700Y-99751130D01*
X125918700Y-99751130D02*
X125823462Y-99703511D01*
X125823462Y-99703511D02*
X125775843Y-99608273D01*
X125775843Y-99608273D02*
X125775843Y-99370178D01*
X125775843Y-99370178D02*
X125728224Y-99274940D01*
X126156796Y-98370178D02*
X125156796Y-98370178D01*
X126109177Y-98370178D02*
X126156796Y-98465416D01*
X126156796Y-98465416D02*
X126156796Y-98655892D01*
X126156796Y-98655892D02*
X126109177Y-98751130D01*
X126109177Y-98751130D02*
X126061557Y-98798749D01*
X126061557Y-98798749D02*
X125966319Y-98846368D01*
X125966319Y-98846368D02*
X125680605Y-98846368D01*
X125680605Y-98846368D02*
X125585367Y-98798749D01*
X125585367Y-98798749D02*
X125537748Y-98751130D01*
X125537748Y-98751130D02*
X125490129Y-98655892D01*
X125490129Y-98655892D02*
X125490129Y-98465416D01*
X125490129Y-98465416D02*
X125537748Y-98370178D01*
X126156796Y-97465416D02*
X125632986Y-97465416D01*
X125632986Y-97465416D02*
X125537748Y-97513035D01*
X125537748Y-97513035D02*
X125490129Y-97608273D01*
X125490129Y-97608273D02*
X125490129Y-97798749D01*
X125490129Y-97798749D02*
X125537748Y-97893987D01*
X126109177Y-97465416D02*
X126156796Y-97560654D01*
X126156796Y-97560654D02*
X126156796Y-97798749D01*
X126156796Y-97798749D02*
X126109177Y-97893987D01*
X126109177Y-97893987D02*
X126013938Y-97941606D01*
X126013938Y-97941606D02*
X125918700Y-97941606D01*
X125918700Y-97941606D02*
X125823462Y-97893987D01*
X125823462Y-97893987D02*
X125775843Y-97798749D01*
X125775843Y-97798749D02*
X125775843Y-97560654D01*
X125775843Y-97560654D02*
X125728224Y-97465416D01*
X125156796Y-97132082D02*
X126156796Y-96798749D01*
X126156796Y-96798749D02*
X125156796Y-96465416D01*
X126156796Y-95989225D02*
X126109177Y-96084463D01*
X126109177Y-96084463D02*
X126061557Y-96132082D01*
X126061557Y-96132082D02*
X125966319Y-96179701D01*
X125966319Y-96179701D02*
X125680605Y-96179701D01*
X125680605Y-96179701D02*
X125585367Y-96132082D01*
X125585367Y-96132082D02*
X125537748Y-96084463D01*
X125537748Y-96084463D02*
X125490129Y-95989225D01*
X125490129Y-95989225D02*
X125490129Y-95846368D01*
X125490129Y-95846368D02*
X125537748Y-95751130D01*
X125537748Y-95751130D02*
X125585367Y-95703511D01*
X125585367Y-95703511D02*
X125680605Y-95655892D01*
X125680605Y-95655892D02*
X125966319Y-95655892D01*
X125966319Y-95655892D02*
X126061557Y-95703511D01*
X126061557Y-95703511D02*
X126109177Y-95751130D01*
X126109177Y-95751130D02*
X126156796Y-95846368D01*
X126156796Y-95846368D02*
X126156796Y-95989225D01*
X126156796Y-95084463D02*
X126109177Y-95179701D01*
X126109177Y-95179701D02*
X126013938Y-95227320D01*
X126013938Y-95227320D02*
X125156796Y-95227320D01*
X125490129Y-94846367D02*
X125490129Y-94465415D01*
X125156796Y-94703510D02*
X126013938Y-94703510D01*
X126013938Y-94703510D02*
X126109177Y-94655891D01*
X126109177Y-94655891D02*
X126156796Y-94560653D01*
X126156796Y-94560653D02*
X126156796Y-94465415D01*
X126156796Y-93703510D02*
X125632986Y-93703510D01*
X125632986Y-93703510D02*
X125537748Y-93751129D01*
X125537748Y-93751129D02*
X125490129Y-93846367D01*
X125490129Y-93846367D02*
X125490129Y-94036843D01*
X125490129Y-94036843D02*
X125537748Y-94132081D01*
X126109177Y-93703510D02*
X126156796Y-93798748D01*
X126156796Y-93798748D02*
X126156796Y-94036843D01*
X126156796Y-94036843D02*
X126109177Y-94132081D01*
X126109177Y-94132081D02*
X126013938Y-94179700D01*
X126013938Y-94179700D02*
X125918700Y-94179700D01*
X125918700Y-94179700D02*
X125823462Y-94132081D01*
X125823462Y-94132081D02*
X125775843Y-94036843D01*
X125775843Y-94036843D02*
X125775843Y-93798748D01*
X125775843Y-93798748D02*
X125728224Y-93703510D01*
X125490129Y-93227319D02*
X126347272Y-93227319D01*
X126347272Y-93227319D02*
X126442510Y-93274938D01*
X126442510Y-93274938D02*
X126490129Y-93370176D01*
X126490129Y-93370176D02*
X126490129Y-93417795D01*
X125156796Y-93227319D02*
X125204415Y-93274938D01*
X125204415Y-93274938D02*
X125252034Y-93227319D01*
X125252034Y-93227319D02*
X125204415Y-93179700D01*
X125204415Y-93179700D02*
X125156796Y-93227319D01*
X125156796Y-93227319D02*
X125252034Y-93227319D01*
X126109177Y-92370177D02*
X126156796Y-92465415D01*
X126156796Y-92465415D02*
X126156796Y-92655891D01*
X126156796Y-92655891D02*
X126109177Y-92751129D01*
X126109177Y-92751129D02*
X126013938Y-92798748D01*
X126013938Y-92798748D02*
X125632986Y-92798748D01*
X125632986Y-92798748D02*
X125537748Y-92751129D01*
X125537748Y-92751129D02*
X125490129Y-92655891D01*
X125490129Y-92655891D02*
X125490129Y-92465415D01*
X125490129Y-92465415D02*
X125537748Y-92370177D01*
X125537748Y-92370177D02*
X125632986Y-92322558D01*
X125632986Y-92322558D02*
X125728224Y-92322558D01*
X125728224Y-92322558D02*
X125823462Y-92798748D01*
X126156796Y-91370177D02*
X126156796Y-91941605D01*
X126156796Y-91655891D02*
X125156796Y-91655891D01*
X125156796Y-91655891D02*
X125299653Y-91751129D01*
X125299653Y-91751129D02*
X125394891Y-91846367D01*
X125394891Y-91846367D02*
X125442510Y-91941605D01*
D11*
%TO.C,Radio1*%
X144076977Y-78446155D02*
X143836977Y-78110155D01*
X144316977Y-78110155D01*
X144076977Y-78446155D01*
G36*
X144076977Y-78446155D02*
G01*
X143836977Y-78110155D01*
X144316977Y-78110155D01*
X144076977Y-78446155D01*
G37*
X146176977Y-107846155D02*
X130726977Y-107846155D01*
X146176977Y-78646155D02*
X146176977Y-107846155D01*
X146176977Y-78646155D02*
X146176977Y-78646155D01*
X145600977Y-84310155D02*
X134932977Y-84310155D01*
X145600977Y-78976155D02*
X145600977Y-84310155D01*
X145600977Y-78976155D02*
X145600977Y-78976155D01*
X134932977Y-84310155D02*
X134932977Y-78976155D01*
X134932977Y-78976155D02*
X145600977Y-78976155D01*
X134932977Y-78976155D02*
X134932977Y-78976155D01*
X130726977Y-107846155D02*
X130726977Y-78646155D01*
X130726977Y-78646155D02*
X146176977Y-78646155D01*
%TO.C,conectoresOut1*%
X154296977Y-99880655D02*
X154296977Y-115340655D01*
X154296977Y-102060655D02*
X154896977Y-102060655D01*
X154296977Y-104600655D02*
X154896977Y-104600655D01*
X154296977Y-107140655D02*
X154896977Y-107140655D01*
X154296977Y-109680655D02*
X154896977Y-109680655D01*
X154296977Y-112220655D02*
X154896977Y-112220655D01*
X154296977Y-114760655D02*
X154896977Y-114760655D01*
X154296977Y-115340655D02*
X160316977Y-115340655D01*
X154896977Y-100460655D02*
X154296977Y-100460655D01*
X154896977Y-102060655D02*
X154896977Y-100460655D01*
X154896977Y-103000655D02*
X154296977Y-103000655D01*
X154896977Y-104600655D02*
X154896977Y-103000655D01*
X154896977Y-105540655D02*
X154296977Y-105540655D01*
X154896977Y-107140655D02*
X154896977Y-105540655D01*
X154896977Y-108080655D02*
X154296977Y-108080655D01*
X154896977Y-109680655D02*
X154896977Y-108080655D01*
X154896977Y-110620655D02*
X154296977Y-110620655D01*
X154896977Y-112220655D02*
X154896977Y-110620655D01*
X154896977Y-113160655D02*
X154296977Y-113160655D01*
X154896977Y-114760655D02*
X154896977Y-113160655D01*
X155326977Y-115630655D02*
X159326977Y-115630655D01*
X158786977Y-101510655D02*
X159316977Y-101260655D01*
X158786977Y-113710655D02*
X158786977Y-101510655D01*
X159316977Y-101260655D02*
X160316977Y-101260655D01*
X159316977Y-113960655D02*
X158786977Y-113710655D01*
X159316977Y-113960655D02*
X159316977Y-101260655D01*
X160316977Y-99880655D02*
X154296977Y-99880655D01*
X160316977Y-101510655D02*
X159316977Y-101510655D01*
X160316977Y-113710655D02*
X159316977Y-113710655D01*
X160316977Y-113960655D02*
X159316977Y-113960655D01*
X160316977Y-115340655D02*
X160316977Y-99880655D01*
%TO.C,SensorTemperatura1*%
X119801977Y-113605655D02*
X119801977Y-117205655D01*
X119813499Y-113567177D02*
G75*
G02*
X124251978Y-115405655I1838478J-1838478D01*
G01*
X124251977Y-115405655D02*
G75*
G02*
X119813499Y-117244133I-2600000J0D01*
G01*
%TO.C,EntradaVoltaje1*%
X124611977Y-102170655D02*
X124611977Y-91950655D01*
X124611977Y-91950655D02*
X120591977Y-91950655D01*
X124111977Y-101670655D02*
X122901977Y-101670655D01*
X124111977Y-92450655D02*
X124111977Y-101670655D01*
X122901977Y-101670655D02*
X122901977Y-102170655D01*
X122901977Y-92450655D02*
X124111977Y-92450655D01*
X122901977Y-91950655D02*
X122901977Y-92450655D01*
X122791977Y-91650655D02*
X120291977Y-91650655D01*
X122091977Y-102170655D02*
X122091977Y-101170655D01*
X122091977Y-101170655D02*
X120591977Y-101170655D01*
X122091977Y-92950655D02*
X120591977Y-92950655D01*
X122091977Y-91950655D02*
X122091977Y-92950655D01*
X120591977Y-102170655D02*
X124611977Y-102170655D01*
X120591977Y-91950655D02*
X120591977Y-102170655D01*
X120291977Y-91650655D02*
X120291977Y-94150655D01*
D12*
%TO.C,G\u002A\u002A\u002A*%
G36*
X133019476Y-111327320D02*
G01*
X133390719Y-112191760D01*
X133510790Y-112957750D01*
X133383050Y-113812481D01*
X133080970Y-114751831D01*
X132432293Y-116410865D01*
X131664505Y-118166947D01*
X130869876Y-119817273D01*
X130254618Y-120963937D01*
X129442872Y-122377216D01*
X128875016Y-121677269D01*
X128478912Y-121103396D01*
X127975197Y-120257427D01*
X127469544Y-119317326D01*
X127445523Y-119269885D01*
X126583884Y-117562449D01*
X127887784Y-115663317D01*
X128707029Y-114550373D01*
X129695286Y-113323547D01*
X130663757Y-112215392D01*
X130840554Y-112026261D01*
X132489426Y-110288335D01*
X133019476Y-111327320D01*
G37*
G36*
X121517414Y-93285617D02*
G01*
X121923431Y-93758752D01*
X122414770Y-94474190D01*
X123067351Y-95520171D01*
X123843473Y-96827405D01*
X124705432Y-98326598D01*
X125615525Y-99948459D01*
X126536049Y-101623695D01*
X127429302Y-103283014D01*
X128257581Y-104857124D01*
X128983182Y-106276732D01*
X129568403Y-107472547D01*
X129975540Y-108375276D01*
X130164460Y-108904506D01*
X130162546Y-109574038D01*
X129968669Y-110269478D01*
X129521605Y-111016453D01*
X128982801Y-111573283D01*
X128468911Y-111834737D01*
X128250722Y-111819204D01*
X127974204Y-111542984D01*
X127503815Y-110882818D01*
X126873393Y-109897696D01*
X126116777Y-108646606D01*
X125267806Y-107188539D01*
X124360317Y-105582484D01*
X123428149Y-103887429D01*
X122505141Y-102162365D01*
X121625131Y-100466281D01*
X120857204Y-98930327D01*
X120200568Y-97507812D01*
X119802650Y-96411029D01*
X119650680Y-95548172D01*
X119731886Y-94827436D01*
X120033497Y-94157018D01*
X120164722Y-93952463D01*
X120681462Y-93290626D01*
X121098012Y-93072127D01*
X121517414Y-93285617D01*
G37*
G36*
X139796416Y-83141167D02*
G01*
X140828598Y-83582655D01*
X142015387Y-84323651D01*
X143290731Y-85310293D01*
X144588580Y-86488716D01*
X145842882Y-87805059D01*
X146987586Y-89205457D01*
X147609045Y-90085865D01*
X149362813Y-93054505D01*
X150902418Y-96289952D01*
X152153105Y-99617716D01*
X152994367Y-102655550D01*
X153210787Y-103806661D01*
X153392293Y-105123406D01*
X153532268Y-106501563D01*
X153624096Y-107836905D01*
X153661161Y-109025210D01*
X153636846Y-109962254D01*
X153544536Y-110543812D01*
X153500956Y-110635796D01*
X153219096Y-110871956D01*
X153093848Y-110846807D01*
X153018280Y-110552470D01*
X152924088Y-109860973D01*
X152822739Y-108872285D01*
X152725701Y-107686376D01*
X152716279Y-107555193D01*
X152397946Y-104566156D01*
X151861613Y-101793566D01*
X151066923Y-99098189D01*
X149973524Y-96340795D01*
X148694346Y-93678642D01*
X147023245Y-90761969D01*
X145238768Y-88309219D01*
X143317595Y-86294483D01*
X141236403Y-84691856D01*
X139912453Y-83923138D01*
X139144686Y-83508541D01*
X138781297Y-83253994D01*
X138773249Y-83113497D01*
X138984892Y-83053052D01*
X139796416Y-83141167D01*
G37*
G36*
X134426961Y-116705409D02*
G01*
X134704954Y-116986573D01*
X135082555Y-117498029D01*
X135581292Y-118274837D01*
X136222696Y-119352056D01*
X137028297Y-120764745D01*
X138019625Y-122547964D01*
X139218211Y-124736771D01*
X139267423Y-124827110D01*
X140441868Y-127000629D01*
X141383423Y-128784474D01*
X142111044Y-130218645D01*
X142643685Y-131343137D01*
X143000302Y-132197949D01*
X143199850Y-132823078D01*
X143261291Y-133254641D01*
X143147784Y-133749048D01*
X142868145Y-134413768D01*
X142802832Y-134539939D01*
X142238418Y-135384404D01*
X141715200Y-135740563D01*
X141238446Y-135605187D01*
X141169773Y-135540748D01*
X140874459Y-135142152D01*
X140392534Y-134381560D01*
X139758378Y-133321605D01*
X139006368Y-132024919D01*
X138170882Y-130554135D01*
X137286298Y-128971885D01*
X136386993Y-127340801D01*
X135507345Y-125723516D01*
X134681732Y-124182662D01*
X133944532Y-122780872D01*
X133330122Y-121580778D01*
X132872881Y-120645012D01*
X132607187Y-120036208D01*
X132553448Y-119842787D01*
X132662449Y-119321935D01*
X132940635Y-118608154D01*
X133314778Y-117842477D01*
X133711653Y-117165938D01*
X134058032Y-116719570D01*
X134227044Y-116619478D01*
X134426961Y-116705409D01*
G37*
G36*
X137396028Y-89872450D02*
G01*
X138620994Y-90580681D01*
X138988792Y-90831232D01*
X140249990Y-91949705D01*
X141485071Y-93494888D01*
X142659252Y-95395530D01*
X143737753Y-97580378D01*
X144685789Y-99978180D01*
X145468581Y-102517682D01*
X146051345Y-105127633D01*
X146098213Y-105395222D01*
X146242146Y-106497026D01*
X146354709Y-107858890D01*
X146432338Y-109352279D01*
X146471467Y-110848656D01*
X146468531Y-112219486D01*
X146419962Y-113336233D01*
X146337051Y-114004773D01*
X145931650Y-115581296D01*
X145463346Y-116684619D01*
X144916468Y-117337334D01*
X144275346Y-117562037D01*
X143900777Y-117517549D01*
X143298721Y-117193664D01*
X142851617Y-116723773D01*
X142675309Y-116413358D01*
X142579333Y-116072735D01*
X142563541Y-115596468D01*
X142627783Y-114879118D01*
X142771910Y-113815247D01*
X142846778Y-113303707D01*
X143017533Y-112008540D01*
X143114495Y-110847900D01*
X143141995Y-109659589D01*
X143104361Y-108281406D01*
X143020832Y-106783204D01*
X142917744Y-105366364D01*
X142796902Y-104031939D01*
X142671171Y-102903796D01*
X142553418Y-102105800D01*
X142516447Y-101927322D01*
X141744462Y-99236845D01*
X140786498Y-96812286D01*
X139675998Y-94724719D01*
X138446402Y-93045218D01*
X138220934Y-92797989D01*
X137478418Y-92068653D01*
X136797851Y-91575714D01*
X136013371Y-91232837D01*
X134959111Y-90953686D01*
X134483350Y-90852527D01*
X133928971Y-90646120D01*
X133865017Y-90357631D01*
X134291305Y-89990698D01*
X134533238Y-89856265D01*
X135442682Y-89530053D01*
X136366768Y-89528844D01*
X137396028Y-89872450D01*
G37*
G36*
X141778644Y-76368724D02*
G01*
X143035668Y-76649852D01*
X145660592Y-77740564D01*
X148150066Y-79234639D01*
X150191351Y-80891216D01*
X151528662Y-82257497D01*
X152833464Y-83790615D01*
X154076987Y-85436435D01*
X155230464Y-87140822D01*
X156265126Y-88849642D01*
X157152205Y-90508762D01*
X157862932Y-92064046D01*
X158368539Y-93461361D01*
X158640258Y-94646573D01*
X158649320Y-95565547D01*
X158366958Y-96164149D01*
X158326841Y-96199984D01*
X157656316Y-96509841D01*
X156743441Y-96646711D01*
X155816837Y-96599562D01*
X155105124Y-96357364D01*
X155102370Y-96355566D01*
X154732945Y-95954421D01*
X154194965Y-95143877D01*
X153517388Y-93971739D01*
X152729167Y-92485810D01*
X152574388Y-92182029D01*
X150876389Y-89013674D01*
X149226643Y-86316959D01*
X147607525Y-84069862D01*
X146001411Y-82250360D01*
X144390677Y-80836429D01*
X142757699Y-79806047D01*
X142611567Y-79732618D01*
X141713844Y-79318216D01*
X140971696Y-79072279D01*
X140185654Y-78951783D01*
X139156250Y-78913705D01*
X138806763Y-78911967D01*
X137532047Y-78946803D01*
X136577767Y-79074281D01*
X135770581Y-79322011D01*
X135497938Y-79438951D01*
X133982108Y-80370337D01*
X132544135Y-81719823D01*
X131265569Y-83407485D01*
X130989172Y-83857912D01*
X130423757Y-84740816D01*
X130047022Y-85165653D01*
X129872844Y-85140711D01*
X129915099Y-84674276D01*
X130187662Y-83774635D01*
X130305813Y-83449784D01*
X131263485Y-81429089D01*
X132514691Y-79764224D01*
X134117788Y-78393023D01*
X136116298Y-77260257D01*
X137961653Y-76611018D01*
X139899009Y-76309438D01*
X141778644Y-76368724D01*
G37*
%TD*%
M02*
