%TF.GenerationSoftware,KiCad,Pcbnew,8.0.4*%
%TF.CreationDate,2024-08-09T17:27:35-06:00*%
%TF.ProjectId,radio,72616469-6f2e-46b6-9963-61645f706362,rev?*%
%TF.SameCoordinates,Original*%
%TF.FileFunction,Drillmap*%
%TF.FilePolarity,Positive*%
%FSLAX45Y45*%
G04 Gerber Fmt 4.5, Leading zero omitted, Abs format (unit mm)*
G04 Created by KiCad (PCBNEW 8.0.4) date 2024-08-09 17:27:35*
%MOMM*%
%LPD*%
G01*
G04 APERTURE LIST*
%ADD10C,0.050000*%
%ADD11C,0.200000*%
G04 APERTURE END LIST*
D10*
X17144515Y-10646748D02*
G75*
G02*
X10735880Y-10646748I-3204317J0D01*
G01*
X10735880Y-10646748D02*
G75*
G02*
X17144515Y-10646748I3204317J0D01*
G01*
D11*
X10994157Y-14165049D02*
X10994157Y-13965049D01*
X10994157Y-13965049D02*
X11041776Y-13965049D01*
X11041776Y-13965049D02*
X11070348Y-13974573D01*
X11070348Y-13974573D02*
X11089395Y-13993621D01*
X11089395Y-13993621D02*
X11098919Y-14012668D01*
X11098919Y-14012668D02*
X11108443Y-14050763D01*
X11108443Y-14050763D02*
X11108443Y-14079335D01*
X11108443Y-14079335D02*
X11098919Y-14117430D01*
X11098919Y-14117430D02*
X11089395Y-14136478D01*
X11089395Y-14136478D02*
X11070348Y-14155525D01*
X11070348Y-14155525D02*
X11041776Y-14165049D01*
X11041776Y-14165049D02*
X10994157Y-14165049D01*
X11194157Y-14165049D02*
X11194157Y-14031716D01*
X11194157Y-14069811D02*
X11203681Y-14050763D01*
X11203681Y-14050763D02*
X11213205Y-14041240D01*
X11213205Y-14041240D02*
X11232252Y-14031716D01*
X11232252Y-14031716D02*
X11251300Y-14031716D01*
X11317967Y-14165049D02*
X11317967Y-14031716D01*
X11317967Y-13965049D02*
X11308443Y-13974573D01*
X11308443Y-13974573D02*
X11317967Y-13984097D01*
X11317967Y-13984097D02*
X11327490Y-13974573D01*
X11327490Y-13974573D02*
X11317967Y-13965049D01*
X11317967Y-13965049D02*
X11317967Y-13984097D01*
X11441776Y-14165049D02*
X11422728Y-14155525D01*
X11422728Y-14155525D02*
X11413205Y-14136478D01*
X11413205Y-14136478D02*
X11413205Y-13965049D01*
X11546538Y-14165049D02*
X11527490Y-14155525D01*
X11527490Y-14155525D02*
X11517967Y-14136478D01*
X11517967Y-14136478D02*
X11517967Y-13965049D01*
X11775109Y-14165049D02*
X11775109Y-13965049D01*
X11775109Y-13965049D02*
X11841776Y-14107906D01*
X11841776Y-14107906D02*
X11908443Y-13965049D01*
X11908443Y-13965049D02*
X11908443Y-14165049D01*
X12089395Y-14165049D02*
X12089395Y-14060287D01*
X12089395Y-14060287D02*
X12079871Y-14041240D01*
X12079871Y-14041240D02*
X12060824Y-14031716D01*
X12060824Y-14031716D02*
X12022728Y-14031716D01*
X12022728Y-14031716D02*
X12003681Y-14041240D01*
X12089395Y-14155525D02*
X12070348Y-14165049D01*
X12070348Y-14165049D02*
X12022728Y-14165049D01*
X12022728Y-14165049D02*
X12003681Y-14155525D01*
X12003681Y-14155525D02*
X11994157Y-14136478D01*
X11994157Y-14136478D02*
X11994157Y-14117430D01*
X11994157Y-14117430D02*
X12003681Y-14098383D01*
X12003681Y-14098383D02*
X12022728Y-14088859D01*
X12022728Y-14088859D02*
X12070348Y-14088859D01*
X12070348Y-14088859D02*
X12089395Y-14079335D01*
X12184633Y-14031716D02*
X12184633Y-14231716D01*
X12184633Y-14041240D02*
X12203681Y-14031716D01*
X12203681Y-14031716D02*
X12241776Y-14031716D01*
X12241776Y-14031716D02*
X12260824Y-14041240D01*
X12260824Y-14041240D02*
X12270348Y-14050763D01*
X12270348Y-14050763D02*
X12279871Y-14069811D01*
X12279871Y-14069811D02*
X12279871Y-14126954D01*
X12279871Y-14126954D02*
X12270348Y-14146002D01*
X12270348Y-14146002D02*
X12260824Y-14155525D01*
X12260824Y-14155525D02*
X12241776Y-14165049D01*
X12241776Y-14165049D02*
X12203681Y-14165049D01*
X12203681Y-14165049D02*
X12184633Y-14155525D01*
X12365586Y-14146002D02*
X12375109Y-14155525D01*
X12375109Y-14155525D02*
X12365586Y-14165049D01*
X12365586Y-14165049D02*
X12356062Y-14155525D01*
X12356062Y-14155525D02*
X12365586Y-14146002D01*
X12365586Y-14146002D02*
X12365586Y-14165049D01*
X12365586Y-14041240D02*
X12375109Y-14050763D01*
X12375109Y-14050763D02*
X12365586Y-14060287D01*
X12365586Y-14060287D02*
X12356062Y-14050763D01*
X12356062Y-14050763D02*
X12365586Y-14041240D01*
X12365586Y-14041240D02*
X12365586Y-14060287D01*
M02*
