%TF.GenerationSoftware,KiCad,Pcbnew,8.0.4*%
%TF.CreationDate,2024-08-09T17:27:33-06:00*%
%TF.ProjectId,radio,72616469-6f2e-46b6-9963-61645f706362,rev?*%
%TF.SameCoordinates,Original*%
%TF.FileFunction,Legend,Bot*%
%TF.FilePolarity,Positive*%
%FSLAX46Y46*%
G04 Gerber Fmt 4.6, Leading zero omitted, Abs format (unit mm)*
G04 Created by KiCad (PCBNEW 8.0.4) date 2024-08-09 17:27:33*
%MOMM*%
%LPD*%
G01*
G04 APERTURE LIST*
%ADD10C,0.500000*%
%ADD11C,0.250000*%
G04 APERTURE END LIST*
D10*
X136324971Y-126946893D02*
X136229733Y-126851655D01*
X136229733Y-126851655D02*
X135944019Y-126756416D01*
X135944019Y-126756416D02*
X135753543Y-126756416D01*
X135753543Y-126756416D02*
X135467828Y-126851655D01*
X135467828Y-126851655D02*
X135277352Y-127042131D01*
X135277352Y-127042131D02*
X135182114Y-127232607D01*
X135182114Y-127232607D02*
X135086876Y-127613559D01*
X135086876Y-127613559D02*
X135086876Y-127899274D01*
X135086876Y-127899274D02*
X135182114Y-128280226D01*
X135182114Y-128280226D02*
X135277352Y-128470702D01*
X135277352Y-128470702D02*
X135467828Y-128661178D01*
X135467828Y-128661178D02*
X135753543Y-128756416D01*
X135753543Y-128756416D02*
X135944019Y-128756416D01*
X135944019Y-128756416D02*
X136229733Y-128661178D01*
X136229733Y-128661178D02*
X136324971Y-128565940D01*
X137563066Y-128756416D02*
X137944019Y-128756416D01*
X137944019Y-128756416D02*
X138134495Y-128661178D01*
X138134495Y-128661178D02*
X138324971Y-128470702D01*
X138324971Y-128470702D02*
X138420209Y-128089750D01*
X138420209Y-128089750D02*
X138420209Y-127423083D01*
X138420209Y-127423083D02*
X138324971Y-127042131D01*
X138324971Y-127042131D02*
X138134495Y-126851655D01*
X138134495Y-126851655D02*
X137944019Y-126756416D01*
X137944019Y-126756416D02*
X137563066Y-126756416D01*
X137563066Y-126756416D02*
X137372590Y-126851655D01*
X137372590Y-126851655D02*
X137182114Y-127042131D01*
X137182114Y-127042131D02*
X137086876Y-127423083D01*
X137086876Y-127423083D02*
X137086876Y-128089750D01*
X137086876Y-128089750D02*
X137182114Y-128470702D01*
X137182114Y-128470702D02*
X137372590Y-128661178D01*
X137372590Y-128661178D02*
X137563066Y-128756416D01*
X139086876Y-128756416D02*
X140420209Y-128756416D01*
X140420209Y-128756416D02*
X139086876Y-126756416D01*
X139086876Y-126756416D02*
X140420209Y-126756416D01*
X142324971Y-126946893D02*
X142229733Y-126851655D01*
X142229733Y-126851655D02*
X141944019Y-126756416D01*
X141944019Y-126756416D02*
X141753543Y-126756416D01*
X141753543Y-126756416D02*
X141467828Y-126851655D01*
X141467828Y-126851655D02*
X141277352Y-127042131D01*
X141277352Y-127042131D02*
X141182114Y-127232607D01*
X141182114Y-127232607D02*
X141086876Y-127613559D01*
X141086876Y-127613559D02*
X141086876Y-127899274D01*
X141086876Y-127899274D02*
X141182114Y-128280226D01*
X141182114Y-128280226D02*
X141277352Y-128470702D01*
X141277352Y-128470702D02*
X141467828Y-128661178D01*
X141467828Y-128661178D02*
X141753543Y-128756416D01*
X141753543Y-128756416D02*
X141944019Y-128756416D01*
X141944019Y-128756416D02*
X142229733Y-128661178D01*
X142229733Y-128661178D02*
X142324971Y-128565940D01*
X143563066Y-127708797D02*
X143563066Y-126756416D01*
X142896400Y-128756416D02*
X143563066Y-127708797D01*
X143563066Y-127708797D02*
X144229733Y-128756416D01*
X144610686Y-128756416D02*
X145753543Y-128756416D01*
X145182114Y-126756416D02*
X145182114Y-128756416D01*
D11*
X163541652Y-102045179D02*
X163541652Y-102711845D01*
X163541652Y-102711845D02*
X164541652Y-102045179D01*
X164541652Y-102045179D02*
X164541652Y-102711845D01*
X164255937Y-103045179D02*
X164255937Y-103521369D01*
X164541652Y-102949941D02*
X163541652Y-103283274D01*
X163541652Y-103283274D02*
X164541652Y-103616607D01*
X164446413Y-104521369D02*
X164494033Y-104473750D01*
X164494033Y-104473750D02*
X164541652Y-104330893D01*
X164541652Y-104330893D02*
X164541652Y-104235655D01*
X164541652Y-104235655D02*
X164494033Y-104092798D01*
X164494033Y-104092798D02*
X164398794Y-103997560D01*
X164398794Y-103997560D02*
X164303556Y-103949941D01*
X164303556Y-103949941D02*
X164113080Y-103902322D01*
X164113080Y-103902322D02*
X163970223Y-103902322D01*
X163970223Y-103902322D02*
X163779747Y-103949941D01*
X163779747Y-103949941D02*
X163684509Y-103997560D01*
X163684509Y-103997560D02*
X163589271Y-104092798D01*
X163589271Y-104092798D02*
X163541652Y-104235655D01*
X163541652Y-104235655D02*
X163541652Y-104330893D01*
X163541652Y-104330893D02*
X163589271Y-104473750D01*
X163589271Y-104473750D02*
X163636890Y-104521369D01*
X164255937Y-104902322D02*
X164255937Y-105378512D01*
X164541652Y-104807084D02*
X163541652Y-105140417D01*
X163541652Y-105140417D02*
X164541652Y-105473750D01*
X163541652Y-105664227D02*
X163541652Y-106235655D01*
X164541652Y-105949941D02*
X163541652Y-105949941D01*
X164017842Y-106568989D02*
X164017842Y-106902322D01*
X164541652Y-107045179D02*
X164541652Y-106568989D01*
X164541652Y-106568989D02*
X163541652Y-106568989D01*
X163541652Y-106568989D02*
X163541652Y-107045179D01*
X164446413Y-108045179D02*
X164494033Y-107997560D01*
X164494033Y-107997560D02*
X164541652Y-107854703D01*
X164541652Y-107854703D02*
X164541652Y-107759465D01*
X164541652Y-107759465D02*
X164494033Y-107616608D01*
X164494033Y-107616608D02*
X164398794Y-107521370D01*
X164398794Y-107521370D02*
X164303556Y-107473751D01*
X164303556Y-107473751D02*
X164113080Y-107426132D01*
X164113080Y-107426132D02*
X163970223Y-107426132D01*
X163970223Y-107426132D02*
X163779747Y-107473751D01*
X163779747Y-107473751D02*
X163684509Y-107521370D01*
X163684509Y-107521370D02*
X163589271Y-107616608D01*
X163589271Y-107616608D02*
X163541652Y-107759465D01*
X163541652Y-107759465D02*
X163541652Y-107854703D01*
X163541652Y-107854703D02*
X163589271Y-107997560D01*
X163589271Y-107997560D02*
X163636890Y-108045179D01*
X164255937Y-108426132D02*
X164255937Y-108902322D01*
X164541652Y-108330894D02*
X163541652Y-108664227D01*
X163541652Y-108664227D02*
X164541652Y-108997560D01*
X164494033Y-109283275D02*
X164541652Y-109426132D01*
X164541652Y-109426132D02*
X164541652Y-109664227D01*
X164541652Y-109664227D02*
X164494033Y-109759465D01*
X164494033Y-109759465D02*
X164446413Y-109807084D01*
X164446413Y-109807084D02*
X164351175Y-109854703D01*
X164351175Y-109854703D02*
X164255937Y-109854703D01*
X164255937Y-109854703D02*
X164160699Y-109807084D01*
X164160699Y-109807084D02*
X164113080Y-109759465D01*
X164113080Y-109759465D02*
X164065461Y-109664227D01*
X164065461Y-109664227D02*
X164017842Y-109473751D01*
X164017842Y-109473751D02*
X163970223Y-109378513D01*
X163970223Y-109378513D02*
X163922604Y-109330894D01*
X163922604Y-109330894D02*
X163827366Y-109283275D01*
X163827366Y-109283275D02*
X163732128Y-109283275D01*
X163732128Y-109283275D02*
X163636890Y-109330894D01*
X163636890Y-109330894D02*
X163589271Y-109378513D01*
X163589271Y-109378513D02*
X163541652Y-109473751D01*
X163541652Y-109473751D02*
X163541652Y-109711846D01*
X163541652Y-109711846D02*
X163589271Y-109854703D01*
X164494033Y-110330894D02*
X164541652Y-110330894D01*
X164541652Y-110330894D02*
X164636890Y-110283275D01*
X164636890Y-110283275D02*
X164684509Y-110235656D01*
X163541652Y-111426132D02*
X163541652Y-112092798D01*
X163541652Y-112092798D02*
X164541652Y-111426132D01*
X164541652Y-111426132D02*
X164541652Y-112092798D01*
X164255937Y-112426132D02*
X164255937Y-112902322D01*
X164541652Y-112330894D02*
X163541652Y-112664227D01*
X163541652Y-112664227D02*
X164541652Y-112997560D01*
X164446413Y-113902322D02*
X164494033Y-113854703D01*
X164494033Y-113854703D02*
X164541652Y-113711846D01*
X164541652Y-113711846D02*
X164541652Y-113616608D01*
X164541652Y-113616608D02*
X164494033Y-113473751D01*
X164494033Y-113473751D02*
X164398794Y-113378513D01*
X164398794Y-113378513D02*
X164303556Y-113330894D01*
X164303556Y-113330894D02*
X164113080Y-113283275D01*
X164113080Y-113283275D02*
X163970223Y-113283275D01*
X163970223Y-113283275D02*
X163779747Y-113330894D01*
X163779747Y-113330894D02*
X163684509Y-113378513D01*
X163684509Y-113378513D02*
X163589271Y-113473751D01*
X163589271Y-113473751D02*
X163541652Y-113616608D01*
X163541652Y-113616608D02*
X163541652Y-113711846D01*
X163541652Y-113711846D02*
X163589271Y-113854703D01*
X163589271Y-113854703D02*
X163636890Y-113902322D01*
X164446413Y-114330894D02*
X164494033Y-114378513D01*
X164494033Y-114378513D02*
X164541652Y-114330894D01*
X164541652Y-114330894D02*
X164494033Y-114283275D01*
X164494033Y-114283275D02*
X164446413Y-114330894D01*
X164446413Y-114330894D02*
X164541652Y-114330894D01*
X166151596Y-104211845D02*
X165151596Y-104211845D01*
X165627786Y-104211845D02*
X165627786Y-104783273D01*
X166151596Y-104783273D02*
X165151596Y-104783273D01*
X165627786Y-105259464D02*
X165627786Y-105592797D01*
X166151596Y-105735654D02*
X166151596Y-105259464D01*
X166151596Y-105259464D02*
X165151596Y-105259464D01*
X165151596Y-105259464D02*
X165151596Y-105735654D01*
X166056357Y-106735654D02*
X166103977Y-106688035D01*
X166103977Y-106688035D02*
X166151596Y-106545178D01*
X166151596Y-106545178D02*
X166151596Y-106449940D01*
X166151596Y-106449940D02*
X166103977Y-106307083D01*
X166103977Y-106307083D02*
X166008738Y-106211845D01*
X166008738Y-106211845D02*
X165913500Y-106164226D01*
X165913500Y-106164226D02*
X165723024Y-106116607D01*
X165723024Y-106116607D02*
X165580167Y-106116607D01*
X165580167Y-106116607D02*
X165389691Y-106164226D01*
X165389691Y-106164226D02*
X165294453Y-106211845D01*
X165294453Y-106211845D02*
X165199215Y-106307083D01*
X165199215Y-106307083D02*
X165151596Y-106449940D01*
X165151596Y-106449940D02*
X165151596Y-106545178D01*
X165151596Y-106545178D02*
X165199215Y-106688035D01*
X165199215Y-106688035D02*
X165246834Y-106735654D01*
X166151596Y-107164226D02*
X165151596Y-107164226D01*
X165627786Y-107164226D02*
X165627786Y-107735654D01*
X166151596Y-107735654D02*
X165151596Y-107735654D01*
X165151596Y-108402321D02*
X165151596Y-108592797D01*
X165151596Y-108592797D02*
X165199215Y-108688035D01*
X165199215Y-108688035D02*
X165294453Y-108783273D01*
X165294453Y-108783273D02*
X165484929Y-108830892D01*
X165484929Y-108830892D02*
X165818262Y-108830892D01*
X165818262Y-108830892D02*
X166008738Y-108783273D01*
X166008738Y-108783273D02*
X166103977Y-108688035D01*
X166103977Y-108688035D02*
X166151596Y-108592797D01*
X166151596Y-108592797D02*
X166151596Y-108402321D01*
X166151596Y-108402321D02*
X166103977Y-108307083D01*
X166103977Y-108307083D02*
X166008738Y-108211845D01*
X166008738Y-108211845D02*
X165818262Y-108164226D01*
X165818262Y-108164226D02*
X165484929Y-108164226D01*
X165484929Y-108164226D02*
X165294453Y-108211845D01*
X165294453Y-108211845D02*
X165199215Y-108307083D01*
X165199215Y-108307083D02*
X165151596Y-108402321D01*
X165627786Y-110021369D02*
X165627786Y-110354702D01*
X166151596Y-110497559D02*
X166151596Y-110021369D01*
X166151596Y-110021369D02*
X165151596Y-110021369D01*
X165151596Y-110021369D02*
X165151596Y-110497559D01*
X166151596Y-110926131D02*
X165151596Y-110926131D01*
X165151596Y-110926131D02*
X166151596Y-111497559D01*
X166151596Y-111497559D02*
X165151596Y-111497559D01*
X167761540Y-105711846D02*
X166761540Y-105711846D01*
X166761540Y-105711846D02*
X167475825Y-106045179D01*
X167475825Y-106045179D02*
X166761540Y-106378512D01*
X166761540Y-106378512D02*
X167761540Y-106378512D01*
X167237730Y-106854703D02*
X167237730Y-107188036D01*
X167761540Y-107330893D02*
X167761540Y-106854703D01*
X167761540Y-106854703D02*
X166761540Y-106854703D01*
X166761540Y-106854703D02*
X166761540Y-107330893D01*
X166380587Y-107188036D02*
X166523444Y-107045179D01*
X166761540Y-107664227D02*
X167761540Y-108330893D01*
X166761540Y-108330893D02*
X167761540Y-107664227D01*
X167761540Y-108711846D02*
X166761540Y-108711846D01*
X167666301Y-109759464D02*
X167713921Y-109711845D01*
X167713921Y-109711845D02*
X167761540Y-109568988D01*
X167761540Y-109568988D02*
X167761540Y-109473750D01*
X167761540Y-109473750D02*
X167713921Y-109330893D01*
X167713921Y-109330893D02*
X167618682Y-109235655D01*
X167618682Y-109235655D02*
X167523444Y-109188036D01*
X167523444Y-109188036D02*
X167332968Y-109140417D01*
X167332968Y-109140417D02*
X167190111Y-109140417D01*
X167190111Y-109140417D02*
X166999635Y-109188036D01*
X166999635Y-109188036D02*
X166904397Y-109235655D01*
X166904397Y-109235655D02*
X166809159Y-109330893D01*
X166809159Y-109330893D02*
X166761540Y-109473750D01*
X166761540Y-109473750D02*
X166761540Y-109568988D01*
X166761540Y-109568988D02*
X166809159Y-109711845D01*
X166809159Y-109711845D02*
X166856778Y-109759464D01*
X166761540Y-110378512D02*
X166761540Y-110568988D01*
X166761540Y-110568988D02*
X166809159Y-110664226D01*
X166809159Y-110664226D02*
X166904397Y-110759464D01*
X166904397Y-110759464D02*
X167094873Y-110807083D01*
X167094873Y-110807083D02*
X167428206Y-110807083D01*
X167428206Y-110807083D02*
X167618682Y-110759464D01*
X167618682Y-110759464D02*
X167713921Y-110664226D01*
X167713921Y-110664226D02*
X167761540Y-110568988D01*
X167761540Y-110568988D02*
X167761540Y-110378512D01*
X167761540Y-110378512D02*
X167713921Y-110283274D01*
X167713921Y-110283274D02*
X167618682Y-110188036D01*
X167618682Y-110188036D02*
X167428206Y-110140417D01*
X167428206Y-110140417D02*
X167094873Y-110140417D01*
X167094873Y-110140417D02*
X166904397Y-110188036D01*
X166904397Y-110188036D02*
X166809159Y-110283274D01*
X166809159Y-110283274D02*
X166761540Y-110378512D01*
D10*
X135869833Y-119511837D02*
X135774595Y-119416599D01*
X135774595Y-119416599D02*
X135488881Y-119321360D01*
X135488881Y-119321360D02*
X135298405Y-119321360D01*
X135298405Y-119321360D02*
X135012690Y-119416599D01*
X135012690Y-119416599D02*
X134822214Y-119607075D01*
X134822214Y-119607075D02*
X134726976Y-119797551D01*
X134726976Y-119797551D02*
X134631738Y-120178503D01*
X134631738Y-120178503D02*
X134631738Y-120464218D01*
X134631738Y-120464218D02*
X134726976Y-120845170D01*
X134726976Y-120845170D02*
X134822214Y-121035646D01*
X134822214Y-121035646D02*
X135012690Y-121226122D01*
X135012690Y-121226122D02*
X135298405Y-121321360D01*
X135298405Y-121321360D02*
X135488881Y-121321360D01*
X135488881Y-121321360D02*
X135774595Y-121226122D01*
X135774595Y-121226122D02*
X135869833Y-121130884D01*
X136631738Y-119892789D02*
X137584119Y-119892789D01*
X136441262Y-119321360D02*
X137107928Y-121321360D01*
X137107928Y-121321360D02*
X137774595Y-119321360D01*
X138441262Y-119321360D02*
X138441262Y-121321360D01*
X138441262Y-121321360D02*
X139584119Y-119321360D01*
X139584119Y-119321360D02*
X139584119Y-121321360D01*
X140441262Y-119416599D02*
X140726976Y-119321360D01*
X140726976Y-119321360D02*
X141203167Y-119321360D01*
X141203167Y-119321360D02*
X141393643Y-119416599D01*
X141393643Y-119416599D02*
X141488881Y-119511837D01*
X141488881Y-119511837D02*
X141584119Y-119702313D01*
X141584119Y-119702313D02*
X141584119Y-119892789D01*
X141584119Y-119892789D02*
X141488881Y-120083265D01*
X141488881Y-120083265D02*
X141393643Y-120178503D01*
X141393643Y-120178503D02*
X141203167Y-120273741D01*
X141203167Y-120273741D02*
X140822214Y-120368979D01*
X140822214Y-120368979D02*
X140631738Y-120464218D01*
X140631738Y-120464218D02*
X140536500Y-120559456D01*
X140536500Y-120559456D02*
X140441262Y-120749932D01*
X140441262Y-120749932D02*
X140441262Y-120940408D01*
X140441262Y-120940408D02*
X140536500Y-121130884D01*
X140536500Y-121130884D02*
X140631738Y-121226122D01*
X140631738Y-121226122D02*
X140822214Y-121321360D01*
X140822214Y-121321360D02*
X141298405Y-121321360D01*
X141298405Y-121321360D02*
X141584119Y-121226122D01*
X142346024Y-119892789D02*
X143298405Y-119892789D01*
X142155548Y-119321360D02*
X142822214Y-121321360D01*
X142822214Y-121321360D02*
X143488881Y-119321360D01*
X143869834Y-121321360D02*
X145012691Y-121321360D01*
X144441262Y-119321360D02*
X144441262Y-121321360D01*
X133584119Y-116291949D02*
X133488881Y-116196711D01*
X133488881Y-116196711D02*
X133203167Y-116101472D01*
X133203167Y-116101472D02*
X133012691Y-116101472D01*
X133012691Y-116101472D02*
X132726976Y-116196711D01*
X132726976Y-116196711D02*
X132536500Y-116387187D01*
X132536500Y-116387187D02*
X132441262Y-116577663D01*
X132441262Y-116577663D02*
X132346024Y-116958615D01*
X132346024Y-116958615D02*
X132346024Y-117244330D01*
X132346024Y-117244330D02*
X132441262Y-117625282D01*
X132441262Y-117625282D02*
X132536500Y-117815758D01*
X132536500Y-117815758D02*
X132726976Y-118006234D01*
X132726976Y-118006234D02*
X133012691Y-118101472D01*
X133012691Y-118101472D02*
X133203167Y-118101472D01*
X133203167Y-118101472D02*
X133488881Y-118006234D01*
X133488881Y-118006234D02*
X133584119Y-117910996D01*
X134441262Y-116101472D02*
X134441262Y-118101472D01*
X135393643Y-116101472D02*
X135393643Y-118101472D01*
X135393643Y-118101472D02*
X135869833Y-118101472D01*
X135869833Y-118101472D02*
X136155548Y-118006234D01*
X136155548Y-118006234D02*
X136346024Y-117815758D01*
X136346024Y-117815758D02*
X136441262Y-117625282D01*
X136441262Y-117625282D02*
X136536500Y-117244330D01*
X136536500Y-117244330D02*
X136536500Y-116958615D01*
X136536500Y-116958615D02*
X136441262Y-116577663D01*
X136441262Y-116577663D02*
X136346024Y-116387187D01*
X136346024Y-116387187D02*
X136155548Y-116196711D01*
X136155548Y-116196711D02*
X135869833Y-116101472D01*
X135869833Y-116101472D02*
X135393643Y-116101472D01*
X137107929Y-118101472D02*
X138250786Y-118101472D01*
X137679357Y-116101472D02*
X137679357Y-118101472D01*
X138917453Y-117149091D02*
X139584120Y-117149091D01*
X139869834Y-116101472D02*
X138917453Y-116101472D01*
X138917453Y-116101472D02*
X138917453Y-118101472D01*
X138917453Y-118101472D02*
X139869834Y-118101472D01*
X142250787Y-118101472D02*
X142250787Y-116482425D01*
X142250787Y-116482425D02*
X142346025Y-116291949D01*
X142346025Y-116291949D02*
X142441263Y-116196711D01*
X142441263Y-116196711D02*
X142631739Y-116101472D01*
X142631739Y-116101472D02*
X143012692Y-116101472D01*
X143012692Y-116101472D02*
X143203168Y-116196711D01*
X143203168Y-116196711D02*
X143298406Y-116291949D01*
X143298406Y-116291949D02*
X143393644Y-116482425D01*
X143393644Y-116482425D02*
X143393644Y-118101472D01*
X144250787Y-116672901D02*
X145203168Y-116672901D01*
X144060311Y-116101472D02*
X144726977Y-118101472D01*
X144726977Y-118101472D02*
X145393644Y-116101472D01*
X145869835Y-118101472D02*
X147203168Y-118101472D01*
X147203168Y-118101472D02*
X145869835Y-116101472D01*
X145869835Y-116101472D02*
X147203168Y-116101472D01*
M02*
