M48
; DRILL file {KiCad 8.0.4} date 2024-08-09T17:27:35-0600
; FORMAT={-:-/ absolute / inch / decimal}
; #@! TF.CreationDate,2024-08-09T17:27:35-06:00
; #@! TF.GenerationSoftware,Kicad,Pcbnew,8.0.4
; #@! TF.FileFunction,Plated,1,2,PTH
FMAT,2
INCH
; #@! TA.AperFunction,Plated,PTH,ViaDrill
T1C0.0118
; #@! TA.AperFunction,Plated,PTH,ComponentDrill
T2C0.0295
; #@! TA.AperFunction,Plated,PTH,ComponentDrill
T3C0.0374
; #@! TA.AperFunction,Plated,PTH,ComponentDrill
T4C0.0394
; #@! TA.AperFunction,Plated,PTH,ComponentDrill
T5C0.0469
; #@! TA.AperFunction,Plated,PTH,ComponentDrill
T6C0.1181
%
G90
G05
T1
X5.8426Y-3.2632
T2
X4.7894Y-4.4935
X4.7894Y-4.5935
X4.8394Y-4.5435
T3
X4.8387Y-3.7229
X4.8387Y-3.8213
X4.8387Y-3.9197
T4
X5.3723Y-3.1593
X5.3723Y-3.2593
X5.4723Y-3.1593
X5.4723Y-3.2593
X5.5723Y-3.1593
X5.5723Y-3.2593
X5.6723Y-3.1593
X5.6723Y-3.2593
T5
X6.194Y-3.9866
X6.194Y-4.0866
X6.194Y-4.1866
X6.194Y-4.2866
X6.194Y-4.3866
X6.194Y-4.4866
T6
X4.4893Y-3.8036
X5.5188Y-5.2809
X6.4194Y-3.6284
M30
