%TF.GenerationSoftware,KiCad,Pcbnew,8.0.4*%
%TF.CreationDate,2024-08-09T17:27:33-06:00*%
%TF.ProjectId,radio,72616469-6f2e-46b6-9963-61645f706362,rev?*%
%TF.SameCoordinates,Original*%
%TF.FileFunction,Copper,L2,Bot*%
%TF.FilePolarity,Positive*%
%FSLAX46Y46*%
G04 Gerber Fmt 4.6, Leading zero omitted, Abs format (unit mm)*
G04 Created by KiCad (PCBNEW 8.0.4) date 2024-08-09 17:27:33*
%MOMM*%
%LPD*%
G01*
G04 APERTURE LIST*
G04 Aperture macros list*
%AMRoundRect*
0 Rectangle with rounded corners*
0 $1 Rounding radius*
0 $2 $3 $4 $5 $6 $7 $8 $9 X,Y pos of 4 corners*
0 Add a 4 corners polygon primitive as box body*
4,1,4,$2,$3,$4,$5,$6,$7,$8,$9,$2,$3,0*
0 Add four circle primitives for the rounded corners*
1,1,$1+$1,$2,$3*
1,1,$1+$1,$4,$5*
1,1,$1+$1,$6,$7*
1,1,$1+$1,$8,$9*
0 Add four rect primitives between the rounded corners*
20,1,$1+$1,$2,$3,$4,$5,0*
20,1,$1+$1,$4,$5,$6,$7,0*
20,1,$1+$1,$6,$7,$8,$9,0*
20,1,$1+$1,$8,$9,$2,$3,0*%
G04 Aperture macros list end*
%TA.AperFunction,ComponentPad*%
%ADD10C,6.000000*%
%TD*%
%TA.AperFunction,ComponentPad*%
%ADD11C,1.700000*%
%TD*%
%TA.AperFunction,ComponentPad*%
%ADD12R,1.700000X1.700000*%
%TD*%
%TA.AperFunction,ComponentPad*%
%ADD13RoundRect,0.250000X0.845000X-0.620000X0.845000X0.620000X-0.845000X0.620000X-0.845000X-0.620000X0*%
%TD*%
%TA.AperFunction,ComponentPad*%
%ADD14O,2.190000X1.740000*%
%TD*%
%TA.AperFunction,ComponentPad*%
%ADD15R,1.300000X1.300000*%
%TD*%
%TA.AperFunction,ComponentPad*%
%ADD16C,1.300000*%
%TD*%
%TA.AperFunction,ComponentPad*%
%ADD17RoundRect,0.250000X-0.725000X0.600000X-0.725000X-0.600000X0.725000X-0.600000X0.725000X0.600000X0*%
%TD*%
%TA.AperFunction,ComponentPad*%
%ADD18O,1.950000X1.700000*%
%TD*%
%TA.AperFunction,ViaPad*%
%ADD19C,0.600000*%
%TD*%
%TA.AperFunction,Conductor*%
%ADD20C,1.000000*%
%TD*%
%TA.AperFunction,Conductor*%
%ADD21C,0.200000*%
%TD*%
G04 APERTURE END LIST*
D10*
%TO.P,tornillo1,1*%
%TO.N,N/C*%
X114026977Y-96610655D03*
%TD*%
%TO.P,tornillo2,2*%
%TO.N,N/C*%
X163051977Y-92160655D03*
%TD*%
%TO.P,tornillo3,3*%
%TO.N,N/C*%
X140176977Y-134135655D03*
%TD*%
D11*
%TO.P,Radio1,8,IRQ*%
%TO.N,unconnected-(Radio1-IRQ-Pad8)*%
X136456977Y-82786155D03*
%TO.P,Radio1,7,MISO*%
%TO.N,misoRadio*%
X136456977Y-80246155D03*
%TO.P,Radio1,6,MOSI*%
%TO.N,mosiRadio*%
X138996977Y-82786155D03*
%TO.P,Radio1,5,SCK*%
%TO.N,sckRadio*%
X138996977Y-80246155D03*
%TO.P,Radio1,4,~{CSN}*%
%TO.N,csnRadio*%
X141536977Y-82786155D03*
%TO.P,Radio1,3,CE*%
%TO.N,ceRadio*%
X141536977Y-80246155D03*
%TO.P,Radio1,2,VCC*%
%TO.N,+3.3V*%
X144076977Y-82786155D03*
D12*
%TO.P,Radio1,1,GND*%
%TO.N,GND*%
X144076977Y-80246155D03*
%TD*%
D13*
%TO.P,conectoresOut1,1,Pin_1*%
%TO.N,misoRadio*%
X157326977Y-113960655D03*
D14*
%TO.P,conectoresOut1,2,Pin_2*%
%TO.N,mosiRadio*%
X157326977Y-111420655D03*
%TO.P,conectoresOut1,3,Pin_3*%
%TO.N,sckRadio*%
X157326977Y-108880655D03*
%TO.P,conectoresOut1,4,Pin_4*%
%TO.N,csnRadio*%
X157326977Y-106340655D03*
%TO.P,conectoresOut1,5,Pin_5*%
%TO.N,ceRadio*%
X157326977Y-103800655D03*
%TO.P,conectoresOut1,6,Pin_6*%
%TO.N,pata2tmp36gz*%
X157326977Y-101260655D03*
%TD*%
D15*
%TO.P,SensorTemperatura1,1,+VS*%
%TO.N,+3.3V*%
X121651977Y-114135655D03*
D16*
%TO.P,SensorTemperatura1,2,VOUT*%
%TO.N,pata2tmp36gz*%
X122921977Y-115405655D03*
%TO.P,SensorTemperatura1,3,GND*%
%TO.N,GND*%
X121651977Y-116675655D03*
%TD*%
D17*
%TO.P,EntradaVoltaje1,1,Pin_1*%
%TO.N,+3.3V*%
X122901977Y-94560655D03*
D18*
%TO.P,EntradaVoltaje1,2,Pin_2*%
%TO.N,GND*%
X122901977Y-97060655D03*
%TO.P,EntradaVoltaje1,3,Pin_3*%
%TO.N,+3.3V*%
X122901977Y-99560655D03*
%TD*%
D19*
%TO.N,+3.3V*%
X148401977Y-82885655D03*
%TD*%
D20*
%TO.N,+3.3V*%
X120101977Y-98735655D02*
X120101977Y-94960655D01*
X122901977Y-99560655D02*
X120926977Y-99560655D01*
X120926977Y-99560655D02*
X120101977Y-98735655D01*
X120101977Y-94960655D02*
X120501977Y-94560655D01*
X120501977Y-94560655D02*
X122901977Y-94560655D01*
X121651977Y-114135655D02*
X121651977Y-100810655D01*
X121651977Y-100810655D02*
X122901977Y-99560655D01*
D21*
%TO.N,pata2tmp36gz*%
X155931977Y-105856025D02*
X155931977Y-106890655D01*
X158851977Y-109235285D02*
X157836607Y-110250655D01*
X158036607Y-107710655D02*
X158851977Y-108526025D01*
D20*
X160751977Y-122585655D02*
X159751977Y-123585655D01*
D21*
X158721977Y-104285285D02*
X157836607Y-105170655D01*
X160631977Y-112790655D02*
X160751977Y-112910655D01*
D20*
X159751977Y-123585655D02*
X117451977Y-123585655D01*
D21*
X157326977Y-101260655D02*
X158721977Y-102655655D01*
X119081977Y-115405655D02*
X122921977Y-115405655D01*
X156617347Y-105170655D02*
X155931977Y-105856025D01*
X155876977Y-111850285D02*
X156817347Y-112790655D01*
X156817347Y-112790655D02*
X160631977Y-112790655D01*
X158721977Y-102655655D02*
X158721977Y-104285285D01*
D20*
X117451977Y-123585655D02*
X117451977Y-117035655D01*
X117451977Y-117035655D02*
X118376977Y-116110655D01*
D21*
X158851977Y-108526025D02*
X158851977Y-109235285D01*
X156561977Y-110250655D02*
X155876977Y-110935655D01*
X157836607Y-110250655D02*
X156561977Y-110250655D01*
X156751977Y-107710655D02*
X158036607Y-107710655D01*
D20*
X160751977Y-112910655D02*
X160751977Y-122585655D01*
D21*
X157836607Y-105170655D02*
X156617347Y-105170655D01*
X155931977Y-106890655D02*
X156751977Y-107710655D01*
X155876977Y-110935655D02*
X155876977Y-111850285D01*
X118376977Y-116110655D02*
X119081977Y-115405655D01*
D20*
%TO.N,ceRadio*%
X137099009Y-84336155D02*
X137726977Y-83708187D01*
X134277477Y-84336155D02*
X137099009Y-84336155D01*
X133626977Y-83685655D02*
X134277477Y-84336155D01*
D21*
X137726977Y-83708187D02*
X137726977Y-82429809D01*
X140971291Y-80246155D02*
X141536977Y-80246155D01*
X137726977Y-82429809D02*
X138746131Y-81410655D01*
X138746131Y-81410655D02*
X139806791Y-81410655D01*
X139806791Y-81410655D02*
X140971291Y-80246155D01*
D20*
%TO.N,mosiRadio*%
X162876977Y-110735655D02*
X162876977Y-98010655D01*
X143276977Y-96263599D02*
X143276977Y-96235655D01*
X162276977Y-97410655D02*
X144424033Y-97410655D01*
X162191977Y-111420655D02*
X162876977Y-110735655D01*
D21*
X142012823Y-81635655D02*
X140147477Y-81635655D01*
D20*
X144424033Y-97410655D02*
X143276977Y-96263599D01*
X157326977Y-111420655D02*
X162191977Y-111420655D01*
X143276977Y-84178187D02*
X143218211Y-84119421D01*
X162876977Y-98010655D02*
X162276977Y-97410655D01*
X143276977Y-96235655D02*
X143276977Y-84178187D01*
D21*
X140147477Y-81635655D02*
X138996977Y-82786155D01*
X143218211Y-84119421D02*
X142926977Y-83828187D01*
X142926977Y-83828187D02*
X142926977Y-82549809D01*
X142926977Y-82549809D02*
X142012823Y-81635655D01*
D20*
%TO.N,csnRadio*%
X157326977Y-106340655D02*
X161271977Y-106340655D01*
X161326977Y-99160655D02*
X144476977Y-99160655D01*
X161271977Y-106340655D02*
X161326977Y-106285655D01*
X144476977Y-99160655D02*
X141536977Y-96220655D01*
X161326977Y-106285655D02*
X161326977Y-99160655D01*
X141536977Y-96220655D02*
X141536977Y-82786155D01*
%TO.N,ceRadio*%
X133251977Y-101285655D02*
X133251977Y-84060655D01*
X133251977Y-84060655D02*
X133626977Y-83685655D01*
X135766977Y-103800655D02*
X133251977Y-101285655D01*
X157326977Y-103800655D02*
X135766977Y-103800655D01*
%TO.N,sckRadio*%
X130976977Y-83160655D02*
X130801977Y-82985655D01*
X130976977Y-106760655D02*
X130976977Y-83160655D01*
X157326977Y-108880655D02*
X133096977Y-108880655D01*
D21*
X132391477Y-81396155D02*
X137846977Y-81396155D01*
D20*
X133096977Y-108880655D02*
X130976977Y-106760655D01*
D21*
X130801977Y-82985655D02*
X132391477Y-81396155D01*
X137846977Y-81396155D02*
X138996977Y-80246155D01*
D20*
%TO.N,misoRadio*%
X157326977Y-113960655D02*
X134076977Y-113960655D01*
X134076977Y-113960655D02*
X129151977Y-109035655D01*
X129051977Y-82310655D02*
X131116477Y-80246155D01*
X129151977Y-109035655D02*
X129151977Y-82410655D01*
X129151977Y-82410655D02*
X129051977Y-82310655D01*
X131116477Y-80246155D02*
X136456977Y-80246155D01*
%TO.N,GND*%
X122901977Y-97060655D02*
X127001977Y-101160655D01*
X127001977Y-101160655D02*
X127001977Y-119485655D01*
X127001977Y-119485655D02*
X122301977Y-119485655D01*
X122301977Y-119485655D02*
X121651977Y-118835655D01*
X121651977Y-118835655D02*
X121651977Y-116675655D01*
X144076977Y-80246155D02*
X144076977Y-77660655D01*
X144076977Y-77660655D02*
X143498021Y-77081699D01*
X143498021Y-77081699D02*
X139969021Y-77081699D01*
X139499935Y-76645733D02*
X138349159Y-76645733D01*
X139969021Y-77081699D02*
X139516495Y-76629173D01*
X139516495Y-76629173D02*
X139499935Y-76645733D01*
X138349159Y-76645733D02*
X137297343Y-76701466D01*
X137297343Y-76701466D02*
X136938895Y-77059914D01*
X136938895Y-77059914D02*
X134354889Y-77059914D01*
X125051977Y-96635655D02*
X124626977Y-97060655D01*
X134354889Y-77059914D02*
X134162923Y-77090664D01*
X134162923Y-77090664D02*
X133542128Y-77212718D01*
X133542128Y-77212718D02*
X132574706Y-78180140D01*
X132574706Y-78180140D02*
X129909195Y-78180140D01*
X129909195Y-78180140D02*
X125378680Y-82710655D01*
X125378680Y-82710655D02*
X125051977Y-82710655D01*
X125051977Y-82710655D02*
X125051977Y-96635655D01*
X124626977Y-97060655D02*
X122901977Y-97060655D01*
%TO.N,+3.3V*%
X148381195Y-76758421D02*
X148351379Y-76749196D01*
X139417412Y-75427236D02*
X139402299Y-75426969D01*
X137212711Y-75504267D02*
X136121349Y-75600817D01*
X148302477Y-82786155D02*
X148401977Y-82885655D01*
X146264480Y-76199345D02*
X145927387Y-76120612D01*
X146814331Y-76749196D02*
X146264480Y-76199345D01*
X144852340Y-75909225D02*
X144680520Y-75881699D01*
X141833544Y-75881699D02*
X141448561Y-75496716D01*
X133952214Y-75909118D02*
X132877175Y-76120481D01*
X148351379Y-76749196D02*
X146814331Y-76749196D01*
X140497738Y-75446315D02*
X139417412Y-75427236D01*
X145927387Y-76120612D02*
X144852340Y-75909225D01*
X138306802Y-75446294D02*
X137212711Y-75504267D01*
X139402299Y-75426969D02*
X138306802Y-75446294D01*
X129706092Y-76980140D02*
X128884663Y-77266400D01*
X148401977Y-76779203D02*
X148381195Y-76758421D01*
X135034041Y-75735827D02*
X133952214Y-75909118D01*
X132877175Y-76120481D02*
X132017516Y-76980140D01*
X144680520Y-75881699D02*
X141833544Y-75881699D01*
X136121349Y-75600817D02*
X135034041Y-75735827D01*
X132017516Y-76980140D02*
X129706092Y-76980140D01*
X141448561Y-75496716D02*
X140497738Y-75446315D01*
X144076977Y-82786155D02*
X148302477Y-82786155D01*
X148401977Y-82885655D02*
X148401977Y-76779203D01*
X128884663Y-77266400D02*
X128884662Y-77266400D01*
X128884662Y-77266400D02*
X128671456Y-77340700D01*
X128671456Y-77340700D02*
X122901977Y-83110179D01*
X122901977Y-83110179D02*
X122901977Y-94560655D01*
%TD*%
M02*
