%TF.GenerationSoftware,KiCad,Pcbnew,8.0.4*%
%TF.CreationDate,2024-08-09T17:24:51-06:00*%
%TF.ProjectId,ePotencia,65506f74-656e-4636-9961-2e6b69636164,rev?*%
%TF.SameCoordinates,Original*%
%TF.FileFunction,Legend,Top*%
%TF.FilePolarity,Positive*%
%FSLAX46Y46*%
G04 Gerber Fmt 4.6, Leading zero omitted, Abs format (unit mm)*
G04 Created by KiCad (PCBNEW 8.0.4) date 2024-08-09 17:24:51*
%MOMM*%
%LPD*%
G01*
G04 APERTURE LIST*
%ADD10C,0.150000*%
%ADD11C,0.120023*%
%ADD12C,0.120000*%
%ADD13C,0.000000*%
%ADD14C,0.127000*%
%ADD15C,0.200000*%
G04 APERTURE END LIST*
D10*
X136249819Y-108599286D02*
X135583152Y-108599286D01*
X135773628Y-108599286D02*
X135678390Y-108551667D01*
X135678390Y-108551667D02*
X135630771Y-108504048D01*
X135630771Y-108504048D02*
X135583152Y-108408810D01*
X135583152Y-108408810D02*
X135583152Y-108313572D01*
X136202200Y-107599286D02*
X136249819Y-107694524D01*
X136249819Y-107694524D02*
X136249819Y-107885000D01*
X136249819Y-107885000D02*
X136202200Y-107980238D01*
X136202200Y-107980238D02*
X136106961Y-108027857D01*
X136106961Y-108027857D02*
X135726009Y-108027857D01*
X135726009Y-108027857D02*
X135630771Y-107980238D01*
X135630771Y-107980238D02*
X135583152Y-107885000D01*
X135583152Y-107885000D02*
X135583152Y-107694524D01*
X135583152Y-107694524D02*
X135630771Y-107599286D01*
X135630771Y-107599286D02*
X135726009Y-107551667D01*
X135726009Y-107551667D02*
X135821247Y-107551667D01*
X135821247Y-107551667D02*
X135916485Y-108027857D01*
X135583152Y-106694524D02*
X136392676Y-106694524D01*
X136392676Y-106694524D02*
X136487914Y-106742143D01*
X136487914Y-106742143D02*
X136535533Y-106789762D01*
X136535533Y-106789762D02*
X136583152Y-106885000D01*
X136583152Y-106885000D02*
X136583152Y-107027857D01*
X136583152Y-107027857D02*
X136535533Y-107123095D01*
X136202200Y-106694524D02*
X136249819Y-106789762D01*
X136249819Y-106789762D02*
X136249819Y-106980238D01*
X136249819Y-106980238D02*
X136202200Y-107075476D01*
X136202200Y-107075476D02*
X136154580Y-107123095D01*
X136154580Y-107123095D02*
X136059342Y-107170714D01*
X136059342Y-107170714D02*
X135773628Y-107170714D01*
X135773628Y-107170714D02*
X135678390Y-107123095D01*
X135678390Y-107123095D02*
X135630771Y-107075476D01*
X135630771Y-107075476D02*
X135583152Y-106980238D01*
X135583152Y-106980238D02*
X135583152Y-106789762D01*
X135583152Y-106789762D02*
X135630771Y-106694524D01*
X135583152Y-105789762D02*
X136249819Y-105789762D01*
X135583152Y-106218333D02*
X136106961Y-106218333D01*
X136106961Y-106218333D02*
X136202200Y-106170714D01*
X136202200Y-106170714D02*
X136249819Y-106075476D01*
X136249819Y-106075476D02*
X136249819Y-105932619D01*
X136249819Y-105932619D02*
X136202200Y-105837381D01*
X136202200Y-105837381D02*
X136154580Y-105789762D01*
X136249819Y-105170714D02*
X136202200Y-105265952D01*
X136202200Y-105265952D02*
X136106961Y-105313571D01*
X136106961Y-105313571D02*
X135249819Y-105313571D01*
X136249819Y-104361190D02*
X135726009Y-104361190D01*
X135726009Y-104361190D02*
X135630771Y-104408809D01*
X135630771Y-104408809D02*
X135583152Y-104504047D01*
X135583152Y-104504047D02*
X135583152Y-104694523D01*
X135583152Y-104694523D02*
X135630771Y-104789761D01*
X136202200Y-104361190D02*
X136249819Y-104456428D01*
X136249819Y-104456428D02*
X136249819Y-104694523D01*
X136249819Y-104694523D02*
X136202200Y-104789761D01*
X136202200Y-104789761D02*
X136106961Y-104837380D01*
X136106961Y-104837380D02*
X136011723Y-104837380D01*
X136011723Y-104837380D02*
X135916485Y-104789761D01*
X135916485Y-104789761D02*
X135868866Y-104694523D01*
X135868866Y-104694523D02*
X135868866Y-104456428D01*
X135868866Y-104456428D02*
X135821247Y-104361190D01*
X136249819Y-103456428D02*
X135249819Y-103456428D01*
X136202200Y-103456428D02*
X136249819Y-103551666D01*
X136249819Y-103551666D02*
X136249819Y-103742142D01*
X136249819Y-103742142D02*
X136202200Y-103837380D01*
X136202200Y-103837380D02*
X136154580Y-103884999D01*
X136154580Y-103884999D02*
X136059342Y-103932618D01*
X136059342Y-103932618D02*
X135773628Y-103932618D01*
X135773628Y-103932618D02*
X135678390Y-103884999D01*
X135678390Y-103884999D02*
X135630771Y-103837380D01*
X135630771Y-103837380D02*
X135583152Y-103742142D01*
X135583152Y-103742142D02*
X135583152Y-103551666D01*
X135583152Y-103551666D02*
X135630771Y-103456428D01*
X136249819Y-102837380D02*
X136202200Y-102932618D01*
X136202200Y-102932618D02*
X136154580Y-102980237D01*
X136154580Y-102980237D02*
X136059342Y-103027856D01*
X136059342Y-103027856D02*
X135773628Y-103027856D01*
X135773628Y-103027856D02*
X135678390Y-102980237D01*
X135678390Y-102980237D02*
X135630771Y-102932618D01*
X135630771Y-102932618D02*
X135583152Y-102837380D01*
X135583152Y-102837380D02*
X135583152Y-102694523D01*
X135583152Y-102694523D02*
X135630771Y-102599285D01*
X135630771Y-102599285D02*
X135678390Y-102551666D01*
X135678390Y-102551666D02*
X135773628Y-102504047D01*
X135773628Y-102504047D02*
X136059342Y-102504047D01*
X136059342Y-102504047D02*
X136154580Y-102551666D01*
X136154580Y-102551666D02*
X136202200Y-102599285D01*
X136202200Y-102599285D02*
X136249819Y-102694523D01*
X136249819Y-102694523D02*
X136249819Y-102837380D01*
X136249819Y-102075475D02*
X135583152Y-102075475D01*
X135773628Y-102075475D02*
X135678390Y-102027856D01*
X135678390Y-102027856D02*
X135630771Y-101980237D01*
X135630771Y-101980237D02*
X135583152Y-101884999D01*
X135583152Y-101884999D02*
X135583152Y-101789761D01*
X135249819Y-101551665D02*
X135249819Y-100932618D01*
X135249819Y-100932618D02*
X135630771Y-101265951D01*
X135630771Y-101265951D02*
X135630771Y-101123094D01*
X135630771Y-101123094D02*
X135678390Y-101027856D01*
X135678390Y-101027856D02*
X135726009Y-100980237D01*
X135726009Y-100980237D02*
X135821247Y-100932618D01*
X135821247Y-100932618D02*
X136059342Y-100932618D01*
X136059342Y-100932618D02*
X136154580Y-100980237D01*
X136154580Y-100980237D02*
X136202200Y-101027856D01*
X136202200Y-101027856D02*
X136249819Y-101123094D01*
X136249819Y-101123094D02*
X136249819Y-101408808D01*
X136249819Y-101408808D02*
X136202200Y-101504046D01*
X136202200Y-101504046D02*
X136154580Y-101551665D01*
X135249819Y-100646903D02*
X136249819Y-100313570D01*
X136249819Y-100313570D02*
X135249819Y-99980237D01*
X136249819Y-99123094D02*
X136249819Y-99694522D01*
X136249819Y-99408808D02*
X135249819Y-99408808D01*
X135249819Y-99408808D02*
X135392676Y-99504046D01*
X135392676Y-99504046D02*
X135487914Y-99599284D01*
X135487914Y-99599284D02*
X135535533Y-99694522D01*
X163054761Y-83206326D02*
X163435713Y-83206326D01*
X163197618Y-82872993D02*
X163197618Y-83730135D01*
X163197618Y-83730135D02*
X163245237Y-83825374D01*
X163245237Y-83825374D02*
X163340475Y-83872993D01*
X163340475Y-83872993D02*
X163435713Y-83872993D01*
X163911904Y-83872993D02*
X163816666Y-83825374D01*
X163816666Y-83825374D02*
X163769047Y-83777754D01*
X163769047Y-83777754D02*
X163721428Y-83682516D01*
X163721428Y-83682516D02*
X163721428Y-83396802D01*
X163721428Y-83396802D02*
X163769047Y-83301564D01*
X163769047Y-83301564D02*
X163816666Y-83253945D01*
X163816666Y-83253945D02*
X163911904Y-83206326D01*
X163911904Y-83206326D02*
X164054761Y-83206326D01*
X164054761Y-83206326D02*
X164149999Y-83253945D01*
X164149999Y-83253945D02*
X164197618Y-83301564D01*
X164197618Y-83301564D02*
X164245237Y-83396802D01*
X164245237Y-83396802D02*
X164245237Y-83682516D01*
X164245237Y-83682516D02*
X164197618Y-83777754D01*
X164197618Y-83777754D02*
X164149999Y-83825374D01*
X164149999Y-83825374D02*
X164054761Y-83872993D01*
X164054761Y-83872993D02*
X163911904Y-83872993D01*
X164673809Y-83872993D02*
X164673809Y-83206326D01*
X164673809Y-83396802D02*
X164721428Y-83301564D01*
X164721428Y-83301564D02*
X164769047Y-83253945D01*
X164769047Y-83253945D02*
X164864285Y-83206326D01*
X164864285Y-83206326D02*
X164959523Y-83206326D01*
X165292857Y-83206326D02*
X165292857Y-83872993D01*
X165292857Y-83301564D02*
X165340476Y-83253945D01*
X165340476Y-83253945D02*
X165435714Y-83206326D01*
X165435714Y-83206326D02*
X165578571Y-83206326D01*
X165578571Y-83206326D02*
X165673809Y-83253945D01*
X165673809Y-83253945D02*
X165721428Y-83349183D01*
X165721428Y-83349183D02*
X165721428Y-83872993D01*
X166197619Y-83872993D02*
X166197619Y-83206326D01*
X166197619Y-82872993D02*
X166150000Y-82920612D01*
X166150000Y-82920612D02*
X166197619Y-82968231D01*
X166197619Y-82968231D02*
X166245238Y-82920612D01*
X166245238Y-82920612D02*
X166197619Y-82872993D01*
X166197619Y-82872993D02*
X166197619Y-82968231D01*
X166816666Y-83872993D02*
X166721428Y-83825374D01*
X166721428Y-83825374D02*
X166673809Y-83730135D01*
X166673809Y-83730135D02*
X166673809Y-82872993D01*
X167340476Y-83872993D02*
X167245238Y-83825374D01*
X167245238Y-83825374D02*
X167197619Y-83730135D01*
X167197619Y-83730135D02*
X167197619Y-82872993D01*
X167864286Y-83872993D02*
X167769048Y-83825374D01*
X167769048Y-83825374D02*
X167721429Y-83777754D01*
X167721429Y-83777754D02*
X167673810Y-83682516D01*
X167673810Y-83682516D02*
X167673810Y-83396802D01*
X167673810Y-83396802D02*
X167721429Y-83301564D01*
X167721429Y-83301564D02*
X167769048Y-83253945D01*
X167769048Y-83253945D02*
X167864286Y-83206326D01*
X167864286Y-83206326D02*
X168007143Y-83206326D01*
X168007143Y-83206326D02*
X168102381Y-83253945D01*
X168102381Y-83253945D02*
X168150000Y-83301564D01*
X168150000Y-83301564D02*
X168197619Y-83396802D01*
X168197619Y-83396802D02*
X168197619Y-83682516D01*
X168197619Y-83682516D02*
X168150000Y-83777754D01*
X168150000Y-83777754D02*
X168102381Y-83825374D01*
X168102381Y-83825374D02*
X168007143Y-83872993D01*
X168007143Y-83872993D02*
X167864286Y-83872993D01*
X168578572Y-82968231D02*
X168626191Y-82920612D01*
X168626191Y-82920612D02*
X168721429Y-82872993D01*
X168721429Y-82872993D02*
X168959524Y-82872993D01*
X168959524Y-82872993D02*
X169054762Y-82920612D01*
X169054762Y-82920612D02*
X169102381Y-82968231D01*
X169102381Y-82968231D02*
X169150000Y-83063469D01*
X169150000Y-83063469D02*
X169150000Y-83158707D01*
X169150000Y-83158707D02*
X169102381Y-83301564D01*
X169102381Y-83301564D02*
X168530953Y-83872993D01*
X168530953Y-83872993D02*
X169150000Y-83872993D01*
X161979819Y-105791666D02*
X162979819Y-105458333D01*
X162979819Y-105458333D02*
X161979819Y-105125000D01*
X162932200Y-104363095D02*
X162979819Y-104458333D01*
X162979819Y-104458333D02*
X162979819Y-104648809D01*
X162979819Y-104648809D02*
X162932200Y-104744047D01*
X162932200Y-104744047D02*
X162884580Y-104791666D01*
X162884580Y-104791666D02*
X162789342Y-104839285D01*
X162789342Y-104839285D02*
X162503628Y-104839285D01*
X162503628Y-104839285D02*
X162408390Y-104791666D01*
X162408390Y-104791666D02*
X162360771Y-104744047D01*
X162360771Y-104744047D02*
X162313152Y-104648809D01*
X162313152Y-104648809D02*
X162313152Y-104458333D01*
X162313152Y-104458333D02*
X162360771Y-104363095D01*
X162932200Y-103505952D02*
X162979819Y-103601190D01*
X162979819Y-103601190D02*
X162979819Y-103791666D01*
X162979819Y-103791666D02*
X162932200Y-103886904D01*
X162932200Y-103886904D02*
X162884580Y-103934523D01*
X162884580Y-103934523D02*
X162789342Y-103982142D01*
X162789342Y-103982142D02*
X162503628Y-103982142D01*
X162503628Y-103982142D02*
X162408390Y-103934523D01*
X162408390Y-103934523D02*
X162360771Y-103886904D01*
X162360771Y-103886904D02*
X162313152Y-103791666D01*
X162313152Y-103791666D02*
X162313152Y-103601190D01*
X162313152Y-103601190D02*
X162360771Y-103505952D01*
X162979819Y-102553571D02*
X162979819Y-103124999D01*
X162979819Y-102839285D02*
X161979819Y-102839285D01*
X161979819Y-102839285D02*
X162122676Y-102934523D01*
X162122676Y-102934523D02*
X162217914Y-103029761D01*
X162217914Y-103029761D02*
X162265533Y-103124999D01*
X130957200Y-120975000D02*
X131004819Y-121070238D01*
X131004819Y-121070238D02*
X131004819Y-121260714D01*
X131004819Y-121260714D02*
X130957200Y-121355952D01*
X130957200Y-121355952D02*
X130909580Y-121403571D01*
X130909580Y-121403571D02*
X130814342Y-121451190D01*
X130814342Y-121451190D02*
X130528628Y-121451190D01*
X130528628Y-121451190D02*
X130433390Y-121403571D01*
X130433390Y-121403571D02*
X130385771Y-121355952D01*
X130385771Y-121355952D02*
X130338152Y-121260714D01*
X130338152Y-121260714D02*
X130338152Y-121070238D01*
X130338152Y-121070238D02*
X130385771Y-120975000D01*
X131004819Y-120403571D02*
X130957200Y-120498809D01*
X130957200Y-120498809D02*
X130909580Y-120546428D01*
X130909580Y-120546428D02*
X130814342Y-120594047D01*
X130814342Y-120594047D02*
X130528628Y-120594047D01*
X130528628Y-120594047D02*
X130433390Y-120546428D01*
X130433390Y-120546428D02*
X130385771Y-120498809D01*
X130385771Y-120498809D02*
X130338152Y-120403571D01*
X130338152Y-120403571D02*
X130338152Y-120260714D01*
X130338152Y-120260714D02*
X130385771Y-120165476D01*
X130385771Y-120165476D02*
X130433390Y-120117857D01*
X130433390Y-120117857D02*
X130528628Y-120070238D01*
X130528628Y-120070238D02*
X130814342Y-120070238D01*
X130814342Y-120070238D02*
X130909580Y-120117857D01*
X130909580Y-120117857D02*
X130957200Y-120165476D01*
X130957200Y-120165476D02*
X131004819Y-120260714D01*
X131004819Y-120260714D02*
X131004819Y-120403571D01*
X130338152Y-119641666D02*
X131004819Y-119641666D01*
X130433390Y-119641666D02*
X130385771Y-119594047D01*
X130385771Y-119594047D02*
X130338152Y-119498809D01*
X130338152Y-119498809D02*
X130338152Y-119355952D01*
X130338152Y-119355952D02*
X130385771Y-119260714D01*
X130385771Y-119260714D02*
X130481009Y-119213095D01*
X130481009Y-119213095D02*
X131004819Y-119213095D01*
X130957200Y-118355952D02*
X131004819Y-118451190D01*
X131004819Y-118451190D02*
X131004819Y-118641666D01*
X131004819Y-118641666D02*
X130957200Y-118736904D01*
X130957200Y-118736904D02*
X130861961Y-118784523D01*
X130861961Y-118784523D02*
X130481009Y-118784523D01*
X130481009Y-118784523D02*
X130385771Y-118736904D01*
X130385771Y-118736904D02*
X130338152Y-118641666D01*
X130338152Y-118641666D02*
X130338152Y-118451190D01*
X130338152Y-118451190D02*
X130385771Y-118355952D01*
X130385771Y-118355952D02*
X130481009Y-118308333D01*
X130481009Y-118308333D02*
X130576247Y-118308333D01*
X130576247Y-118308333D02*
X130671485Y-118784523D01*
X130957200Y-117451190D02*
X131004819Y-117546428D01*
X131004819Y-117546428D02*
X131004819Y-117736904D01*
X131004819Y-117736904D02*
X130957200Y-117832142D01*
X130957200Y-117832142D02*
X130909580Y-117879761D01*
X130909580Y-117879761D02*
X130814342Y-117927380D01*
X130814342Y-117927380D02*
X130528628Y-117927380D01*
X130528628Y-117927380D02*
X130433390Y-117879761D01*
X130433390Y-117879761D02*
X130385771Y-117832142D01*
X130385771Y-117832142D02*
X130338152Y-117736904D01*
X130338152Y-117736904D02*
X130338152Y-117546428D01*
X130338152Y-117546428D02*
X130385771Y-117451190D01*
X130338152Y-117165475D02*
X130338152Y-116784523D01*
X130004819Y-117022618D02*
X130861961Y-117022618D01*
X130861961Y-117022618D02*
X130957200Y-116974999D01*
X130957200Y-116974999D02*
X131004819Y-116879761D01*
X131004819Y-116879761D02*
X131004819Y-116784523D01*
X131004819Y-116308332D02*
X130957200Y-116403570D01*
X130957200Y-116403570D02*
X130909580Y-116451189D01*
X130909580Y-116451189D02*
X130814342Y-116498808D01*
X130814342Y-116498808D02*
X130528628Y-116498808D01*
X130528628Y-116498808D02*
X130433390Y-116451189D01*
X130433390Y-116451189D02*
X130385771Y-116403570D01*
X130385771Y-116403570D02*
X130338152Y-116308332D01*
X130338152Y-116308332D02*
X130338152Y-116165475D01*
X130338152Y-116165475D02*
X130385771Y-116070237D01*
X130385771Y-116070237D02*
X130433390Y-116022618D01*
X130433390Y-116022618D02*
X130528628Y-115974999D01*
X130528628Y-115974999D02*
X130814342Y-115974999D01*
X130814342Y-115974999D02*
X130909580Y-116022618D01*
X130909580Y-116022618D02*
X130957200Y-116070237D01*
X130957200Y-116070237D02*
X131004819Y-116165475D01*
X131004819Y-116165475D02*
X131004819Y-116308332D01*
X130004819Y-115355951D02*
X130004819Y-115165475D01*
X130004819Y-115165475D02*
X130052438Y-115070237D01*
X130052438Y-115070237D02*
X130147676Y-114974999D01*
X130147676Y-114974999D02*
X130338152Y-114927380D01*
X130338152Y-114927380D02*
X130671485Y-114927380D01*
X130671485Y-114927380D02*
X130861961Y-114974999D01*
X130861961Y-114974999D02*
X130957200Y-115070237D01*
X130957200Y-115070237D02*
X131004819Y-115165475D01*
X131004819Y-115165475D02*
X131004819Y-115355951D01*
X131004819Y-115355951D02*
X130957200Y-115451189D01*
X130957200Y-115451189D02*
X130861961Y-115546427D01*
X130861961Y-115546427D02*
X130671485Y-115594046D01*
X130671485Y-115594046D02*
X130338152Y-115594046D01*
X130338152Y-115594046D02*
X130147676Y-115546427D01*
X130147676Y-115546427D02*
X130052438Y-115451189D01*
X130052438Y-115451189D02*
X130004819Y-115355951D01*
X130338152Y-114070237D02*
X131004819Y-114070237D01*
X130338152Y-114498808D02*
X130861961Y-114498808D01*
X130861961Y-114498808D02*
X130957200Y-114451189D01*
X130957200Y-114451189D02*
X131004819Y-114355951D01*
X131004819Y-114355951D02*
X131004819Y-114213094D01*
X131004819Y-114213094D02*
X130957200Y-114117856D01*
X130957200Y-114117856D02*
X130909580Y-114070237D01*
X130338152Y-113736903D02*
X130338152Y-113355951D01*
X130004819Y-113594046D02*
X130861961Y-113594046D01*
X130861961Y-113594046D02*
X130957200Y-113546427D01*
X130957200Y-113546427D02*
X131004819Y-113451189D01*
X131004819Y-113451189D02*
X131004819Y-113355951D01*
X131004819Y-112498808D02*
X131004819Y-113070236D01*
X131004819Y-112784522D02*
X130004819Y-112784522D01*
X130004819Y-112784522D02*
X130147676Y-112879760D01*
X130147676Y-112879760D02*
X130242914Y-112974998D01*
X130242914Y-112974998D02*
X130290533Y-113070236D01*
X114029761Y-87656326D02*
X114410713Y-87656326D01*
X114172618Y-87322993D02*
X114172618Y-88180135D01*
X114172618Y-88180135D02*
X114220237Y-88275374D01*
X114220237Y-88275374D02*
X114315475Y-88322993D01*
X114315475Y-88322993D02*
X114410713Y-88322993D01*
X114886904Y-88322993D02*
X114791666Y-88275374D01*
X114791666Y-88275374D02*
X114744047Y-88227754D01*
X114744047Y-88227754D02*
X114696428Y-88132516D01*
X114696428Y-88132516D02*
X114696428Y-87846802D01*
X114696428Y-87846802D02*
X114744047Y-87751564D01*
X114744047Y-87751564D02*
X114791666Y-87703945D01*
X114791666Y-87703945D02*
X114886904Y-87656326D01*
X114886904Y-87656326D02*
X115029761Y-87656326D01*
X115029761Y-87656326D02*
X115124999Y-87703945D01*
X115124999Y-87703945D02*
X115172618Y-87751564D01*
X115172618Y-87751564D02*
X115220237Y-87846802D01*
X115220237Y-87846802D02*
X115220237Y-88132516D01*
X115220237Y-88132516D02*
X115172618Y-88227754D01*
X115172618Y-88227754D02*
X115124999Y-88275374D01*
X115124999Y-88275374D02*
X115029761Y-88322993D01*
X115029761Y-88322993D02*
X114886904Y-88322993D01*
X115648809Y-88322993D02*
X115648809Y-87656326D01*
X115648809Y-87846802D02*
X115696428Y-87751564D01*
X115696428Y-87751564D02*
X115744047Y-87703945D01*
X115744047Y-87703945D02*
X115839285Y-87656326D01*
X115839285Y-87656326D02*
X115934523Y-87656326D01*
X116267857Y-87656326D02*
X116267857Y-88322993D01*
X116267857Y-87751564D02*
X116315476Y-87703945D01*
X116315476Y-87703945D02*
X116410714Y-87656326D01*
X116410714Y-87656326D02*
X116553571Y-87656326D01*
X116553571Y-87656326D02*
X116648809Y-87703945D01*
X116648809Y-87703945D02*
X116696428Y-87799183D01*
X116696428Y-87799183D02*
X116696428Y-88322993D01*
X117172619Y-88322993D02*
X117172619Y-87656326D01*
X117172619Y-87322993D02*
X117125000Y-87370612D01*
X117125000Y-87370612D02*
X117172619Y-87418231D01*
X117172619Y-87418231D02*
X117220238Y-87370612D01*
X117220238Y-87370612D02*
X117172619Y-87322993D01*
X117172619Y-87322993D02*
X117172619Y-87418231D01*
X117791666Y-88322993D02*
X117696428Y-88275374D01*
X117696428Y-88275374D02*
X117648809Y-88180135D01*
X117648809Y-88180135D02*
X117648809Y-87322993D01*
X118315476Y-88322993D02*
X118220238Y-88275374D01*
X118220238Y-88275374D02*
X118172619Y-88180135D01*
X118172619Y-88180135D02*
X118172619Y-87322993D01*
X118839286Y-88322993D02*
X118744048Y-88275374D01*
X118744048Y-88275374D02*
X118696429Y-88227754D01*
X118696429Y-88227754D02*
X118648810Y-88132516D01*
X118648810Y-88132516D02*
X118648810Y-87846802D01*
X118648810Y-87846802D02*
X118696429Y-87751564D01*
X118696429Y-87751564D02*
X118744048Y-87703945D01*
X118744048Y-87703945D02*
X118839286Y-87656326D01*
X118839286Y-87656326D02*
X118982143Y-87656326D01*
X118982143Y-87656326D02*
X119077381Y-87703945D01*
X119077381Y-87703945D02*
X119125000Y-87751564D01*
X119125000Y-87751564D02*
X119172619Y-87846802D01*
X119172619Y-87846802D02*
X119172619Y-88132516D01*
X119172619Y-88132516D02*
X119125000Y-88227754D01*
X119125000Y-88227754D02*
X119077381Y-88275374D01*
X119077381Y-88275374D02*
X118982143Y-88322993D01*
X118982143Y-88322993D02*
X118839286Y-88322993D01*
X120125000Y-88322993D02*
X119553572Y-88322993D01*
X119839286Y-88322993D02*
X119839286Y-87322993D01*
X119839286Y-87322993D02*
X119744048Y-87465850D01*
X119744048Y-87465850D02*
X119648810Y-87561088D01*
X119648810Y-87561088D02*
X119553572Y-87608707D01*
X140179761Y-125181326D02*
X140560713Y-125181326D01*
X140322618Y-124847993D02*
X140322618Y-125705135D01*
X140322618Y-125705135D02*
X140370237Y-125800374D01*
X140370237Y-125800374D02*
X140465475Y-125847993D01*
X140465475Y-125847993D02*
X140560713Y-125847993D01*
X141036904Y-125847993D02*
X140941666Y-125800374D01*
X140941666Y-125800374D02*
X140894047Y-125752754D01*
X140894047Y-125752754D02*
X140846428Y-125657516D01*
X140846428Y-125657516D02*
X140846428Y-125371802D01*
X140846428Y-125371802D02*
X140894047Y-125276564D01*
X140894047Y-125276564D02*
X140941666Y-125228945D01*
X140941666Y-125228945D02*
X141036904Y-125181326D01*
X141036904Y-125181326D02*
X141179761Y-125181326D01*
X141179761Y-125181326D02*
X141274999Y-125228945D01*
X141274999Y-125228945D02*
X141322618Y-125276564D01*
X141322618Y-125276564D02*
X141370237Y-125371802D01*
X141370237Y-125371802D02*
X141370237Y-125657516D01*
X141370237Y-125657516D02*
X141322618Y-125752754D01*
X141322618Y-125752754D02*
X141274999Y-125800374D01*
X141274999Y-125800374D02*
X141179761Y-125847993D01*
X141179761Y-125847993D02*
X141036904Y-125847993D01*
X141798809Y-125847993D02*
X141798809Y-125181326D01*
X141798809Y-125371802D02*
X141846428Y-125276564D01*
X141846428Y-125276564D02*
X141894047Y-125228945D01*
X141894047Y-125228945D02*
X141989285Y-125181326D01*
X141989285Y-125181326D02*
X142084523Y-125181326D01*
X142417857Y-125181326D02*
X142417857Y-125847993D01*
X142417857Y-125276564D02*
X142465476Y-125228945D01*
X142465476Y-125228945D02*
X142560714Y-125181326D01*
X142560714Y-125181326D02*
X142703571Y-125181326D01*
X142703571Y-125181326D02*
X142798809Y-125228945D01*
X142798809Y-125228945D02*
X142846428Y-125324183D01*
X142846428Y-125324183D02*
X142846428Y-125847993D01*
X143322619Y-125847993D02*
X143322619Y-125181326D01*
X143322619Y-124847993D02*
X143275000Y-124895612D01*
X143275000Y-124895612D02*
X143322619Y-124943231D01*
X143322619Y-124943231D02*
X143370238Y-124895612D01*
X143370238Y-124895612D02*
X143322619Y-124847993D01*
X143322619Y-124847993D02*
X143322619Y-124943231D01*
X143941666Y-125847993D02*
X143846428Y-125800374D01*
X143846428Y-125800374D02*
X143798809Y-125705135D01*
X143798809Y-125705135D02*
X143798809Y-124847993D01*
X144465476Y-125847993D02*
X144370238Y-125800374D01*
X144370238Y-125800374D02*
X144322619Y-125705135D01*
X144322619Y-125705135D02*
X144322619Y-124847993D01*
X144989286Y-125847993D02*
X144894048Y-125800374D01*
X144894048Y-125800374D02*
X144846429Y-125752754D01*
X144846429Y-125752754D02*
X144798810Y-125657516D01*
X144798810Y-125657516D02*
X144798810Y-125371802D01*
X144798810Y-125371802D02*
X144846429Y-125276564D01*
X144846429Y-125276564D02*
X144894048Y-125228945D01*
X144894048Y-125228945D02*
X144989286Y-125181326D01*
X144989286Y-125181326D02*
X145132143Y-125181326D01*
X145132143Y-125181326D02*
X145227381Y-125228945D01*
X145227381Y-125228945D02*
X145275000Y-125276564D01*
X145275000Y-125276564D02*
X145322619Y-125371802D01*
X145322619Y-125371802D02*
X145322619Y-125657516D01*
X145322619Y-125657516D02*
X145275000Y-125752754D01*
X145275000Y-125752754D02*
X145227381Y-125800374D01*
X145227381Y-125800374D02*
X145132143Y-125847993D01*
X145132143Y-125847993D02*
X144989286Y-125847993D01*
X145655953Y-124847993D02*
X146275000Y-124847993D01*
X146275000Y-124847993D02*
X145941667Y-125228945D01*
X145941667Y-125228945D02*
X146084524Y-125228945D01*
X146084524Y-125228945D02*
X146179762Y-125276564D01*
X146179762Y-125276564D02*
X146227381Y-125324183D01*
X146227381Y-125324183D02*
X146275000Y-125419421D01*
X146275000Y-125419421D02*
X146275000Y-125657516D01*
X146275000Y-125657516D02*
X146227381Y-125752754D01*
X146227381Y-125752754D02*
X146179762Y-125800374D01*
X146179762Y-125800374D02*
X146084524Y-125847993D01*
X146084524Y-125847993D02*
X145798810Y-125847993D01*
X145798810Y-125847993D02*
X145703572Y-125800374D01*
X145703572Y-125800374D02*
X145655953Y-125752754D01*
X150382200Y-103688095D02*
X150429819Y-103783333D01*
X150429819Y-103783333D02*
X150429819Y-103973809D01*
X150429819Y-103973809D02*
X150382200Y-104069047D01*
X150382200Y-104069047D02*
X150334580Y-104116666D01*
X150334580Y-104116666D02*
X150239342Y-104164285D01*
X150239342Y-104164285D02*
X149953628Y-104164285D01*
X149953628Y-104164285D02*
X149858390Y-104116666D01*
X149858390Y-104116666D02*
X149810771Y-104069047D01*
X149810771Y-104069047D02*
X149763152Y-103973809D01*
X149763152Y-103973809D02*
X149763152Y-103783333D01*
X149763152Y-103783333D02*
X149810771Y-103688095D01*
X150334580Y-102688095D02*
X150382200Y-102735714D01*
X150382200Y-102735714D02*
X150429819Y-102878571D01*
X150429819Y-102878571D02*
X150429819Y-102973809D01*
X150429819Y-102973809D02*
X150382200Y-103116666D01*
X150382200Y-103116666D02*
X150286961Y-103211904D01*
X150286961Y-103211904D02*
X150191723Y-103259523D01*
X150191723Y-103259523D02*
X150001247Y-103307142D01*
X150001247Y-103307142D02*
X149858390Y-103307142D01*
X149858390Y-103307142D02*
X149667914Y-103259523D01*
X149667914Y-103259523D02*
X149572676Y-103211904D01*
X149572676Y-103211904D02*
X149477438Y-103116666D01*
X149477438Y-103116666D02*
X149429819Y-102973809D01*
X149429819Y-102973809D02*
X149429819Y-102878571D01*
X149429819Y-102878571D02*
X149477438Y-102735714D01*
X149477438Y-102735714D02*
X149525057Y-102688095D01*
X150382200Y-101878571D02*
X150429819Y-101973809D01*
X150429819Y-101973809D02*
X150429819Y-102164285D01*
X150429819Y-102164285D02*
X150382200Y-102259523D01*
X150382200Y-102259523D02*
X150286961Y-102307142D01*
X150286961Y-102307142D02*
X149906009Y-102307142D01*
X149906009Y-102307142D02*
X149810771Y-102259523D01*
X149810771Y-102259523D02*
X149763152Y-102164285D01*
X149763152Y-102164285D02*
X149763152Y-101973809D01*
X149763152Y-101973809D02*
X149810771Y-101878571D01*
X149810771Y-101878571D02*
X149906009Y-101830952D01*
X149906009Y-101830952D02*
X150001247Y-101830952D01*
X150001247Y-101830952D02*
X150096485Y-102307142D01*
X150429819Y-101402380D02*
X149763152Y-101402380D01*
X149953628Y-101402380D02*
X149858390Y-101354761D01*
X149858390Y-101354761D02*
X149810771Y-101307142D01*
X149810771Y-101307142D02*
X149763152Y-101211904D01*
X149763152Y-101211904D02*
X149763152Y-101116666D01*
X150429819Y-100354761D02*
X149906009Y-100354761D01*
X149906009Y-100354761D02*
X149810771Y-100402380D01*
X149810771Y-100402380D02*
X149763152Y-100497618D01*
X149763152Y-100497618D02*
X149763152Y-100688094D01*
X149763152Y-100688094D02*
X149810771Y-100783332D01*
X150382200Y-100354761D02*
X150429819Y-100449999D01*
X150429819Y-100449999D02*
X150429819Y-100688094D01*
X150429819Y-100688094D02*
X150382200Y-100783332D01*
X150382200Y-100783332D02*
X150286961Y-100830951D01*
X150286961Y-100830951D02*
X150191723Y-100830951D01*
X150191723Y-100830951D02*
X150096485Y-100783332D01*
X150096485Y-100783332D02*
X150048866Y-100688094D01*
X150048866Y-100688094D02*
X150048866Y-100449999D01*
X150048866Y-100449999D02*
X150001247Y-100354761D01*
X150429819Y-99878570D02*
X149763152Y-99878570D01*
X149858390Y-99878570D02*
X149810771Y-99830951D01*
X149810771Y-99830951D02*
X149763152Y-99735713D01*
X149763152Y-99735713D02*
X149763152Y-99592856D01*
X149763152Y-99592856D02*
X149810771Y-99497618D01*
X149810771Y-99497618D02*
X149906009Y-99449999D01*
X149906009Y-99449999D02*
X150429819Y-99449999D01*
X149906009Y-99449999D02*
X149810771Y-99402380D01*
X149810771Y-99402380D02*
X149763152Y-99307142D01*
X149763152Y-99307142D02*
X149763152Y-99164285D01*
X149763152Y-99164285D02*
X149810771Y-99069046D01*
X149810771Y-99069046D02*
X149906009Y-99021427D01*
X149906009Y-99021427D02*
X150429819Y-99021427D01*
X150429819Y-98545237D02*
X149763152Y-98545237D01*
X149429819Y-98545237D02*
X149477438Y-98592856D01*
X149477438Y-98592856D02*
X149525057Y-98545237D01*
X149525057Y-98545237D02*
X149477438Y-98497618D01*
X149477438Y-98497618D02*
X149429819Y-98545237D01*
X149429819Y-98545237D02*
X149525057Y-98545237D01*
X150382200Y-97640476D02*
X150429819Y-97735714D01*
X150429819Y-97735714D02*
X150429819Y-97926190D01*
X150429819Y-97926190D02*
X150382200Y-98021428D01*
X150382200Y-98021428D02*
X150334580Y-98069047D01*
X150334580Y-98069047D02*
X150239342Y-98116666D01*
X150239342Y-98116666D02*
X149953628Y-98116666D01*
X149953628Y-98116666D02*
X149858390Y-98069047D01*
X149858390Y-98069047D02*
X149810771Y-98021428D01*
X149810771Y-98021428D02*
X149763152Y-97926190D01*
X149763152Y-97926190D02*
X149763152Y-97735714D01*
X149763152Y-97735714D02*
X149810771Y-97640476D01*
X150429819Y-97069047D02*
X150382200Y-97164285D01*
X150382200Y-97164285D02*
X150334580Y-97211904D01*
X150334580Y-97211904D02*
X150239342Y-97259523D01*
X150239342Y-97259523D02*
X149953628Y-97259523D01*
X149953628Y-97259523D02*
X149858390Y-97211904D01*
X149858390Y-97211904D02*
X149810771Y-97164285D01*
X149810771Y-97164285D02*
X149763152Y-97069047D01*
X149763152Y-97069047D02*
X149763152Y-96926190D01*
X149763152Y-96926190D02*
X149810771Y-96830952D01*
X149810771Y-96830952D02*
X149858390Y-96783333D01*
X149858390Y-96783333D02*
X149953628Y-96735714D01*
X149953628Y-96735714D02*
X150239342Y-96735714D01*
X150239342Y-96735714D02*
X150334580Y-96783333D01*
X150334580Y-96783333D02*
X150382200Y-96830952D01*
X150382200Y-96830952D02*
X150429819Y-96926190D01*
X150429819Y-96926190D02*
X150429819Y-97069047D01*
X150429819Y-96307142D02*
X149429819Y-96307142D01*
X149429819Y-96307142D02*
X149429819Y-96069047D01*
X149429819Y-96069047D02*
X149477438Y-95926190D01*
X149477438Y-95926190D02*
X149572676Y-95830952D01*
X149572676Y-95830952D02*
X149667914Y-95783333D01*
X149667914Y-95783333D02*
X149858390Y-95735714D01*
X149858390Y-95735714D02*
X150001247Y-95735714D01*
X150001247Y-95735714D02*
X150191723Y-95783333D01*
X150191723Y-95783333D02*
X150286961Y-95830952D01*
X150286961Y-95830952D02*
X150382200Y-95926190D01*
X150382200Y-95926190D02*
X150429819Y-96069047D01*
X150429819Y-96069047D02*
X150429819Y-96307142D01*
X150429819Y-95307142D02*
X149763152Y-95307142D01*
X149429819Y-95307142D02*
X149477438Y-95354761D01*
X149477438Y-95354761D02*
X149525057Y-95307142D01*
X149525057Y-95307142D02*
X149477438Y-95259523D01*
X149477438Y-95259523D02*
X149429819Y-95307142D01*
X149429819Y-95307142D02*
X149525057Y-95307142D01*
X150382200Y-94878571D02*
X150429819Y-94783333D01*
X150429819Y-94783333D02*
X150429819Y-94592857D01*
X150429819Y-94592857D02*
X150382200Y-94497619D01*
X150382200Y-94497619D02*
X150286961Y-94450000D01*
X150286961Y-94450000D02*
X150239342Y-94450000D01*
X150239342Y-94450000D02*
X150144104Y-94497619D01*
X150144104Y-94497619D02*
X150096485Y-94592857D01*
X150096485Y-94592857D02*
X150096485Y-94735714D01*
X150096485Y-94735714D02*
X150048866Y-94830952D01*
X150048866Y-94830952D02*
X149953628Y-94878571D01*
X149953628Y-94878571D02*
X149906009Y-94878571D01*
X149906009Y-94878571D02*
X149810771Y-94830952D01*
X149810771Y-94830952D02*
X149763152Y-94735714D01*
X149763152Y-94735714D02*
X149763152Y-94592857D01*
X149763152Y-94592857D02*
X149810771Y-94497619D01*
X150382200Y-93592857D02*
X150429819Y-93688095D01*
X150429819Y-93688095D02*
X150429819Y-93878571D01*
X150429819Y-93878571D02*
X150382200Y-93973809D01*
X150382200Y-93973809D02*
X150334580Y-94021428D01*
X150334580Y-94021428D02*
X150239342Y-94069047D01*
X150239342Y-94069047D02*
X149953628Y-94069047D01*
X149953628Y-94069047D02*
X149858390Y-94021428D01*
X149858390Y-94021428D02*
X149810771Y-93973809D01*
X149810771Y-93973809D02*
X149763152Y-93878571D01*
X149763152Y-93878571D02*
X149763152Y-93688095D01*
X149763152Y-93688095D02*
X149810771Y-93592857D01*
X150429819Y-93021428D02*
X150382200Y-93116666D01*
X150382200Y-93116666D02*
X150334580Y-93164285D01*
X150334580Y-93164285D02*
X150239342Y-93211904D01*
X150239342Y-93211904D02*
X149953628Y-93211904D01*
X149953628Y-93211904D02*
X149858390Y-93164285D01*
X149858390Y-93164285D02*
X149810771Y-93116666D01*
X149810771Y-93116666D02*
X149763152Y-93021428D01*
X149763152Y-93021428D02*
X149763152Y-92878571D01*
X149763152Y-92878571D02*
X149810771Y-92783333D01*
X149810771Y-92783333D02*
X149858390Y-92735714D01*
X149858390Y-92735714D02*
X149953628Y-92688095D01*
X149953628Y-92688095D02*
X150239342Y-92688095D01*
X150239342Y-92688095D02*
X150334580Y-92735714D01*
X150334580Y-92735714D02*
X150382200Y-92783333D01*
X150382200Y-92783333D02*
X150429819Y-92878571D01*
X150429819Y-92878571D02*
X150429819Y-93021428D01*
X149525057Y-92307142D02*
X149477438Y-92259523D01*
X149477438Y-92259523D02*
X149429819Y-92164285D01*
X149429819Y-92164285D02*
X149429819Y-91926190D01*
X149429819Y-91926190D02*
X149477438Y-91830952D01*
X149477438Y-91830952D02*
X149525057Y-91783333D01*
X149525057Y-91783333D02*
X149620295Y-91735714D01*
X149620295Y-91735714D02*
X149715533Y-91735714D01*
X149715533Y-91735714D02*
X149858390Y-91783333D01*
X149858390Y-91783333D02*
X150429819Y-92354761D01*
X150429819Y-92354761D02*
X150429819Y-91735714D01*
X138282200Y-112061905D02*
X138329819Y-112157143D01*
X138329819Y-112157143D02*
X138329819Y-112347619D01*
X138329819Y-112347619D02*
X138282200Y-112442857D01*
X138282200Y-112442857D02*
X138234580Y-112490476D01*
X138234580Y-112490476D02*
X138139342Y-112538095D01*
X138139342Y-112538095D02*
X137853628Y-112538095D01*
X137853628Y-112538095D02*
X137758390Y-112490476D01*
X137758390Y-112490476D02*
X137710771Y-112442857D01*
X137710771Y-112442857D02*
X137663152Y-112347619D01*
X137663152Y-112347619D02*
X137663152Y-112157143D01*
X137663152Y-112157143D02*
X137710771Y-112061905D01*
X137806009Y-111633333D02*
X137806009Y-111300000D01*
X138329819Y-111157143D02*
X138329819Y-111633333D01*
X138329819Y-111633333D02*
X137329819Y-111633333D01*
X137329819Y-111633333D02*
X137329819Y-111157143D01*
X138329819Y-110585714D02*
X138282200Y-110680952D01*
X138282200Y-110680952D02*
X138186961Y-110728571D01*
X138186961Y-110728571D02*
X137329819Y-110728571D01*
X138282200Y-109823809D02*
X138329819Y-109919047D01*
X138329819Y-109919047D02*
X138329819Y-110109523D01*
X138329819Y-110109523D02*
X138282200Y-110204761D01*
X138282200Y-110204761D02*
X138186961Y-110252380D01*
X138186961Y-110252380D02*
X137806009Y-110252380D01*
X137806009Y-110252380D02*
X137710771Y-110204761D01*
X137710771Y-110204761D02*
X137663152Y-110109523D01*
X137663152Y-110109523D02*
X137663152Y-109919047D01*
X137663152Y-109919047D02*
X137710771Y-109823809D01*
X137710771Y-109823809D02*
X137806009Y-109776190D01*
X137806009Y-109776190D02*
X137901247Y-109776190D01*
X137901247Y-109776190D02*
X137996485Y-110252380D01*
X138282200Y-108919047D02*
X138329819Y-109014285D01*
X138329819Y-109014285D02*
X138329819Y-109204761D01*
X138329819Y-109204761D02*
X138282200Y-109299999D01*
X138282200Y-109299999D02*
X138234580Y-109347618D01*
X138234580Y-109347618D02*
X138139342Y-109395237D01*
X138139342Y-109395237D02*
X137853628Y-109395237D01*
X137853628Y-109395237D02*
X137758390Y-109347618D01*
X137758390Y-109347618D02*
X137710771Y-109299999D01*
X137710771Y-109299999D02*
X137663152Y-109204761D01*
X137663152Y-109204761D02*
X137663152Y-109014285D01*
X137663152Y-109014285D02*
X137710771Y-108919047D01*
X137663152Y-108633332D02*
X137663152Y-108252380D01*
X137329819Y-108490475D02*
X138186961Y-108490475D01*
X138186961Y-108490475D02*
X138282200Y-108442856D01*
X138282200Y-108442856D02*
X138329819Y-108347618D01*
X138329819Y-108347618D02*
X138329819Y-108252380D01*
X138329819Y-107919046D02*
X137663152Y-107919046D01*
X137853628Y-107919046D02*
X137758390Y-107871427D01*
X137758390Y-107871427D02*
X137710771Y-107823808D01*
X137710771Y-107823808D02*
X137663152Y-107728570D01*
X137663152Y-107728570D02*
X137663152Y-107633332D01*
X138329819Y-107157141D02*
X138282200Y-107252379D01*
X138282200Y-107252379D02*
X138234580Y-107299998D01*
X138234580Y-107299998D02*
X138139342Y-107347617D01*
X138139342Y-107347617D02*
X137853628Y-107347617D01*
X137853628Y-107347617D02*
X137758390Y-107299998D01*
X137758390Y-107299998D02*
X137710771Y-107252379D01*
X137710771Y-107252379D02*
X137663152Y-107157141D01*
X137663152Y-107157141D02*
X137663152Y-107014284D01*
X137663152Y-107014284D02*
X137710771Y-106919046D01*
X137710771Y-106919046D02*
X137758390Y-106871427D01*
X137758390Y-106871427D02*
X137853628Y-106823808D01*
X137853628Y-106823808D02*
X138139342Y-106823808D01*
X138139342Y-106823808D02*
X138234580Y-106871427D01*
X138234580Y-106871427D02*
X138282200Y-106919046D01*
X138282200Y-106919046D02*
X138329819Y-107014284D01*
X138329819Y-107014284D02*
X138329819Y-107157141D01*
X138329819Y-106252379D02*
X138282200Y-106347617D01*
X138282200Y-106347617D02*
X138186961Y-106395236D01*
X138186961Y-106395236D02*
X137329819Y-106395236D01*
X138329819Y-105871426D02*
X137663152Y-105871426D01*
X137329819Y-105871426D02*
X137377438Y-105919045D01*
X137377438Y-105919045D02*
X137425057Y-105871426D01*
X137425057Y-105871426D02*
X137377438Y-105823807D01*
X137377438Y-105823807D02*
X137329819Y-105871426D01*
X137329819Y-105871426D02*
X137425057Y-105871426D01*
X137663152Y-105538093D02*
X137663152Y-105157141D01*
X137329819Y-105395236D02*
X138186961Y-105395236D01*
X138186961Y-105395236D02*
X138282200Y-105347617D01*
X138282200Y-105347617D02*
X138329819Y-105252379D01*
X138329819Y-105252379D02*
X138329819Y-105157141D01*
X138329819Y-104823807D02*
X137663152Y-104823807D01*
X137329819Y-104823807D02*
X137377438Y-104871426D01*
X137377438Y-104871426D02*
X137425057Y-104823807D01*
X137425057Y-104823807D02*
X137377438Y-104776188D01*
X137377438Y-104776188D02*
X137329819Y-104823807D01*
X137329819Y-104823807D02*
X137425057Y-104823807D01*
X138282200Y-103919046D02*
X138329819Y-104014284D01*
X138329819Y-104014284D02*
X138329819Y-104204760D01*
X138329819Y-104204760D02*
X138282200Y-104299998D01*
X138282200Y-104299998D02*
X138234580Y-104347617D01*
X138234580Y-104347617D02*
X138139342Y-104395236D01*
X138139342Y-104395236D02*
X137853628Y-104395236D01*
X137853628Y-104395236D02*
X137758390Y-104347617D01*
X137758390Y-104347617D02*
X137710771Y-104299998D01*
X137710771Y-104299998D02*
X137663152Y-104204760D01*
X137663152Y-104204760D02*
X137663152Y-104014284D01*
X137663152Y-104014284D02*
X137710771Y-103919046D01*
X138329819Y-103347617D02*
X138282200Y-103442855D01*
X138282200Y-103442855D02*
X138234580Y-103490474D01*
X138234580Y-103490474D02*
X138139342Y-103538093D01*
X138139342Y-103538093D02*
X137853628Y-103538093D01*
X137853628Y-103538093D02*
X137758390Y-103490474D01*
X137758390Y-103490474D02*
X137710771Y-103442855D01*
X137710771Y-103442855D02*
X137663152Y-103347617D01*
X137663152Y-103347617D02*
X137663152Y-103204760D01*
X137663152Y-103204760D02*
X137710771Y-103109522D01*
X137710771Y-103109522D02*
X137758390Y-103061903D01*
X137758390Y-103061903D02*
X137853628Y-103014284D01*
X137853628Y-103014284D02*
X138139342Y-103014284D01*
X138139342Y-103014284D02*
X138234580Y-103061903D01*
X138234580Y-103061903D02*
X138282200Y-103109522D01*
X138282200Y-103109522D02*
X138329819Y-103204760D01*
X138329819Y-103204760D02*
X138329819Y-103347617D01*
X138329819Y-102061903D02*
X138329819Y-102633331D01*
X138329819Y-102347617D02*
X137329819Y-102347617D01*
X137329819Y-102347617D02*
X137472676Y-102442855D01*
X137472676Y-102442855D02*
X137567914Y-102538093D01*
X137567914Y-102538093D02*
X137615533Y-102633331D01*
X145782200Y-103688095D02*
X145829819Y-103783333D01*
X145829819Y-103783333D02*
X145829819Y-103973809D01*
X145829819Y-103973809D02*
X145782200Y-104069047D01*
X145782200Y-104069047D02*
X145734580Y-104116666D01*
X145734580Y-104116666D02*
X145639342Y-104164285D01*
X145639342Y-104164285D02*
X145353628Y-104164285D01*
X145353628Y-104164285D02*
X145258390Y-104116666D01*
X145258390Y-104116666D02*
X145210771Y-104069047D01*
X145210771Y-104069047D02*
X145163152Y-103973809D01*
X145163152Y-103973809D02*
X145163152Y-103783333D01*
X145163152Y-103783333D02*
X145210771Y-103688095D01*
X145734580Y-102688095D02*
X145782200Y-102735714D01*
X145782200Y-102735714D02*
X145829819Y-102878571D01*
X145829819Y-102878571D02*
X145829819Y-102973809D01*
X145829819Y-102973809D02*
X145782200Y-103116666D01*
X145782200Y-103116666D02*
X145686961Y-103211904D01*
X145686961Y-103211904D02*
X145591723Y-103259523D01*
X145591723Y-103259523D02*
X145401247Y-103307142D01*
X145401247Y-103307142D02*
X145258390Y-103307142D01*
X145258390Y-103307142D02*
X145067914Y-103259523D01*
X145067914Y-103259523D02*
X144972676Y-103211904D01*
X144972676Y-103211904D02*
X144877438Y-103116666D01*
X144877438Y-103116666D02*
X144829819Y-102973809D01*
X144829819Y-102973809D02*
X144829819Y-102878571D01*
X144829819Y-102878571D02*
X144877438Y-102735714D01*
X144877438Y-102735714D02*
X144925057Y-102688095D01*
X145782200Y-101878571D02*
X145829819Y-101973809D01*
X145829819Y-101973809D02*
X145829819Y-102164285D01*
X145829819Y-102164285D02*
X145782200Y-102259523D01*
X145782200Y-102259523D02*
X145686961Y-102307142D01*
X145686961Y-102307142D02*
X145306009Y-102307142D01*
X145306009Y-102307142D02*
X145210771Y-102259523D01*
X145210771Y-102259523D02*
X145163152Y-102164285D01*
X145163152Y-102164285D02*
X145163152Y-101973809D01*
X145163152Y-101973809D02*
X145210771Y-101878571D01*
X145210771Y-101878571D02*
X145306009Y-101830952D01*
X145306009Y-101830952D02*
X145401247Y-101830952D01*
X145401247Y-101830952D02*
X145496485Y-102307142D01*
X145829819Y-101402380D02*
X145163152Y-101402380D01*
X145353628Y-101402380D02*
X145258390Y-101354761D01*
X145258390Y-101354761D02*
X145210771Y-101307142D01*
X145210771Y-101307142D02*
X145163152Y-101211904D01*
X145163152Y-101211904D02*
X145163152Y-101116666D01*
X145829819Y-100354761D02*
X145306009Y-100354761D01*
X145306009Y-100354761D02*
X145210771Y-100402380D01*
X145210771Y-100402380D02*
X145163152Y-100497618D01*
X145163152Y-100497618D02*
X145163152Y-100688094D01*
X145163152Y-100688094D02*
X145210771Y-100783332D01*
X145782200Y-100354761D02*
X145829819Y-100449999D01*
X145829819Y-100449999D02*
X145829819Y-100688094D01*
X145829819Y-100688094D02*
X145782200Y-100783332D01*
X145782200Y-100783332D02*
X145686961Y-100830951D01*
X145686961Y-100830951D02*
X145591723Y-100830951D01*
X145591723Y-100830951D02*
X145496485Y-100783332D01*
X145496485Y-100783332D02*
X145448866Y-100688094D01*
X145448866Y-100688094D02*
X145448866Y-100449999D01*
X145448866Y-100449999D02*
X145401247Y-100354761D01*
X145829819Y-99878570D02*
X145163152Y-99878570D01*
X145258390Y-99878570D02*
X145210771Y-99830951D01*
X145210771Y-99830951D02*
X145163152Y-99735713D01*
X145163152Y-99735713D02*
X145163152Y-99592856D01*
X145163152Y-99592856D02*
X145210771Y-99497618D01*
X145210771Y-99497618D02*
X145306009Y-99449999D01*
X145306009Y-99449999D02*
X145829819Y-99449999D01*
X145306009Y-99449999D02*
X145210771Y-99402380D01*
X145210771Y-99402380D02*
X145163152Y-99307142D01*
X145163152Y-99307142D02*
X145163152Y-99164285D01*
X145163152Y-99164285D02*
X145210771Y-99069046D01*
X145210771Y-99069046D02*
X145306009Y-99021427D01*
X145306009Y-99021427D02*
X145829819Y-99021427D01*
X145829819Y-98545237D02*
X145163152Y-98545237D01*
X144829819Y-98545237D02*
X144877438Y-98592856D01*
X144877438Y-98592856D02*
X144925057Y-98545237D01*
X144925057Y-98545237D02*
X144877438Y-98497618D01*
X144877438Y-98497618D02*
X144829819Y-98545237D01*
X144829819Y-98545237D02*
X144925057Y-98545237D01*
X145782200Y-97640476D02*
X145829819Y-97735714D01*
X145829819Y-97735714D02*
X145829819Y-97926190D01*
X145829819Y-97926190D02*
X145782200Y-98021428D01*
X145782200Y-98021428D02*
X145734580Y-98069047D01*
X145734580Y-98069047D02*
X145639342Y-98116666D01*
X145639342Y-98116666D02*
X145353628Y-98116666D01*
X145353628Y-98116666D02*
X145258390Y-98069047D01*
X145258390Y-98069047D02*
X145210771Y-98021428D01*
X145210771Y-98021428D02*
X145163152Y-97926190D01*
X145163152Y-97926190D02*
X145163152Y-97735714D01*
X145163152Y-97735714D02*
X145210771Y-97640476D01*
X145829819Y-97069047D02*
X145782200Y-97164285D01*
X145782200Y-97164285D02*
X145734580Y-97211904D01*
X145734580Y-97211904D02*
X145639342Y-97259523D01*
X145639342Y-97259523D02*
X145353628Y-97259523D01*
X145353628Y-97259523D02*
X145258390Y-97211904D01*
X145258390Y-97211904D02*
X145210771Y-97164285D01*
X145210771Y-97164285D02*
X145163152Y-97069047D01*
X145163152Y-97069047D02*
X145163152Y-96926190D01*
X145163152Y-96926190D02*
X145210771Y-96830952D01*
X145210771Y-96830952D02*
X145258390Y-96783333D01*
X145258390Y-96783333D02*
X145353628Y-96735714D01*
X145353628Y-96735714D02*
X145639342Y-96735714D01*
X145639342Y-96735714D02*
X145734580Y-96783333D01*
X145734580Y-96783333D02*
X145782200Y-96830952D01*
X145782200Y-96830952D02*
X145829819Y-96926190D01*
X145829819Y-96926190D02*
X145829819Y-97069047D01*
X145829819Y-96307142D02*
X144829819Y-96307142D01*
X144829819Y-96307142D02*
X144829819Y-96069047D01*
X144829819Y-96069047D02*
X144877438Y-95926190D01*
X144877438Y-95926190D02*
X144972676Y-95830952D01*
X144972676Y-95830952D02*
X145067914Y-95783333D01*
X145067914Y-95783333D02*
X145258390Y-95735714D01*
X145258390Y-95735714D02*
X145401247Y-95735714D01*
X145401247Y-95735714D02*
X145591723Y-95783333D01*
X145591723Y-95783333D02*
X145686961Y-95830952D01*
X145686961Y-95830952D02*
X145782200Y-95926190D01*
X145782200Y-95926190D02*
X145829819Y-96069047D01*
X145829819Y-96069047D02*
X145829819Y-96307142D01*
X145829819Y-95307142D02*
X145163152Y-95307142D01*
X144829819Y-95307142D02*
X144877438Y-95354761D01*
X144877438Y-95354761D02*
X144925057Y-95307142D01*
X144925057Y-95307142D02*
X144877438Y-95259523D01*
X144877438Y-95259523D02*
X144829819Y-95307142D01*
X144829819Y-95307142D02*
X144925057Y-95307142D01*
X145782200Y-94878571D02*
X145829819Y-94783333D01*
X145829819Y-94783333D02*
X145829819Y-94592857D01*
X145829819Y-94592857D02*
X145782200Y-94497619D01*
X145782200Y-94497619D02*
X145686961Y-94450000D01*
X145686961Y-94450000D02*
X145639342Y-94450000D01*
X145639342Y-94450000D02*
X145544104Y-94497619D01*
X145544104Y-94497619D02*
X145496485Y-94592857D01*
X145496485Y-94592857D02*
X145496485Y-94735714D01*
X145496485Y-94735714D02*
X145448866Y-94830952D01*
X145448866Y-94830952D02*
X145353628Y-94878571D01*
X145353628Y-94878571D02*
X145306009Y-94878571D01*
X145306009Y-94878571D02*
X145210771Y-94830952D01*
X145210771Y-94830952D02*
X145163152Y-94735714D01*
X145163152Y-94735714D02*
X145163152Y-94592857D01*
X145163152Y-94592857D02*
X145210771Y-94497619D01*
X145782200Y-93592857D02*
X145829819Y-93688095D01*
X145829819Y-93688095D02*
X145829819Y-93878571D01*
X145829819Y-93878571D02*
X145782200Y-93973809D01*
X145782200Y-93973809D02*
X145734580Y-94021428D01*
X145734580Y-94021428D02*
X145639342Y-94069047D01*
X145639342Y-94069047D02*
X145353628Y-94069047D01*
X145353628Y-94069047D02*
X145258390Y-94021428D01*
X145258390Y-94021428D02*
X145210771Y-93973809D01*
X145210771Y-93973809D02*
X145163152Y-93878571D01*
X145163152Y-93878571D02*
X145163152Y-93688095D01*
X145163152Y-93688095D02*
X145210771Y-93592857D01*
X145829819Y-93021428D02*
X145782200Y-93116666D01*
X145782200Y-93116666D02*
X145734580Y-93164285D01*
X145734580Y-93164285D02*
X145639342Y-93211904D01*
X145639342Y-93211904D02*
X145353628Y-93211904D01*
X145353628Y-93211904D02*
X145258390Y-93164285D01*
X145258390Y-93164285D02*
X145210771Y-93116666D01*
X145210771Y-93116666D02*
X145163152Y-93021428D01*
X145163152Y-93021428D02*
X145163152Y-92878571D01*
X145163152Y-92878571D02*
X145210771Y-92783333D01*
X145210771Y-92783333D02*
X145258390Y-92735714D01*
X145258390Y-92735714D02*
X145353628Y-92688095D01*
X145353628Y-92688095D02*
X145639342Y-92688095D01*
X145639342Y-92688095D02*
X145734580Y-92735714D01*
X145734580Y-92735714D02*
X145782200Y-92783333D01*
X145782200Y-92783333D02*
X145829819Y-92878571D01*
X145829819Y-92878571D02*
X145829819Y-93021428D01*
X145829819Y-91735714D02*
X145829819Y-92307142D01*
X145829819Y-92021428D02*
X144829819Y-92021428D01*
X144829819Y-92021428D02*
X144972676Y-92116666D01*
X144972676Y-92116666D02*
X145067914Y-92211904D01*
X145067914Y-92211904D02*
X145115533Y-92307142D01*
X144359580Y-111965477D02*
X144407200Y-112013096D01*
X144407200Y-112013096D02*
X144454819Y-112155953D01*
X144454819Y-112155953D02*
X144454819Y-112251191D01*
X144454819Y-112251191D02*
X144407200Y-112394048D01*
X144407200Y-112394048D02*
X144311961Y-112489286D01*
X144311961Y-112489286D02*
X144216723Y-112536905D01*
X144216723Y-112536905D02*
X144026247Y-112584524D01*
X144026247Y-112584524D02*
X143883390Y-112584524D01*
X143883390Y-112584524D02*
X143692914Y-112536905D01*
X143692914Y-112536905D02*
X143597676Y-112489286D01*
X143597676Y-112489286D02*
X143502438Y-112394048D01*
X143502438Y-112394048D02*
X143454819Y-112251191D01*
X143454819Y-112251191D02*
X143454819Y-112155953D01*
X143454819Y-112155953D02*
X143502438Y-112013096D01*
X143502438Y-112013096D02*
X143550057Y-111965477D01*
X143931009Y-111536905D02*
X143931009Y-111203572D01*
X144454819Y-111060715D02*
X144454819Y-111536905D01*
X144454819Y-111536905D02*
X143454819Y-111536905D01*
X143454819Y-111536905D02*
X143454819Y-111060715D01*
X144454819Y-110489286D02*
X144407200Y-110584524D01*
X144407200Y-110584524D02*
X144311961Y-110632143D01*
X144311961Y-110632143D02*
X143454819Y-110632143D01*
X144407200Y-109727381D02*
X144454819Y-109822619D01*
X144454819Y-109822619D02*
X144454819Y-110013095D01*
X144454819Y-110013095D02*
X144407200Y-110108333D01*
X144407200Y-110108333D02*
X144311961Y-110155952D01*
X144311961Y-110155952D02*
X143931009Y-110155952D01*
X143931009Y-110155952D02*
X143835771Y-110108333D01*
X143835771Y-110108333D02*
X143788152Y-110013095D01*
X143788152Y-110013095D02*
X143788152Y-109822619D01*
X143788152Y-109822619D02*
X143835771Y-109727381D01*
X143835771Y-109727381D02*
X143931009Y-109679762D01*
X143931009Y-109679762D02*
X144026247Y-109679762D01*
X144026247Y-109679762D02*
X144121485Y-110155952D01*
X144407200Y-108822619D02*
X144454819Y-108917857D01*
X144454819Y-108917857D02*
X144454819Y-109108333D01*
X144454819Y-109108333D02*
X144407200Y-109203571D01*
X144407200Y-109203571D02*
X144359580Y-109251190D01*
X144359580Y-109251190D02*
X144264342Y-109298809D01*
X144264342Y-109298809D02*
X143978628Y-109298809D01*
X143978628Y-109298809D02*
X143883390Y-109251190D01*
X143883390Y-109251190D02*
X143835771Y-109203571D01*
X143835771Y-109203571D02*
X143788152Y-109108333D01*
X143788152Y-109108333D02*
X143788152Y-108917857D01*
X143788152Y-108917857D02*
X143835771Y-108822619D01*
X143788152Y-108536904D02*
X143788152Y-108155952D01*
X143454819Y-108394047D02*
X144311961Y-108394047D01*
X144311961Y-108394047D02*
X144407200Y-108346428D01*
X144407200Y-108346428D02*
X144454819Y-108251190D01*
X144454819Y-108251190D02*
X144454819Y-108155952D01*
X144454819Y-107822618D02*
X143788152Y-107822618D01*
X143978628Y-107822618D02*
X143883390Y-107774999D01*
X143883390Y-107774999D02*
X143835771Y-107727380D01*
X143835771Y-107727380D02*
X143788152Y-107632142D01*
X143788152Y-107632142D02*
X143788152Y-107536904D01*
X144454819Y-107060713D02*
X144407200Y-107155951D01*
X144407200Y-107155951D02*
X144359580Y-107203570D01*
X144359580Y-107203570D02*
X144264342Y-107251189D01*
X144264342Y-107251189D02*
X143978628Y-107251189D01*
X143978628Y-107251189D02*
X143883390Y-107203570D01*
X143883390Y-107203570D02*
X143835771Y-107155951D01*
X143835771Y-107155951D02*
X143788152Y-107060713D01*
X143788152Y-107060713D02*
X143788152Y-106917856D01*
X143788152Y-106917856D02*
X143835771Y-106822618D01*
X143835771Y-106822618D02*
X143883390Y-106774999D01*
X143883390Y-106774999D02*
X143978628Y-106727380D01*
X143978628Y-106727380D02*
X144264342Y-106727380D01*
X144264342Y-106727380D02*
X144359580Y-106774999D01*
X144359580Y-106774999D02*
X144407200Y-106822618D01*
X144407200Y-106822618D02*
X144454819Y-106917856D01*
X144454819Y-106917856D02*
X144454819Y-107060713D01*
X144454819Y-106155951D02*
X144407200Y-106251189D01*
X144407200Y-106251189D02*
X144311961Y-106298808D01*
X144311961Y-106298808D02*
X143454819Y-106298808D01*
X144454819Y-105774998D02*
X143788152Y-105774998D01*
X143454819Y-105774998D02*
X143502438Y-105822617D01*
X143502438Y-105822617D02*
X143550057Y-105774998D01*
X143550057Y-105774998D02*
X143502438Y-105727379D01*
X143502438Y-105727379D02*
X143454819Y-105774998D01*
X143454819Y-105774998D02*
X143550057Y-105774998D01*
X143788152Y-105441665D02*
X143788152Y-105060713D01*
X143454819Y-105298808D02*
X144311961Y-105298808D01*
X144311961Y-105298808D02*
X144407200Y-105251189D01*
X144407200Y-105251189D02*
X144454819Y-105155951D01*
X144454819Y-105155951D02*
X144454819Y-105060713D01*
X144454819Y-104727379D02*
X143788152Y-104727379D01*
X143454819Y-104727379D02*
X143502438Y-104774998D01*
X143502438Y-104774998D02*
X143550057Y-104727379D01*
X143550057Y-104727379D02*
X143502438Y-104679760D01*
X143502438Y-104679760D02*
X143454819Y-104727379D01*
X143454819Y-104727379D02*
X143550057Y-104727379D01*
X144407200Y-103822618D02*
X144454819Y-103917856D01*
X144454819Y-103917856D02*
X144454819Y-104108332D01*
X144454819Y-104108332D02*
X144407200Y-104203570D01*
X144407200Y-104203570D02*
X144359580Y-104251189D01*
X144359580Y-104251189D02*
X144264342Y-104298808D01*
X144264342Y-104298808D02*
X143978628Y-104298808D01*
X143978628Y-104298808D02*
X143883390Y-104251189D01*
X143883390Y-104251189D02*
X143835771Y-104203570D01*
X143835771Y-104203570D02*
X143788152Y-104108332D01*
X143788152Y-104108332D02*
X143788152Y-103917856D01*
X143788152Y-103917856D02*
X143835771Y-103822618D01*
X144454819Y-103251189D02*
X144407200Y-103346427D01*
X144407200Y-103346427D02*
X144359580Y-103394046D01*
X144359580Y-103394046D02*
X144264342Y-103441665D01*
X144264342Y-103441665D02*
X143978628Y-103441665D01*
X143978628Y-103441665D02*
X143883390Y-103394046D01*
X143883390Y-103394046D02*
X143835771Y-103346427D01*
X143835771Y-103346427D02*
X143788152Y-103251189D01*
X143788152Y-103251189D02*
X143788152Y-103108332D01*
X143788152Y-103108332D02*
X143835771Y-103013094D01*
X143835771Y-103013094D02*
X143883390Y-102965475D01*
X143883390Y-102965475D02*
X143978628Y-102917856D01*
X143978628Y-102917856D02*
X144264342Y-102917856D01*
X144264342Y-102917856D02*
X144359580Y-102965475D01*
X144359580Y-102965475D02*
X144407200Y-103013094D01*
X144407200Y-103013094D02*
X144454819Y-103108332D01*
X144454819Y-103108332D02*
X144454819Y-103251189D01*
X143550057Y-102536903D02*
X143502438Y-102489284D01*
X143502438Y-102489284D02*
X143454819Y-102394046D01*
X143454819Y-102394046D02*
X143454819Y-102155951D01*
X143454819Y-102155951D02*
X143502438Y-102060713D01*
X143502438Y-102060713D02*
X143550057Y-102013094D01*
X143550057Y-102013094D02*
X143645295Y-101965475D01*
X143645295Y-101965475D02*
X143740533Y-101965475D01*
X143740533Y-101965475D02*
X143883390Y-102013094D01*
X143883390Y-102013094D02*
X144454819Y-102584522D01*
X144454819Y-102584522D02*
X144454819Y-101965475D01*
X125182200Y-120975000D02*
X125229819Y-121070238D01*
X125229819Y-121070238D02*
X125229819Y-121260714D01*
X125229819Y-121260714D02*
X125182200Y-121355952D01*
X125182200Y-121355952D02*
X125134580Y-121403571D01*
X125134580Y-121403571D02*
X125039342Y-121451190D01*
X125039342Y-121451190D02*
X124753628Y-121451190D01*
X124753628Y-121451190D02*
X124658390Y-121403571D01*
X124658390Y-121403571D02*
X124610771Y-121355952D01*
X124610771Y-121355952D02*
X124563152Y-121260714D01*
X124563152Y-121260714D02*
X124563152Y-121070238D01*
X124563152Y-121070238D02*
X124610771Y-120975000D01*
X125229819Y-120403571D02*
X125182200Y-120498809D01*
X125182200Y-120498809D02*
X125134580Y-120546428D01*
X125134580Y-120546428D02*
X125039342Y-120594047D01*
X125039342Y-120594047D02*
X124753628Y-120594047D01*
X124753628Y-120594047D02*
X124658390Y-120546428D01*
X124658390Y-120546428D02*
X124610771Y-120498809D01*
X124610771Y-120498809D02*
X124563152Y-120403571D01*
X124563152Y-120403571D02*
X124563152Y-120260714D01*
X124563152Y-120260714D02*
X124610771Y-120165476D01*
X124610771Y-120165476D02*
X124658390Y-120117857D01*
X124658390Y-120117857D02*
X124753628Y-120070238D01*
X124753628Y-120070238D02*
X125039342Y-120070238D01*
X125039342Y-120070238D02*
X125134580Y-120117857D01*
X125134580Y-120117857D02*
X125182200Y-120165476D01*
X125182200Y-120165476D02*
X125229819Y-120260714D01*
X125229819Y-120260714D02*
X125229819Y-120403571D01*
X124563152Y-119641666D02*
X125229819Y-119641666D01*
X124658390Y-119641666D02*
X124610771Y-119594047D01*
X124610771Y-119594047D02*
X124563152Y-119498809D01*
X124563152Y-119498809D02*
X124563152Y-119355952D01*
X124563152Y-119355952D02*
X124610771Y-119260714D01*
X124610771Y-119260714D02*
X124706009Y-119213095D01*
X124706009Y-119213095D02*
X125229819Y-119213095D01*
X125182200Y-118355952D02*
X125229819Y-118451190D01*
X125229819Y-118451190D02*
X125229819Y-118641666D01*
X125229819Y-118641666D02*
X125182200Y-118736904D01*
X125182200Y-118736904D02*
X125086961Y-118784523D01*
X125086961Y-118784523D02*
X124706009Y-118784523D01*
X124706009Y-118784523D02*
X124610771Y-118736904D01*
X124610771Y-118736904D02*
X124563152Y-118641666D01*
X124563152Y-118641666D02*
X124563152Y-118451190D01*
X124563152Y-118451190D02*
X124610771Y-118355952D01*
X124610771Y-118355952D02*
X124706009Y-118308333D01*
X124706009Y-118308333D02*
X124801247Y-118308333D01*
X124801247Y-118308333D02*
X124896485Y-118784523D01*
X125182200Y-117451190D02*
X125229819Y-117546428D01*
X125229819Y-117546428D02*
X125229819Y-117736904D01*
X125229819Y-117736904D02*
X125182200Y-117832142D01*
X125182200Y-117832142D02*
X125134580Y-117879761D01*
X125134580Y-117879761D02*
X125039342Y-117927380D01*
X125039342Y-117927380D02*
X124753628Y-117927380D01*
X124753628Y-117927380D02*
X124658390Y-117879761D01*
X124658390Y-117879761D02*
X124610771Y-117832142D01*
X124610771Y-117832142D02*
X124563152Y-117736904D01*
X124563152Y-117736904D02*
X124563152Y-117546428D01*
X124563152Y-117546428D02*
X124610771Y-117451190D01*
X124563152Y-117165475D02*
X124563152Y-116784523D01*
X124229819Y-117022618D02*
X125086961Y-117022618D01*
X125086961Y-117022618D02*
X125182200Y-116974999D01*
X125182200Y-116974999D02*
X125229819Y-116879761D01*
X125229819Y-116879761D02*
X125229819Y-116784523D01*
X125229819Y-116308332D02*
X125182200Y-116403570D01*
X125182200Y-116403570D02*
X125134580Y-116451189D01*
X125134580Y-116451189D02*
X125039342Y-116498808D01*
X125039342Y-116498808D02*
X124753628Y-116498808D01*
X124753628Y-116498808D02*
X124658390Y-116451189D01*
X124658390Y-116451189D02*
X124610771Y-116403570D01*
X124610771Y-116403570D02*
X124563152Y-116308332D01*
X124563152Y-116308332D02*
X124563152Y-116165475D01*
X124563152Y-116165475D02*
X124610771Y-116070237D01*
X124610771Y-116070237D02*
X124658390Y-116022618D01*
X124658390Y-116022618D02*
X124753628Y-115974999D01*
X124753628Y-115974999D02*
X125039342Y-115974999D01*
X125039342Y-115974999D02*
X125134580Y-116022618D01*
X125134580Y-116022618D02*
X125182200Y-116070237D01*
X125182200Y-116070237D02*
X125229819Y-116165475D01*
X125229819Y-116165475D02*
X125229819Y-116308332D01*
X124229819Y-115355951D02*
X124229819Y-115165475D01*
X124229819Y-115165475D02*
X124277438Y-115070237D01*
X124277438Y-115070237D02*
X124372676Y-114974999D01*
X124372676Y-114974999D02*
X124563152Y-114927380D01*
X124563152Y-114927380D02*
X124896485Y-114927380D01*
X124896485Y-114927380D02*
X125086961Y-114974999D01*
X125086961Y-114974999D02*
X125182200Y-115070237D01*
X125182200Y-115070237D02*
X125229819Y-115165475D01*
X125229819Y-115165475D02*
X125229819Y-115355951D01*
X125229819Y-115355951D02*
X125182200Y-115451189D01*
X125182200Y-115451189D02*
X125086961Y-115546427D01*
X125086961Y-115546427D02*
X124896485Y-115594046D01*
X124896485Y-115594046D02*
X124563152Y-115594046D01*
X124563152Y-115594046D02*
X124372676Y-115546427D01*
X124372676Y-115546427D02*
X124277438Y-115451189D01*
X124277438Y-115451189D02*
X124229819Y-115355951D01*
X124563152Y-114070237D02*
X125229819Y-114070237D01*
X124563152Y-114498808D02*
X125086961Y-114498808D01*
X125086961Y-114498808D02*
X125182200Y-114451189D01*
X125182200Y-114451189D02*
X125229819Y-114355951D01*
X125229819Y-114355951D02*
X125229819Y-114213094D01*
X125229819Y-114213094D02*
X125182200Y-114117856D01*
X125182200Y-114117856D02*
X125134580Y-114070237D01*
X124563152Y-113736903D02*
X124563152Y-113355951D01*
X124229819Y-113594046D02*
X125086961Y-113594046D01*
X125086961Y-113594046D02*
X125182200Y-113546427D01*
X125182200Y-113546427D02*
X125229819Y-113451189D01*
X125229819Y-113451189D02*
X125229819Y-113355951D01*
X124325057Y-113070236D02*
X124277438Y-113022617D01*
X124277438Y-113022617D02*
X124229819Y-112927379D01*
X124229819Y-112927379D02*
X124229819Y-112689284D01*
X124229819Y-112689284D02*
X124277438Y-112594046D01*
X124277438Y-112594046D02*
X124325057Y-112546427D01*
X124325057Y-112546427D02*
X124420295Y-112498808D01*
X124420295Y-112498808D02*
X124515533Y-112498808D01*
X124515533Y-112498808D02*
X124658390Y-112546427D01*
X124658390Y-112546427D02*
X125229819Y-113117855D01*
X125229819Y-113117855D02*
X125229819Y-112498808D01*
X160399819Y-108551667D02*
X159733152Y-108551667D01*
X159923628Y-108551667D02*
X159828390Y-108504048D01*
X159828390Y-108504048D02*
X159780771Y-108456429D01*
X159780771Y-108456429D02*
X159733152Y-108361191D01*
X159733152Y-108361191D02*
X159733152Y-108265953D01*
X160352200Y-107551667D02*
X160399819Y-107646905D01*
X160399819Y-107646905D02*
X160399819Y-107837381D01*
X160399819Y-107837381D02*
X160352200Y-107932619D01*
X160352200Y-107932619D02*
X160256961Y-107980238D01*
X160256961Y-107980238D02*
X159876009Y-107980238D01*
X159876009Y-107980238D02*
X159780771Y-107932619D01*
X159780771Y-107932619D02*
X159733152Y-107837381D01*
X159733152Y-107837381D02*
X159733152Y-107646905D01*
X159733152Y-107646905D02*
X159780771Y-107551667D01*
X159780771Y-107551667D02*
X159876009Y-107504048D01*
X159876009Y-107504048D02*
X159971247Y-107504048D01*
X159971247Y-107504048D02*
X160066485Y-107980238D01*
X159733152Y-106646905D02*
X160542676Y-106646905D01*
X160542676Y-106646905D02*
X160637914Y-106694524D01*
X160637914Y-106694524D02*
X160685533Y-106742143D01*
X160685533Y-106742143D02*
X160733152Y-106837381D01*
X160733152Y-106837381D02*
X160733152Y-106980238D01*
X160733152Y-106980238D02*
X160685533Y-107075476D01*
X160352200Y-106646905D02*
X160399819Y-106742143D01*
X160399819Y-106742143D02*
X160399819Y-106932619D01*
X160399819Y-106932619D02*
X160352200Y-107027857D01*
X160352200Y-107027857D02*
X160304580Y-107075476D01*
X160304580Y-107075476D02*
X160209342Y-107123095D01*
X160209342Y-107123095D02*
X159923628Y-107123095D01*
X159923628Y-107123095D02*
X159828390Y-107075476D01*
X159828390Y-107075476D02*
X159780771Y-107027857D01*
X159780771Y-107027857D02*
X159733152Y-106932619D01*
X159733152Y-106932619D02*
X159733152Y-106742143D01*
X159733152Y-106742143D02*
X159780771Y-106646905D01*
X159733152Y-105742143D02*
X160399819Y-105742143D01*
X159733152Y-106170714D02*
X160256961Y-106170714D01*
X160256961Y-106170714D02*
X160352200Y-106123095D01*
X160352200Y-106123095D02*
X160399819Y-106027857D01*
X160399819Y-106027857D02*
X160399819Y-105885000D01*
X160399819Y-105885000D02*
X160352200Y-105789762D01*
X160352200Y-105789762D02*
X160304580Y-105742143D01*
X160399819Y-105123095D02*
X160352200Y-105218333D01*
X160352200Y-105218333D02*
X160256961Y-105265952D01*
X160256961Y-105265952D02*
X159399819Y-105265952D01*
X160399819Y-104313571D02*
X159876009Y-104313571D01*
X159876009Y-104313571D02*
X159780771Y-104361190D01*
X159780771Y-104361190D02*
X159733152Y-104456428D01*
X159733152Y-104456428D02*
X159733152Y-104646904D01*
X159733152Y-104646904D02*
X159780771Y-104742142D01*
X160352200Y-104313571D02*
X160399819Y-104408809D01*
X160399819Y-104408809D02*
X160399819Y-104646904D01*
X160399819Y-104646904D02*
X160352200Y-104742142D01*
X160352200Y-104742142D02*
X160256961Y-104789761D01*
X160256961Y-104789761D02*
X160161723Y-104789761D01*
X160161723Y-104789761D02*
X160066485Y-104742142D01*
X160066485Y-104742142D02*
X160018866Y-104646904D01*
X160018866Y-104646904D02*
X160018866Y-104408809D01*
X160018866Y-104408809D02*
X159971247Y-104313571D01*
X160399819Y-103408809D02*
X159399819Y-103408809D01*
X160352200Y-103408809D02*
X160399819Y-103504047D01*
X160399819Y-103504047D02*
X160399819Y-103694523D01*
X160399819Y-103694523D02*
X160352200Y-103789761D01*
X160352200Y-103789761D02*
X160304580Y-103837380D01*
X160304580Y-103837380D02*
X160209342Y-103884999D01*
X160209342Y-103884999D02*
X159923628Y-103884999D01*
X159923628Y-103884999D02*
X159828390Y-103837380D01*
X159828390Y-103837380D02*
X159780771Y-103789761D01*
X159780771Y-103789761D02*
X159733152Y-103694523D01*
X159733152Y-103694523D02*
X159733152Y-103504047D01*
X159733152Y-103504047D02*
X159780771Y-103408809D01*
X160399819Y-102789761D02*
X160352200Y-102884999D01*
X160352200Y-102884999D02*
X160304580Y-102932618D01*
X160304580Y-102932618D02*
X160209342Y-102980237D01*
X160209342Y-102980237D02*
X159923628Y-102980237D01*
X159923628Y-102980237D02*
X159828390Y-102932618D01*
X159828390Y-102932618D02*
X159780771Y-102884999D01*
X159780771Y-102884999D02*
X159733152Y-102789761D01*
X159733152Y-102789761D02*
X159733152Y-102646904D01*
X159733152Y-102646904D02*
X159780771Y-102551666D01*
X159780771Y-102551666D02*
X159828390Y-102504047D01*
X159828390Y-102504047D02*
X159923628Y-102456428D01*
X159923628Y-102456428D02*
X160209342Y-102456428D01*
X160209342Y-102456428D02*
X160304580Y-102504047D01*
X160304580Y-102504047D02*
X160352200Y-102551666D01*
X160352200Y-102551666D02*
X160399819Y-102646904D01*
X160399819Y-102646904D02*
X160399819Y-102789761D01*
X160399819Y-102027856D02*
X159733152Y-102027856D01*
X159923628Y-102027856D02*
X159828390Y-101980237D01*
X159828390Y-101980237D02*
X159780771Y-101932618D01*
X159780771Y-101932618D02*
X159733152Y-101837380D01*
X159733152Y-101837380D02*
X159733152Y-101742142D01*
X159399819Y-100932618D02*
X159399819Y-101408808D01*
X159399819Y-101408808D02*
X159876009Y-101456427D01*
X159876009Y-101456427D02*
X159828390Y-101408808D01*
X159828390Y-101408808D02*
X159780771Y-101313570D01*
X159780771Y-101313570D02*
X159780771Y-101075475D01*
X159780771Y-101075475D02*
X159828390Y-100980237D01*
X159828390Y-100980237D02*
X159876009Y-100932618D01*
X159876009Y-100932618D02*
X159971247Y-100884999D01*
X159971247Y-100884999D02*
X160209342Y-100884999D01*
X160209342Y-100884999D02*
X160304580Y-100932618D01*
X160304580Y-100932618D02*
X160352200Y-100980237D01*
X160352200Y-100980237D02*
X160399819Y-101075475D01*
X160399819Y-101075475D02*
X160399819Y-101313570D01*
X160399819Y-101313570D02*
X160352200Y-101408808D01*
X160352200Y-101408808D02*
X160304580Y-101456427D01*
X159733152Y-100551665D02*
X160399819Y-100313570D01*
X160399819Y-100313570D02*
X159733152Y-100075475D01*
X160399819Y-99170713D02*
X160399819Y-99742141D01*
X160399819Y-99456427D02*
X159399819Y-99456427D01*
X159399819Y-99456427D02*
X159542676Y-99551665D01*
X159542676Y-99551665D02*
X159637914Y-99646903D01*
X159637914Y-99646903D02*
X159685533Y-99742141D01*
D11*
X154531774Y-112212579D02*
X154600359Y-112235440D01*
X154600359Y-112235440D02*
X154714666Y-112235440D01*
X154714666Y-112235440D02*
X154760389Y-112212579D01*
X154760389Y-112212579D02*
X154783250Y-112189717D01*
X154783250Y-112189717D02*
X154806111Y-112143994D01*
X154806111Y-112143994D02*
X154806111Y-112098271D01*
X154806111Y-112098271D02*
X154783250Y-112052549D01*
X154783250Y-112052549D02*
X154760389Y-112029687D01*
X154760389Y-112029687D02*
X154714666Y-112006826D01*
X154714666Y-112006826D02*
X154623220Y-111983964D01*
X154623220Y-111983964D02*
X154577497Y-111961103D01*
X154577497Y-111961103D02*
X154554636Y-111938241D01*
X154554636Y-111938241D02*
X154531774Y-111892519D01*
X154531774Y-111892519D02*
X154531774Y-111846796D01*
X154531774Y-111846796D02*
X154554636Y-111801073D01*
X154554636Y-111801073D02*
X154577497Y-111778211D01*
X154577497Y-111778211D02*
X154623220Y-111755350D01*
X154623220Y-111755350D02*
X154737527Y-111755350D01*
X154737527Y-111755350D02*
X154806111Y-111778211D01*
X154966142Y-111915380D02*
X155057588Y-112235440D01*
X155057588Y-112235440D02*
X155149033Y-112006826D01*
X155149033Y-112006826D02*
X155240479Y-112235440D01*
X155240479Y-112235440D02*
X155331925Y-111915380D01*
X155514816Y-112235440D02*
X155514816Y-111915380D01*
X155514816Y-111755350D02*
X155491954Y-111778211D01*
X155491954Y-111778211D02*
X155514816Y-111801073D01*
X155514816Y-111801073D02*
X155537677Y-111778211D01*
X155537677Y-111778211D02*
X155514816Y-111755350D01*
X155514816Y-111755350D02*
X155514816Y-111801073D01*
X155674845Y-111915380D02*
X155857737Y-111915380D01*
X155743430Y-111755350D02*
X155743430Y-112166856D01*
X155743430Y-112166856D02*
X155766291Y-112212579D01*
X155766291Y-112212579D02*
X155812014Y-112235440D01*
X155812014Y-112235440D02*
X155857737Y-112235440D01*
X156223520Y-112212579D02*
X156177797Y-112235440D01*
X156177797Y-112235440D02*
X156086351Y-112235440D01*
X156086351Y-112235440D02*
X156040628Y-112212579D01*
X156040628Y-112212579D02*
X156017767Y-112189717D01*
X156017767Y-112189717D02*
X155994905Y-112143994D01*
X155994905Y-112143994D02*
X155994905Y-112006826D01*
X155994905Y-112006826D02*
X156017767Y-111961103D01*
X156017767Y-111961103D02*
X156040628Y-111938241D01*
X156040628Y-111938241D02*
X156086351Y-111915380D01*
X156086351Y-111915380D02*
X156177797Y-111915380D01*
X156177797Y-111915380D02*
X156223520Y-111938241D01*
X156429273Y-112235440D02*
X156429273Y-111755350D01*
X156635026Y-112235440D02*
X156635026Y-111983964D01*
X156635026Y-111983964D02*
X156612164Y-111938241D01*
X156612164Y-111938241D02*
X156566441Y-111915380D01*
X156566441Y-111915380D02*
X156497857Y-111915380D01*
X156497857Y-111915380D02*
X156452134Y-111938241D01*
X156452134Y-111938241D02*
X156429273Y-111961103D01*
X157115115Y-112235440D02*
X156840778Y-112235440D01*
X156977947Y-112235440D02*
X156977947Y-111755350D01*
X156977947Y-111755350D02*
X156932224Y-111823934D01*
X156932224Y-111823934D02*
X156886501Y-111869657D01*
X156886501Y-111869657D02*
X156840778Y-111892519D01*
D12*
%TO.C,regulador3V1*%
X130154000Y-98765000D02*
X130154000Y-109005000D01*
X133285000Y-98765000D02*
X133285000Y-109005000D01*
X134795000Y-98765000D02*
X130154000Y-98765000D01*
X134795000Y-98765000D02*
X134795000Y-109005000D01*
X134795000Y-102035000D02*
X133285000Y-102035000D01*
X134795000Y-105736000D02*
X133285000Y-105736000D01*
X134795000Y-109005000D02*
X130154000Y-109005000D01*
D13*
%TO.C,G\u002A\u002A\u002A*%
G36*
X149901826Y-108212101D02*
G01*
X150841176Y-108514181D01*
X152500210Y-109162858D01*
X154256292Y-109930646D01*
X155906618Y-110725275D01*
X157053282Y-111340533D01*
X158466561Y-112152279D01*
X157766614Y-112720135D01*
X157192741Y-113116239D01*
X156346772Y-113619954D01*
X155406671Y-114125607D01*
X155359230Y-114149628D01*
X153651794Y-115011267D01*
X151752662Y-113707367D01*
X150639718Y-112888122D01*
X149412892Y-111899865D01*
X148304737Y-110931394D01*
X148115606Y-110754597D01*
X146377680Y-109105725D01*
X147416665Y-108575675D01*
X148281105Y-108204432D01*
X149047095Y-108084361D01*
X149901826Y-108212101D01*
G37*
G36*
X145663383Y-111432605D02*
G01*
X146358823Y-111626482D01*
X147105798Y-112073546D01*
X147662628Y-112612350D01*
X147924082Y-113126240D01*
X147908549Y-113344429D01*
X147632329Y-113620947D01*
X146972163Y-114091336D01*
X145987041Y-114721758D01*
X144735951Y-115478374D01*
X143277884Y-116327345D01*
X141671829Y-117234834D01*
X139976774Y-118167002D01*
X138251710Y-119090010D01*
X136555626Y-119970020D01*
X135019672Y-120737947D01*
X133597157Y-121394583D01*
X132500374Y-121792501D01*
X131637517Y-121944471D01*
X130916781Y-121863265D01*
X130246363Y-121561654D01*
X130041808Y-121430429D01*
X129379971Y-120913689D01*
X129161472Y-120497139D01*
X129374962Y-120077737D01*
X129848097Y-119671720D01*
X130563535Y-119180381D01*
X131609516Y-118527800D01*
X132916750Y-117751678D01*
X134415943Y-116889719D01*
X136037804Y-115979626D01*
X137713040Y-115059102D01*
X139372359Y-114165849D01*
X140946469Y-113337570D01*
X142366077Y-112611969D01*
X143561892Y-112026748D01*
X144464621Y-111619611D01*
X144993851Y-111430691D01*
X145663383Y-111432605D01*
G37*
G36*
X146051599Y-87958305D02*
G01*
X146633157Y-88050615D01*
X146725141Y-88094195D01*
X146961301Y-88376055D01*
X146936152Y-88501303D01*
X146641815Y-88576871D01*
X145950318Y-88671063D01*
X144961630Y-88772412D01*
X143775721Y-88869450D01*
X143644538Y-88878872D01*
X140655501Y-89197205D01*
X137882911Y-89733538D01*
X135187534Y-90528228D01*
X132430140Y-91621627D01*
X129767987Y-92900805D01*
X126851314Y-94571906D01*
X124398564Y-96356383D01*
X122383828Y-98277556D01*
X120781201Y-100358748D01*
X120012483Y-101682698D01*
X119597886Y-102450465D01*
X119343339Y-102813854D01*
X119202842Y-102821902D01*
X119142397Y-102610259D01*
X119230512Y-101798735D01*
X119672000Y-100766553D01*
X120412996Y-99579764D01*
X121399638Y-98304420D01*
X122578061Y-97006571D01*
X123894404Y-95752269D01*
X125294802Y-94607565D01*
X126175210Y-93986106D01*
X129143850Y-92232338D01*
X132379297Y-90692733D01*
X135707061Y-89442046D01*
X138744895Y-88600784D01*
X139896006Y-88384364D01*
X141212751Y-88202858D01*
X142590908Y-88062883D01*
X143926250Y-87971055D01*
X145114555Y-87933990D01*
X146051599Y-87958305D01*
G37*
G36*
X169838393Y-98447367D02*
G01*
X170503113Y-98727006D01*
X170629284Y-98792319D01*
X171473749Y-99356733D01*
X171829908Y-99879951D01*
X171694532Y-100356705D01*
X171630093Y-100425378D01*
X171231497Y-100720692D01*
X170470905Y-101202617D01*
X169410950Y-101836773D01*
X168114264Y-102588783D01*
X166643480Y-103424269D01*
X165061230Y-104308853D01*
X163430146Y-105208158D01*
X161812861Y-106087806D01*
X160272007Y-106913419D01*
X158870217Y-107650619D01*
X157670123Y-108265029D01*
X156734357Y-108722270D01*
X156125553Y-108987964D01*
X155932132Y-109041703D01*
X155411280Y-108932702D01*
X154697499Y-108654516D01*
X153931822Y-108280373D01*
X153255283Y-107883498D01*
X152808915Y-107537119D01*
X152708823Y-107368107D01*
X152794754Y-107168190D01*
X153075918Y-106890197D01*
X153587374Y-106512596D01*
X154364182Y-106013859D01*
X155441401Y-105372455D01*
X156854090Y-104566854D01*
X158637309Y-103575526D01*
X160826116Y-102376940D01*
X160916455Y-102327728D01*
X163089974Y-101153283D01*
X164873819Y-100211728D01*
X166307990Y-99484107D01*
X167432482Y-98951466D01*
X168287294Y-98594849D01*
X168912423Y-98395301D01*
X169343986Y-98333860D01*
X169838393Y-98447367D01*
G37*
G36*
X148308831Y-95126620D02*
G01*
X149425578Y-95175189D01*
X150094118Y-95258100D01*
X151670641Y-95663501D01*
X152773964Y-96131805D01*
X153426679Y-96678683D01*
X153651382Y-97319805D01*
X153606894Y-97694374D01*
X153283009Y-98296430D01*
X152813118Y-98743534D01*
X152502703Y-98919842D01*
X152162080Y-99015818D01*
X151685813Y-99031610D01*
X150968463Y-98967368D01*
X149904592Y-98823241D01*
X149393052Y-98748373D01*
X148097885Y-98577618D01*
X146937245Y-98480656D01*
X145748934Y-98453156D01*
X144370751Y-98490790D01*
X142872549Y-98574319D01*
X141455709Y-98677407D01*
X140121284Y-98798249D01*
X138993141Y-98923980D01*
X138195145Y-99041733D01*
X138016667Y-99078704D01*
X135326190Y-99850689D01*
X132901631Y-100808653D01*
X130814064Y-101919153D01*
X129134563Y-103148749D01*
X128887334Y-103374217D01*
X128157998Y-104116733D01*
X127665059Y-104797300D01*
X127322182Y-105581780D01*
X127043031Y-106636040D01*
X126941872Y-107111801D01*
X126735465Y-107666180D01*
X126446976Y-107730134D01*
X126080043Y-107303846D01*
X125945610Y-107061913D01*
X125619398Y-106152469D01*
X125618189Y-105228383D01*
X125961795Y-104199123D01*
X126670026Y-102974157D01*
X126920577Y-102606359D01*
X128039050Y-101345161D01*
X129584233Y-100110080D01*
X131484875Y-98935899D01*
X133669723Y-97857398D01*
X136067525Y-96909362D01*
X138607027Y-96126570D01*
X141216978Y-95543806D01*
X141484567Y-95496938D01*
X142586371Y-95353005D01*
X143948235Y-95240442D01*
X145441624Y-95162813D01*
X146938001Y-95123684D01*
X148308831Y-95126620D01*
G37*
G36*
X132253494Y-83228193D02*
G01*
X132289329Y-83268310D01*
X132599186Y-83938835D01*
X132736056Y-84851710D01*
X132688907Y-85778314D01*
X132446709Y-86490027D01*
X132444911Y-86492781D01*
X132043766Y-86862206D01*
X131233222Y-87400186D01*
X130061084Y-88077763D01*
X128575155Y-88865984D01*
X128271374Y-89020763D01*
X125103019Y-90718762D01*
X122406304Y-92368508D01*
X120159207Y-93987626D01*
X118339705Y-95593740D01*
X116925774Y-97204474D01*
X115895392Y-98837452D01*
X115821963Y-98983584D01*
X115407561Y-99881307D01*
X115161624Y-100623455D01*
X115041128Y-101409497D01*
X115003050Y-102438901D01*
X115001312Y-102788388D01*
X115036148Y-104063104D01*
X115163626Y-105017384D01*
X115411356Y-105824570D01*
X115528296Y-106097213D01*
X116459682Y-107613043D01*
X117809168Y-109051016D01*
X119496830Y-110329582D01*
X119947257Y-110605979D01*
X120830161Y-111171394D01*
X121254998Y-111548129D01*
X121230056Y-111722307D01*
X120763621Y-111680052D01*
X119863980Y-111407489D01*
X119539129Y-111289338D01*
X117518434Y-110331666D01*
X115853569Y-109080460D01*
X114482368Y-107477363D01*
X113349602Y-105478853D01*
X112700363Y-103633498D01*
X112398783Y-101696142D01*
X112458069Y-99816507D01*
X112739197Y-98559483D01*
X113829909Y-95934559D01*
X115323984Y-93445085D01*
X116980561Y-91403800D01*
X118346842Y-90066489D01*
X119879960Y-88761687D01*
X121525780Y-87518164D01*
X123230167Y-86364687D01*
X124938987Y-85330025D01*
X126598107Y-84442946D01*
X128153391Y-83732219D01*
X129550706Y-83226612D01*
X130735918Y-82954893D01*
X131654892Y-82945831D01*
X132253494Y-83228193D01*
G37*
D12*
%TO.C,Vcc1*%
X163615000Y-100265000D02*
X163615000Y-107985000D01*
X163615000Y-107985000D02*
X167635000Y-107985000D01*
X164115000Y-100765000D02*
X165325000Y-100765000D01*
X164115000Y-107485000D02*
X164115000Y-100765000D01*
X165325000Y-100765000D02*
X165325000Y-100265000D01*
X165325000Y-107485000D02*
X164115000Y-107485000D01*
X165325000Y-107985000D02*
X165325000Y-107485000D01*
X165435000Y-108285000D02*
X167935000Y-108285000D01*
X166135000Y-100265000D02*
X166135000Y-101265000D01*
X166135000Y-101265000D02*
X167635000Y-101265000D01*
X166135000Y-106985000D02*
X167635000Y-106985000D01*
X166135000Y-107985000D02*
X166135000Y-106985000D01*
X167635000Y-100265000D02*
X163615000Y-100265000D01*
X167635000Y-107985000D02*
X167635000Y-100265000D01*
X167935000Y-108285000D02*
X167935000Y-105785000D01*
%TO.C,conectoOut1*%
X125140000Y-111565000D02*
X125140000Y-114065000D01*
X125440000Y-111865000D02*
X125440000Y-122085000D01*
X125440000Y-122085000D02*
X129460000Y-122085000D01*
X126940000Y-111865000D02*
X126940000Y-112865000D01*
X126940000Y-112865000D02*
X125440000Y-112865000D01*
X126940000Y-121085000D02*
X125440000Y-121085000D01*
X126940000Y-122085000D02*
X126940000Y-121085000D01*
X127640000Y-111565000D02*
X125140000Y-111565000D01*
X127750000Y-111865000D02*
X127750000Y-112365000D01*
X127750000Y-112365000D02*
X128960000Y-112365000D01*
X127750000Y-121585000D02*
X127750000Y-122085000D01*
X128960000Y-112365000D02*
X128960000Y-121585000D01*
X128960000Y-121585000D02*
X127750000Y-121585000D01*
X129460000Y-111865000D02*
X125440000Y-111865000D01*
X129460000Y-122085000D02*
X129460000Y-111865000D01*
%TO.C,cCeramicoDisco2*%
X146705000Y-95680000D02*
X146705000Y-100220000D01*
X146720000Y-95680000D02*
X146705000Y-95680000D01*
X146720000Y-100220000D02*
X146705000Y-100220000D01*
X148845000Y-95680000D02*
X148830000Y-95680000D01*
X148845000Y-95680000D02*
X148845000Y-100220000D01*
X148845000Y-100220000D02*
X148830000Y-100220000D01*
%TO.C,cElectrolitico1*%
X144245000Y-107300000D02*
G75*
G02*
X139005000Y-107300000I-2620000J0D01*
G01*
X139005000Y-107300000D02*
G75*
G02*
X144245000Y-107300000I2620000J0D01*
G01*
%TO.C,cCeramicoDisco1*%
X142105000Y-95680000D02*
X142105000Y-100220000D01*
X142120000Y-95680000D02*
X142105000Y-95680000D01*
X142120000Y-100220000D02*
X142105000Y-100220000D01*
X144245000Y-95680000D02*
X144230000Y-95680000D01*
X144245000Y-95680000D02*
X144245000Y-100220000D01*
X144245000Y-100220000D02*
X144230000Y-100220000D01*
%TO.C,CElectrolitico2*%
X150370000Y-107275000D02*
G75*
G02*
X145130000Y-107275000I-2620000J0D01*
G01*
X145130000Y-107275000D02*
G75*
G02*
X150370000Y-107275000I2620000J0D01*
G01*
%TO.C,conectoOut2*%
X119365000Y-111565000D02*
X119365000Y-114065000D01*
X119665000Y-111865000D02*
X119665000Y-122085000D01*
X119665000Y-122085000D02*
X123685000Y-122085000D01*
X121165000Y-111865000D02*
X121165000Y-112865000D01*
X121165000Y-112865000D02*
X119665000Y-112865000D01*
X121165000Y-121085000D02*
X119665000Y-121085000D01*
X121165000Y-122085000D02*
X121165000Y-121085000D01*
X121865000Y-111565000D02*
X119365000Y-111565000D01*
X121975000Y-111865000D02*
X121975000Y-112365000D01*
X121975000Y-112365000D02*
X123185000Y-112365000D01*
X121975000Y-121585000D02*
X121975000Y-122085000D01*
X123185000Y-112365000D02*
X123185000Y-121585000D01*
X123185000Y-121585000D02*
X121975000Y-121585000D01*
X123685000Y-111865000D02*
X119665000Y-111865000D01*
X123685000Y-122085000D02*
X123685000Y-111865000D01*
%TO.C,regulador5v1*%
X154304000Y-98765000D02*
X154304000Y-109005000D01*
X157435000Y-98765000D02*
X157435000Y-109005000D01*
X158945000Y-98765000D02*
X154304000Y-98765000D01*
X158945000Y-98765000D02*
X158945000Y-109005000D01*
X158945000Y-102035000D02*
X157435000Y-102035000D01*
X158945000Y-105736000D02*
X157435000Y-105736000D01*
X158945000Y-109005000D02*
X154304000Y-109005000D01*
D14*
%TO.C,Switch1*%
X154500000Y-113175000D02*
X154500000Y-113925000D01*
X154500000Y-116625000D02*
X154500000Y-117475000D01*
X154500000Y-117475000D02*
X163100000Y-117475000D01*
X163100000Y-113175000D02*
X154500000Y-113175000D01*
X163100000Y-113925000D02*
X163100000Y-113175000D01*
X163100000Y-117475000D02*
X163100000Y-116725000D01*
D15*
X153050000Y-115275000D02*
G75*
G02*
X152850000Y-115275000I-100000J0D01*
G01*
X152850000Y-115275000D02*
G75*
G02*
X153050000Y-115275000I100000J0D01*
G01*
%TD*%
M02*
