%TF.GenerationSoftware,KiCad,Pcbnew,8.0.4*%
%TF.CreationDate,2024-08-09T17:24:51-06:00*%
%TF.ProjectId,ePotencia,65506f74-656e-4636-9961-2e6b69636164,rev?*%
%TF.SameCoordinates,Original*%
%TF.FileFunction,Legend,Bot*%
%TF.FilePolarity,Positive*%
%FSLAX46Y46*%
G04 Gerber Fmt 4.6, Leading zero omitted, Abs format (unit mm)*
G04 Created by KiCad (PCBNEW 8.0.4) date 2024-08-09 17:24:51*
%MOMM*%
%LPD*%
G01*
G04 APERTURE LIST*
%ADD10C,0.250000*%
%ADD11C,0.500000*%
%ADD12C,1.000000*%
G04 APERTURE END LIST*
D10*
X137209524Y-124605352D02*
X137876190Y-124605352D01*
X137876190Y-124605352D02*
X137209524Y-123605352D01*
X137209524Y-123605352D02*
X137876190Y-123605352D01*
X138209524Y-123891067D02*
X138685714Y-123891067D01*
X138114286Y-123605352D02*
X138447619Y-124605352D01*
X138447619Y-124605352D02*
X138780952Y-123605352D01*
X139685714Y-123700591D02*
X139638095Y-123652972D01*
X139638095Y-123652972D02*
X139495238Y-123605352D01*
X139495238Y-123605352D02*
X139400000Y-123605352D01*
X139400000Y-123605352D02*
X139257143Y-123652972D01*
X139257143Y-123652972D02*
X139161905Y-123748210D01*
X139161905Y-123748210D02*
X139114286Y-123843448D01*
X139114286Y-123843448D02*
X139066667Y-124033924D01*
X139066667Y-124033924D02*
X139066667Y-124176781D01*
X139066667Y-124176781D02*
X139114286Y-124367257D01*
X139114286Y-124367257D02*
X139161905Y-124462495D01*
X139161905Y-124462495D02*
X139257143Y-124557733D01*
X139257143Y-124557733D02*
X139400000Y-124605352D01*
X139400000Y-124605352D02*
X139495238Y-124605352D01*
X139495238Y-124605352D02*
X139638095Y-124557733D01*
X139638095Y-124557733D02*
X139685714Y-124510114D01*
X140066667Y-123891067D02*
X140542857Y-123891067D01*
X139971429Y-123605352D02*
X140304762Y-124605352D01*
X140304762Y-124605352D02*
X140638095Y-123605352D01*
X140828572Y-124605352D02*
X141400000Y-124605352D01*
X141114286Y-123605352D02*
X141114286Y-124605352D01*
X141733334Y-124129162D02*
X142066667Y-124129162D01*
X142209524Y-123605352D02*
X141733334Y-123605352D01*
X141733334Y-123605352D02*
X141733334Y-124605352D01*
X141733334Y-124605352D02*
X142209524Y-124605352D01*
X143209524Y-123700591D02*
X143161905Y-123652972D01*
X143161905Y-123652972D02*
X143019048Y-123605352D01*
X143019048Y-123605352D02*
X142923810Y-123605352D01*
X142923810Y-123605352D02*
X142780953Y-123652972D01*
X142780953Y-123652972D02*
X142685715Y-123748210D01*
X142685715Y-123748210D02*
X142638096Y-123843448D01*
X142638096Y-123843448D02*
X142590477Y-124033924D01*
X142590477Y-124033924D02*
X142590477Y-124176781D01*
X142590477Y-124176781D02*
X142638096Y-124367257D01*
X142638096Y-124367257D02*
X142685715Y-124462495D01*
X142685715Y-124462495D02*
X142780953Y-124557733D01*
X142780953Y-124557733D02*
X142923810Y-124605352D01*
X142923810Y-124605352D02*
X143019048Y-124605352D01*
X143019048Y-124605352D02*
X143161905Y-124557733D01*
X143161905Y-124557733D02*
X143209524Y-124510114D01*
X143590477Y-123891067D02*
X144066667Y-123891067D01*
X143495239Y-123605352D02*
X143828572Y-124605352D01*
X143828572Y-124605352D02*
X144161905Y-123605352D01*
X144447620Y-123652972D02*
X144590477Y-123605352D01*
X144590477Y-123605352D02*
X144828572Y-123605352D01*
X144828572Y-123605352D02*
X144923810Y-123652972D01*
X144923810Y-123652972D02*
X144971429Y-123700591D01*
X144971429Y-123700591D02*
X145019048Y-123795829D01*
X145019048Y-123795829D02*
X145019048Y-123891067D01*
X145019048Y-123891067D02*
X144971429Y-123986305D01*
X144971429Y-123986305D02*
X144923810Y-124033924D01*
X144923810Y-124033924D02*
X144828572Y-124081543D01*
X144828572Y-124081543D02*
X144638096Y-124129162D01*
X144638096Y-124129162D02*
X144542858Y-124176781D01*
X144542858Y-124176781D02*
X144495239Y-124224400D01*
X144495239Y-124224400D02*
X144447620Y-124319638D01*
X144447620Y-124319638D02*
X144447620Y-124414876D01*
X144447620Y-124414876D02*
X144495239Y-124510114D01*
X144495239Y-124510114D02*
X144542858Y-124557733D01*
X144542858Y-124557733D02*
X144638096Y-124605352D01*
X144638096Y-124605352D02*
X144876191Y-124605352D01*
X144876191Y-124605352D02*
X145019048Y-124557733D01*
X145495239Y-123652972D02*
X145495239Y-123605352D01*
X145495239Y-123605352D02*
X145447620Y-123510114D01*
X145447620Y-123510114D02*
X145400001Y-123462495D01*
X146590477Y-124605352D02*
X147257143Y-124605352D01*
X147257143Y-124605352D02*
X146590477Y-123605352D01*
X146590477Y-123605352D02*
X147257143Y-123605352D01*
X147590477Y-123891067D02*
X148066667Y-123891067D01*
X147495239Y-123605352D02*
X147828572Y-124605352D01*
X147828572Y-124605352D02*
X148161905Y-123605352D01*
X149066667Y-123700591D02*
X149019048Y-123652972D01*
X149019048Y-123652972D02*
X148876191Y-123605352D01*
X148876191Y-123605352D02*
X148780953Y-123605352D01*
X148780953Y-123605352D02*
X148638096Y-123652972D01*
X148638096Y-123652972D02*
X148542858Y-123748210D01*
X148542858Y-123748210D02*
X148495239Y-123843448D01*
X148495239Y-123843448D02*
X148447620Y-124033924D01*
X148447620Y-124033924D02*
X148447620Y-124176781D01*
X148447620Y-124176781D02*
X148495239Y-124367257D01*
X148495239Y-124367257D02*
X148542858Y-124462495D01*
X148542858Y-124462495D02*
X148638096Y-124557733D01*
X148638096Y-124557733D02*
X148780953Y-124605352D01*
X148780953Y-124605352D02*
X148876191Y-124605352D01*
X148876191Y-124605352D02*
X149019048Y-124557733D01*
X149019048Y-124557733D02*
X149066667Y-124510114D01*
X149495239Y-123700591D02*
X149542858Y-123652972D01*
X149542858Y-123652972D02*
X149495239Y-123605352D01*
X149495239Y-123605352D02*
X149447620Y-123652972D01*
X149447620Y-123652972D02*
X149495239Y-123700591D01*
X149495239Y-123700591D02*
X149495239Y-123605352D01*
X136614286Y-121995408D02*
X136614286Y-122995408D01*
X136614286Y-122519218D02*
X137185714Y-122519218D01*
X137185714Y-121995408D02*
X137185714Y-122995408D01*
X137661905Y-122519218D02*
X137995238Y-122519218D01*
X138138095Y-121995408D02*
X137661905Y-121995408D01*
X137661905Y-121995408D02*
X137661905Y-122995408D01*
X137661905Y-122995408D02*
X138138095Y-122995408D01*
X139138095Y-122090647D02*
X139090476Y-122043028D01*
X139090476Y-122043028D02*
X138947619Y-121995408D01*
X138947619Y-121995408D02*
X138852381Y-121995408D01*
X138852381Y-121995408D02*
X138709524Y-122043028D01*
X138709524Y-122043028D02*
X138614286Y-122138266D01*
X138614286Y-122138266D02*
X138566667Y-122233504D01*
X138566667Y-122233504D02*
X138519048Y-122423980D01*
X138519048Y-122423980D02*
X138519048Y-122566837D01*
X138519048Y-122566837D02*
X138566667Y-122757313D01*
X138566667Y-122757313D02*
X138614286Y-122852551D01*
X138614286Y-122852551D02*
X138709524Y-122947789D01*
X138709524Y-122947789D02*
X138852381Y-122995408D01*
X138852381Y-122995408D02*
X138947619Y-122995408D01*
X138947619Y-122995408D02*
X139090476Y-122947789D01*
X139090476Y-122947789D02*
X139138095Y-122900170D01*
X139566667Y-121995408D02*
X139566667Y-122995408D01*
X139566667Y-122519218D02*
X140138095Y-122519218D01*
X140138095Y-121995408D02*
X140138095Y-122995408D01*
X140804762Y-122995408D02*
X140995238Y-122995408D01*
X140995238Y-122995408D02*
X141090476Y-122947789D01*
X141090476Y-122947789D02*
X141185714Y-122852551D01*
X141185714Y-122852551D02*
X141233333Y-122662075D01*
X141233333Y-122662075D02*
X141233333Y-122328742D01*
X141233333Y-122328742D02*
X141185714Y-122138266D01*
X141185714Y-122138266D02*
X141090476Y-122043028D01*
X141090476Y-122043028D02*
X140995238Y-121995408D01*
X140995238Y-121995408D02*
X140804762Y-121995408D01*
X140804762Y-121995408D02*
X140709524Y-122043028D01*
X140709524Y-122043028D02*
X140614286Y-122138266D01*
X140614286Y-122138266D02*
X140566667Y-122328742D01*
X140566667Y-122328742D02*
X140566667Y-122662075D01*
X140566667Y-122662075D02*
X140614286Y-122852551D01*
X140614286Y-122852551D02*
X140709524Y-122947789D01*
X140709524Y-122947789D02*
X140804762Y-122995408D01*
X142423810Y-122519218D02*
X142757143Y-122519218D01*
X142900000Y-121995408D02*
X142423810Y-121995408D01*
X142423810Y-121995408D02*
X142423810Y-122995408D01*
X142423810Y-122995408D02*
X142900000Y-122995408D01*
X143328572Y-121995408D02*
X143328572Y-122995408D01*
X143328572Y-122995408D02*
X143900000Y-121995408D01*
X143900000Y-121995408D02*
X143900000Y-122995408D01*
X145138096Y-121995408D02*
X145138096Y-122995408D01*
X145138096Y-122995408D02*
X145471429Y-122281123D01*
X145471429Y-122281123D02*
X145804762Y-122995408D01*
X145804762Y-122995408D02*
X145804762Y-121995408D01*
X146280953Y-122519218D02*
X146614286Y-122519218D01*
X146757143Y-121995408D02*
X146280953Y-121995408D01*
X146280953Y-121995408D02*
X146280953Y-122995408D01*
X146280953Y-122995408D02*
X146757143Y-122995408D01*
X146614286Y-123376361D02*
X146471429Y-123233504D01*
X147090477Y-122995408D02*
X147757143Y-121995408D01*
X147757143Y-122995408D02*
X147090477Y-121995408D01*
X148138096Y-121995408D02*
X148138096Y-122995408D01*
X149185714Y-122090647D02*
X149138095Y-122043028D01*
X149138095Y-122043028D02*
X148995238Y-121995408D01*
X148995238Y-121995408D02*
X148900000Y-121995408D01*
X148900000Y-121995408D02*
X148757143Y-122043028D01*
X148757143Y-122043028D02*
X148661905Y-122138266D01*
X148661905Y-122138266D02*
X148614286Y-122233504D01*
X148614286Y-122233504D02*
X148566667Y-122423980D01*
X148566667Y-122423980D02*
X148566667Y-122566837D01*
X148566667Y-122566837D02*
X148614286Y-122757313D01*
X148614286Y-122757313D02*
X148661905Y-122852551D01*
X148661905Y-122852551D02*
X148757143Y-122947789D01*
X148757143Y-122947789D02*
X148900000Y-122995408D01*
X148900000Y-122995408D02*
X148995238Y-122995408D01*
X148995238Y-122995408D02*
X149138095Y-122947789D01*
X149138095Y-122947789D02*
X149185714Y-122900170D01*
X149804762Y-122995408D02*
X149995238Y-122995408D01*
X149995238Y-122995408D02*
X150090476Y-122947789D01*
X150090476Y-122947789D02*
X150185714Y-122852551D01*
X150185714Y-122852551D02*
X150233333Y-122662075D01*
X150233333Y-122662075D02*
X150233333Y-122328742D01*
X150233333Y-122328742D02*
X150185714Y-122138266D01*
X150185714Y-122138266D02*
X150090476Y-122043028D01*
X150090476Y-122043028D02*
X149995238Y-121995408D01*
X149995238Y-121995408D02*
X149804762Y-121995408D01*
X149804762Y-121995408D02*
X149709524Y-122043028D01*
X149709524Y-122043028D02*
X149614286Y-122138266D01*
X149614286Y-122138266D02*
X149566667Y-122328742D01*
X149566667Y-122328742D02*
X149566667Y-122662075D01*
X149566667Y-122662075D02*
X149614286Y-122852551D01*
X149614286Y-122852551D02*
X149709524Y-122947789D01*
X149709524Y-122947789D02*
X149804762Y-122995408D01*
D11*
X114966238Y-106643174D02*
X114871000Y-106738412D01*
X114871000Y-106738412D02*
X114775761Y-107024126D01*
X114775761Y-107024126D02*
X114775761Y-107214602D01*
X114775761Y-107214602D02*
X114871000Y-107500317D01*
X114871000Y-107500317D02*
X115061476Y-107690793D01*
X115061476Y-107690793D02*
X115251952Y-107786031D01*
X115251952Y-107786031D02*
X115632904Y-107881269D01*
X115632904Y-107881269D02*
X115918619Y-107881269D01*
X115918619Y-107881269D02*
X116299571Y-107786031D01*
X116299571Y-107786031D02*
X116490047Y-107690793D01*
X116490047Y-107690793D02*
X116680523Y-107500317D01*
X116680523Y-107500317D02*
X116775761Y-107214602D01*
X116775761Y-107214602D02*
X116775761Y-107024126D01*
X116775761Y-107024126D02*
X116680523Y-106738412D01*
X116680523Y-106738412D02*
X116585285Y-106643174D01*
X116775761Y-105405079D02*
X116775761Y-105024126D01*
X116775761Y-105024126D02*
X116680523Y-104833650D01*
X116680523Y-104833650D02*
X116490047Y-104643174D01*
X116490047Y-104643174D02*
X116109095Y-104547936D01*
X116109095Y-104547936D02*
X115442428Y-104547936D01*
X115442428Y-104547936D02*
X115061476Y-104643174D01*
X115061476Y-104643174D02*
X114871000Y-104833650D01*
X114871000Y-104833650D02*
X114775761Y-105024126D01*
X114775761Y-105024126D02*
X114775761Y-105405079D01*
X114775761Y-105405079D02*
X114871000Y-105595555D01*
X114871000Y-105595555D02*
X115061476Y-105786031D01*
X115061476Y-105786031D02*
X115442428Y-105881269D01*
X115442428Y-105881269D02*
X116109095Y-105881269D01*
X116109095Y-105881269D02*
X116490047Y-105786031D01*
X116490047Y-105786031D02*
X116680523Y-105595555D01*
X116680523Y-105595555D02*
X116775761Y-105405079D01*
X116775761Y-103881269D02*
X116775761Y-102547936D01*
X116775761Y-102547936D02*
X114775761Y-103881269D01*
X114775761Y-103881269D02*
X114775761Y-102547936D01*
X114966238Y-100643174D02*
X114871000Y-100738412D01*
X114871000Y-100738412D02*
X114775761Y-101024126D01*
X114775761Y-101024126D02*
X114775761Y-101214602D01*
X114775761Y-101214602D02*
X114871000Y-101500317D01*
X114871000Y-101500317D02*
X115061476Y-101690793D01*
X115061476Y-101690793D02*
X115251952Y-101786031D01*
X115251952Y-101786031D02*
X115632904Y-101881269D01*
X115632904Y-101881269D02*
X115918619Y-101881269D01*
X115918619Y-101881269D02*
X116299571Y-101786031D01*
X116299571Y-101786031D02*
X116490047Y-101690793D01*
X116490047Y-101690793D02*
X116680523Y-101500317D01*
X116680523Y-101500317D02*
X116775761Y-101214602D01*
X116775761Y-101214602D02*
X116775761Y-101024126D01*
X116775761Y-101024126D02*
X116680523Y-100738412D01*
X116680523Y-100738412D02*
X116585285Y-100643174D01*
X115728142Y-99405079D02*
X114775761Y-99405079D01*
X116775761Y-100071745D02*
X115728142Y-99405079D01*
X115728142Y-99405079D02*
X116775761Y-98738412D01*
X116775761Y-98357459D02*
X116775761Y-97214602D01*
X114775761Y-97786031D02*
X116775761Y-97786031D01*
D12*
X126685715Y-87747252D02*
X126495239Y-87556776D01*
X126495239Y-87556776D02*
X125923810Y-87366299D01*
X125923810Y-87366299D02*
X125542858Y-87366299D01*
X125542858Y-87366299D02*
X124971429Y-87556776D01*
X124971429Y-87556776D02*
X124590477Y-87937728D01*
X124590477Y-87937728D02*
X124400000Y-88318680D01*
X124400000Y-88318680D02*
X124209524Y-89080585D01*
X124209524Y-89080585D02*
X124209524Y-89652014D01*
X124209524Y-89652014D02*
X124400000Y-90413918D01*
X124400000Y-90413918D02*
X124590477Y-90794871D01*
X124590477Y-90794871D02*
X124971429Y-91175823D01*
X124971429Y-91175823D02*
X125542858Y-91366299D01*
X125542858Y-91366299D02*
X125923810Y-91366299D01*
X125923810Y-91366299D02*
X126495239Y-91175823D01*
X126495239Y-91175823D02*
X126685715Y-90985347D01*
X128209524Y-88509156D02*
X130114286Y-88509156D01*
X127828572Y-87366299D02*
X129161905Y-91366299D01*
X129161905Y-91366299D02*
X130495239Y-87366299D01*
X131828571Y-87366299D02*
X131828571Y-91366299D01*
X131828571Y-91366299D02*
X134114286Y-87366299D01*
X134114286Y-87366299D02*
X134114286Y-91366299D01*
X135828571Y-87556776D02*
X136400000Y-87366299D01*
X136400000Y-87366299D02*
X137352381Y-87366299D01*
X137352381Y-87366299D02*
X137733333Y-87556776D01*
X137733333Y-87556776D02*
X137923809Y-87747252D01*
X137923809Y-87747252D02*
X138114286Y-88128204D01*
X138114286Y-88128204D02*
X138114286Y-88509156D01*
X138114286Y-88509156D02*
X137923809Y-88890109D01*
X137923809Y-88890109D02*
X137733333Y-89080585D01*
X137733333Y-89080585D02*
X137352381Y-89271061D01*
X137352381Y-89271061D02*
X136590476Y-89461537D01*
X136590476Y-89461537D02*
X136209524Y-89652014D01*
X136209524Y-89652014D02*
X136019047Y-89842490D01*
X136019047Y-89842490D02*
X135828571Y-90223442D01*
X135828571Y-90223442D02*
X135828571Y-90604395D01*
X135828571Y-90604395D02*
X136019047Y-90985347D01*
X136019047Y-90985347D02*
X136209524Y-91175823D01*
X136209524Y-91175823D02*
X136590476Y-91366299D01*
X136590476Y-91366299D02*
X137542857Y-91366299D01*
X137542857Y-91366299D02*
X138114286Y-91175823D01*
X139638095Y-88509156D02*
X141542857Y-88509156D01*
X139257143Y-87366299D02*
X140590476Y-91366299D01*
X140590476Y-91366299D02*
X141923810Y-87366299D01*
X142685714Y-91366299D02*
X144971428Y-91366299D01*
X143828571Y-87366299D02*
X143828571Y-91366299D01*
X148780952Y-91366299D02*
X150114285Y-87366299D01*
X150114285Y-87366299D02*
X151447619Y-91366299D01*
X154876190Y-87366299D02*
X152590475Y-87366299D01*
X153733332Y-87366299D02*
X153733332Y-91366299D01*
X153733332Y-91366299D02*
X153352380Y-90794871D01*
X153352380Y-90794871D02*
X152971428Y-90413918D01*
X152971428Y-90413918D02*
X152590475Y-90223442D01*
X156590475Y-87747252D02*
X156780952Y-87556776D01*
X156780952Y-87556776D02*
X156590475Y-87366299D01*
X156590475Y-87366299D02*
X156399999Y-87556776D01*
X156399999Y-87556776D02*
X156590475Y-87747252D01*
X156590475Y-87747252D02*
X156590475Y-87366299D01*
X159257142Y-91366299D02*
X159638095Y-91366299D01*
X159638095Y-91366299D02*
X160019047Y-91175823D01*
X160019047Y-91175823D02*
X160209523Y-90985347D01*
X160209523Y-90985347D02*
X160399999Y-90604395D01*
X160399999Y-90604395D02*
X160590476Y-89842490D01*
X160590476Y-89842490D02*
X160590476Y-88890109D01*
X160590476Y-88890109D02*
X160399999Y-88128204D01*
X160399999Y-88128204D02*
X160209523Y-87747252D01*
X160209523Y-87747252D02*
X160019047Y-87556776D01*
X160019047Y-87556776D02*
X159638095Y-87366299D01*
X159638095Y-87366299D02*
X159257142Y-87366299D01*
X159257142Y-87366299D02*
X158876190Y-87556776D01*
X158876190Y-87556776D02*
X158685714Y-87747252D01*
X158685714Y-87747252D02*
X158495237Y-88128204D01*
X158495237Y-88128204D02*
X158304761Y-88890109D01*
X158304761Y-88890109D02*
X158304761Y-89842490D01*
X158304761Y-89842490D02*
X158495237Y-90604395D01*
X158495237Y-90604395D02*
X158685714Y-90985347D01*
X158685714Y-90985347D02*
X158876190Y-91175823D01*
X158876190Y-91175823D02*
X159257142Y-91366299D01*
X137352381Y-81307476D02*
X137161905Y-81117000D01*
X137161905Y-81117000D02*
X136590476Y-80926523D01*
X136590476Y-80926523D02*
X136209524Y-80926523D01*
X136209524Y-80926523D02*
X135638095Y-81117000D01*
X135638095Y-81117000D02*
X135257143Y-81497952D01*
X135257143Y-81497952D02*
X135066666Y-81878904D01*
X135066666Y-81878904D02*
X134876190Y-82640809D01*
X134876190Y-82640809D02*
X134876190Y-83212238D01*
X134876190Y-83212238D02*
X135066666Y-83974142D01*
X135066666Y-83974142D02*
X135257143Y-84355095D01*
X135257143Y-84355095D02*
X135638095Y-84736047D01*
X135638095Y-84736047D02*
X136209524Y-84926523D01*
X136209524Y-84926523D02*
X136590476Y-84926523D01*
X136590476Y-84926523D02*
X137161905Y-84736047D01*
X137161905Y-84736047D02*
X137352381Y-84545571D01*
X139066666Y-80926523D02*
X139066666Y-84926523D01*
X140971428Y-80926523D02*
X140971428Y-84926523D01*
X140971428Y-84926523D02*
X141923809Y-84926523D01*
X141923809Y-84926523D02*
X142495238Y-84736047D01*
X142495238Y-84736047D02*
X142876190Y-84355095D01*
X142876190Y-84355095D02*
X143066667Y-83974142D01*
X143066667Y-83974142D02*
X143257143Y-83212238D01*
X143257143Y-83212238D02*
X143257143Y-82640809D01*
X143257143Y-82640809D02*
X143066667Y-81878904D01*
X143066667Y-81878904D02*
X142876190Y-81497952D01*
X142876190Y-81497952D02*
X142495238Y-81117000D01*
X142495238Y-81117000D02*
X141923809Y-80926523D01*
X141923809Y-80926523D02*
X140971428Y-80926523D01*
X144400000Y-84926523D02*
X146685714Y-84926523D01*
X145542857Y-80926523D02*
X145542857Y-84926523D01*
X148019047Y-83021761D02*
X149352381Y-83021761D01*
X149923809Y-80926523D02*
X148019047Y-80926523D01*
X148019047Y-80926523D02*
X148019047Y-84926523D01*
X148019047Y-84926523D02*
X149923809Y-84926523D01*
X129161904Y-75629604D02*
X131066666Y-75629604D01*
X128780952Y-74486747D02*
X130114285Y-78486747D01*
X130114285Y-78486747D02*
X131447619Y-74486747D01*
X132780951Y-76581985D02*
X134114285Y-76581985D01*
X134685713Y-74486747D02*
X132780951Y-74486747D01*
X132780951Y-74486747D02*
X132780951Y-78486747D01*
X132780951Y-78486747D02*
X134685713Y-78486747D01*
X136399999Y-74486747D02*
X136399999Y-78486747D01*
X136399999Y-78486747D02*
X137733333Y-75629604D01*
X137733333Y-75629604D02*
X139066666Y-78486747D01*
X139066666Y-78486747D02*
X139066666Y-74486747D01*
X140971428Y-76010557D02*
X144019048Y-76010557D01*
X145923809Y-78486747D02*
X145923809Y-75248652D01*
X145923809Y-75248652D02*
X146114286Y-74867700D01*
X146114286Y-74867700D02*
X146304762Y-74677224D01*
X146304762Y-74677224D02*
X146685714Y-74486747D01*
X146685714Y-74486747D02*
X147447619Y-74486747D01*
X147447619Y-74486747D02*
X147828571Y-74677224D01*
X147828571Y-74677224D02*
X148019048Y-74867700D01*
X148019048Y-74867700D02*
X148209524Y-75248652D01*
X148209524Y-75248652D02*
X148209524Y-78486747D01*
X149923809Y-75629604D02*
X151828571Y-75629604D01*
X149542857Y-74486747D02*
X150876190Y-78486747D01*
X150876190Y-78486747D02*
X152209524Y-74486747D01*
X153161904Y-78486747D02*
X155828571Y-78486747D01*
X155828571Y-78486747D02*
X153161904Y-74486747D01*
X153161904Y-74486747D02*
X155828571Y-74486747D01*
M02*
